<?xml version="1.0" encoding="utf-8"?>
<!-- Generator: Adobe Illustrator 22.1.0, SVG Export Plug-In . SVG Version: 6.00 Build 0)  -->
<svg version="1.1" id="Layer_1" xmlns="http://www.w3.org/2000/svg" xmlns:xlink="http://www.w3.org/1999/xlink" x="0px" y="0px"
	 viewBox="0 0 101 207" style="enable-background:new 0 0 101 207;" xml:space="preserve">
<style type="text/css">
	.st0{fill:#F1F2F2;}
	.st1{fill:url(#XMLID_2_);}
	.st2{fill:url(#XMLID_3_);}
	.st3{opacity:0.49;}
	.st4{opacity:0;fill:#FFFFFF;}
	.st5{opacity:2.439000e-02;fill:#FBFBFB;}
	.st6{opacity:4.878000e-02;fill:#F6F6F8;}
	.st7{opacity:7.317100e-02;fill:#F2F2F4;}
	.st8{opacity:9.756100e-02;fill:#EDEDF0;}
	.st9{opacity:0.122;fill:#E9E9ED;}
	.st10{opacity:0.1463;fill:#E4E4E9;}
	.st11{opacity:0.1707;fill:#E0E0E6;}
	.st12{opacity:0.1951;fill:#DBDBE2;}
	.st13{opacity:0.2195;fill:#D7D7DE;}
	.st14{opacity:0.2439;fill:#D2D2DB;}
	.st15{opacity:0.2683;fill:#CECED7;}
	.st16{opacity:0.2927;fill:#C9C9D3;}
	.st17{opacity:0.3171;fill:#C5C5D0;}
	.st18{opacity:0.3415;fill:#C1C1CC;}
	.st19{opacity:0.3659;fill:#BCBCC8;}
	.st20{opacity:0.3902;fill:#B8B8C5;}
	.st21{opacity:0.4146;fill:#B3B3C1;}
	.st22{opacity:0.439;fill:#AFAFBE;}
	.st23{opacity:0.4634;fill:#AAAABA;}
	.st24{opacity:0.4878;fill:#A6A6B6;}
	.st25{opacity:0.5122;fill:#A1A1B3;}
	.st26{opacity:0.5366;fill:#9D9DAF;}
	.st27{opacity:0.561;fill:#9898AB;}
	.st28{opacity:0.5854;fill:#9494A8;}
	.st29{opacity:0.6098;fill:#8F8FA4;}
	.st30{opacity:0.6341;fill:#8B8BA1;}
	.st31{opacity:0.6585;fill:#86869D;}
	.st32{opacity:0.6829;fill:#828299;}
	.st33{opacity:0.7073;fill:#7E7E96;}
	.st34{opacity:0.7317;fill:#797992;}
	.st35{opacity:0.7561;fill:#75758E;}
	.st36{opacity:0.7805;fill:#70708B;}
	.st37{opacity:0.8049;fill:#6C6C87;}
	.st38{opacity:0.8293;fill:#676783;}
	.st39{opacity:0.8537;fill:#636380;}
	.st40{opacity:0.878;fill:#5E5E7C;}
	.st41{opacity:0.9024;fill:#5A5A79;}
	.st42{opacity:0.9268;fill:#555575;}
	.st43{opacity:0.9512;fill:#515171;}
	.st44{opacity:0.9756;fill:#4C4C6E;}
	.st45{fill:#8BC53F;}
	.st46{fill:#009F36;}
</style>
<g id="XMLID_738_">
	<polygon id="XMLID_741_" class="st0" points="8.1,48.9 49.5,25 91,48.9 49.5,72.8 	"/>
	<linearGradient id="XMLID_2_" gradientUnits="userSpaceOnUse" x1="-2.153511e-02" y1="177.8033" x2="58.5243" y2="76.3626">
		<stop  offset="0.3042" style="stop-color:#FFFFFF"/>
		<stop  offset="1" style="stop-color:#EFF2F9"/>
	</linearGradient>
	<polygon id="XMLID_740_" class="st1" points="8.1,48.9 8.1,182.8 49.5,206.8 49.5,72.8 	"/>
	<linearGradient id="XMLID_3_" gradientUnits="userSpaceOnUse" x1="97.5257" y1="185.4752" x2="46.4081" y2="77.4314">
		<stop  offset="0.2776" style="stop-color:#FFFFFF"/>
		<stop  offset="1" style="stop-color:#E7EBF5"/>
	</linearGradient>
	<polygon id="XMLID_739_" class="st2" points="49.5,206.8 91,182.8 91,48.9 49.5,72.8 	"/>
</g>
<g class="st3">
	<polygon id="XMLID_320_" class="st4" points="36.3,43.1 58.6,55.7 45.9,62.8 23.6,50.2 	"/>
	<polygon class="st5" points="36.3,43.1 58.6,55.7 46.1,62.7 23.8,50.1 	"/>
	<polygon class="st6" points="36.3,43.1 58.6,55.7 46.4,62.6 24.1,49.9 	"/>
	<polygon class="st7" points="36.3,43.1 58.6,55.7 46.6,62.4 24.3,49.8 	"/>
	<polygon class="st8" points="36.3,43.1 58.6,55.7 46.8,62.3 24.6,49.7 	"/>
	<polygon class="st9" points="36.3,43.1 58.6,55.7 47.1,62.1 24.8,49.5 	"/>
	<polygon class="st10" points="36.3,43.1 58.6,55.7 47.3,62 25.1,49.4 	"/>
	<polygon class="st11" points="36.3,43.1 58.6,55.7 47.6,61.9 25.3,49.2 	"/>
	<polygon class="st12" points="36.3,43.1 58.6,55.7 47.8,61.7 25.5,49.1 	"/>
	<polygon class="st13" points="36.3,43.1 58.6,55.7 48.1,61.6 25.8,49 	"/>
	<polygon class="st14" points="36.3,43.1 58.6,55.7 48.3,61.5 26,48.8 	"/>
	<polygon class="st15" points="36.3,43.1 58.6,55.7 48.6,61.3 26.3,48.7 	"/>
	<polygon class="st16" points="36.3,43.1 58.6,55.7 48.8,61.2 26.5,48.6 	"/>
	<polygon class="st17" points="36.3,43.1 58.6,55.7 49,61 26.8,48.4 	"/>
	<polygon class="st18" points="36.3,43.1 58.6,55.7 49.3,60.9 27,48.3 	"/>
	<polygon class="st19" points="36.3,43.1 58.6,55.7 49.5,60.8 27.3,48.1 	"/>
	<polygon class="st20" points="36.3,43.1 58.6,55.7 49.8,60.6 27.5,48 	"/>
	<polygon class="st21" points="36.3,43.1 58.6,55.7 50,60.5 27.7,47.9 	"/>
	<polygon class="st22" points="36.3,43.1 58.6,55.7 50.3,60.4 28,47.7 	"/>
	<polygon class="st23" points="36.3,43.1 58.6,55.7 50.5,60.2 28.2,47.6 	"/>
	<polygon class="st24" points="36.3,43.1 58.6,55.7 50.8,60.1 28.5,47.5 	"/>
	<polygon class="st25" points="36.3,43.1 58.6,55.7 51,59.9 28.7,47.3 	"/>
	<polygon class="st26" points="36.3,43.1 58.6,55.7 51.2,59.8 29,47.2 	"/>
	<polygon class="st27" points="36.3,43.1 58.6,55.7 51.5,59.7 29.2,47 	"/>
	<polygon class="st28" points="36.3,43.1 58.6,55.7 51.7,59.5 29.5,46.9 	"/>
	<polygon class="st29" points="36.3,43.1 58.6,55.7 52,59.4 29.7,46.8 	"/>
	<polygon class="st30" points="36.3,43.1 58.6,55.7 52.2,59.2 29.9,46.6 	"/>
	<polygon class="st31" points="36.3,43.1 58.6,55.7 52.5,59.1 30.2,46.5 	"/>
	<polygon class="st32" points="36.3,43.1 58.6,55.7 52.7,59 30.4,46.3 	"/>
	<polygon class="st33" points="36.3,43.1 58.6,55.7 53,58.8 30.7,46.2 	"/>
	<polygon class="st34" points="36.3,43.1 58.6,55.7 53.2,58.7 30.9,46.1 	"/>
	<polygon class="st35" points="36.3,43.1 58.6,55.7 53.4,58.6 31.2,45.9 	"/>
	<polygon class="st36" points="36.3,43.1 58.6,55.7 53.7,58.4 31.4,45.8 	"/>
	<polygon class="st37" points="36.3,43.1 58.6,55.7 53.9,58.3 31.6,45.7 	"/>
	<polygon class="st38" points="36.3,43.1 58.6,55.7 54.2,58.1 31.9,45.5 	"/>
	<polygon class="st39" points="36.3,43.1 58.6,55.7 54.4,58 32.1,45.4 	"/>
	<polygon class="st40" points="36.3,43.1 58.6,55.7 54.7,57.9 32.4,45.2 	"/>
	<polygon class="st41" points="36.3,43.1 58.6,55.7 54.9,57.7 32.6,45.1 	"/>
	<polygon class="st42" points="36.3,43.1 58.6,55.7 55.1,57.6 32.9,45 	"/>
	<polygon class="st43" points="36.3,43.1 58.6,55.7 55.4,57.5 33.1,44.8 	"/>
	<polygon class="st44" points="36.3,43.1 58.6,55.7 55.6,57.3 33.4,44.7 	"/>
	<polygon id="XMLID_319_" class="st45" points="36.3,43.1 58.6,55.7 55.9,57.2 33.6,44.6 	"/>
</g>
<polygon id="XMLID_318_" class="st46" points="33.5,5.7 38,6.9 41.1,3.8 42.4,16.2 33.5,15.9 "/>
<polygon id="XMLID_317_" class="st45" points="41.1,3.8 44.7,38.6 67.2,51.5 63.3,17.1 "/>
<polygon id="XMLID_316_" class="st46" points="33.5,5.7 33.5,44.6 56,57.6 56,18.7 "/>
<polygon id="XMLID_315_" class="st46" points="56,18.7 58.1,17.1 63.3,17.1 67.2,51.5 61.6,53.4 56,57.6 "/>
<path id="XMLID_314_" class="st45" d="M37.7,15c-0.5-0.3-0.8,0-0.8,0.5c0,0.5,0.4,1.2,0.8,1.4c0.5,0.3,0.8,0,0.8-0.5
	C38.6,15.9,38.2,15.3,37.7,15z"/>
<path id="XMLID_313_" class="st45" d="M49.9,22.1c-0.5-0.3-0.8,0-0.8,0.5s0.4,1.2,0.8,1.4c0.5,0.3,0.8,0,0.8-0.5
	C50.7,23,50.3,22.4,49.9,22.1z"/>
<g id="XMLID_311_">
	<path id="XMLID_312_" class="st45" d="M45.7,34.6c-0.8,0-1.6-0.2-2.3-0.6c-3.8-2.2-6.1-6.2-6.1-10.5V16c0-0.2,0.2-0.4,0.4-0.4
		c0.2,0,0.4,0.2,0.4,0.4v7.4c0,4.1,2.2,7.9,5.7,9.9c1.2,0.7,2.6,0.7,3.8,0c1.2-0.7,1.9-1.9,1.9-3.3v-7c0-0.2,0.2-0.4,0.4-0.4
		c0.2,0,0.4,0.2,0.4,0.4v7c0,1.6-0.8,3.1-2.3,3.9C47.3,34.4,46.5,34.6,45.7,34.6z"/>
</g>
</svg>
