<?xml version="1.0" encoding="iso-8859-1"?>
<!-- Generator: Adobe Illustrator 19.2.1, SVG Export Plug-In . SVG Version: 6.00 Build 0)  -->
<svg version="1.1" xmlns="http://www.w3.org/2000/svg" xmlns:xlink="http://www.w3.org/1999/xlink" x="0px" y="0px"
	 viewBox="0 0 490 405" style="enable-background:new 0 0 490 405;" xml:space="preserve">
<g>
	<g>
		<g>
			<path d="M278.438,288.7c0,4.908,3.837,8.758,8.733,8.758c4.859,0,8.696-3.85,8.696-8.758c0-4.946-3.837-8.759-8.696-8.759
				C282.275,279.942,278.438,283.754,278.438,288.7"/>
		</g>
		<g>
			<path d="M324.219,317.405l-0.549,0.318l-1.091-3.115c-0.411-1.084-1.37-1.781-2.516-1.781h-5.632
				c-1.458,0-2.635,1.177-2.635,2.642v72.378c0,1.427,1.177,2.61,2.635,2.61h10.104c1.477,0,2.623-1.184,2.623-2.61v-58.557
				l0.33-0.148c4.155-2.137,8.379-3.495,16.576-3.495c9.786,0,11.785,3.7,11.785,9.65v52.551c0,1.427,1.165,2.61,2.636,2.61h10.103
				c1.44,0,2.642-1.184,2.642-2.61v-52.108c0-15.94-9.393-24.35-27.166-24.35C337.435,311.387,330.777,313.411,324.219,317.405"/>
		</g>
		<g>
			<path d="M294.684,315.468c0-1.465-1.171-2.642-2.653-2.642h-9.792c-1.458,0-2.68,1.177-2.68,2.642v72.34
				c0,1.489,1.222,2.648,2.68,2.648h9.792c1.482,0,2.653-1.159,2.653-2.648V315.468z"/>
		</g>
		<g>
			<path d="M261.115,279.299c0-1.444-1.158-2.678-2.654-2.678h-9.816c-1.421,0-2.636,1.233-2.636,2.678v108.509
				c0,1.465,1.215,2.648,2.636,2.648h9.816c1.496,0,2.654-1.184,2.654-2.648V279.299z"/>
		</g>
		<g>
			<path d="M94.15,351.678c0,9.948,0,40.241,32.984,40.241c9.892,0,16.377-0.585,24.911-3.32c0.978-0.323,1.514-1.363,1.514-2.416
				v-8.13c0-0.891-0.417-1.75-1.184-2.217c-0.71-0.486-1.594-0.412-2.491-0.243c-7.382,1.569-13.249,2.03-22.749,2.03
				c-13.754,0-16.427-8.684-17.292-18.108l-0.075-0.561h44.795c1.452,0,2.61-1.209,2.61-2.66v-4.616
				c0-19.51-2.311-40.291-30.038-40.291C94.15,311.387,94.15,341.699,94.15,351.678 M109.767,344.832
				c0.76-9.992,3.383-19.187,17.368-19.187c11.991,0,14.34,6.472,14.595,19.205v0.518h-32L109.767,344.832z"/>
		</g>
		<g>
			<path d="M169.064,351.678c0,9.948,0,40.241,32.96,40.241c9.886,0,16.39-0.585,24.923-3.32c0.96-0.323,1.552-1.363,1.552-2.416
				v-8.13c0-0.891-0.418-1.75-1.203-2.217c-0.717-0.486-1.601-0.412-2.455-0.243c-7.425,1.569-13.287,2.03-22.818,2.03
				c-13.723,0-16.408-8.684-17.274-18.108l-0.037-0.561h44.776c1.445,0,2.629-1.209,2.629-2.66v-4.616
				c0-19.51-2.355-40.291-30.094-40.291C169.064,311.387,169.064,341.699,169.064,351.678 M184.712,344.832
				c0.723-9.992,3.364-19.187,17.311-19.187c11.998,0,14.34,6.472,14.633,19.205l0.013,0.518H184.65L184.712,344.832z"/>
		</g>
		<g>
			<path d="M384.517,351.678c0,9.948,0,40.241,32.996,40.241c9.868,0,16.371-0.585,24.893-3.32c0.985-0.323,1.57-1.363,1.57-2.416
				v-8.13c0-0.891-0.443-1.75-1.228-2.217c-0.685-0.486-1.581-0.412-2.448-0.243c-7.382,1.569-13.286,2.03-22.787,2.03
				c-13.734,0-16.414-8.684-17.292-18.108l-0.069-0.561h44.795c1.446,0,2.63-1.209,2.63-2.66v-4.616
				c0-19.51-2.317-40.291-30.064-40.291C384.517,311.387,384.517,341.699,384.517,351.678 M400.152,344.832
				c0.755-9.992,3.396-19.187,17.361-19.187c12.011,0,14.328,6.472,14.602,19.205v0.518h-32.012L400.152,344.832z"/>
		</g>
		<g>
			<path d="M9.207,276.247c-1.557,0-2.828,1.259-2.828,2.828V387.64c0,1.582,1.271,2.816,2.828,2.816h35.227
				c25.21,0,39.101-11.867,39.101-33.347c0-11.741-5.625-21.708-15.075-26.724c0,0-0.23-0.144-0.448-0.262
				c0.174-0.124,0.423-0.273,0.423-0.273c7.282-5.357,11.505-13.387,11.505-22.121c0-11.741-4.753-31.482-36.529-31.482H9.207z
				 M44.154,291.485c16.42,0,18.657,7.806,18.657,16.245c0,10.752-5.706,15.985-17.498,15.985H22.302v-32.23H44.154z
				 M45.313,338.964c15.591,0,21.099,4.74,21.099,18.146c0,8.958-2.504,18.135-21.385,18.135H22.302v-36.28H45.313z"/>
		</g>
	</g>
	<g>
		<path style="fill:#F9CB35;" d="M139.382,204.804c31.701,0.872,67.65,1.707,87.727,1.707c19.996,0,55.466-0.822,86.855-1.689
			c12.639-14.04,21.97-31.146,26.736-50.077h-228.05C117.423,173.663,126.73,190.762,139.382,204.804z"/>
	</g>
	<g>
		<path d="M139.382,204.804c21.522,23.883,52.669,38.902,87.304,38.902c34.629,0,65.763-15.001,87.279-38.884
			c-31.39,0.866-66.859,1.689-86.855,1.689C207.032,206.511,171.082,205.676,139.382,204.804z"/>
	</g>
	<g>
		<path d="M109.088,125.866c0,9.961,1.24,19.635,3.563,28.879h228.05c2.316-9.245,3.568-18.918,3.568-28.879
			c0-9.967-1.252-19.635-3.568-28.873h-228.05C110.328,106.231,109.088,115.899,109.088,125.866z"/>
	</g>
	<g>
		<path d="M313.965,46.915c-21.517-23.883-52.65-38.896-87.279-38.896c-34.635,0-65.782,15.013-87.304,38.914
			c31.701-0.872,67.65-1.707,87.727-1.707C247.105,45.227,282.575,46.056,313.965,46.915z"/>
	</g>
	<g>
		<path style="fill:#F9CB35;" d="M227.109,45.227c-20.078,0-56.027,0.835-87.727,1.707c-12.652,14.035-21.959,31.141-26.73,50.059
			h228.05c-4.767-18.918-14.098-36.031-26.736-50.078C282.575,46.056,247.105,45.227,227.109,45.227z"/>
	</g>
	<g>
		<path d="M460.09,274.625h-5.643v16.859h-3.999v-16.859h-5.615v-3.082h15.257V274.625z"/>
		<path d="M467.541,271.543l5.081,14.696h0.082l5.122-14.696h5.232v19.941h-3.999v-5.944l0.383-8.806l-0.082-0.014l-5.341,14.764
			h-2.685l-5.314-14.709l-0.082,0.014l0.384,8.751v5.944h-4v-19.941H467.541z"/>
	</g>
</g>
</svg>
