<?xml version="1.0" encoding="utf-8"?>
<!-- Generator: Adobe Illustrator 22.1.0, SVG Export Plug-In . SVG Version: 6.00 Build 0)  -->
<svg version="1.1" id="Layer_1" xmlns="http://www.w3.org/2000/svg" xmlns:xlink="http://www.w3.org/1999/xlink" x="0px" y="0px"
	 viewBox="0 0 226 197" style="enable-background:new 0 0 226 197;" xml:space="preserve">
<style type="text/css">
	.st0{opacity:0.3;}
	.st1{fill:#212121;}
	.st2{fill:#E3E8EC;}
	.st3{fill:url(#SVGID_1_);}
	.st4{opacity:0.7;fill:#009836;}
	.st5{opacity:0.2;fill:#009836;}
	.st6{fill:#009836;}
	.st7{opacity:0.4;fill:#009836;}
	.st8{opacity:0.5;fill:#C58C67;}
	.st9{fill:url(#SVGID_2_);}
	.st10{fill:url(#SVGID_3_);}
	.st11{fill:#8BC53F;}
	.st12{opacity:0.2;fill:#A48656;}
	.st13{opacity:0.5;fill:#DFA736;}
	.st14{fill:#ECECEC;}
	.st15{fill:#CBCBCB;}
</style>
<g class="st0">
	<polygon class="st1" points="142,150.6 67.8,193.8 5.1,157.6 79.3,114.4 	"/>
</g>
<g>
	<g>
		<g>
			<polygon class="st2" points="221.1,39.3 220.9,91.1 128.6,144.7 128.8,93 			"/>
		</g>
		<g>
			<linearGradient id="SVGID_1_" gradientUnits="userSpaceOnUse" x1="69.4254" y1="101.7653" x2="128.7565" y2="101.7653">
				<stop  offset="0" style="stop-color:#C6CBCD"/>
				<stop  offset="0.5516" style="stop-color:#ADB2B3"/>
				<stop  offset="1" style="stop-color:#9DA2A3"/>
			</linearGradient>
			<polygon class="st3" points="128.8,93 128.6,144.7 69.4,110.6 69.6,58.8 			"/>
		</g>
		<g>
			<polygon class="st2" points="221.1,39.3 128.8,93 69.6,58.8 161.9,5.1 			"/>
		</g>
	</g>
	<g>
		<polygon class="st4" points="186.5,19.2 93.7,72.8 93.7,84.9 100.6,88.8 100.6,76.6 193.3,23.1 		"/>
		<polygon class="st5" points="97.5,74.9 190.2,21.4 189.3,21 96.7,74.4 		"/>
		<g>
			<polygon class="st6" points="217,61.9 192.5,76.1 192.5,60.5 217,46.4 			"/>
			<path class="st7" d="M159.9,107.3l-24,13.8V119l24-13.8V107.3z M156.6,111.5l-17.3,10v0.8l17.3-10V111.5z M156.6,114.1l-17.3,10
				v0.8l17.3-10V114.1z M156.6,116.7l-17.3,10v0.8l17.3-10V116.7z M156.6,119.4l-17.3,10v0.8l17.3-10V119.4z M156.6,122l-17.3,10
				v0.8l17.3-10V122z"/>
			<path class="st7" d="M213.6,50.6l-17.3,10v0.8l17.3-10V50.6z M213.6,53.2l-17.3,10V64l17.3-10V53.2z M213.6,55.9l-17.3,10v0.8
				l17.3-10V55.9z M213.6,58.5l-17.3,10v0.8l17.3-10V58.5z M213.6,61.1l-17.3,10v0.8l17.3-10V61.1z"/>
		</g>
	</g>
	<polygon class="st8" points="93.7,72.8 93.7,84.9 100.6,88.8 100.6,76.6 	"/>
	<g>
		<path class="st6" d="M135.9,94.5c-0.5,1.1-1.5,2-2.4,2c-0.8,0-1.1-0.9-0.6-2c0.5-1.1,1.5-2,2.4-2
			C136.1,92.5,136.3,93.4,135.9,94.5z"/>
		<path class="st6" d="M142.2,90.9c-0.5,1.1-1.5,2-2.4,2c-0.8,0-1.1-0.9-0.6-2c0.5-1.1,1.5-2,2.4-2S142.6,89.8,142.2,90.9z"/>
		<path class="st6" d="M148.4,87.3c-0.5,1.1-1.5,2-2.4,2c-0.8,0-1.1-0.9-0.6-2c0.5-1.1,1.5-2,2.4-2
			C148.6,85.3,148.9,86.2,148.4,87.3z"/>
	</g>
</g>
<g>
	<g>
		<linearGradient id="SVGID_2_" gradientUnits="userSpaceOnUse" x1="78.8818" y1="165.6848" x2="143.5856" y2="165.6848">
			<stop  offset="0" style="stop-color:#6CB541"/>
			<stop  offset="1" style="stop-color:#8AC650"/>
		</linearGradient>
		<polygon class="st9" points="78.9,183.9 78.9,185.1 143.6,147.5 143.6,146.3 		"/>
		<linearGradient id="SVGID_3_" gradientUnits="userSpaceOnUse" x1="62.059" y1="117.6925" x2="94.9141" y2="174.599">
			<stop  offset="0" style="stop-color:#6CB541"/>
			<stop  offset="1" style="stop-color:#8AC650"/>
		</linearGradient>
		<path class="st10" d="M131.3,133c-0.4-0.4-0.8-0.8-1.3-1.1c-9.4-5.4-31.3-18.1-38.5-22.2c-0.4-0.2-0.9-0.4-1.2-0.4
			c-2.1-0.1-9-0.3-12.3-0.9L13.4,146c3.3,0.6,10.2,0.8,12.3,0.9c0.4,0,0.8,0.1,1.2,0.4c7.1,4.1,29.1,16.8,38.5,22.2
			c0.4,0.3,0.9,0.6,1.3,1.1c2,2.3,8.9,10,12.2,13.3l64.7-37.6C140.2,143,133.4,135.3,131.3,133z"/>
		<path class="st11" d="M66.6,170.6c-0.4-0.4-0.8-0.8-1.3-1.1c-9.4-5.4-31.3-18.1-38.5-22.2c-0.4-0.2-0.9-0.4-1.2-0.4
			c-2.1-0.1-9-0.3-12.3-0.9l0,1.3c3.3,3.2,10.2,11,12.2,13.3c0.4,0.4,0.8,0.8,1.2,1c13.9,8.1,25.5,14.7,38.5,22.2
			c0.4,0.3,0.9,0.4,1.3,0.4c2.1,0.1,8.9,0.3,12.3,0.9l0-1.3C75.5,180.6,68.7,172.9,66.6,170.6z"/>
	</g>
	<path class="st12" d="M67.5,178c-2.8-1.7-6.1-3.7-9.7-5.8c-3.6-2.1-7.4-4.4-11.2-6.6c-3.8-2.2-7.6-4.4-11.2-6.5
		c-3.6-2.1-6.9-4-9.8-5.6c-5.8-3.2-9.6-5.4-9.6-5.4s3.8,2.3,9.4,5.8c2.8,1.7,6.1,3.7,9.7,5.8c3.6,2.1,7.4,4.4,11.2,6.6
		c3.8,2.2,7.6,4.4,11.2,6.5c3.6,2.1,6.9,4,9.8,5.6c5.8,3.2,9.6,5.4,9.6,5.4S73.1,181.5,67.5,178z"/>
	<g>
		<path class="st13" d="M80,133.9c-0.4,0-0.8-0.1-1-0.3l-9.2-5.3c-0.4-0.2-0.6-0.5-0.6-0.9c0-0.3,0.2-0.7,0.6-0.9L91,114.3
			c0.3-0.2,0.7-0.3,1-0.3c0.4,0,0.8,0.1,1,0.3l9.2,5.3c0.4,0.2,0.6,0.5,0.6,0.9c0,0.3-0.2,0.7-0.6,0.9L81,133.6
			C80.7,133.8,80.4,133.9,80,133.9z"/>
		<path class="st14" d="M102,120.9l-21.3,12.3c-0.4,0.3-1.2,0.3-1.6,0l-9.2-5.3c-0.4-0.3-0.4-0.7,0-0.9l21.3-12.3
			c0.4-0.3,1.2-0.3,1.6,0l9.2,5.3C102.5,120.3,102.5,120.7,102,120.9z"/>
		<polygon class="st15" points="85,121.1 73.4,127.8 72.8,127.4 84.4,120.7 		"/>
		<polygon class="st15" points="94.2,117.7 75.1,128.7 74.5,128.4 93.6,117.3 		"/>
		<polygon class="st15" points="95.8,118.6 76.7,129.7 76.1,129.3 95.2,118.3 		"/>
		<polygon class="st15" points="97.5,119.6 78.4,130.6 77.8,130.3 96.9,119.2 		"/>
		<polygon class="st15" points="99.1,120.5 80,131.6 79.4,131.2 98.5,120.2 		"/>
	</g>
</g>
</svg>
