<?xml version="1.0" encoding="utf-8"?>
<!-- Generator: Adobe Illustrator 22.1.0, SVG Export Plug-In . SVG Version: 6.00 Build 0)  -->
<svg version="1.1" id="Layer_1" xmlns="http://www.w3.org/2000/svg" xmlns:xlink="http://www.w3.org/1999/xlink" x="0px" y="0px"
	 viewBox="0 0 92 118" style="enable-background:new 0 0 92 118;" xml:space="preserve">
<style type="text/css">
	.st0{fill:#009F36;}
	.st1{fill:#BCBEC0;}
	.st2{fill:#FAFAFA;}
</style>
<g>
	<path class="st0" d="M79.9,77.4c0-0.1,0-0.3,0-0.4c0-0.3,0-0.6,0-0.9c0-0.1,0-0.3,0-0.4c0-0.3,0-0.6-0.1-0.9c0-0.1,0-0.3,0-0.4
		c0-0.4-0.1-0.8-0.1-1.2l0,0c0,0,0,0,0-0.1c0-0.4-0.1-0.8-0.1-1.2c0-0.1,0-0.3-0.1-0.4c0-0.3-0.1-0.6-0.1-0.9c0-0.1,0-0.3-0.1-0.4
		c-0.1-0.4-0.1-0.8-0.2-1.1c0-0.1,0-0.1,0-0.2c-0.1-0.4-0.2-0.9-0.2-1.3c0-0.1-0.1-0.3-0.1-0.4c-0.1-0.3-0.1-0.6-0.2-1
		c0-0.1-0.1-0.3-0.1-0.4c-0.1-0.3-0.2-0.7-0.2-1c0-0.1,0-0.2-0.1-0.3c-0.1-0.4-0.2-0.9-0.3-1.3c0-0.1-0.1-0.2-0.1-0.3
		c-0.1-0.3-0.2-0.7-0.3-1c0-0.1,0-0.1-0.1-0.2c0-0.1,0-0.2-0.1-0.2c-0.1-0.3-0.2-0.6-0.3-1c0-0.1-0.1-0.3-0.1-0.4
		c-0.1-0.4-0.3-0.9-0.4-1.3c0,0,0-0.1,0-0.1c-0.1-0.4-0.3-0.8-0.4-1.2c0-0.1-0.1-0.3-0.1-0.4c-0.1-0.3-0.2-0.6-0.3-0.9
		c-0.1-0.1-0.1-0.3-0.2-0.4c-0.1-0.4-0.3-0.7-0.4-1.1c0-0.1-0.1-0.2-0.1-0.3c-0.2-0.4-0.4-0.9-0.5-1.3c0-0.1-0.1-0.2-0.1-0.4
		c-0.1-0.3-0.3-0.7-0.4-1c-0.1-0.1-0.1-0.3-0.2-0.4c-0.1-0.3-0.3-0.6-0.4-1c0-0.1-0.1-0.2-0.1-0.3c0-0.1-0.1-0.1-0.1-0.2
		c-0.1-0.1-0.1-0.2-0.2-0.3c-0.1-0.2-0.2-0.5-0.3-0.7c-0.1-0.1-0.1-0.2-0.2-0.3c-0.1-0.3-0.3-0.5-0.4-0.8c0-0.1-0.1-0.2-0.1-0.2
		c-0.2-0.3-0.3-0.7-0.5-1c0-0.1-0.1-0.2-0.1-0.3c-0.1-0.3-0.3-0.5-0.4-0.8c-0.1-0.1-0.1-0.2-0.2-0.3c-0.1-0.2-0.3-0.5-0.4-0.7
		C70,44,70,43.9,69.9,43.8c-0.2-0.3-0.4-0.7-0.6-1c-0.2-0.4-0.5-0.8-0.7-1.2c-0.1-0.1-0.2-0.3-0.2-0.4c-0.2-0.3-0.3-0.6-0.5-0.8
		c-0.1-0.1-0.2-0.3-0.3-0.4c-0.2-0.3-0.3-0.5-0.5-0.8c-0.1-0.1-0.2-0.3-0.3-0.4c-0.2-0.3-0.4-0.5-0.5-0.8c-0.1-0.1-0.2-0.2-0.2-0.4
		c-0.3-0.4-0.5-0.8-0.8-1.2c0,0,0,0,0-0.1c-0.3-0.4-0.5-0.7-0.8-1.1c-0.1-0.1-0.2-0.2-0.3-0.4c-0.2-0.3-0.4-0.5-0.6-0.8
		c-0.1-0.1-0.2-0.3-0.3-0.4c-0.2-0.2-0.4-0.5-0.5-0.7c-0.1-0.1-0.1-0.2-0.2-0.2c-0.1-0.1-0.1-0.1-0.2-0.2c-0.1-0.1-0.2-0.2-0.2-0.3
		c-0.2-0.2-0.3-0.4-0.5-0.6c-0.1-0.1-0.1-0.2-0.2-0.3c-0.2-0.3-0.5-0.6-0.7-0.9c0,0,0,0,0,0c-0.2-0.3-0.5-0.5-0.7-0.8
		c-0.1-0.1-0.2-0.2-0.2-0.3c-0.2-0.2-0.3-0.4-0.5-0.6c-0.1-0.1-0.2-0.2-0.3-0.3c-0.2-0.2-0.4-0.4-0.5-0.6c-0.1-0.1-0.1-0.2-0.2-0.2
		c-0.2-0.3-0.5-0.5-0.7-0.8c0,0-0.1-0.1-0.1-0.1c-0.2-0.2-0.4-0.4-0.6-0.7c-0.1-0.1-0.2-0.2-0.2-0.3c-0.2-0.2-0.4-0.4-0.5-0.5
		c-0.1-0.1-0.2-0.2-0.3-0.3c-0.2-0.2-0.4-0.4-0.6-0.6c-0.1-0.1-0.1-0.1-0.2-0.2c-0.3-0.2-0.5-0.5-0.8-0.7c-0.1-0.1-0.1-0.1-0.2-0.2
		c-0.2-0.2-0.4-0.4-0.6-0.6c-0.1-0.1-0.2-0.2-0.3-0.2c-0.2-0.2-0.4-0.3-0.5-0.5c-0.1-0.1-0.2-0.2-0.3-0.2c0,0-0.1-0.1-0.1-0.1
		c-0.1-0.1-0.2-0.1-0.2-0.2c-0.2-0.2-0.4-0.4-0.7-0.5c-0.1-0.1-0.2-0.2-0.4-0.3c-0.2-0.2-0.4-0.4-0.7-0.5c-0.1-0.1-0.2-0.2-0.3-0.3
		c-0.3-0.2-0.5-0.4-0.8-0.6c-0.1-0.1-0.1-0.1-0.2-0.2c-0.3-0.2-0.7-0.5-1-0.7c-0.1-0.1-0.2-0.1-0.3-0.2c-0.2-0.2-0.5-0.3-0.7-0.5
		c-0.1-0.1-0.2-0.2-0.4-0.2c-0.2-0.1-0.4-0.3-0.7-0.4c-0.1-0.1-0.2-0.2-0.4-0.2c-0.2-0.1-0.5-0.3-0.7-0.4c-0.1-0.1-0.2-0.1-0.3-0.2
		c-0.3-0.2-0.7-0.4-1-0.6c-0.3-0.2-0.6-0.3-0.8-0.5c-0.1,0-0.2-0.1-0.3-0.1c-0.2-0.1-0.4-0.2-0.6-0.3c-0.1,0-0.2-0.1-0.3-0.1
		c-0.2-0.1-0.4-0.2-0.7-0.3c-0.1,0-0.1-0.1-0.2-0.1c-0.3-0.1-0.5-0.3-0.8-0.4c-0.1,0-0.1-0.1-0.2-0.1c-0.2-0.1-0.4-0.2-0.6-0.3
		c-0.1,0-0.2-0.1-0.3-0.1c-0.2-0.1-0.4-0.2-0.6-0.3c-0.1,0-0.1-0.1-0.2-0.1c0,0-0.1,0-0.1,0c-0.2-0.1-0.5-0.2-0.7-0.3
		c-0.1,0-0.1,0-0.2-0.1c-0.2-0.1-0.5-0.2-0.7-0.3c0,0-0.1,0-0.1,0c-0.3-0.1-0.5-0.2-0.8-0.3c-0.1,0-0.1,0-0.2-0.1
		c-0.3-0.1-0.5-0.2-0.8-0.2c0,0,0,0,0,0c-0.3-0.1-0.5-0.1-0.8-0.2c-0.1,0-0.1,0-0.2,0c-0.3-0.1-0.5-0.1-0.8-0.2c0,0-0.1,0-0.1,0
		c-0.2-0.1-0.5-0.1-0.7-0.1c-0.1,0-0.1,0-0.2,0c-0.2,0-0.5-0.1-0.7-0.1c0,0-0.1,0-0.1,0c-0.2,0-0.4-0.1-0.6-0.1c0,0-0.1,0-0.1,0
		c-0.2,0-0.5-0.1-0.7-0.1c-0.1,0-0.1,0-0.2,0c-0.1,0-0.2,0-0.3,0c-0.1,0-0.2,0-0.4,0c0,0-0.1,0-0.1,0c-0.2,0-0.5,0-0.7,0
		c-0.1,0-0.1,0-0.2,0c-0.2,0-0.4,0-0.6,0c0,0,0,0-0.1,0c-0.2,0-0.5,0-0.7,0c-0.1,0-0.1,0-0.2,0c-0.2,0-0.5,0-0.7,0c0,0,0,0,0,0
		c-0.2,0-0.5,0-0.7,0.1c-0.1,0-0.1,0-0.2,0c-0.2,0-0.5,0.1-0.7,0.1c0,0,0,0,0,0c-0.2,0-0.4,0.1-0.6,0.1c-0.1,0-0.1,0-0.2,0
		c-0.2,0-0.4,0.1-0.6,0.1c0,0-0.1,0-0.1,0c-0.2,0-0.4,0.1-0.6,0.1c0,0-0.1,0-0.1,0c-0.2,0.1-0.4,0.1-0.6,0.2c0,0,0,0-0.1,0
		c0,0-0.1,0-0.1,0c-0.2,0.1-0.4,0.1-0.6,0.2c0,0-0.1,0-0.1,0c-0.2,0.1-0.4,0.2-0.6,0.2c0,0-0.1,0-0.1,0.1c-0.2,0.1-0.4,0.2-0.5,0.2
		c0,0-0.1,0-0.1,0c-0.2,0.1-0.4,0.2-0.6,0.3c0,0-0.1,0-0.1,0.1c-0.2,0.1-0.4,0.2-0.6,0.3l-3.9,2.3c0.2-0.1,0.4-0.2,0.6-0.3
		c0,0,0.1,0,0.1-0.1c0.2-0.1,0.4-0.2,0.6-0.3c0,0,0.1,0,0.1,0c0.2-0.1,0.4-0.2,0.5-0.2c0,0,0.1,0,0.1-0.1c0.2-0.1,0.4-0.2,0.6-0.2
		c0,0,0.1,0,0.1,0c0.2-0.1,0.4-0.1,0.6-0.2c0,0,0.1,0,0.1,0c0.2-0.1,0.4-0.1,0.6-0.2c0,0,0.1,0,0.1,0c0.2-0.1,0.4-0.1,0.6-0.1
		c0,0,0.1,0,0.1,0c0.2,0,0.4-0.1,0.6-0.1c0.1,0,0.1,0,0.2,0c0.2,0,0.4-0.1,0.6-0.1c0,0,0,0,0,0c0.2,0,0.4-0.1,0.7-0.1
		c0.1,0,0.1,0,0.2,0c0.2,0,0.5,0,0.7-0.1c0,0,0,0,0,0c0.2,0,0.4,0,0.7,0c0.1,0,0.1,0,0.2,0c0.2,0,0.5,0,0.7,0c0,0,0,0,0.1,0
		c0.2,0,0.4,0,0.6,0c0.1,0,0.1,0,0.2,0c0.2,0,0.5,0,0.7,0c0,0,0.1,0,0.1,0c0.2,0,0.4,0,0.6,0.1c0.1,0,0.1,0,0.2,0
		c0.2,0,0.5,0.1,0.7,0.1c0,0,0.1,0,0.1,0c0.2,0,0.4,0.1,0.6,0.1c0,0,0.1,0,0.1,0c0.2,0,0.5,0.1,0.7,0.1c0.1,0,0.1,0,0.2,0
		c0.2,0,0.5,0.1,0.7,0.1c0,0,0.1,0,0.1,0c0.2,0.1,0.5,0.1,0.8,0.2c0.1,0,0.1,0,0.2,0c0.3,0.1,0.5,0.1,0.8,0.2c0,0,0,0,0,0
		c0.3,0.1,0.5,0.2,0.8,0.2c0.1,0,0.1,0,0.2,0.1c0.3,0.1,0.5,0.2,0.8,0.3c0,0,0.1,0,0.1,0c0.2,0.1,0.5,0.2,0.7,0.3
		c0.1,0,0.1,0,0.2,0.1c0.3,0.1,0.5,0.2,0.8,0.3c0.1,0,0.1,0.1,0.2,0.1c0.2,0.1,0.4,0.2,0.6,0.3c0.1,0,0.2,0.1,0.3,0.1
		c0.2,0.1,0.4,0.2,0.6,0.3c0.1,0,0.1,0.1,0.2,0.1c0.3,0.1,0.5,0.3,0.8,0.4c0.1,0,0.1,0.1,0.2,0.1c0.2,0.1,0.4,0.2,0.7,0.3
		c0.1,0,0.2,0.1,0.3,0.1c0.2,0.1,0.4,0.2,0.6,0.3c0.1,0,0.2,0.1,0.3,0.1c0.3,0.2,0.6,0.3,0.8,0.5c0.3,0.2,0.7,0.4,1,0.6
		c0.1,0.1,0.2,0.1,0.3,0.2c0.2,0.1,0.5,0.3,0.7,0.4c0.1,0.1,0.2,0.2,0.4,0.2c0.2,0.1,0.4,0.3,0.7,0.4c0.1,0.1,0.2,0.2,0.4,0.2
		c0.2,0.2,0.5,0.3,0.7,0.5c0.1,0.1,0.2,0.1,0.3,0.2c0.3,0.2,0.7,0.5,1,0.7c0.1,0,0.1,0.1,0.2,0.2c0.3,0.2,0.5,0.4,0.8,0.6
		c0.1,0.1,0.2,0.2,0.3,0.3c0.2,0.2,0.4,0.3,0.7,0.5c0.1,0.1,0.2,0.2,0.4,0.3c0.2,0.2,0.4,0.4,0.7,0.5c0.1,0.1,0.2,0.2,0.4,0.3
		c0.1,0.1,0.2,0.2,0.3,0.2c0.2,0.2,0.4,0.3,0.5,0.5c0.1,0.1,0.2,0.2,0.3,0.2c0.2,0.2,0.4,0.4,0.6,0.6c0.1,0.1,0.1,0.1,0.2,0.2
		c0.3,0.2,0.5,0.5,0.8,0.7c0.1,0.1,0.1,0.1,0.2,0.2c0.2,0.2,0.4,0.4,0.6,0.6c0.1,0.1,0.2,0.2,0.3,0.3c0.2,0.2,0.4,0.4,0.5,0.5
		c0.1,0.1,0.2,0.2,0.2,0.3c0.2,0.2,0.4,0.4,0.6,0.7c0,0,0.1,0.1,0.1,0.1c0.2,0.3,0.5,0.5,0.7,0.8c0.1,0.1,0.1,0.2,0.2,0.2
		c0.2,0.2,0.4,0.4,0.5,0.6c0.1,0.1,0.2,0.2,0.3,0.3c0.2,0.2,0.3,0.4,0.5,0.6c0.1,0.1,0.2,0.2,0.2,0.3c0.2,0.3,0.5,0.5,0.7,0.8
		c0,0,0,0,0,0c0.2,0.3,0.5,0.6,0.7,0.9c0.1,0.1,0.1,0.2,0.2,0.3c0.2,0.2,0.3,0.4,0.5,0.6c0.1,0.1,0.2,0.2,0.2,0.3
		c0.1,0.2,0.2,0.3,0.4,0.5c0.2,0.2,0.4,0.5,0.5,0.7c0.1,0.1,0.2,0.3,0.3,0.4c0.2,0.3,0.4,0.5,0.6,0.8c0.1,0.1,0.2,0.2,0.3,0.4
		c0.3,0.4,0.5,0.7,0.8,1.1c0,0,0,0,0,0.1c0.3,0.4,0.5,0.8,0.8,1.2c0.1,0.1,0.2,0.2,0.2,0.4c0.2,0.3,0.4,0.5,0.5,0.8
		c0.1,0.1,0.2,0.3,0.3,0.4c0.2,0.3,0.3,0.5,0.5,0.8c0.1,0.1,0.2,0.3,0.3,0.4c0.2,0.3,0.3,0.6,0.5,0.8c0.1,0.1,0.2,0.3,0.2,0.4
		c0.2,0.4,0.5,0.8,0.7,1.2c0.2,0.3,0.4,0.7,0.6,1c0.1,0.1,0.1,0.2,0.2,0.3c0.1,0.2,0.3,0.5,0.4,0.7c0.1,0.1,0.1,0.2,0.2,0.3
		c0.1,0.3,0.3,0.5,0.4,0.8c0,0.1,0.1,0.2,0.1,0.3c0.2,0.3,0.4,0.7,0.5,1c0,0.1,0.1,0.2,0.1,0.2c0.1,0.3,0.3,0.5,0.4,0.8
		c0.1,0.1,0.1,0.2,0.2,0.3c0.1,0.2,0.2,0.5,0.3,0.7c0.1,0.1,0.1,0.2,0.2,0.3c0.1,0.1,0.1,0.3,0.2,0.4c0.1,0.3,0.3,0.6,0.4,1
		c0.1,0.1,0.1,0.3,0.2,0.4c0.1,0.3,0.3,0.7,0.4,1c0,0.1,0.1,0.2,0.1,0.4c0.2,0.4,0.4,0.9,0.5,1.3c0,0.1,0.1,0.2,0.1,0.3
		c0.1,0.4,0.3,0.7,0.4,1.1c0.1,0.1,0.1,0.3,0.2,0.4c0.1,0.3,0.2,0.6,0.3,0.9c0.1,0.1,0.1,0.3,0.1,0.4c0.1,0.4,0.3,0.8,0.4,1.2
		c0,0,0,0.1,0,0.1c0.1,0.4,0.3,0.9,0.4,1.3c0,0.1,0.1,0.3,0.1,0.4c0.1,0.3,0.2,0.6,0.3,1c0,0.1,0.1,0.3,0.1,0.4
		c0.1,0.3,0.2,0.7,0.3,1c0,0.1,0.1,0.2,0.1,0.3c0.1,0.4,0.2,0.9,0.3,1.3c0,0.1,0,0.2,0.1,0.3c0.1,0.3,0.2,0.7,0.2,1
		c0,0.1,0.1,0.3,0.1,0.4c0.1,0.3,0.1,0.7,0.2,1c0,0.1,0.1,0.2,0.1,0.4c0.1,0.4,0.2,0.9,0.2,1.3c0,0.1,0,0.1,0,0.2
		c0.1,0.4,0.1,0.8,0.2,1.1c0,0.1,0,0.3,0.1,0.4c0,0.3,0.1,0.6,0.1,0.9c0,0.1,0,0.3,0.1,0.4c0,0.4,0.1,0.8,0.1,1.2c0,0,0,0.1,0,0.1
		c0,0.4,0.1,0.8,0.1,1.2c0,0.1,0,0.3,0,0.4c0,0.3,0,0.6,0.1,0.9c0,0.1,0,0.3,0,0.4c0,0.3,0,0.6,0,0.9c0,0.1,0,0.3,0,0.4
		c0,0.4,0,0.8,0,1.2c0,11.2-3.9,19.6-10.8,23.5l3.9-2.3c6.9-3.9,10.8-12.3,10.8-23.5C79.9,78.2,79.9,77.8,79.9,77.4z"/>
</g>
<g>
	<g>
		<polygon class="st1" points="40,24.1 40,32.8 38.8,32.1 38.8,23.3 		"/>
	</g>
	<g>
		<polygon class="st1" points="39.9,87.1 39.8,95.8 38.6,95.1 38.6,86.4 		"/>
	</g>
	<g>
		<polygon class="st1" points="70.5,76.9 70.5,78.3 62.9,73.9 62.9,72.5 		"/>
	</g>
	<g>
		<polygon class="st1" points="15.7,45.2 15.7,46.7 8.1,42.3 8.1,40.8 		"/>
	</g>
	<g>
		<polygon class="st1" points="54.8,37.2 55.9,38.6 52,43.9 50.9,42.5 		"/>
	</g>
	<g>
		<polygon class="st1" points="26.7,75.3 27.8,76.7 23.9,82 22.8,80.6 		"/>
	</g>
	<g>
		<polygon class="st1" points="59.9,84.7 66.5,92.9 65.8,93.8 59.3,85.6 		"/>
	</g>
	<g>
		<polygon class="st1" points="12.8,25.4 19.4,33.6 18.7,34.5 12.2,26.2 		"/>
	</g>
	<g>
		<polygon class="st1" points="66.1,56.5 66.7,58.1 60.1,58.7 59.5,57.1 		"/>
	</g>
	<g>
		<polygon class="st1" points="18.5,60.5 19.1,62.1 12.5,62.7 11.9,61.1 		"/>
	</g>
	<g>
		<polygon class="st1" points="51.6,89.8 55.4,99.6 54.3,99.7 50.5,89.9 		"/>
	</g>
	<g>
		<polygon class="st1" points="24.3,19.4 28.1,29.2 27,29.3 23.3,19.5 		"/>
	</g>
</g>
<g>
	<path class="st1" d="M57.3,58.2l0.7,1.6l-17.3,3.5c0,0.1,0,0.2,0,0.3c0,1.3-0.9,1.8-2,1.2c-1.1-0.6-2-2.2-2-3.5
		c0-0.2,0-0.4,0.1-0.5L25,45.2l0.7-0.8l11.7,15.4c0.4-0.1,0.8-0.1,1.3,0.2c0.6,0.3,1.1,0.9,1.4,1.5L57.3,58.2z"/>
</g>
<g>
	<path class="st2" d="M51.1,49.5l0.6,0.8L39.4,62.2c0.1,0.3,0.2,0.6,0.2,0.9c0,0.7-0.5,1-1.1,0.6c-0.1-0.1-0.3-0.2-0.4-0.3l-3.1,3
		l-0.6-0.8l3.2-3.1c-0.1-0.2-0.1-0.5-0.1-0.7c0-0.7,0.5-1,1.1-0.6c0.1,0,0.2,0.1,0.2,0.2L51.1,49.5z"/>
</g>
</svg>
