<?xml version="1.0" encoding="utf-8"?>
<!-- Generator: Adobe Illustrator 22.1.0, SVG Export Plug-In . SVG Version: 6.00 Build 0)  -->
<svg version="1.1" id="Layer_1" xmlns="http://www.w3.org/2000/svg" xmlns:xlink="http://www.w3.org/1999/xlink" x="0px" y="0px"
	 viewBox="0 0 324 279" style="enable-background:new 0 0 324 279;" xml:space="preserve">
<style type="text/css">
	.st0{fill:#8BC53F;}
	.st1{fill:#007542;}
	.st2{fill:#00652C;}
	.st3{fill:#007F42;}
	.st4{fill:#B3B3B3;}
	.st5{fill:#F2F2F2;}
	.st6{fill:#F7F7F7;}
	.st7{fill:#FAFAFA;}
	.st8{fill:#C9C9C9;}
	.st9{opacity:0.1;}
	.st10{fill:#FFFFFF;}
	.st11{fill:#C2C2C2;}
	.st12{fill:#E0E0E0;}
	.st13{fill:#969696;}
	.st14{fill:#B5B5B5;}
	.st15{fill:#FFDDC7;}
	.st16{fill:#CADFE3;}
	.st17{fill:#E6C9B6;}
	.st18{fill:#949494;}
	.st19{fill:#E3FBFF;}
	.st20{fill:#AFC0C4;}
</style>
<polygon class="st0" points="162.1,115.7 145,123.6 145,96.8 162.1,88.9 "/>
<polygon class="st0" points="145,123.6 127.9,115.7 127.9,88.9 145,96.8 "/>
<polygon class="st1" points="162.1,88.9 145,96.8 127.9,88.9 145,81 "/>
<polygon class="st2" points="139.7,128.1 122.6,136 122.6,89.8 139.7,81.9 "/>
<polygon class="st3" points="122.6,136 105.5,128.1 105.5,81.9 122.6,89.8 "/>
<polygon class="st0" points="139.7,81.9 122.6,89.8 105.5,81.9 122.6,74 "/>
<polygon class="st2" points="115.7,140.5 98.6,148.4 98.6,78 115.7,70 "/>
<polygon class="st3" points="98.6,148.4 81.5,140.5 81.5,70 98.6,78 "/>
<polygon class="st0" points="115.7,70 98.6,78 81.5,70 98.6,62.1 "/>
<g>
	<g>
		<g>
			<path class="st4" d="M279.2,190.2c17,8.5-24.4,4.9-41.4,13.4c-17,8.5-4.7,28.4-21.6,19.9c-17-8.5-17-22.2,0-30.7
				C233.2,184.3,262.3,181.7,279.2,190.2z"/>
			<path class="st5" d="M277.7,189.4c17,8.5-22.9,2.3-39.8,10.8c-17,8.5-4.7,28.4-21.6,19.9c-17-8.5-17-22.2,0-30.7
				C233.2,180.9,260.7,180.9,277.7,189.4z"/>
		</g>
		<path class="st4" d="M214.7,160.1v32.4c0,1.2,0.9,2.3,2.6,3.2c3.5,1.8,9.3,1.8,12.8,0c1.8-0.9,2.6-2,2.6-3.2v-32.4H214.7z"/>
	</g>
	<g>
		<polygon class="st4" points="297.4,135.1 151,213.3 145.5,211.2 145.5,107.6 297.4,31.6 302.9,33.7 		"/>
		<polygon class="st6" points="302.9,137.3 151,213.3 151,109.7 302.9,33.7 		"/>
		<g>
			<polygon class="st7" points="293.7,135.6 160.2,202.4 160.2,111.4 293.7,44.6 			"/>
			<g>
				<g>
					<polygon class="st7" points="293.7,135.6 160.2,202.4 160.2,197.3 293.7,130.5 					"/>
					<path class="st7" d="M166.5,196.7c0,1-0.8,2.2-1.8,2.7c-1,0.5-1.8,0.1-1.8-0.9c0-1,0.8-2.2,1.8-2.7
						C165.7,195.3,166.5,195.7,166.5,196.7z"/>
				</g>
			</g>
		</g>
		<g>
			<polygon class="st2" points="178.3,168.4 189.3,143.8 200.3,157.3 			"/>
			<polygon class="st3" points="200.3,157.4 211.4,122 222.4,146.4 			"/>
			<polygon class="st0" points="222.4,146.4 233.4,99.8 244.4,135.4 			"/>
			<polygon class="st8" points="244.4,135.4 255.4,78.2 266.4,124.3 			"/>
			<polygon class="st0" points="187.4,172.8 198.5,148.3 209.5,161.8 			"/>
			<polygon class="st0" points="209.5,161.9 220.5,126.5 231.5,150.9 			"/>
			<polygon class="st1" points="231.5,150.9 242.5,104.3 253.6,139.8 			"/>
			<polygon class="st0" points="253.6,139.8 264.6,82.6 275.6,128.8 			"/>
			<polyline class="st2" points="189.3,143.8 198.5,148.3 187.4,172.8 178.3,168.4 			"/>
			<polygon class="st3" points="211.4,122 220.5,126.5 209.5,161.9 201.9,152.4 			"/>
			<polygon class="st0" points="242.5,104.3 233.4,99.8 224.8,136 231.5,150.9 			"/>
			<polygon class="st8" points="255.4,78.2 264.6,82.6 253.6,139.8 247.4,119.9 			"/>
		</g>
	</g>
</g>
<g>
	<polygon class="st9" points="175.3,71.7 129.4,45.9 159.4,29.6 204.6,53.9 	"/>
	<path class="st10" d="M164.5,16.6l-33.2,17.9c0,0,7.4-0.2,11.3,4.6c3.9,4.9,3.9,14.7,12,20.6c8.2,5.9,20.9,5.8,20.9,5.8l33.3-18.4
		c0,0-18-1.3-23.4-5.6c-5.4-4.3-4.6-12.9-8.5-17.1C173.1,20.3,164.5,16.6,164.5,16.6z"/>
	<polygon class="st11" points="141.1,33.2 144.2,35.1 167.8,21.5 165.3,19.8 	"/>
	<polygon class="st11" points="163.9,60.3 167.1,61.3 191.8,47.1 188.3,45.8 	"/>
	<polygon class="st11" points="170.1,23.3 173.2,25.6 147.7,41.1 145.6,37.9 	"/>
	<polygon class="st11" points="182,41.1 185.2,43.5 160,58.4 157.5,55.8 	"/>
	<polygon class="st11" points="175.1,29.6 177.3,32.6 151.7,47.8 150.5,44.5 	"/>
	<polygon class="st11" points="179.1,36.5 180.8,39.3 156,53.7 154.4,51.6 	"/>
	<polygon class="st11" points="196.3,47.8 200.1,48.8 174.4,63.4 171.3,62.2 	"/>
</g>
<g>
	<polygon class="st9" points="82,209.7 122.7,230.1 59.6,261.6 18.9,241.3 	"/>
	<g>
		<polygon class="st12" points="19.3,237.7 60,258 123.1,226.4 82.4,206.1 		"/>
		<polygon class="st13" points="78.9,210.1 115.2,228.2 116.3,227.6 80.1,209.5 		"/>
		<polygon class="st13" points="75.2,211.9 111.4,230.1 112.6,229.5 76.3,211.4 		"/>
		<polygon class="st13" points="71.4,213.8 107.7,231.9 108.9,231.4 72.6,213.2 		"/>
		<polygon class="st13" points="67.7,215.7 104,233.8 105.2,233.2 68.9,215.1 		"/>
		<polygon class="st13" points="64,217.5 100.3,235.7 101.5,235.1 65.2,216.9 		"/>
		<polygon class="st13" points="60.3,219.4 96.6,237.5 97.8,236.9 61.5,218.8 		"/>
		<polygon class="st13" points="56.6,221.2 92.9,239.4 94.1,238.8 57.8,220.6 		"/>
		<polygon class="st13" points="52.9,223.1 89.2,241.2 90.4,240.6 54.1,222.5 		"/>
		<polygon class="st13" points="49.2,224.9 85.5,243.1 86.7,242.5 50.4,224.3 		"/>
		<polygon class="st13" points="45.5,226.8 81.8,244.9 82.9,244.3 46.7,226.2 		"/>
		<polygon class="st13" points="41.8,228.6 78,246.8 79.2,246.2 42.9,228.1 		"/>
		<polygon class="st13" points="38,230.5 74.3,248.7 75.5,248.1 39.2,229.9 		"/>
		<polygon class="st13" points="34.3,232.4 70.6,250.5 71.8,249.9 35.5,231.8 		"/>
		<polygon class="st13" points="30.6,234.2 66.9,252.4 68.1,251.8 31.8,233.6 		"/>
		<polygon class="st13" points="26.9,236.1 63.2,254.2 64.4,253.6 28.1,235.5 		"/>
	</g>
	<g>
		<polygon class="st10" points="5.9,234.6 45.8,251.5 88.7,225.3 48.7,208.4 		"/>
		<polygon class="st14" points="47,211.7 82.6,226.7 83.4,226.2 47.8,211.2 		"/>
		<polygon class="st14" points="44.5,213.2 80.1,228.3 80.9,227.8 45.3,212.7 		"/>
		<polygon class="st14" points="41.9,214.8 77.5,229.8 78.4,229.3 42.7,214.3 		"/>
		<polygon class="st14" points="39.4,216.3 75,231.4 75.8,230.9 40.2,215.8 		"/>
		<polygon class="st14" points="36.9,217.8 72.5,232.9 73.3,232.4 37.7,217.3 		"/>
		<polygon class="st14" points="34.4,219.4 70,234.4 70.8,234 35.2,218.9 		"/>
		<polygon class="st14" points="31.8,220.9 67.5,236 68.3,235.5 32.7,220.4 		"/>
		<polygon class="st14" points="29.3,222.5 64.9,237.5 65.8,237 30.1,222 		"/>
		<polygon class="st14" points="26.8,224 62.4,239.1 63.2,238.6 27.6,223.5 		"/>
		<polygon class="st14" points="24.3,225.5 59.9,240.6 60.7,240.1 25.1,225.1 		"/>
		<polygon class="st14" points="21.8,227.1 57.4,242.2 58.2,241.7 22.6,226.6 		"/>
		<polygon class="st14" points="19.2,228.6 54.9,243.7 55.7,243.2 20.1,228.1 		"/>
		<polygon class="st14" points="16.7,230.2 52.3,245.2 53.1,244.7 17.5,229.7 		"/>
		<polygon class="st14" points="14.2,231.7 49.8,246.8 50.6,246.3 15,231.2 		"/>
		<polygon class="st14" points="11.7,233.2 47.3,248.3 48.1,247.8 12.5,232.8 		"/>
	</g>
</g>
<path class="st15" d="M135.4,221.9c0,0,0.7-0.8,1.1-0.9c0.4-0.1,1.3-0.4,1.8-0.6c0.5-0.2,1.9-1.3,2.3-1.7c0.3-0.4,0.7-2,0.8-2.6
	c0-0.1-0.1-0.2-0.2-0.1c-0.8,0.4-3.3,1.8-3.5,1.7c0.1-1.1,0.3-1.3,0.1-1.8c-0.1-0.3-1.1,1.7-1.4,1.9c-0.3,0.2-0.7,0.5-0.9,0.8
	c-0.2,0.3-0.7,1.3-1,1.2C134.2,219.7,135.4,221.9,135.4,221.9z"/>
<path class="st2" d="M123.2,223.3c0,0,4.6,5.3,5.6,5.3c1,0.1,8.5-6.4,8.5-6.4l-2.7-3.6c0,0-5.2,4.8-5.7,4.7c-0.5-0.1-4.4-7.7-5.1-8
	C123,214.9,123.2,223.3,123.2,223.3z"/>
<path class="st2" d="M124.8,233.1c0,0-0.3,10.1-0.4,12.3c0,2.2,0.3,10.7,0.4,12.5c-2.1,2.1-3.1,1.3-4.6,0.7c-0.8-0.3-1-0.8-1-0.8
	s-0.1-10.9-0.1-11.5c0-0.6-1.5-11.4-1.5-11.4L124.8,233.1z"/>
<path class="st2" d="M121.5,237.5c0,0-7,24.2-7.8,25.2c-0.6,0.8-1.7,1.2-2.7,0.4c-1-0.7-1.9-2.1-1.9-2.1s2.9-9.5,3.1-10.5
	c0.2-1,1.7-13,1.7-13H121.5z"/>
<path class="st2" d="M120.4,214.6c0,0,2.7,0,3.3,0.6c0.6,0.6,1.6,6,1.4,6.7c-0.1,0.8-1.1,5.6,0,14.4c-3,3.8-2.7,2.1-2.7,2.1
	l-0.1-1.5c0,0-0.3,1.4-0.5,2c-0.2,0.6-8,0-8.1-0.5c-0.1-0.5,0.9-7.7,0.6-8.3c-0.3-0.6-2.7-9-2.3-10c0.4-1,2.7-3.7,4.8-5
	C118.9,213.9,120.4,214.6,120.4,214.6z"/>
<path class="st15" d="M110.6,237.9l1.9,3.5c0.1,1.2,2.2,1.2,2.7,0.3c0.3-0.5-1.4-2.2-2.1-3.1c-0.6-1-1.1-5-1.1-5L110.6,237.9z"/>
<path class="st2" d="M113.5,218.6c0,0,2.2,0.4,2.1,2.6c-0.2,2.3-2.7,7.9-2.7,8.7c0,0.8,1.2,8.6,1.2,8.6s-1.3,2.4-3,1.6
	c-1.7-5.6-2.1-11-2.1-11S109.8,222.6,113.5,218.6z"/>
<path class="st16" d="M122,215.2c0,0,1.6,6.6,0.5,12.4c0-6.7-6.2-12-6.2-12s1.3-1.3,3.2-1.2c1.9,0.1,2.3,0.3,2.3,0.3L122,215.2z"/>
<path class="st17" d="M116.9,211c0,0,0.8,3,0.6,3.1c-0.1,0.1-0.6,2.2-0.6,2.2l3.9,0.2l0.7-2.3L116.9,211z"/>
<path class="st15" d="M121.9,207.1c0,0,0.3,1.3,0.4,1.9c0.1,0.7,0.9,4.9,0,5.6c-3.7-0.1-3.8-1.2-4-1.4c-0.3-0.2-0.7-1.3-0.7-1.3
	l-1-0.5C116.5,211.5,114.6,204.4,121.9,207.1z"/>
<path class="st18" d="M118.4,204.5c0.7,0,4.3,0.4,4.3,2.4l-1,0.8c0,0-1,1.1-1.7,1.3c0.5-1.3,0.5-0.7,0.5-0.7s-1.6,1-2.2,1.3
	c-0.4,0.8-0.3,1.2-0.3,1.2l-0.9-0.6c0,0-1.5,0.3,0.4,1.7c-0.3,1.5-0.3,1.5-0.3,1.5s-1.4-2.5-2-3.1
	C114.7,209.9,114.5,204.9,118.4,204.5z"/>
<path class="st19" d="M120.6,216.2c0,0-0.7,0.6-0.8,1.5c-3.3-2.2-3.4-2.5-3.4-2.5s0.4-1.2,0.7-1.4
	C117.4,213.7,120.6,216.2,120.6,216.2z"/>
<path class="st0" d="M121.7,216.7c0,0-0.1,1.2-0.4,1.3c-0.3,0.1-1.4-1.1-1.4-1.1l0.7-0.8C120.6,216.2,121.1,216,121.7,216.7z"/>
<path class="st20" d="M121.3,214.6l-0.7,1.7c0,0,0.8,0.1,1.3,0.9c0.4-2.5,0.2-2.3,0.2-2.3L121.3,214.6z"/>
<path class="st0" d="M120.9,217.7c0,0-0.2,1.2-0.1,1.8c0.1,0.6,0.7,4.1,0.7,4.6c0,0.5,1,3.5,1,3.5l0.7-3.7c0,0-1-4.4-1.2-5
	c-0.2-0.5-0.7-1.3-0.7-1.3H120.9z"/>
<path class="st3" d="M116.9,215.2c0,0,2,2.4,3.5,5.3c1.3,2.4,2.2,5.2,2.2,7.1c-2.3-4.9-4.9-8-4.9-8l0.7-0.8l-0.7-0.2
	c0,0-1.4-2.8-2-2.4C116.9,215.2,116.9,215.2,116.9,215.2z"/>
<path class="st3" d="M122.5,214.8l0.9,2.6l-0.5,0.7l0.7,0.6c0,0,0.5,3.6-1.1,9.2c0.9-7.6-0.9-13.3-0.9-13.3L122.5,214.8z"/>
</svg>
