<?xml version="1.0" encoding="utf-8"?>
<!-- Generator: Adobe Illustrator 22.1.0, SVG Export Plug-In . SVG Version: 6.00 Build 0)  -->
<svg version="1.1" id="Layer_1" xmlns="http://www.w3.org/2000/svg" xmlns:xlink="http://www.w3.org/1999/xlink" x="0px" y="0px"
	 viewBox="0 0 101 229" style="enable-background:new 0 0 101 229;" xml:space="preserve">
<style type="text/css">
	.st0{fill:#F1F2F2;}
	.st1{fill:url(#XMLID_2_);}
	.st2{fill:url(#XMLID_3_);}
	.st3{opacity:0.47;}
	.st4{opacity:0;fill:#FFFFFF;}
	.st5{opacity:2.439000e-02;fill:#FBFBFB;}
	.st6{opacity:4.878000e-02;fill:#F6F6F8;}
	.st7{opacity:7.317100e-02;fill:#F2F2F4;}
	.st8{opacity:9.756100e-02;fill:#EDEDF0;}
	.st9{opacity:0.122;fill:#E9E9ED;}
	.st10{opacity:0.1463;fill:#E4E4E9;}
	.st11{opacity:0.1707;fill:#E0E0E6;}
	.st12{opacity:0.1951;fill:#DBDBE2;}
	.st13{opacity:0.2195;fill:#D7D7DE;}
	.st14{opacity:0.2439;fill:#D2D2DB;}
	.st15{opacity:0.2683;fill:#CECED7;}
	.st16{opacity:0.2927;fill:#C9C9D3;}
	.st17{opacity:0.3171;fill:#C5C5D0;}
	.st18{opacity:0.3415;fill:#C1C1CC;}
	.st19{opacity:0.3659;fill:#BCBCC8;}
	.st20{opacity:0.3902;fill:#B8B8C5;}
	.st21{opacity:0.4146;fill:#B3B3C1;}
	.st22{opacity:0.439;fill:#AFAFBE;}
	.st23{opacity:0.4634;fill:#AAAABA;}
	.st24{opacity:0.4878;fill:#A6A6B6;}
	.st25{opacity:0.5122;fill:#A1A1B3;}
	.st26{opacity:0.5366;fill:#9D9DAF;}
	.st27{opacity:0.561;fill:#9898AB;}
	.st28{opacity:0.5854;fill:#9494A8;}
	.st29{opacity:0.6098;fill:#8F8FA4;}
	.st30{opacity:0.6341;fill:#8B8BA1;}
	.st31{opacity:0.6585;fill:#86869D;}
	.st32{opacity:0.6829;fill:#828299;}
	.st33{opacity:0.7073;fill:#7E7E96;}
	.st34{opacity:0.7317;fill:#797992;}
	.st35{opacity:0.7561;fill:#75758E;}
	.st36{opacity:0.7805;fill:#70708B;}
	.st37{opacity:0.8049;fill:#6C6C87;}
	.st38{opacity:0.8293;fill:#676783;}
	.st39{opacity:0.8537;fill:#636380;}
	.st40{opacity:0.878;fill:#5E5E7C;}
	.st41{opacity:0.9024;fill:#5A5A79;}
	.st42{opacity:0.9268;fill:#555575;}
	.st43{opacity:0.9512;fill:#515171;}
	.st44{opacity:0.9756;fill:#4C4C6E;}
	.st45{fill:#8BC53F;}
	.st46{fill:url(#SVGID_1_);}
	.st47{fill:#009F36;}
	.st48{fill:url(#SVGID_2_);}
	.st49{fill:url(#SVGID_3_);}
</style>
<g id="XMLID_774_">
	<polygon id="XMLID_777_" class="st0" points="18.7,77.9 50,59.8 81.3,77.9 50,95.9 	"/>
	<linearGradient id="XMLID_2_" gradientUnits="userSpaceOnUse" x1="6.7511" y1="198.9243" x2="62.8502" y2="101.723">
		<stop  offset="0.3042" style="stop-color:#FFFFFF"/>
		<stop  offset="1" style="stop-color:#EFF2F9"/>
	</linearGradient>
	<polygon id="XMLID_776_" class="st1" points="18.7,77.9 18.7,206.2 50,224.2 50,95.9 	"/>
	<linearGradient id="XMLID_3_" gradientUnits="userSpaceOnUse" x1="91.6036" y1="205.9094" x2="42.9472" y2="103.0675">
		<stop  offset="0.2776" style="stop-color:#FFFFFF"/>
		<stop  offset="1" style="stop-color:#E7EBF5"/>
	</linearGradient>
	<polygon id="XMLID_775_" class="st2" points="50,224.2 81.3,206.2 81.3,77.9 50,95.9 	"/>
</g>
<g class="st3">
	<polygon id="XMLID_33_" class="st4" points="36.4,69.1 63.6,84.9 47.9,93.5 20.7,77.8 	"/>
	<polygon class="st5" points="36.4,69.1 63.6,84.9 48.2,93.4 21,77.6 	"/>
	<polygon class="st6" points="36.4,69.1 63.6,84.9 48.5,93.2 21.3,77.5 	"/>
	<polygon class="st7" points="36.4,69.1 63.6,84.9 48.8,93 21.6,77.3 	"/>
	<polygon class="st8" points="36.4,69.1 63.6,84.9 49.1,92.8 21.9,77.1 	"/>
	<polygon class="st9" points="36.4,69.1 63.6,84.9 49.4,92.7 22.2,77 	"/>
	<polygon class="st10" points="36.4,69.1 63.6,84.9 49.7,92.5 22.5,76.8 	"/>
	<polygon class="st11" points="36.4,69.1 63.6,84.9 50,92.3 22.8,76.6 	"/>
	<polygon class="st12" points="36.4,69.1 63.6,84.9 50.3,92.2 23.1,76.5 	"/>
	<polygon class="st13" points="36.4,69.1 63.6,84.9 50.6,92 23.4,76.3 	"/>
	<polygon class="st14" points="36.4,69.1 63.6,84.9 50.9,91.8 23.7,76.1 	"/>
	<polygon class="st15" points="36.4,69.1 63.6,84.9 51.3,91.7 24,76 	"/>
	<polygon class="st16" points="36.4,69.1 63.6,84.9 51.6,91.5 24.3,75.8 	"/>
	<polygon class="st17" points="36.4,69.1 63.6,84.9 51.9,91.3 24.6,75.6 	"/>
	<polygon class="st18" points="36.4,69.1 63.6,84.9 52.2,91.2 24.9,75.5 	"/>
	<polygon class="st19" points="36.4,69.1 63.6,84.9 52.5,91 25.2,75.3 	"/>
	<polygon class="st20" points="36.4,69.1 63.6,84.9 52.8,90.8 25.5,75.1 	"/>
	<polygon class="st21" points="36.4,69.1 63.6,84.9 53.1,90.7 25.8,75 	"/>
	<polygon class="st22" points="36.4,69.1 63.6,84.9 53.4,90.5 26.1,74.8 	"/>
	<polygon class="st23" points="36.4,69.1 63.6,84.9 53.7,90.3 26.4,74.6 	"/>
	<polygon class="st24" points="36.4,69.1 63.6,84.9 54,90.2 26.7,74.4 	"/>
	<polygon class="st25" points="36.4,69.1 63.6,84.9 54.3,90 27,74.3 	"/>
	<polygon class="st26" points="36.4,69.1 63.6,84.9 54.6,89.8 27.3,74.1 	"/>
	<polygon class="st27" points="36.4,69.1 63.6,84.9 54.9,89.7 27.6,73.9 	"/>
	<polygon class="st28" points="36.4,69.1 63.6,84.9 55.2,89.5 27.9,73.8 	"/>
	<polygon class="st29" points="36.4,69.1 63.6,84.9 55.5,89.3 28.2,73.6 	"/>
	<polygon class="st30" points="36.4,69.1 63.6,84.9 55.8,89.2 28.5,73.4 	"/>
	<polygon class="st31" points="36.4,69.1 63.6,84.9 56.1,89 28.8,73.3 	"/>
	<polygon class="st32" points="36.4,69.1 63.6,84.9 56.4,88.8 29.1,73.1 	"/>
	<polygon class="st33" points="36.4,69.1 63.6,84.9 56.7,88.7 29.4,72.9 	"/>
	<polygon class="st34" points="36.4,69.1 63.6,84.9 57,88.5 29.7,72.8 	"/>
	<polygon class="st35" points="36.4,69.1 63.6,84.9 57.3,88.3 30,72.6 	"/>
	<polygon class="st36" points="36.4,69.1 63.6,84.9 57.6,88.2 30.3,72.4 	"/>
	<polygon class="st37" points="36.4,69.1 63.6,84.9 57.9,88 30.6,72.3 	"/>
	<polygon class="st38" points="36.4,69.1 63.6,84.9 58.2,87.8 30.9,72.1 	"/>
	<polygon class="st39" points="36.4,69.1 63.6,84.9 58.5,87.7 31.2,71.9 	"/>
	<polygon class="st40" points="36.4,69.1 63.6,84.9 58.8,87.5 31.5,71.8 	"/>
	<polygon class="st41" points="36.4,69.1 63.6,84.9 59.1,87.3 31.8,71.6 	"/>
	<polygon class="st42" points="36.4,69.1 63.6,84.9 59.4,87.2 32.2,71.4 	"/>
	<polygon class="st43" points="36.4,69.1 63.6,84.9 59.7,87 32.5,71.3 	"/>
	<polygon class="st44" points="36.4,69.1 63.6,84.9 60,86.8 32.8,71.1 	"/>
	<polygon id="XMLID_32_" class="st45" points="36.4,69.1 63.6,84.9 60.3,86.7 33.1,70.9 	"/>
</g>
<path id="XMLID_31_" class="st45" d="M36.1,12.3c0-0.4,0.3-0.6,0.7-0.4l26.8,15.3c0.4,0.2,0.7,0.7,0.7,1.2v18.3
	c0,0.4-0.3,0.6-0.7,0.4l-27-15.4c-0.4-0.2-0.7-0.7-0.7-1.2L36.1,12.3z"/>
<linearGradient id="SVGID_1_" gradientUnits="userSpaceOnUse" x1="36.0947" y1="29.5053" x2="64.2649" y2="29.5053">
	<stop  offset="0" style="stop-color:#5C629E"/>
	<stop  offset="1" style="stop-color:#99A7D8"/>
</linearGradient>
<path class="st46" d="M63.5,27.2L36.7,11.9c-0.3-0.2-0.6-0.1-0.6,0.2c0,0,0.1,0,0.1,0.1L63,27.5c0.4,0.2,0.7,0.7,0.7,1.2V47
	c0,0.1,0,0.1,0,0.2c0.3,0.1,0.5-0.1,0.5-0.4V28.4C64.3,28,63.9,27.4,63.5,27.2z"/>
<polygon id="XMLID_30_" class="st0" points="56.8,27.7 45.8,21.4 45.8,24.6 56.8,31 "/>
<polygon id="XMLID_29_" class="st0" points="61.8,40.5 57,37.6 57,40.5 61.8,43.3 "/>
<polygon id="XMLID_28_" class="st0" points="55.3,36.7 50.4,33.9 50.4,36.7 55.2,39.6 "/>
<polygon id="XMLID_107_" class="st0" points="48.7,32.9 43.8,30.1 43.8,33 48.7,35.8 "/>
<polygon id="XMLID_106_" class="st0" points="42.2,29.2 37.3,26.4 37.3,29.2 42.1,32 "/>
<path id="XMLID_105_" class="st47" d="M41.8,17.2c1.6,0.9,2.9,3.1,2.9,5c0,1.8-1.3,2.6-2.9,1.7c-1.6-0.9-2.9-3.1-2.9-5
	C39,17,40.3,16.3,41.8,17.2z"/>
<path id="XMLID_103_" class="st45" d="M62.9,68.5c0.8,0.4,1.4,1.5,1.4,2.4v13.3c0,0.9-0.6,1.2-1.4,0.8L37.1,70.1
	c-0.8-0.4-1.4-1.5-1.4-2.4l0.2-13.1c0-0.9,0.6-1.2,1.4-0.8L62.9,68.5z"/>
<linearGradient id="SVGID_2_" gradientUnits="userSpaceOnUse" x1="36.1193" y1="69.3205" x2="64.2649" y2="69.3205">
	<stop  offset="0" style="stop-color:#5C629E"/>
	<stop  offset="1" style="stop-color:#99A7D8"/>
</linearGradient>
<path class="st48" d="M62.9,68.5L37.3,53.7c-0.5-0.3-1-0.2-1.2,0.1c0.2-0.1,0.6-0.1,0.9,0.1l25.5,14.7c0.8,0.4,1.4,1.5,1.4,2.4v13.3
	c0,0.3-0.1,0.5-0.2,0.7c0.3-0.1,0.5-0.4,0.5-0.9V70.9C64.3,70,63.6,68.9,62.9,68.5z"/>
<g id="XMLID_52_">
	<path id="XMLID_102_" class="st47" d="M58.5,69.2c2.5,1.4,4.6,5,4.6,7.9c0,2.9-2.1,4.1-4.6,2.7C56,78.5,54,74.9,54,72
		C54,69,56,67.8,58.5,69.2z"/>
	<path id="XMLID_55_" class="st47" d="M59.7,77.1c0,1-0.7,1.5-1.6,1c-0.9-0.5-1.6-1.8-1.6-2.8L59.7,77.1z"/>
	<path id="XMLID_54_" class="st47" d="M56.4,71.8c0.3,0.2,0.5,0.6,0.5,0.9c0,0.3-0.2,0.5-0.5,0.3c-0.3-0.2-0.5-0.5-0.5-0.9
		C55.9,71.7,56.2,71.6,56.4,71.8z"/>
	<path id="XMLID_53_" class="st47" d="M59.7,73.7c0.3,0.2,0.5,0.6,0.5,0.9c0,0.3-0.2,0.5-0.5,0.3c-0.3-0.2-0.5-0.5-0.5-0.9
		S59.5,73.6,59.7,73.7z"/>
</g>
<polygon id="XMLID_51_" class="st0" points="52.5,66.4 52.5,67.6 37.5,58.9 37.5,57.7 "/>
<polygon id="XMLID_50_" class="st0" points="52.5,69.4 52.5,70.6 37.5,61.9 37.5,60.6 "/>
<polygon id="XMLID_49_" class="st0" points="52.5,72.3 52.5,73.6 37.5,64.9 37.5,63.6 "/>
<polygon id="XMLID_48_" class="st0" points="45.5,71.3 45.5,72.5 37.5,67.9 37.5,66.6 "/>
<path id="XMLID_46_" class="st45" d="M35.9,36.3v12.9c0,0.8,0.4,1.5,1.1,1.9l25.3,14.8c0.8,0.5,1.9-0.1,1.9-1.1V51.8
	c0-0.8-0.4-1.5-1.1-1.9L37.8,35.2C37,34.7,35.9,35.3,35.9,36.3z"/>
<linearGradient id="SVGID_3_" gradientUnits="userSpaceOnUse" x1="36.3682" y1="50.5009" x2="64.2649" y2="50.5009">
	<stop  offset="3.802280e-03" style="stop-color:#48486A"/>
	<stop  offset="0.2149" style="stop-color:#4D4F78"/>
	<stop  offset="0.7113" style="stop-color:#585D94"/>
	<stop  offset="1" style="stop-color:#5C629E"/>
</linearGradient>
<path class="st49" d="M63.1,49.8L37.8,35.2c-0.5-0.3-1.1-0.2-1.5,0.1c0.3-0.1,0.8-0.2,1.1,0.1L62.8,50c0.7,0.4,1.1,1.1,1.1,1.9V65
	c0,0.4-0.2,0.7-0.4,0.9c0.4-0.2,0.8-0.6,0.8-1.2V51.8C64.3,51,63.8,50.2,63.1,49.8z"/>
<g id="XMLID_23_">
	<path id="XMLID_44_" class="st0" d="M50.9,50.2l0.1-0.5c-0.2-0.1-0.4-0.3-0.5-0.5l0.1-0.3c0.1,0.2,0.3,0.4,0.5,0.5
		c0.3,0.1,0.5,0,0.5-0.3c0-0.3-0.1-0.5-0.3-0.8c-0.4-0.4-0.6-0.8-0.5-1.2c0-0.4,0.3-0.6,0.7-0.5l0.1-0.5l0.2,0.1l-0.1,0.5
		c0.2,0.1,0.4,0.3,0.5,0.4l-0.1,0.3c-0.1-0.1-0.2-0.3-0.4-0.4c-0.3-0.2-0.4,0-0.4,0.2c0,0.3,0.1,0.5,0.4,0.8
		c0.4,0.4,0.5,0.8,0.5,1.2c0,0.4-0.3,0.7-0.7,0.5l-0.1,0.5L50.9,50.2z"/>
	<path id="XMLID_42_" class="st0" d="M52.2,50.5l0-0.3l0.3-0.2c0.7-0.5,1-0.7,1.1-1.2c0-0.3,0-0.7-0.4-0.9c-0.2-0.1-0.4-0.1-0.5,0
		l-0.1-0.4c0.2-0.1,0.4-0.1,0.7,0c0.5,0.3,0.7,0.9,0.6,1.4c-0.1,0.6-0.5,0.9-1,1.3l-0.2,0.1l0,0l1.1,0.6l0,0.4L52.2,50.5z"/>
	<path id="XMLID_40_" class="st0" d="M56,49.1l0,0.3l-1.4,2.4l-0.3-0.2l1.4-2.3l0,0l-1.2-0.6l0-0.4L56,49.1z"/>
	<path id="XMLID_38_" class="st0" d="M57.7,50.4l-0.9-0.5l-0.2,0.8c0.1,0,0.1,0,0.2,0.1c0.2,0.1,0.4,0.3,0.5,0.5
		c0.2,0.2,0.3,0.6,0.2,1c-0.1,0.6-0.5,0.9-1,0.6c-0.3-0.1-0.5-0.4-0.6-0.5l0.1-0.3c0.1,0.1,0.3,0.3,0.5,0.5c0.3,0.2,0.6,0,0.7-0.4
		c0-0.4-0.1-0.8-0.6-1.1c-0.1-0.1-0.2-0.1-0.3-0.1l0.3-1.5l1.1,0.6L57.7,50.4z"/>
	<path id="XMLID_36_" class="st0" d="M57.7,54.1c0.1-0.3,0.3-0.7,0.4-1.1l0.4,0.1c-0.1,0.4-0.4,0.9-0.5,1L57.7,54.1z"/>
	<path id="XMLID_27_" class="st0" d="M60.4,53.2c-0.1,1.1-0.5,1.6-1,1.3c-0.5-0.3-0.7-1-0.6-2.1c0.1-1.1,0.5-1.5,1-1.3
		C60.3,51.4,60.5,52.1,60.4,53.2z M59.1,52.5c-0.1,0.9,0,1.4,0.3,1.6c0.3,0.2,0.6-0.3,0.7-1.1c0.1-0.8,0-1.4-0.3-1.6
		C59.5,51.3,59.2,51.6,59.1,52.5z"/>
	<path id="XMLID_24_" class="st0" d="M62.3,54.2c-0.1,1.1-0.5,1.6-1,1.3c-0.5-0.3-0.7-1-0.6-2.1c0.1-1.1,0.5-1.5,1-1.3
		C62.2,52.4,62.4,53.2,62.3,54.2z M61,53.6c-0.1,0.9,0,1.4,0.3,1.6c0.3,0.2,0.6-0.3,0.7-1.1c0.1-0.8,0-1.4-0.3-1.6
		C61.4,52.3,61.1,52.7,61,53.6z"/>
</g>
<polygon id="XMLID_22_" class="st47" points="37.8,38 49.4,44.7 49.4,49.2 37.8,42.5 "/>
<polygon id="XMLID_21_" class="st0" points="37.8,44.3 61.5,58.2 61.5,59.9 37.8,46 "/>
<polygon id="XMLID_20_" class="st0" points="37.8,47.5 53,56.4 53,58.1 37.8,49.2 "/>
</svg>
