<?xml version="1.0" encoding="utf-8"?>
<!-- Generator: Adobe Illustrator 22.1.0, SVG Export Plug-In . SVG Version: 6.00 Build 0)  -->
<svg version="1.1" id="Layer_1" xmlns="http://www.w3.org/2000/svg" xmlns:xlink="http://www.w3.org/1999/xlink" x="0px" y="0px"
	 viewBox="0 0 326 283.5" style="enable-background:new 0 0 326 283.5;" xml:space="preserve">
<style type="text/css">
	.st0{clip-path:url(#SVGID_2_);fill:#FFFFFF;}
</style>
<g>
	<g>
		<defs>
			<rect id="SVGID_1_" x="26.1" y="6.5" width="271.6" height="272.7"/>
		</defs>
		<clipPath id="SVGID_2_">
			<use xlink:href="#SVGID_1_"  style="overflow:visible;"/>
		</clipPath>
		<path class="st0" d="M162,6.2C86.9,6.2,26.1,67.1,26.1,142.1c0,75.1,60.9,136,135.9,136c75.1,0,136-60.9,136-136
			C298,67.1,237.1,6.2,162,6.2L162,6.2z M162,53.9l80.4,50.2H81.6L162,53.9z M243.5,184.2L243.5,184.2c0,8.1-6.5,14.6-14.6,14.6
			H95.1c-8,0-14.6-6.5-14.6-14.6v-76.9c0-0.8,0.1-1.7,0.2-2.5l76.9,47.9c0.1,0.1,0.2,0.1,0.3,0.2c0.1,0.1,0.2,0.1,0.3,0.2
			c0.5,0.3,1.1,0.5,1.7,0.7c0.1,0,0.1,0,0.2,0c0.6,0.1,1.3,0.2,1.9,0.2h0c0.6,0,1.3-0.1,1.9-0.2c0.1,0,0.1,0,0.2,0
			c0.6-0.1,1.1-0.4,1.7-0.7c0.1-0.1,0.2-0.1,0.3-0.2c0.1-0.1,0.2-0.1,0.3-0.2l76.9-47.9c0.1,0.8,0.2,1.6,0.2,2.5V184.2z
			 M243.5,184.2"/>
	</g>
</g>
</svg>
