<?xml version="1.0" encoding="utf-8"?>
<!-- Generator: Adobe Illustrator 22.1.0, SVG Export Plug-In . SVG Version: 6.00 Build 0)  -->
<svg version="1.1" id="Layer_1" xmlns="http://www.w3.org/2000/svg" xmlns:xlink="http://www.w3.org/1999/xlink" x="0px" y="0px"
	 viewBox="0 0 213 333" style="enable-background:new 0 0 213 333;" xml:space="preserve">
<style type="text/css">
	.st0{fill:#2842A2;}
	.st1{fill:#FFFFFF;}
	.st2{fill:#D1D3D4;}
	.st3{fill:#009836;}
	.st4{fill:#F7F7F7;}
	.st5{fill:#8BC53F;}
	.st6{fill:#33A440;}
	.st7{fill:#E6E7E8;}
	.st8{fill:#F1F2F2;}
</style>
<g id="XMLID_1106_">
	<path class="st0" d="M152.4,203c-0.6,0-1.1-0.1-1.6-0.4l-57-32.9c-1.6-0.9-2.1-2.9-1.2-4.5c0.9-1.6,2.9-2.1,4.5-1.2l57,32.9
		c1.6,0.9,2.1,2.9,1.2,4.5C154.6,202.4,153.5,203,152.4,203z"/>
</g>
<g>
	<polygon id="XMLID_879_" class="st1" points="56.5,140.4 14.8,164.5 70.5,196.3 112.1,172.3 	"/>
	<polygon id="XMLID_878_" class="st2" points="60.4,159.6 42.5,166.7 42.5,170 66.5,183.7 84.3,173.3 84.3,170 	"/>
	<polygon id="XMLID_877_" class="st3" points="60.4,156.4 42.5,166.7 66.5,180.4 84.3,170 	"/>
	<polygon id="XMLID_876_" class="st2" points="14.8,164.5 14.8,212.7 70.4,244.7 70.5,196.3 	"/>
	<polygon id="XMLID_875_" class="st4" points="70.4,244.7 112.1,220.7 112.1,172.3 70.5,196.3 	"/>
	<polygon id="XMLID_874_" class="st5" points="18.7,174.4 18.7,182.4 25.4,186.3 25.4,178.3 	"/>
	<polygon id="XMLID_873_" class="st5" points="28.7,180.4 28.7,188.4 35.4,192.3 35.4,184.2 	"/>
	<polygon id="XMLID_872_" class="st5" points="38.8,186.3 38.8,194.3 45.5,198.2 45.5,190.2 	"/>
	<polygon id="XMLID_871_" class="st5" points="48.8,192.3 48.8,200.3 55.5,204.2 55.5,196.1 	"/>
	<polygon id="XMLID_870_" class="st5" points="58.8,198.2 58.8,206.2 65.5,210.1 65.5,202.1 	"/>
	<polygon id="XMLID_869_" class="st5" points="18.7,187.4 18.7,195.5 25.4,199.3 25.4,191.3 	"/>
	<polygon id="XMLID_868_" class="st5" points="28.7,193.4 28.7,201.4 35.4,205.3 35.4,197.3 	"/>
	<polygon id="XMLID_867_" class="st5" points="38.8,199.3 38.8,207.4 45.5,211.2 45.5,203.2 	"/>
	<polygon id="XMLID_866_" class="st5" points="48.8,205.3 48.8,213.3 55.5,217.2 55.5,209.2 	"/>
	<polygon id="XMLID_865_" class="st5" points="58.8,211.2 58.8,219.3 65.5,223.1 65.5,215.1 	"/>
	<polygon id="XMLID_864_" class="st5" points="18.7,200.4 18.7,208.5 25.4,212.3 25.4,204.3 	"/>
	<polygon id="XMLID_863_" class="st5" points="28.7,206.4 28.7,214.4 35.4,218.3 35.4,210.3 	"/>
	<polygon id="XMLID_862_" class="st5" points="38.8,212.3 38.8,220.4 45.5,224.2 45.5,216.2 	"/>
	<polygon id="XMLID_861_" class="st5" points="48.8,218.3 48.8,226.3 55.5,230.2 55.5,222.2 	"/>
	<polygon id="XMLID_860_" class="st5" points="58.8,224.2 58.8,232.3 65.5,236.1 65.5,228.1 	"/>
	<polygon id="XMLID_859_" class="st5" points="109.9,180.4 109.9,188.4 103.2,192.3 103.2,184.2 	"/>
	<polygon id="XMLID_858_" class="st5" points="99.8,186.3 99.8,194.3 93.1,198.2 93.1,190.2 	"/>
	<polygon id="XMLID_857_" class="st5" points="89.8,192.3 89.8,200.3 83.1,204.2 83.1,196.1 	"/>
	<polygon id="XMLID_856_" class="st5" points="79.8,198.2 79.8,206.2 73.1,210.1 73.1,202.1 	"/>
	<polygon id="XMLID_855_" class="st5" points="109.9,193.4 109.9,201.4 103.2,205.3 103.2,197.3 	"/>
	<polygon id="XMLID_854_" class="st5" points="99.8,199.3 99.8,207.4 93.1,211.2 93.1,203.2 	"/>
	<polygon id="XMLID_853_" class="st5" points="89.8,205.3 89.8,213.3 83.1,217.2 83.1,209.2 	"/>
	<polygon id="XMLID_852_" class="st5" points="79.8,211.2 79.8,219.3 73.1,223.1 73.1,215.1 	"/>
	<polygon id="XMLID_851_" class="st5" points="109.9,206.4 109.9,214.4 103.2,218.3 103.2,210.3 	"/>
	<polygon id="XMLID_850_" class="st5" points="99.8,212.3 99.8,220.4 93.1,224.2 93.1,216.2 	"/>
	<polygon id="XMLID_849_" class="st5" points="89.8,218.3 89.8,226.3 83.1,230.2 83.1,222.2 	"/>
	<polygon id="XMLID_848_" class="st5" points="79.8,224.2 79.8,232.3 73.1,236.1 73.1,228.1 	"/>
</g>
<rect id="XMLID_791_" x="110.7" y="26.7" class="st1" width="76.1" height="235.9"/>
<g id="XMLID_788_">
	<ellipse id="XMLID_790_" class="st6" cx="148.8" cy="26.7" rx="38.1" ry="22"/>
	<ellipse id="XMLID_789_" class="st6" cx="148.8" cy="26.7" rx="38.1" ry="22"/>
</g>
<g id="XMLID_785_">
	<ellipse id="XMLID_787_" class="st7" cx="148.8" cy="26.7" rx="22" ry="12.7"/>
	<ellipse id="XMLID_786_" class="st7" cx="148.8" cy="26.7" rx="22" ry="12.7"/>
</g>
<g id="XMLID_763_">
	<path id="XMLID_784_" class="st1" d="M133.2,13.3c8.6-4.9,22.6-4.9,31.1,0c8.6,4.9,8.6,13,0,18c-8.6,4.9-22.6,4.9-31.1,0
		C124.7,26.4,124.7,18.3,133.2,13.3z"/>
	<path id="XMLID_783_" class="st1" d="M133.2,13.3c8.6-4.9,22.6-4.9,31.1,0c8.6,4.9,8.6,13,0,18c-8.6,4.9-22.6,4.9-31.1,0
		C124.7,26.4,124.7,18.3,133.2,13.3z"/>
</g>
<g id="XMLID_760_">
	<path id="XMLID_762_" class="st1" d="M121.8,246.9c14.8-8.6,39.1-8.6,53.9,0c14.8,8.6,14.8,22.6,0,31.1c-14.8,8.6-39.1,8.6-53.9,0
		C107,269.4,107,255.4,121.8,246.9z"/>
	<path id="XMLID_761_" class="st1" d="M121.8,246.9c14.8-8.6,39.1-8.6,53.9,0c14.8,8.6,14.8,22.6,0,31.1c-14.8,8.6-39.1,8.6-53.9,0
		C107,269.4,107,255.4,121.8,246.9z"/>
</g>
<g>
	<path id="XMLID_759_" class="st6" d="M175.7,60.8c-14.8,8.6-39.1,8.6-53.9,0c-7.2-4.2-10.9-9.7-11.1-15.2h0v8.6
		c0,5.6,3.7,11.3,11.1,15.6c14.8,8.6,39.1,8.6,53.9,0c7.4-4.3,11.1-9.9,11.1-15.6v-8.6h0C186.6,51.1,183,56.6,175.7,60.8z"/>
	<path id="XMLID_758_" class="st6" d="M175.7,78.9c-14.8,8.6-39.1,8.6-53.9,0c-7.2-4.2-10.9-9.7-11.1-15.2h0v8.6
		c0,5.6,3.7,11.3,11.1,15.6c14.8,8.6,39.1,8.6,53.9,0c7.4-4.3,11.1-9.9,11.1-15.6v-8.6h0C186.6,69.2,183,74.7,175.7,78.9z"/>
	<path id="XMLID_757_" class="st6" d="M175.7,96.9c-14.8,8.6-39.1,8.6-53.9,0c-7.2-4.2-10.9-9.7-11.1-15.2h0v8.6
		c0,5.6,3.7,11.3,11.1,15.6c14.8,8.6,39.1,8.6,53.9,0c7.4-4.3,11.1-9.9,11.1-15.6v-8.6h0C186.6,87.3,183,92.8,175.7,96.9z"/>
	<path id="XMLID_756_" class="st6" d="M175.7,115c-14.8,8.6-39.1,8.6-53.9,0c-7.2-4.2-10.9-9.7-11.1-15.2h0v8.6
		c0,5.6,3.7,11.3,11.1,15.6c14.8,8.6,39.1,8.6,53.9,0c7.4-4.3,11.1-9.9,11.1-15.6v-8.6h0C186.6,105.4,183,110.8,175.7,115z"/>
	<path id="XMLID_774_" class="st6" d="M175.7,133.1c-14.8,8.6-39.1,8.6-53.9,0c-7.2-4.2-10.9-9.7-11.1-15.2h0v8.6
		c0,5.6,3.7,11.3,11.1,15.6c14.8,8.6,39.1,8.6,53.9,0c7.4-4.3,11.1-9.9,11.1-15.6v-8.6h0C186.6,123.4,183,128.9,175.7,133.1z"/>
	<path id="XMLID_773_" class="st6" d="M175.7,151.2c-14.8,8.6-39.1,8.6-53.9,0c-7.2-4.2-10.9-9.7-11.1-15.2h0v8.6
		c0,5.6,3.7,11.3,11.1,15.6c14.8,8.6,39.1,8.6,53.9,0c7.4-4.3,11.1-9.9,11.1-15.6V136h0C186.6,141.5,183,147,175.7,151.2z"/>
	<path id="XMLID_772_" class="st6" d="M175.7,169.3c-14.8,8.6-39.1,8.6-53.9,0c-7.2-4.2-10.9-9.7-11.1-15.2h0v8.6
		c0,5.6,3.7,11.3,11.1,15.6c14.8,8.6,39.1,8.6,53.9,0c7.4-4.3,11.1-9.9,11.1-15.6v-8.6h0C186.6,159.6,183,165.1,175.7,169.3z"/>
	<path id="XMLID_771_" class="st6" d="M175.7,187.3c-14.8,8.6-39.1,8.6-53.9,0c-7.2-4.2-10.9-9.7-11.1-15.2h0v8.6
		c0,5.6,3.7,11.3,11.1,15.6c14.8,8.6,39.1,8.6,53.9,0c7.4-4.3,11.1-9.9,11.1-15.6v-8.6h0C186.6,177.7,183,183.2,175.7,187.3z"/>
	<path id="XMLID_770_" class="st6" d="M175.7,205.4c-14.8,8.6-39.1,8.6-53.9,0c-7.2-4.2-10.9-9.7-11.1-15.2h0v8.6
		c0,5.6,3.7,11.3,11.1,15.6c14.8,8.6,39.1,8.6,53.9,0c7.4-4.3,11.1-9.9,11.1-15.6v-8.6h0C186.6,195.8,183,201.2,175.7,205.4z"/>
	<path id="XMLID_769_" class="st6" d="M175.7,223.5c-14.8,8.6-39.1,8.6-53.9,0c-7.2-4.2-10.9-9.7-11.1-15.2h0v8.6
		c0,5.6,3.7,11.3,11.1,15.6c14.8,8.6,39.1,8.6,53.9,0c7.4-4.3,11.1-9.9,11.1-15.6v-8.6h0C186.6,213.8,183,219.3,175.7,223.5z"/>
	<path id="XMLID_768_" class="st6" d="M175.7,241.6c-14.8,8.6-39.1,8.6-53.9,0c-7.2-4.2-10.9-9.7-11.1-15.2h0v8.6
		c0,5.6,3.7,11.3,11.1,15.6c14.8,8.6,39.1,8.6,53.9,0c7.4-4.3,11.1-9.9,11.1-15.6v-8.6h0C186.6,231.9,183,237.4,175.7,241.6z"/>
	<path id="XMLID_767_" class="st6" d="M175.7,259.6c-14.8,8.6-39.1,8.6-53.9,0c-7.2-4.2-10.9-9.7-11.1-15.2h0v8.6
		c0,5.6,3.7,11.3,11.1,15.6c14.8,8.6,39.1,8.6,53.9,0c7.4-4.3,11.1-9.9,11.1-15.6v-8.6h0C186.6,250,183,255.5,175.7,259.6z"/>
</g>
<polygon id="XMLID_755_" class="st8" points="88,205.6 40.5,233 103.9,269.2 151.3,241.8 "/>
<polygon id="XMLID_754_" class="st3" points="92.5,227.4 72.1,235.5 72.1,239.2 99.3,254.8 119.7,243 119.7,239.3 "/>
<polygon id="XMLID_753_" class="st1" points="92.5,223.7 72.1,235.5 99.3,251 119.7,239.3 "/>
<polygon id="XMLID_752_" class="st2" points="40.5,233 40.5,287.8 103.8,324.3 103.9,269.2 "/>
<polygon id="XMLID_751_" class="st1" points="103.8,324.3 151.3,296.9 151.3,241.8 103.9,269.2 "/>
<polygon id="XMLID_750_" class="st3" points="40.5,251.2 103.9,287.6 103.9,278.4 40.5,242.1 "/>
<polygon id="XMLID_749_" class="st3" points="40.4,269.5 103.8,305.8 103.8,296.7 40.4,260.3 "/>
<polygon id="XMLID_748_" class="st3" points="151.3,251.3 103.9,278.4 103.9,287.6 151.3,260.4 "/>
<polygon id="XMLID_747_" class="st3" points="151.3,269.6 104,296.7 104.1,305.8 151.3,278.7 "/>
</svg>
