<?xml version="1.0" encoding="utf-8"?>
<!-- Generator: Adobe Illustrator 22.1.0, SVG Export Plug-In . SVG Version: 6.00 Build 0)  -->
<svg version="1.1" id="Layer_1" xmlns="http://www.w3.org/2000/svg" xmlns:xlink="http://www.w3.org/1999/xlink" x="0px" y="0px"
	 viewBox="0 0 141 137" style="enable-background:new 0 0 141 137;" xml:space="preserve">
<style type="text/css">
	.st0{fill:#33A440;}
	.st1{fill:#009836;}
	.st2{fill:#FFFFFF;}
	.st3{fill:#ABB9D1;}
	.st4{fill:#8BC53F;}
</style>
<path class="st0" d="M65.9,128.5L5.6,93.7c-2.2-1.3-1.9-3.5,0.6-5l59-34.1c2.5-1.5,6.4-1.6,8.6-0.4l60.3,34.8c2.2,1.3,1.9,3.5-0.6,5
	l-59,34.1C72,129.7,68.1,129.8,65.9,128.5z"/>
<path class="st1" d="M102.4,30.2c-0.6,0.4-1.2,0.8-1.8,1.2c-0.1,0.1-0.2,0.1-0.3,0.2c-0.6,0.4-1.2,0.9-1.8,1.3
	c-0.1,0.1-0.2,0.2-0.3,0.3c-0.6,0.5-1.3,0.9-1.9,1.4c-0.1,0.1-0.2,0.1-0.2,0.2c-0.7,0.5-1.3,1.1-2,1.6c0,0,0,0-0.1,0
	c-0.7,0.6-1.4,1.2-2,1.8c-0.1,0-0.1,0.1-0.2,0.1c-0.7,0.6-1.3,1.2-2,1.8c-0.1,0.1-0.2,0.2-0.2,0.2c-0.6,0.6-1.2,1.2-1.8,1.8
	c-0.1,0.1-0.2,0.2-0.3,0.3c-0.6,0.6-1.2,1.2-1.7,1.8c-0.1,0.1-0.2,0.2-0.3,0.3c-0.6,0.6-1.1,1.2-1.7,1.9c-0.1,0.1-0.1,0.1-0.2,0.2
	c-0.6,0.7-1.2,1.3-1.7,2c0,0,0,0-0.1,0.1c-0.6,0.7-1.2,1.4-1.7,2.2c-0.1,0.1-0.1,0.2-0.2,0.2c-0.7,0.9-1.4,1.8-2.1,2.8c0,0,0,0,0,0
	c-0.5,0.6-0.9,1.3-1.4,2c-0.1,0.1-0.2,0.3-0.3,0.4c-0.4,0.6-0.9,1.3-1.3,1.9c-0.1,0.1-0.1,0.2-0.2,0.3c-0.6,0.8-1.1,1.7-1.7,2.6
	c-0.1,0.1-0.1,0.2-0.2,0.3c-0.5,0.9-1.1,1.7-1.6,2.6c-0.1,0.1-0.2,0.3-0.2,0.4c-0.3,0.6-0.6,1.1-1,1.7c0,0.1-0.1,0.2-0.1,0.3
	c-0.4,0.6-0.7,1.3-1,1.9c-0.1,0.1-0.1,0.3-0.2,0.4c-0.5,0.9-0.9,1.7-1.3,2.6c-0.1,0.1-0.1,0.3-0.2,0.4c-0.4,0.8-0.7,1.5-1.1,2.3
	c0,0.1-0.1,0.2-0.1,0.3c-0.3,0.6-0.6,1.3-0.9,1.9c-0.1,0.1-0.1,0.3-0.2,0.4c-0.3,0.7-0.6,1.4-0.9,2c-0.1,0.1-0.1,0.3-0.2,0.4
	c-0.3,0.6-0.5,1.3-0.8,1.9c0,0.1-0.1,0.2-0.1,0.3c-0.3,0.7-0.5,1.4-0.8,2.1c-0.1,0.2-0.1,0.3-0.2,0.5c-0.3,0.7-0.5,1.5-0.8,2.2
	c0,0,0,0.1,0,0.1c-0.2,0.7-0.5,1.5-0.7,2.2c0,0.1-0.1,0.3-0.1,0.4c-0.2,0.7-0.4,1.5-0.7,2.2c0,0.1-0.1,0.3-0.1,0.4
	c-0.2,0.8-0.4,1.5-0.6,2.3c0,0.1,0,0.1,0,0.2c-0.2,0.7-0.3,1.5-0.5,2.2c0,0.1-0.1,0.2-0.1,0.4c-0.2,0.7-0.3,1.5-0.5,2.2
	c0,0.2-0.1,0.3-0.1,0.5c-0.1,0.7-0.3,1.5-0.4,2.2c0,0.1,0,0.1,0,0.2c-0.1,0.7-0.2,1.4-0.3,2.1c0,0.1,0,0.3-0.1,0.4
	c-0.1,0.7-0.2,1.4-0.2,2.1c0,0.1,0,0.3,0,0.4c-0.1,0.6-0.1,1.3-0.2,1.9c0,0.1,0,0.2,0,0.2c0,0.7-0.1,1.4-0.1,2.1c0,0.2,0,0.3,0,0.5
	c0,0.7,0,1.3,0,2l-12.1-7c0-0.7,0-1.3,0-2c0-0.1,0-0.2,0-0.2c0-0.1,0-0.2,0-0.2c0-0.7,0.1-1.4,0.1-2.1c0,0,0,0,0-0.1
	c0-0.1,0-0.1,0-0.2c0-0.6,0.1-1.3,0.2-1.9c0-0.1,0-0.2,0-0.3c0-0.1,0-0.1,0-0.2c0.1-0.7,0.1-1.4,0.2-2.1c0-0.1,0-0.1,0-0.2
	c0-0.1,0-0.2,0-0.3c0.1-0.7,0.2-1.4,0.3-2.1c0,0,0-0.1,0-0.1c0,0,0,0,0,0c0.1-0.7,0.2-1.5,0.4-2.2c0-0.1,0-0.2,0-0.2
	c0-0.1,0-0.1,0-0.2c0.1-0.7,0.3-1.5,0.5-2.2c0,0,0-0.1,0-0.1c0-0.1,0-0.2,0.1-0.2c0.2-0.7,0.3-1.5,0.5-2.2c0,0,0-0.1,0-0.1
	c0,0,0,0,0,0c0.2-0.8,0.4-1.5,0.6-2.3c0-0.1,0-0.2,0.1-0.2c0-0.1,0-0.1,0.1-0.2c0.2-0.7,0.4-1.5,0.7-2.2c0-0.1,0-0.1,0-0.2
	c0-0.1,0.1-0.2,0.1-0.3c0.2-0.7,0.5-1.5,0.7-2.2c0,0,0-0.1,0-0.1c0,0,0,0,0,0c0.2-0.7,0.5-1.5,0.8-2.2c0-0.1,0.1-0.2,0.1-0.3
	c0-0.1,0.1-0.1,0.1-0.2c0.3-0.7,0.5-1.4,0.8-2.1c0,0,0-0.1,0-0.1c0-0.1,0.1-0.2,0.1-0.2c0.2-0.6,0.5-1.2,0.8-1.9
	c0-0.1,0.1-0.2,0.1-0.3c0,0,0-0.1,0.1-0.1c0.3-0.7,0.6-1.4,0.9-2c0-0.1,0-0.1,0.1-0.2c0-0.1,0.1-0.2,0.1-0.3
	c0.3-0.6,0.6-1.3,0.9-1.9c0-0.1,0.1-0.1,0.1-0.2c0,0,0,0,0-0.1c0.4-0.8,0.7-1.5,1.1-2.3c0-0.1,0.1-0.2,0.1-0.2
	c0-0.1,0.1-0.1,0.1-0.2c0.4-0.9,0.9-1.7,1.3-2.6c0-0.1,0.1-0.1,0.1-0.2c0-0.1,0.1-0.1,0.1-0.2c0.3-0.6,0.7-1.3,1-1.9
	c0-0.1,0.1-0.2,0.1-0.3c0.3-0.6,0.6-1.1,1-1.7c0.1-0.1,0.1-0.2,0.2-0.3c0-0.1,0.1-0.1,0.1-0.2c0.5-0.9,1-1.7,1.6-2.6
	c0.1-0.1,0.1-0.2,0.2-0.3c0.5-0.9,1.1-1.7,1.7-2.6c0-0.1,0.1-0.1,0.1-0.2c0,0,0.1-0.1,0.1-0.1c0.4-0.6,0.9-1.3,1.3-1.9
	c0.1-0.1,0.2-0.3,0.3-0.4c0.5-0.7,0.9-1.3,1.4-2l0,0l0,0c0.7-0.9,1.4-1.9,2.1-2.8c0,0,0,0,0.1-0.1c0-0.1,0.1-0.1,0.1-0.2
	c0.6-0.7,1.2-1.4,1.7-2.2c0,0,0,0,0,0c0,0,0,0,0-0.1c0.6-0.7,1.1-1.3,1.7-2c0-0.1,0.1-0.1,0.1-0.2c0,0,0,0,0.1-0.1
	c0.6-0.6,1.1-1.2,1.7-1.9c0.1-0.1,0.1-0.1,0.2-0.2c0,0,0.1-0.1,0.1-0.1c0.6-0.6,1.2-1.2,1.7-1.8c0,0,0.1-0.1,0.1-0.1
	c0.1-0.1,0.1-0.1,0.2-0.2c0.6-0.6,1.2-1.2,1.8-1.8c0,0,0.1-0.1,0.1-0.1c0.1,0,0.1-0.1,0.2-0.1c0.6-0.6,1.3-1.2,2-1.8c0,0,0,0,0,0
	c0,0,0.1-0.1,0.1-0.1c0.7-0.6,1.3-1.2,2-1.8c0,0,0,0,0,0c0,0,0,0,0,0c0.7-0.6,1.3-1.1,2-1.6c0.1,0,0.1-0.1,0.2-0.1
	c0,0,0.1,0,0.1-0.1c0.6-0.5,1.3-1,1.9-1.4c0.1,0,0.1-0.1,0.2-0.1c0.1,0,0.1-0.1,0.2-0.1c0.6-0.4,1.2-0.9,1.8-1.3
	c0,0,0.1-0.1,0.1-0.1c0.1,0,0.1-0.1,0.2-0.1c0.6-0.4,1.2-0.8,1.8-1.2c0,0,0,0,0,0c0,0,0,0,0,0c0.6-0.4,1.2-0.8,1.8-1.1
	c0.1,0,0.1-0.1,0.2-0.1c0.2-0.1,0.3-0.2,0.5-0.3l12.1,7c-0.2,0.1-0.5,0.3-0.7,0.4C103.7,29.4,103.1,29.8,102.4,30.2
	C102.5,30.2,102.4,30.2,102.4,30.2z"/>
<polygon class="st2" points="60.4,29.8 99.5,7.3 99.5,81.4 60.4,103.9 "/>
<polygon class="st3" points="63,31.7 102.2,9.2 102.2,83.3 63,105.8 "/>
<polygon class="st2" points="65.7,33.4 104.8,10.8 104.8,84.9 65.7,107.5 "/>
<g>
	<path class="st4" d="M105,28.7c-27,15.6-48.9,53.5-48.8,84.5l49-28.3L105,28.7z"/>
</g>
</svg>
