<?xml version="1.0" encoding="utf-8"?>
<!-- Generator: Adobe Illustrator 22.1.0, SVG Export Plug-In . SVG Version: 6.00 Build 0)  -->
<svg version="1.1" id="Layer_1" xmlns="http://www.w3.org/2000/svg" xmlns:xlink="http://www.w3.org/1999/xlink" x="0px" y="0px"
	 viewBox="0 0 744 472" style="enable-background:new 0 0 744 472;" xml:space="preserve">
<style type="text/css">
	.st0{opacity:0.4516;}
	.st1{opacity:0;fill:url(#XMLID_2_);}
	.st2{opacity:3.225800e-02;fill:url(#SVGID_1_);}
	.st3{opacity:6.451600e-02;fill:url(#SVGID_2_);}
	.st4{opacity:9.677400e-02;fill:url(#SVGID_3_);}
	.st5{opacity:0.129;fill:url(#SVGID_4_);}
	.st6{opacity:0.1613;fill:url(#SVGID_5_);}
	.st7{opacity:0.1935;fill:url(#SVGID_6_);}
	.st8{opacity:0.2258;fill:url(#SVGID_7_);}
	.st9{opacity:0.2581;fill:url(#SVGID_8_);}
	.st10{opacity:0.2903;fill:url(#SVGID_9_);}
	.st11{opacity:0.3226;fill:url(#SVGID_10_);}
	.st12{opacity:0.3548;fill:url(#SVGID_11_);}
	.st13{opacity:0.3871;fill:url(#SVGID_12_);}
	.st14{opacity:0.4194;fill:url(#SVGID_13_);}
	.st15{opacity:0.4516;fill:url(#SVGID_14_);}
	.st16{opacity:0.4839;fill:url(#SVGID_15_);}
	.st17{opacity:0.5161;fill:url(#SVGID_16_);}
	.st18{opacity:0.5484;fill:url(#SVGID_17_);}
	.st19{opacity:0.5806;fill:url(#SVGID_18_);}
	.st20{opacity:0.6129;fill:url(#SVGID_19_);}
	.st21{opacity:0.6452;fill:url(#SVGID_20_);}
	.st22{opacity:0.6774;fill:url(#SVGID_21_);}
	.st23{opacity:0.7097;fill:url(#SVGID_22_);}
	.st24{opacity:0.7419;fill:url(#SVGID_23_);}
	.st25{opacity:0.7742;fill:url(#SVGID_24_);}
	.st26{opacity:0.8065;fill:url(#SVGID_25_);}
	.st27{opacity:0.8387;fill:url(#SVGID_26_);}
	.st28{opacity:0.871;fill:url(#SVGID_27_);}
	.st29{opacity:0.9032;fill:url(#SVGID_28_);}
	.st30{opacity:0.9355;fill:url(#SVGID_29_);}
	.st31{opacity:0.9677;fill:url(#SVGID_30_);}
	.st32{fill:url(#SVGID_31_);}
	.st33{fill:#7CBE3F;}
	.st34{fill:#F7F7F7;}
	.st35{fill:url(#XMLID_3_);}
	.st36{fill:#E6E7E8;}
	.st37{fill:#FFFFFF;}
</style>
<g class="st0">
	<linearGradient id="XMLID_2_" gradientUnits="userSpaceOnUse" x1="43.8033" y1="252.63" x2="749.566" y2="252.63">
		<stop  offset="0" style="stop-color:#231F20"/>
		<stop  offset="0.2319" style="stop-color:#625F5F"/>
		<stop  offset="0.5036" style="stop-color:#A4A3A3"/>
		<stop  offset="0.7315" style="stop-color:#D5D5D5"/>
		<stop  offset="0.9036" style="stop-color:#F4F3F4"/>
		<stop  offset="1" style="stop-color:#FFFFFF"/>
	</linearGradient>
	<path id="XMLID_1110_" class="st1" d="M739.5,167.6c13.4,7.6,13.4,20.1,0.1,27.8L298.9,449.5c-13.3,7.7-35.2,7.7-48.5,0.1L53.8,337
		c-13.4-7.6-13.4-20.2-0.1-27.9L493.1,55.8c13.3-7.7,35.2-7.8,48.6-0.2L739.5,167.6z"/>
	<linearGradient id="SVGID_1_" gradientUnits="userSpaceOnUse" x1="46.3602" y1="252.6308" x2="746.9935" y2="252.6308">
		<stop  offset="0" style="stop-color:#231F20"/>
		<stop  offset="0.2319" style="stop-color:#625F5F"/>
		<stop  offset="0.5036" style="stop-color:#A4A3A3"/>
		<stop  offset="0.7315" style="stop-color:#D5D5D5"/>
		<stop  offset="0.9036" style="stop-color:#F4F3F4"/>
		<stop  offset="1" style="stop-color:#FFFFFF"/>
	</linearGradient>
	<path class="st2" d="M736.8,167.3L565.6,70.4c0,0-8.6-4.9-8.7-4.9c-0.1,0-8.8-4.8-8.9-4.8l-7.5-4.1c-13-7.3-35.2-6.6-48.1,0.8
		l-436,251.4c-13.5,7.8-13.4,20.7,0.1,28.4L227,434.9c0,0,8.5,4.9,8.7,4.9l0,0c0.1,0,8.6,4.8,8.7,4.8l7.3,4
		c12.9,7.4,35.1,6.7,48-0.7l437.3-252.2C750.4,187.9,750.3,175,736.8,167.3z"/>
	<linearGradient id="SVGID_2_" gradientUnits="userSpaceOnUse" x1="48.9173" y1="252.6318" x2="744.4212" y2="252.6318">
		<stop  offset="0" style="stop-color:#231F20"/>
		<stop  offset="0.2319" style="stop-color:#625F5F"/>
		<stop  offset="0.5036" style="stop-color:#A4A3A3"/>
		<stop  offset="0.7315" style="stop-color:#D5D5D5"/>
		<stop  offset="0.9036" style="stop-color:#F4F3F4"/>
		<stop  offset="1" style="stop-color:#FFFFFF"/>
	</linearGradient>
	<path class="st3" d="M734.1,167L564.3,70.9c0,0-8.4-4.7-8.7-4.7c-0.3,0-8.8-4.7-8.8-4.6l-7.5-3.8c-12.5-7.1-35.1-5.8-47.6,1.4
		L59.1,308.6c-13.6,7.8-13.6,21.2,0.1,29l169.2,96.8c0,0,8.4,4.7,8.6,4.7l0,0c0.3,0,8.6,4.6,8.6,4.6l7.2,3.7
		c12.5,7.2,35.1,5.9,47.5-1.3l433.9-250.2C747.9,188.1,747.8,174.8,734.1,167z"/>
	<linearGradient id="SVGID_3_" gradientUnits="userSpaceOnUse" x1="51.4744" y1="252.6327" x2="741.8488" y2="252.6327">
		<stop  offset="0" style="stop-color:#231F20"/>
		<stop  offset="0.2319" style="stop-color:#625F5F"/>
		<stop  offset="0.5036" style="stop-color:#A4A3A3"/>
		<stop  offset="0.7315" style="stop-color:#D5D5D5"/>
		<stop  offset="0.9036" style="stop-color:#F4F3F4"/>
		<stop  offset="1" style="stop-color:#FFFFFF"/>
	</linearGradient>
	<path class="st4" d="M731.5,166.8L562.9,71.3c-0.1,0-8.3-4.6-8.7-4.6c-0.4,0-8.7-4.5-8.8-4.4l-7.4-3.6c-12.1-6.8-35.1-4.9-47.1,2
		L61.7,308.3c-13.7,7.9-13.7,21.7,0.1,29.6L229.7,434c0.1,0,8.2,4.6,8.6,4.6l0,0c0.4,0,8.5,4.4,8.6,4.4l7.2,3.5
		c12.1,6.9,35,5,47-1.9l430.5-248.3C745.3,188.3,745.3,174.6,731.5,166.8z"/>
	<linearGradient id="SVGID_4_" gradientUnits="userSpaceOnUse" x1="54.0314" y1="252.6335" x2="739.2764" y2="252.6335">
		<stop  offset="0" style="stop-color:#231F20"/>
		<stop  offset="0.2319" style="stop-color:#625F5F"/>
		<stop  offset="0.5036" style="stop-color:#A4A3A3"/>
		<stop  offset="0.7315" style="stop-color:#D5D5D5"/>
		<stop  offset="0.9036" style="stop-color:#F4F3F4"/>
		<stop  offset="1" style="stop-color:#FFFFFF"/>
	</linearGradient>
	<path class="st5" d="M728.8,166.5L561.6,71.8c-0.1,0-8.1-4.5-8.6-4.5c-0.5,0-8.6-4.3-8.7-4.2l-7.3-3.3c-11.7-6.6-35-4.1-46.6,2.7
		L64.4,308c-13.9,8-13.8,22.2,0.1,30.1L231,433.5c0.1,0,8,4.5,8.6,4.5l0,0c0.6,0,8.5,4.2,8.6,4.2l7.1,3.3
		c11.6,6.7,34.9,4.2,46.5-2.5l427.2-246.3C742.8,188.5,742.7,174.4,728.8,166.5z"/>
	<linearGradient id="SVGID_5_" gradientUnits="userSpaceOnUse" x1="56.5884" y1="252.6344" x2="736.7041" y2="252.6344">
		<stop  offset="0" style="stop-color:#231F20"/>
		<stop  offset="0.2319" style="stop-color:#625F5F"/>
		<stop  offset="0.5036" style="stop-color:#A4A3A3"/>
		<stop  offset="0.7315" style="stop-color:#D5D5D5"/>
		<stop  offset="0.9036" style="stop-color:#F4F3F4"/>
		<stop  offset="1" style="stop-color:#FFFFFF"/>
	</linearGradient>
	<path class="st6" d="M726.1,166.2L560.2,72.3c-0.1-0.1-7.9-4.4-8.6-4.4c-0.7,0-8.6-4.1-8.7-4l-7.3-3.1c-11.2-6.4-34.9-3.2-46.1,3.3
		L67.1,307.7c-14,8.1-14,22.6,0.1,30.7L232.3,433c0.1,0.1,7.8,4.4,8.5,4.4l0,0c0.7,0,8.4,4,8.5,4l7,3c11.2,6.4,34.9,3.3,46-3.2
		l423.8-244.4C740.2,188.7,740.2,174.2,726.1,166.2z"/>
	<linearGradient id="SVGID_6_" gradientUnits="userSpaceOnUse" x1="59.1455" y1="252.6354" x2="734.1319" y2="252.6354">
		<stop  offset="0" style="stop-color:#231F20"/>
		<stop  offset="0.2319" style="stop-color:#625F5F"/>
		<stop  offset="0.5036" style="stop-color:#A4A3A3"/>
		<stop  offset="0.7315" style="stop-color:#D5D5D5"/>
		<stop  offset="0.9036" style="stop-color:#F4F3F4"/>
		<stop  offset="1" style="stop-color:#FFFFFF"/>
	</linearGradient>
	<path class="st7" d="M723.5,166L558.9,72.8c-0.1-0.1-7.7-4.3-8.5-4.3c-0.8,0-8.5-3.9-8.7-3.8l-7.2-2.8c-10.8-6.1-34.9-2.3-45.6,3.9
		L69.7,307.5c-14.1,8.1-14.1,23.1,0.1,31.2l163.9,93.8c0.1,0.1,7.7,4.3,8.5,4.3l0,0c0.8,0,8.4,3.8,8.5,3.8l7,2.8
		c10.8,6.2,34.8,2.4,45.5-3.8l420.4-242.5C737.7,189,737.6,174,723.5,166z"/>
	<linearGradient id="SVGID_7_" gradientUnits="userSpaceOnUse" x1="61.7023" y1="252.6364" x2="731.5594" y2="252.6364">
		<stop  offset="0" style="stop-color:#231F20"/>
		<stop  offset="0.2319" style="stop-color:#625F5F"/>
		<stop  offset="0.5036" style="stop-color:#A4A3A3"/>
		<stop  offset="0.7315" style="stop-color:#D5D5D5"/>
		<stop  offset="0.9036" style="stop-color:#F4F3F4"/>
		<stop  offset="1" style="stop-color:#FFFFFF"/>
	</linearGradient>
	<path class="st8" d="M720.8,165.7L557.5,73.3c-0.1-0.1-7.5-4.1-8.5-4.1c-0.9,0-8.5-3.7-8.6-3.6l-7.1-2.6
		c-10.4-5.9-34.8-1.5-45.1,4.5L72.4,307.2c-14.2,8.2-14.2,23.6,0.1,31.8L235,432c0.1,0.1,7.5,4.1,8.4,4.1l0,0c1,0,8.3,3.6,8.5,3.6
		l6.9,2.6c10.3,5.9,34.7,1.6,45.1-4.4l417-240.5C735.2,189.2,735.1,173.8,720.8,165.7z"/>
	<linearGradient id="SVGID_8_" gradientUnits="userSpaceOnUse" x1="64.2596" y1="252.6375" x2="728.9869" y2="252.6375">
		<stop  offset="0" style="stop-color:#231F20"/>
		<stop  offset="0.2319" style="stop-color:#625F5F"/>
		<stop  offset="0.5036" style="stop-color:#A4A3A3"/>
		<stop  offset="0.7315" style="stop-color:#D5D5D5"/>
		<stop  offset="0.9036" style="stop-color:#F4F3F4"/>
		<stop  offset="1" style="stop-color:#FFFFFF"/>
	</linearGradient>
	<path class="st9" d="M718.1,165.4L556.2,73.7c-0.2-0.1-7.4-4-8.5-4c-1,0-8.4-3.5-8.6-3.4L532,64c-9.9-5.6-34.7-0.6-44.6,5.1
		L75,306.9c-14.4,8.3-14.3,24.1,0.1,32.3l161.3,92.3c0.2,0.1,7.3,4,8.4,4l0,0c1.1,0,8.3,3.4,8.4,3.4l6.8,2.3
		c9.9,5.7,34.7,0.7,44.6-5l413.7-238.6C732.6,189.4,732.6,173.6,718.1,165.4z"/>
	<linearGradient id="SVGID_9_" gradientUnits="userSpaceOnUse" x1="66.8166" y1="252.6384" x2="726.4146" y2="252.6384">
		<stop  offset="0" style="stop-color:#231F20"/>
		<stop  offset="0.2319" style="stop-color:#625F5F"/>
		<stop  offset="0.5036" style="stop-color:#A4A3A3"/>
		<stop  offset="0.7315" style="stop-color:#D5D5D5"/>
		<stop  offset="0.9036" style="stop-color:#F4F3F4"/>
		<stop  offset="1" style="stop-color:#FFFFFF"/>
	</linearGradient>
	<path class="st10" d="M715.4,165.2L554.8,74.2c-0.2-0.1-7.2-3.9-8.4-3.9c-1.2,0-8.3-3.3-8.6-3.2l-7-2.1c-9.5-5.4-34.7,0.2-44.1,5.7
		l-409,235.9c-14.5,8.4-14.5,24.6,0.1,32.9l160,91.6c0.2,0.1,7.1,3.9,8.4,3.9l0,0c1.2,0,8.2,3.3,8.4,3.2l6.8,2.1
		c9.5,5.4,34.6-0.2,44.1-5.6L715.6,198C730.1,189.6,730,173.4,715.4,165.2z"/>
	<linearGradient id="SVGID_10_" gradientUnits="userSpaceOnUse" x1="69.3737" y1="252.6403" x2="723.8423" y2="252.6403">
		<stop  offset="0" style="stop-color:#231F20"/>
		<stop  offset="0.2319" style="stop-color:#625F5F"/>
		<stop  offset="0.5036" style="stop-color:#A4A3A3"/>
		<stop  offset="0.7315" style="stop-color:#D5D5D5"/>
		<stop  offset="0.9036" style="stop-color:#F4F3F4"/>
		<stop  offset="1" style="stop-color:#FFFFFF"/>
	</linearGradient>
	<path class="st11" d="M712.8,164.9L553.5,74.7c-0.2-0.1-7-3.8-8.4-3.8c-1.3,0-8.3-3.1-8.5-3l-6.9-1.9c-9.1-5.1-34.6,1.1-43.6,6.3
		L80.3,306.3c-14.6,8.4-14.6,25,0.1,33.4L239,430.6c0.2,0.1,7,3.8,8.3,3.8l0,0c1.4,0,8.1,3.1,8.3,2.9l6.7,1.9c9,5.2,34.5-1,43.6-6.2
		l406.9-234.7C727.5,189.8,727.5,173.2,712.8,164.9z"/>
	<linearGradient id="SVGID_11_" gradientUnits="userSpaceOnUse" x1="71.9309" y1="252.6416" x2="721.2702" y2="252.6416">
		<stop  offset="0" style="stop-color:#231F20"/>
		<stop  offset="0.2319" style="stop-color:#625F5F"/>
		<stop  offset="0.5036" style="stop-color:#A4A3A3"/>
		<stop  offset="0.7315" style="stop-color:#D5D5D5"/>
		<stop  offset="0.9036" style="stop-color:#F4F3F4"/>
		<stop  offset="1" style="stop-color:#FFFFFF"/>
	</linearGradient>
	<path class="st12" d="M710.1,164.6l-158-89.4c-0.2-0.1-6.8-3.7-8.3-3.7c-1.4,0-8.2-2.9-8.5-2.8l-6.9-1.6c-8.6-4.9-34.5,2-43.1,6.9
		L83,306.1c-14.8,8.5-14.7,25.5,0.1,34l157.3,90.1c0.2,0.1,6.8,3.7,8.3,3.7l0,0c1.5,0,8.1,2.9,8.3,2.7l6.7,1.6
		c8.6,4.9,34.5-1.9,43.1-6.9l403.5-232.7C725,190,724.9,173,710.1,164.6z"/>
	<linearGradient id="SVGID_12_" gradientUnits="userSpaceOnUse" x1="74.4877" y1="252.6432" x2="718.6978" y2="252.6432">
		<stop  offset="0" style="stop-color:#231F20"/>
		<stop  offset="0.2319" style="stop-color:#625F5F"/>
		<stop  offset="0.5036" style="stop-color:#A4A3A3"/>
		<stop  offset="0.7315" style="stop-color:#D5D5D5"/>
		<stop  offset="0.9036" style="stop-color:#F4F3F4"/>
		<stop  offset="1" style="stop-color:#FFFFFF"/>
	</linearGradient>
	<path class="st13" d="M707.4,164.4L550.8,75.7c-0.2-0.1-6.7-3.5-8.3-3.5c-1.6,0-8.1-2.7-8.5-2.6l-6.8-1.4
		c-8.2-4.6-34.5,2.8-42.6,7.5L85.6,305.8c-14.9,8.6-14.9,26,0.1,34.6l156,89.3c0.2,0.1,6.6,3.5,8.2,3.5l0,0c1.7,0,8,2.7,8.3,2.5
		l6.6,1.4c8.2,4.7,34.4-2.7,42.6-7.5l400.2-230.8C722.5,190.3,722.4,172.8,707.4,164.4z"/>
	<linearGradient id="SVGID_13_" gradientUnits="userSpaceOnUse" x1="77.0451" y1="252.6448" x2="716.1253" y2="252.6448">
		<stop  offset="0" style="stop-color:#231F20"/>
		<stop  offset="0.2319" style="stop-color:#625F5F"/>
		<stop  offset="0.5036" style="stop-color:#A4A3A3"/>
		<stop  offset="0.7315" style="stop-color:#D5D5D5"/>
		<stop  offset="0.9036" style="stop-color:#F4F3F4"/>
		<stop  offset="1" style="stop-color:#FFFFFF"/>
	</linearGradient>
	<path class="st14" d="M704.7,164.1L549.4,76.1c-0.3-0.1-6.5-3.4-8.3-3.4c-1.7,0-8.1-2.5-8.4-2.4l-6.7-1.2
		c-7.8-4.4-34.4,3.7-42.1,8.2L88.3,305.5c-15,8.7-15,26.5,0.1,35.1L243,429.1c0.3,0.1,6.4,3.4,8.2,3.4l0,0c1.8,0,8,2.5,8.2,2.3
		l6.5,1.1c7.8,4.4,34.3-3.6,42.1-8.1l396.8-228.8C719.9,190.5,719.9,172.6,704.7,164.1z"/>
	<linearGradient id="SVGID_14_" gradientUnits="userSpaceOnUse" x1="79.6019" y1="252.6469" x2="713.5534" y2="252.6469">
		<stop  offset="0" style="stop-color:#231F20"/>
		<stop  offset="0.2319" style="stop-color:#625F5F"/>
		<stop  offset="0.5036" style="stop-color:#A4A3A3"/>
		<stop  offset="0.7315" style="stop-color:#D5D5D5"/>
		<stop  offset="0.9036" style="stop-color:#F4F3F4"/>
		<stop  offset="1" style="stop-color:#FFFFFF"/>
	</linearGradient>
	<path class="st15" d="M702.1,163.8l-154-87.2c-0.3-0.1-6.3-3.3-8.2-3.3c-1.8,0-8-2.4-8.4-2.2l-6.7-0.9c-7.3-4.2-34.3,4.5-41.6,8.8
		L91,305.2c-15.2,8.7-15.1,27,0.1,35.7l153.4,87.8c0.3,0.1,6.3,3.3,8.2,3.3l0,0c1.9,0,7.9,2.3,8.2,2.1l6.5,0.9
		c7.3,4.2,34.3-4.5,41.6-8.7l393.4-226.9C717.4,190.7,717.3,172.4,702.1,163.8z"/>
	<linearGradient id="SVGID_15_" gradientUnits="userSpaceOnUse" x1="82.1592" y1="252.6493" x2="710.9805" y2="252.6493">
		<stop  offset="0" style="stop-color:#231F20"/>
		<stop  offset="0.2319" style="stop-color:#625F5F"/>
		<stop  offset="0.5036" style="stop-color:#A4A3A3"/>
		<stop  offset="0.7315" style="stop-color:#D5D5D5"/>
		<stop  offset="0.9036" style="stop-color:#F4F3F4"/>
		<stop  offset="1" style="stop-color:#FFFFFF"/>
	</linearGradient>
	<path class="st16" d="M699.4,163.5L546.7,77.1c-0.3-0.2-6.1-3.2-8.2-3.2c-2,0-8-2.2-8.3-1.9l-6.6-0.7c-6.9-3.9-34.3,5.4-41.1,9.4
		L93.6,304.9c-15.3,8.8-15.3,27.5,0.1,36.2l152,87c0.3,0.2,6.1,3.2,8.1,3.2l0,0c2.1,0,7.9,2.1,8.2,1.9l6.4,0.7
		c6.9,3.9,34.2-5.3,41.1-9.3l390-224.9C714.9,190.9,714.8,172.3,699.4,163.5z"/>
	<linearGradient id="SVGID_16_" gradientUnits="userSpaceOnUse" x1="84.7161" y1="252.6511" x2="708.4083" y2="252.6511">
		<stop  offset="0" style="stop-color:#231F20"/>
		<stop  offset="0.2319" style="stop-color:#625F5F"/>
		<stop  offset="0.5036" style="stop-color:#A4A3A3"/>
		<stop  offset="0.7315" style="stop-color:#D5D5D5"/>
		<stop  offset="0.9036" style="stop-color:#F4F3F4"/>
		<stop  offset="1" style="stop-color:#FFFFFF"/>
	</linearGradient>
	<path class="st17" d="M696.7,163.3L545.4,77.6c-0.3-0.2-5.9-3.1-8.1-3.1c-2.1,0-7.9-2-8.3-1.7l-6.5-0.4c-6.5-3.7-34.2,6.3-40.7,10
		L96.3,304.6c-15.4,8.9-15.4,27.9,0.1,36.8L247,427.7c0.3,0.2,5.9,3.1,8.1,3.1l0,0c2.2,0,7.8,1.9,8.1,1.7l6.3,0.4
		c6.5,3.7,34.2-6.2,40.6-9.9l386.7-223C712.3,191.1,712.2,172.1,696.7,163.3z"/>
	<linearGradient id="SVGID_17_" gradientUnits="userSpaceOnUse" x1="87.2731" y1="252.6534" x2="705.8359" y2="252.6534">
		<stop  offset="0" style="stop-color:#231F20"/>
		<stop  offset="0.2319" style="stop-color:#625F5F"/>
		<stop  offset="0.5036" style="stop-color:#A4A3A3"/>
		<stop  offset="0.7315" style="stop-color:#D5D5D5"/>
		<stop  offset="0.9036" style="stop-color:#F4F3F4"/>
		<stop  offset="1" style="stop-color:#FFFFFF"/>
	</linearGradient>
	<path class="st18" d="M694,163L544,78.1c-0.3-0.2-5.8-2.9-8.1-2.9c-2.2,0-7.8-1.8-8.3-1.5l-6.5-0.2c-6-3.4-34.1,7.1-40.2,10.6
		L98.9,304.4c-15.6,9-15.5,28.4,0.1,37.3l149.4,85.5c0.3,0.2,5.7,2.9,8,2.9l0,0c2.3,0,7.8,1.7,8.1,1.5l6.3,0.2
		c6,3.5,34.1-7.1,40.1-10.5l383.3-221C709.8,191.3,709.7,171.9,694,163z"/>
	<linearGradient id="SVGID_18_" gradientUnits="userSpaceOnUse" x1="89.8299" y1="252.6562" x2="703.2637" y2="252.6562">
		<stop  offset="0" style="stop-color:#231F20"/>
		<stop  offset="0.2319" style="stop-color:#625F5F"/>
		<stop  offset="0.5036" style="stop-color:#A4A3A3"/>
		<stop  offset="0.7315" style="stop-color:#D5D5D5"/>
		<stop  offset="0.9036" style="stop-color:#F4F3F4"/>
		<stop  offset="1" style="stop-color:#FFFFFF"/>
	</linearGradient>
	<path class="st19" d="M691.4,162.7L542.7,78.5c-0.3-0.2-5.6-2.8-8.1-2.8c-2.3,0-7.8-1.6-8.2-1.3l-6.4,0.1
		c-5.6-3.2-34.1,8-39.7,11.2L101.6,304.1c-15.7,9-15.7,28.9,0.1,37.9l148.1,84.8c0.3,0.2,5.6,2.8,8,2.8l0,0c2.5,0,7.7,1.5,8.1,1.3
		l6.2,0c5.6,3.2,34-7.9,39.6-11.2l379.9-219.1C707.2,191.5,707.2,171.7,691.4,162.7z"/>
	<linearGradient id="SVGID_19_" gradientUnits="userSpaceOnUse" x1="92.3874" y1="252.6586" x2="700.6916" y2="252.6586">
		<stop  offset="0" style="stop-color:#231F20"/>
		<stop  offset="0.2319" style="stop-color:#625F5F"/>
		<stop  offset="0.5036" style="stop-color:#A4A3A3"/>
		<stop  offset="0.7315" style="stop-color:#D5D5D5"/>
		<stop  offset="0.9036" style="stop-color:#F4F3F4"/>
		<stop  offset="1" style="stop-color:#FFFFFF"/>
	</linearGradient>
	<path class="st20" d="M688.7,162.5L541.3,79c-0.4-0.2-5.4-2.7-8-2.7c-2.5,0-7.7-1.4-8.2-1.1l-6.3,0.3c-5.2-2.9-34,8.8-39.2,11.8
		L104.2,303.8c-15.8,9.1-15.8,29.4,0.1,38.4l146.8,84c0.4,0.2,5.4,2.7,8,2.7l0,0c2.6,0,7.7,1.3,8,1.1l6.1-0.3
		c5.2,3,34-8.8,39.1-11.8l376.5-217.2C704.7,191.8,704.6,171.5,688.7,162.5z"/>
	<linearGradient id="SVGID_20_" gradientUnits="userSpaceOnUse" x1="94.9446" y1="252.6333" x2="698.1189" y2="252.6333">
		<stop  offset="0" style="stop-color:#231F20"/>
		<stop  offset="0.2319" style="stop-color:#625F5F"/>
		<stop  offset="0.5036" style="stop-color:#A4A3A3"/>
		<stop  offset="0.7315" style="stop-color:#D5D5D5"/>
		<stop  offset="0.9036" style="stop-color:#F4F3F4"/>
		<stop  offset="1" style="stop-color:#FFFFFF"/>
	</linearGradient>
	<path class="st21" d="M686,162.2L540,79.5c-0.4-0.2-5.2-2.6-8-2.6c-2.6,0-7.7-1.2-8.2-0.9l-6.3,0.5c-4.8-2.7-33.9,9.7-38.7,12.4
		l-372,214.5c-15.9,9.2-15.9,29.9,0.1,39l145.4,83.3c0.4,0.2,5.2,2.6,7.9,2.6l0,0c2.8,0,7.6,1.1,8,0.9l6.1-0.5
		c4.7,2.7,33.9-9.7,38.6-12.4l373.2-215.2C702.2,192,702.1,171.3,686,162.2z"/>
	<linearGradient id="SVGID_21_" gradientUnits="userSpaceOnUse" x1="97.5011" y1="252.6317" x2="695.5464" y2="252.6317">
		<stop  offset="0" style="stop-color:#231F20"/>
		<stop  offset="0.2319" style="stop-color:#625F5F"/>
		<stop  offset="0.5036" style="stop-color:#A4A3A3"/>
		<stop  offset="0.7315" style="stop-color:#D5D5D5"/>
		<stop  offset="0.9036" style="stop-color:#F4F3F4"/>
		<stop  offset="1" style="stop-color:#FFFFFF"/>
	</linearGradient>
	<path class="st22" d="M683.4,161.9L538.6,80c-0.4-0.2-5.1-2.5-7.9-2.5c-2.7,0-7.6-1-8.1-0.7l-6.2,0.8c-4.3-2.4-33.9,10.6-38.2,13
		L109.5,303.2c-16.1,9.3-16,30.3,0.1,39.6l144.1,82.5c0.4,0.2,5,2.5,7.9,2.5l0,0c2.9,0,7.5,0.9,8,0.7l6-0.7
		c4.3,2.5,33.8-10.5,38.1-13l369.8-213.3C699.6,192.2,699.5,171.1,683.4,161.9z"/>
	<linearGradient id="SVGID_22_" gradientUnits="userSpaceOnUse" x1="100.0584" y1="252.6302" x2="692.9742" y2="252.6302">
		<stop  offset="0" style="stop-color:#231F20"/>
		<stop  offset="0.2319" style="stop-color:#625F5F"/>
		<stop  offset="0.5036" style="stop-color:#A4A3A3"/>
		<stop  offset="0.7315" style="stop-color:#D5D5D5"/>
		<stop  offset="0.9036" style="stop-color:#F4F3F4"/>
		<stop  offset="1" style="stop-color:#FFFFFF"/>
	</linearGradient>
	<path class="st23" d="M680.7,161.7L537.3,80.5c-0.4-0.2-4.9-2.3-7.9-2.3c-2.9,0-7.5-0.8-8.1-0.5l-6.1,1
		c-3.9-2.2-33.8,11.4-37.7,13.7L112.2,303c-16.2,9.3-16.2,30.8,0.1,40.1l142.8,81.7c0.4,0.2,4.8,2.3,7.8,2.3l0,0
		c3,0,7.5,0.8,7.9,0.5l6-1c3.9,2.2,33.8-11.4,37.6-13.6l366.4-211.3C697.1,192.4,697,170.9,680.7,161.7z"/>
	<linearGradient id="SVGID_23_" gradientUnits="userSpaceOnUse" x1="102.6153" y1="252.6274" x2="690.402" y2="252.6274">
		<stop  offset="0" style="stop-color:#231F20"/>
		<stop  offset="0.2319" style="stop-color:#625F5F"/>
		<stop  offset="0.5036" style="stop-color:#A4A3A3"/>
		<stop  offset="0.7315" style="stop-color:#D5D5D5"/>
		<stop  offset="0.9036" style="stop-color:#F4F3F4"/>
		<stop  offset="1" style="stop-color:#FFFFFF"/>
	</linearGradient>
	<path class="st24" d="M678,161.4L535.9,80.9c-0.4-0.2-4.7-2.2-7.9-2.2c-3,0-7.5-0.6-8.1-0.3l-6.1,1.3c-3.5-2-33.7,12.3-37.2,14.3
		L114.8,302.7c-16.3,9.4-16.3,31.3,0.1,40.7l141.5,81c0.4,0.2,4.7,2.2,7.8,2.2l0,0c3.2,0,7.4,0.6,7.9,0.3l5.9-1.2
		c3.4,2,33.7-12.2,37.1-14.2l363.1-209.4C694.5,192.6,694.5,170.7,678,161.4z"/>
	<linearGradient id="SVGID_24_" gradientUnits="userSpaceOnUse" x1="105.1726" y1="252.6246" x2="687.8295" y2="252.6246">
		<stop  offset="0" style="stop-color:#231F20"/>
		<stop  offset="0.2319" style="stop-color:#625F5F"/>
		<stop  offset="0.5036" style="stop-color:#A4A3A3"/>
		<stop  offset="0.7315" style="stop-color:#D5D5D5"/>
		<stop  offset="0.9036" style="stop-color:#F4F3F4"/>
		<stop  offset="1" style="stop-color:#FFFFFF"/>
	</linearGradient>
	<path class="st25" d="M675.3,161.1L534.6,81.4c-0.5-0.2-4.5-2.1-7.8-2.1c-3.1,0-7.4-0.4-8-0.1l-6,1.5c-3-1.7-33.7,13.1-36.7,14.9
		L117.5,302.4c-16.5,9.5-16.4,31.8,0.1,41.2l140.2,80.2c0.5,0.3,4.5,2.1,7.8,2.1l0,0c3.3,0,7.4,0.4,7.9,0.1l5.8-1.4
		c3,1.7,33.6-13.1,36.6-14.8l359.7-207.4C692,192.8,691.9,170.5,675.3,161.1z"/>
	<linearGradient id="SVGID_25_" gradientUnits="userSpaceOnUse" x1="107.7294" y1="252.6228" x2="685.2571" y2="252.6228">
		<stop  offset="0" style="stop-color:#231F20"/>
		<stop  offset="0.2319" style="stop-color:#625F5F"/>
		<stop  offset="0.5036" style="stop-color:#A4A3A3"/>
		<stop  offset="0.7315" style="stop-color:#D5D5D5"/>
		<stop  offset="0.9036" style="stop-color:#F4F3F4"/>
		<stop  offset="1" style="stop-color:#FFFFFF"/>
	</linearGradient>
	<path class="st26" d="M672.7,160.8L533.2,81.9c-0.5-0.3-4.3-2-7.8-2c-3.3,0-7.3-0.2-8,0.1l-5.9,1.7c-2.6-1.5-33.6,14-36.2,15.5
		L120.2,302.1c-16.6,9.6-16.6,32.3,0.1,41.8l138.8,79.5c0.5,0.3,4.3,2,7.7,2l0,0c3.5,0,7.3,0.2,7.8-0.1l5.8-1.7
		c2.6,1.5,33.6-14,36.2-15.5l356.3-205.5C689.5,193,689.4,170.3,672.7,160.8z"/>
	<linearGradient id="SVGID_26_" gradientUnits="userSpaceOnUse" x1="110.2866" y1="252.6322" x2="682.6848" y2="252.6322">
		<stop  offset="0" style="stop-color:#231F20"/>
		<stop  offset="0.2319" style="stop-color:#625F5F"/>
		<stop  offset="0.5036" style="stop-color:#A4A3A3"/>
		<stop  offset="0.7315" style="stop-color:#D5D5D5"/>
		<stop  offset="0.9036" style="stop-color:#F4F3F4"/>
		<stop  offset="1" style="stop-color:#FFFFFF"/>
	</linearGradient>
	<path class="st27" d="M670,160.6L531.9,82.4c-0.5-0.3-4.2-1.9-7.7-1.9c-3.4,0-7.3-0.1-7.9,0.3l-5.9,2c-2.2-1.2-33.5,14.9-35.7,16.1
		L122.8,301.8c-16.7,9.7-16.7,32.7,0.1,42.3l137.5,78.7c0.5,0.3,4.1,1.9,7.7,1.9l0,0c3.6,0,7.3,0,7.8-0.3l5.7-1.9
		c2.2,1.2,33.5-14.8,35.7-16.1l352.9-203.5C686.9,193.3,686.8,170.1,670,160.6z"/>
	<linearGradient id="SVGID_27_" gradientUnits="userSpaceOnUse" x1="112.8435" y1="252.6325" x2="680.1127" y2="252.6325">
		<stop  offset="0" style="stop-color:#231F20"/>
		<stop  offset="0.2319" style="stop-color:#625F5F"/>
		<stop  offset="0.5036" style="stop-color:#A4A3A3"/>
		<stop  offset="0.7315" style="stop-color:#D5D5D5"/>
		<stop  offset="0.9036" style="stop-color:#F4F3F4"/>
		<stop  offset="1" style="stop-color:#FFFFFF"/>
	</linearGradient>
	<path class="st28" d="M667.3,160.3L530.5,82.9c-0.5-0.3-4-1.7-7.7-1.7c-3.5,0-7.2,0.1-7.9,0.5l-5.8,2.2c-1.7-1-33.5,15.7-35.2,16.7
		l-348.5,201c-16.9,9.7-16.8,33.2,0.1,42.9l136.2,78c0.5,0.3,4,1.8,7.6,1.8l0,0c3.7,0,7.2-0.2,7.8-0.5l5.6-2.2
		c1.7,1,33.4-15.7,35.2-16.7l349.6-201.6C684.4,193.5,684.3,169.9,667.3,160.3z"/>
	<linearGradient id="SVGID_28_" gradientUnits="userSpaceOnUse" x1="115.4008" y1="252.6313" x2="677.5402" y2="252.6313">
		<stop  offset="0" style="stop-color:#231F20"/>
		<stop  offset="0.2319" style="stop-color:#625F5F"/>
		<stop  offset="0.5036" style="stop-color:#A4A3A3"/>
		<stop  offset="0.7315" style="stop-color:#D5D5D5"/>
		<stop  offset="0.9036" style="stop-color:#F4F3F4"/>
		<stop  offset="1" style="stop-color:#FFFFFF"/>
	</linearGradient>
	<path class="st29" d="M664.6,160L529.2,83.3c-0.5-0.3-3.8-1.6-7.6-1.6c-3.7,0-7.2,0.3-7.9,0.7l-5.7,2.5
		c-1.3-0.7-33.4,16.6-34.7,17.3l-345.1,199c-17,9.8-17,33.7,0.1,43.4l134.9,77.2c0.5,0.3,3.8,1.6,7.6,1.6l0,0c3.9,0,7.2-0.4,7.7-0.7
		l5.6-2.4c1.3,0.7,33.4-16.6,34.7-17.3l346.2-199.6C681.9,193.7,681.8,169.7,664.6,160z"/>
	<linearGradient id="SVGID_29_" gradientUnits="userSpaceOnUse" x1="117.9578" y1="252.6305" x2="674.9681" y2="252.6305">
		<stop  offset="0" style="stop-color:#231F20"/>
		<stop  offset="0.2319" style="stop-color:#625F5F"/>
		<stop  offset="0.5036" style="stop-color:#A4A3A3"/>
		<stop  offset="0.7315" style="stop-color:#D5D5D5"/>
		<stop  offset="0.9036" style="stop-color:#F4F3F4"/>
		<stop  offset="1" style="stop-color:#FFFFFF"/>
	</linearGradient>
	<path class="st30" d="M662,159.8L527.9,83.8c-0.6-0.3-3.6-1.5-7.6-1.5c-3.8,0-7.1,0.5-7.8,0.9l-5.7,2.7
		c-0.9-0.5-33.4,17.4-34.2,17.9L130.8,301c-17.1,9.9-17.1,34.2,0.1,44l133.6,76.5c0.6,0.3,3.6,1.5,7.6,1.5l0,0c4,0,7.1-0.6,7.7-0.9
		l5.5-2.6c0.9,0.5,33.3-17.4,34.2-17.9l342.8-197.7C679.3,193.9,679.2,169.5,662,159.8z"/>
	<linearGradient id="SVGID_30_" gradientUnits="userSpaceOnUse" x1="120.5146" y1="252.6291" x2="672.3956" y2="252.6291">
		<stop  offset="0" style="stop-color:#231F20"/>
		<stop  offset="0.2319" style="stop-color:#625F5F"/>
		<stop  offset="0.5036" style="stop-color:#A4A3A3"/>
		<stop  offset="0.7315" style="stop-color:#D5D5D5"/>
		<stop  offset="0.9036" style="stop-color:#F4F3F4"/>
		<stop  offset="1" style="stop-color:#FFFFFF"/>
	</linearGradient>
	<path class="st31" d="M659.3,159.5L526.5,84.3c-0.6-0.3-3.5-1.4-7.6-1.4c-3.9,0-7,0.7-7.8,1.1l-5.6,3c-0.4-0.2-33.3,18.3-33.7,18.5
		L133.4,300.7c-17.3,10-17.2,34.7,0.1,44.6L265.8,421c0.6,0.3,3.4,1.4,7.5,1.4l0,0c4.1,0,7.1-0.8,7.6-1.1l5.4-2.9
		c0.4,0.2,33.3-18.3,33.7-18.5l339.4-195.8C676.8,194.1,676.7,169.3,659.3,159.5z"/>
	<linearGradient id="SVGID_31_" gradientUnits="userSpaceOnUse" x1="123.072" y1="252.6278" x2="669.8232" y2="252.6278">
		<stop  offset="0" style="stop-color:#231F20"/>
		<stop  offset="0.2319" style="stop-color:#625F5F"/>
		<stop  offset="0.5036" style="stop-color:#A4A3A3"/>
		<stop  offset="0.7315" style="stop-color:#D5D5D5"/>
		<stop  offset="0.9036" style="stop-color:#F4F3F4"/>
		<stop  offset="1" style="stop-color:#FFFFFF"/>
	</linearGradient>
	<path class="st32" d="M274.6,421.7c4.3,0,7-1,7.6-1.3l374.6-216c17.4-10.1,17.3-35.3-0.2-45.2L525.2,84.8c-0.6-0.3-3.3-1.3-7.5-1.3
		c-4,0-7,0.9-7.8,1.3L136.1,300.4c-17.4,10-17.3,35.1,0.1,45.1l130.9,75C267.7,420.8,270.4,421.7,274.6,421.7L274.6,421.7z"/>
</g>
<path id="XMLID_1109_" class="st33" d="M40.5,291.8v-7.9L463,35.7c7.9-4.6,17.3-7.4,25.2-2.8L710,160.3c2.1,1.2,3.8,3,4.9,5.2
	l1.2,2.5c4.7,9.7,1.1,21.3-8.2,26.7L293.2,434.1c-7.9,4.6-20.9,4.6-28.8,0L52.1,311.9C44.9,307.8,40.5,300.1,40.5,291.8z"/>
<path id="XMLID_1108_" class="st34" d="M46.4,290c-7.9-4.6-7.9-12.1,0-16.7L461.8,33.5c7.9-4.6,20.9-4.6,28.8,0l217.9,125.8
	c7.9,4.6,7.9,12.1,0,16.7L293.2,415.8c-7.9,4.6-20.9,4.6-28.8,0L46.4,290z"/>
<linearGradient id="XMLID_3_" gradientUnits="userSpaceOnUse" x1="96.4614" y1="223.5198" x2="659.4514" y2="223.5198">
	<stop  offset="0" style="stop-color:#6CB541"/>
	<stop  offset="1" style="stop-color:#8AC650"/>
</linearGradient>
<polygon id="XMLID_1107_" class="st35" points="96.5,260 440,60.3 659.5,187 315.9,386.7 "/>
<path id="XMLID_1105_" class="st36" d="M161.8,349.2c-9.8-5.7-9.8-14.9,0-20.6c9.8-5.7,25.8-5.7,35.6,0c9.8,5.7,9.8,14.9,0,20.6
	C187.6,354.9,171.6,354.9,161.8,349.2z"/>
<g id="XMLID_1146_">
	<polygon class="st37" points="528.5,262.5 309.5,135.6 331.1,123.1 550.3,249.9 	"/>
</g>
<g id="XMLID_1145_">
	<polygon class="st37" points="422.1,324.6 202.3,197.9 224.2,185.2 443.3,312.1 	"/>
</g>
<g id="XMLID_1144_">
	<polygon class="st37" points="172.2,304.3 150.3,291.6 496.7,92.7 517,105.4 	"/>
</g>
</svg>
