<?xml version="1.0" encoding="utf-8"?>
<!-- Generator: Adobe Illustrator 22.1.0, SVG Export Plug-In . SVG Version: 6.00 Build 0)  -->
<svg version="1.1" id="Layer_1" xmlns="http://www.w3.org/2000/svg" xmlns:xlink="http://www.w3.org/1999/xlink" x="0px" y="0px"
	 viewBox="0 0 237 160" style="enable-background:new 0 0 237 160;" xml:space="preserve">
<style type="text/css">
	.st0{fill:#F1F2F2;}
	.st1{fill:#BCBEC0;}
	.st2{fill:#D1D3D4;}
	.st3{fill:#F5F5F5;}
	.st4{fill:#009F36;}
	.st5{fill:#E6E7E8;}
	.st6{fill:#FFFFFF;}
	.st7{fill:#8BC53F;}
</style>
<polygon id="XMLID_713_" class="st0" points="230.3,70.8 230.2,99 145.7,147.9 145.9,118.4 "/>
<polygon id="XMLID_712_" class="st1" points="113.4,49.9 113.4,76.9 66.7,103.4 66.9,73 "/>
<polygon class="st2" points="66.7,103.4 66.9,73 10.5,41.3 10.5,71.3 "/>
<polygon class="st2" points="145.7,149.1 145.9,118.4 88.8,86.3 88.8,116.1 "/>
<polygon id="XMLID_711_" class="st3" points="146,118.6 10.5,41.3 58.7,13.5 147.3,64.6 183.7,43.6 230.3,70.8 "/>
<polygon id="XMLID_710_" class="st4" points="146.7,110.5 109.9,89.8 109.9,86.5 176.3,51.7 212.9,69.7 212.9,73 "/>
<polygon id="XMLID_709_" class="st5" points="146.7,107.2 109.9,86.5 176.3,48.4 212.9,69.7 "/>
<polygon id="XMLID_708_" class="st4" points="147.5,103.4 118.4,86.9 118.4,83.6 171,56.6 203.8,68 203.8,71.3 "/>
<polygon id="XMLID_707_" class="st6" points="147.5,100.1 118.4,83.6 174.7,51.1 203.8,68 "/>
<g id="XMLID_700_">
	<polygon id="XMLID_706_" class="st4" points="56.1,73.8 56.1,80.6 62,84 62,77.2 	"/>
	<polygon id="XMLID_705_" class="st4" points="47.7,69.2 47.7,76 53.6,79.4 53.6,72.6 	"/>
	<polygon id="XMLID_704_" class="st4" points="39.2,64.3 39.2,71.1 45.1,74.5 45.1,67.7 	"/>
	<polygon id="XMLID_703_" class="st4" points="30.8,59.6 30.8,66.4 36.7,69.8 36.7,63 	"/>
	<polygon id="XMLID_702_" class="st4" points="22.4,54.5 22.4,61.3 28.3,64.7 28.3,57.9 	"/>
	<polygon id="XMLID_701_" class="st4" points="13.9,49.7 13.9,56.5 19.8,59.9 19.8,53.1 	"/>
</g>
<g id="XMLID_693_">
	<polygon id="XMLID_699_" class="st4" points="56.1,84.7 56.1,91.5 62,94.9 62,88.1 	"/>
	<polygon id="XMLID_698_" class="st4" points="47.7,80.2 47.7,87 53.6,90.4 53.6,83.6 	"/>
	<polygon id="XMLID_697_" class="st4" points="39.2,75.2 39.2,82 45.1,85.4 45.1,78.6 	"/>
	<polygon id="XMLID_696_" class="st4" points="30.8,70.5 30.8,77.3 36.7,80.7 36.7,73.9 	"/>
	<polygon id="XMLID_695_" class="st4" points="22.4,65.4 22.4,72.2 28.3,75.6 28.3,68.8 	"/>
	<polygon id="XMLID_694_" class="st4" points="13.9,60.6 13.9,67.4 19.8,70.8 19.8,64 	"/>
</g>
<g id="XMLID_683_">
	<polygon id="XMLID_692_" class="st4" points="135.5,119.2 135.5,126 141.4,129.4 141.4,122.6 	"/>
	<polygon id="XMLID_691_" class="st4" points="127.1,114.7 127.1,121.5 133,124.9 133,118.1 	"/>
	<polygon id="XMLID_687_" class="st4" points="118.6,109.7 118.6,116.5 124.5,119.9 124.5,113.1 	"/>
	<polygon id="XMLID_686_" class="st4" points="110.2,105 110.2,111.8 116.1,115.2 116.1,108.4 	"/>
	<polygon id="XMLID_685_" class="st4" points="101.8,99.9 101.8,106.7 107.7,110.1 107.7,103.3 	"/>
	<polygon id="XMLID_684_" class="st4" points="93.3,95.1 93.3,101.9 99.2,105.3 99.2,98.5 	"/>
</g>
<g id="XMLID_670_">
	<polygon id="XMLID_682_" class="st4" points="157.1,119.2 157.1,126 151.2,129.4 151.2,122.6 	"/>
	<polygon id="XMLID_681_" class="st4" points="165.5,114.7 165.5,121.5 159.6,124.9 159.6,118.1 	"/>
	<polygon id="XMLID_680_" class="st4" points="174,109.7 174,116.5 168.1,119.9 168.1,113.1 	"/>
	<polygon id="XMLID_679_" class="st4" points="182.4,105 182.4,111.8 176.5,115.2 176.5,108.4 	"/>
	<polygon id="XMLID_678_" class="st4" points="190.8,99.9 190.8,106.7 184.9,110.1 184.9,103.3 	"/>
	<polygon id="XMLID_677_" class="st4" points="199.3,95.1 199.3,101.9 193.4,105.3 193.4,98.5 	"/>
	<polygon id="XMLID_676_" class="st4" points="199.3,95.1 199.3,101.9 193.4,105.3 193.4,98.5 	"/>
	<polygon id="XMLID_675_" class="st4" points="207.7,90.3 207.7,97.1 201.8,100.4 201.8,93.7 	"/>
	<polygon id="XMLID_674_" class="st4" points="207.7,90.3 207.7,97.1 201.8,100.4 201.8,93.7 	"/>
	<polygon id="XMLID_673_" class="st4" points="216.1,85.4 216.1,92.2 210.2,95.6 210.2,88.8 	"/>
	<polygon id="XMLID_672_" class="st4" points="216.1,85.4 216.1,92.2 210.2,95.6 210.2,88.8 	"/>
	<polygon id="XMLID_671_" class="st4" points="224.6,80.6 224.6,87.4 218.7,90.8 218.7,84 	"/>
</g>
<g id="XMLID_657_">
	<polygon id="XMLID_669_" class="st4" points="157.1,130.1 157.1,136.9 151.2,140.3 151.2,133.5 	"/>
	<polygon id="XMLID_668_" class="st4" points="165.5,125.6 165.5,132.4 159.6,135.8 159.6,129 	"/>
	<polygon id="XMLID_667_" class="st4" points="174,120.6 174,127.4 168.1,130.8 168.1,124 	"/>
	<polygon id="XMLID_666_" class="st4" points="182.4,115.9 182.4,122.7 176.5,126.1 176.5,119.3 	"/>
	<polygon id="XMLID_665_" class="st4" points="190.8,110.8 190.8,117.6 184.9,121 184.9,114.2 	"/>
	<polygon id="XMLID_664_" class="st4" points="199.3,106 199.3,112.8 193.4,116.2 193.4,109.4 	"/>
	<polygon id="XMLID_663_" class="st4" points="199.3,106 199.3,112.8 193.4,116.2 193.4,109.4 	"/>
	<polygon id="XMLID_662_" class="st4" points="207.7,101.2 207.7,108 201.8,111.4 201.8,104.6 	"/>
	<polygon id="XMLID_661_" class="st4" points="207.7,101.2 207.7,108 201.8,111.4 201.8,104.6 	"/>
	<polygon id="XMLID_660_" class="st4" points="216.1,96.3 216.1,103.1 210.2,106.5 210.2,99.7 	"/>
	<polygon id="XMLID_659_" class="st4" points="216.1,96.3 216.1,103.1 210.2,106.5 210.2,99.7 	"/>
	<polygon id="XMLID_658_" class="st4" points="224.6,91.5 224.6,98.3 218.7,101.7 218.7,94.9 	"/>
</g>
<g id="XMLID_650_">
	<polygon id="XMLID_656_" class="st4" points="135.5,130.1 135.5,136.9 141.4,140.3 141.4,133.5 	"/>
	<polygon id="XMLID_655_" class="st4" points="127.1,125.6 127.1,132.4 133,135.8 133,129 	"/>
	<polygon id="XMLID_654_" class="st4" points="118.6,120.6 118.6,127.4 124.5,130.8 124.5,124 	"/>
	<polygon id="XMLID_653_" class="st4" points="110.2,115.9 110.2,122.7 116.1,126.1 116.1,119.3 	"/>
	<polygon id="XMLID_652_" class="st4" points="101.8,110.8 101.8,117.6 107.7,121 107.7,114.2 	"/>
	<polygon id="XMLID_651_" class="st4" points="93.3,106 93.3,112.8 99.2,116.2 99.2,109.4 	"/>
</g>
<path id="XMLID_649_" class="st7" d="M76.3,31c-9.9-5.7-26.2-5.7-36.2,0c-9.9,5.7-9.9,15.1,0,20.9c9.9,5.7,26.2,5.7,36.2,0
	S86.3,36.8,76.3,31z"/>
<path id="XMLID_648_" class="st4" d="M66.6,36.6C62,34,54.5,34,49.9,36.6c-4.6,2.6-4.6,7,0,9.6c4.6,2.6,12.1,2.6,16.7,0
	C71.2,43.6,71.2,39.3,66.6,36.6z"/>
</svg>
