<?xml version="1.0" encoding="utf-8"?>
<!-- Generator: Adobe Illustrator 22.1.0, SVG Export Plug-In . SVG Version: 6.00 Build 0)  -->
<svg version="1.1" id="Layer_1" xmlns="http://www.w3.org/2000/svg" xmlns:xlink="http://www.w3.org/1999/xlink" x="0px" y="0px"
	 viewBox="0 0 206 222" style="enable-background:new 0 0 206 222;" xml:space="preserve">
<style type="text/css">
	.st0{fill:#F1F2F2;}
	.st1{fill:url(#XMLID_2_);}
	.st2{fill:url(#XMLID_3_);}
	.st3{fill:#F5F5F5;}
	.st4{fill:#BCBEC0;}
	.st5{fill:#FFFFFF;}
	.st6{fill:url(#XMLID_4_);}
	.st7{fill:url(#XMLID_5_);}
</style>
<g id="XMLID_770_">
	<polygon id="XMLID_773_" class="st0" points="10.5,48.3 34.3,34.5 58.2,48.3 34.4,62.1 	"/>
	<linearGradient id="XMLID_2_" gradientUnits="userSpaceOnUse" x1="6.1203" y1="121.3454" x2="39.2501" y2="63.9424">
		<stop  offset="0.3042" style="stop-color:#FFFFFF"/>
		<stop  offset="1" style="stop-color:#EFF2F9"/>
	</linearGradient>
	<polygon id="XMLID_772_" class="st1" points="10.5,48.3 10.5,124.1 34.4,137.8 34.4,62.1 	"/>
	<linearGradient id="XMLID_3_" gradientUnits="userSpaceOnUse" x1="61.7222" y1="125.7038" x2="32.7808" y2="64.5322">
		<stop  offset="0.2776" style="stop-color:#FFFFFF"/>
		<stop  offset="1" style="stop-color:#E7EBF5"/>
	</linearGradient>
	<polygon id="XMLID_771_" class="st2" points="34.4,137.8 58.2,124.1 58.2,48.3 34.4,62.1 	"/>
</g>
<polygon id="XMLID_769_" class="st0" points="46,22 46,26.1 81.3,46.5 107.7,31.4 107.7,27 "/>
<polygon id="XMLID_768_" class="st0" points="72.5,6.7 107.7,27 81.3,42.4 46,22 "/>
<polygon id="XMLID_767_" class="st0" points="57.6,21.4 57.6,23.9 79.6,36.7 96.1,27.3 96.1,24.5 "/>
<polygon id="XMLID_251_" class="st0" points="74.1,11.8 96.1,24.5 79.6,34.1 57.6,21.4 "/>
<polygon id="XMLID_250_" class="st3" points="46,26.1 45.9,144.4 81.3,165.4 81.3,46.5 "/>
<polygon id="XMLID_249_" class="st4" points="81.3,165.4 107.7,149.9 107.7,31.4 81.3,46.5 "/>
<polygon id="XMLID_248_" class="st0" points="83.2,52.1 83.2,60.9 105.9,47.8 105.9,39.1 "/>
<polygon id="XMLID_247_" class="st0" points="83.2,64 83.2,72.8 105.9,59.7 105.9,50.9 "/>
<polygon id="XMLID_246_" class="st0" points="83.2,75.9 83.2,84.6 105.9,71.5 105.9,62.8 "/>
<polygon id="XMLID_245_" class="st0" points="83.2,87.7 83.2,96.5 105.9,83.4 105.9,74.6 "/>
<polygon id="XMLID_759_" class="st0" points="83.2,99.6 83.2,108.3 105.9,95.2 105.9,86.5 "/>
<polygon id="XMLID_758_" class="st0" points="83.2,111.4 83.2,120.2 105.9,107.1 105.9,98.3 "/>
<polygon id="XMLID_757_" class="st0" points="83.2,123.3 83.2,132 105.9,119 105.9,110.2 "/>
<polygon id="XMLID_756_" class="st0" points="83.2,135.1 83.2,143.9 105.9,130.8 105.9,122.1 "/>
<polygon id="XMLID_244_" class="st0" points="83.2,147 83.2,155.8 105.9,142.7 105.9,133.9 "/>
<polygon id="XMLID_243_" class="st5" points="75.1,52.1 75.1,60.9 52.5,47.8 52.5,39.1 "/>
<polygon id="XMLID_242_" class="st5" points="75.1,64 75.1,72.8 52.5,59.7 52.5,50.9 "/>
<polygon id="XMLID_241_" class="st5" points="75.1,75.9 75.1,84.6 52.5,71.5 52.5,62.8 "/>
<polygon id="XMLID_240_" class="st5" points="75.1,87.7 75.1,96.5 52.5,83.4 52.5,74.6 "/>
<polygon id="XMLID_239_" class="st5" points="75.1,99.6 75.1,108.3 52.5,95.2 52.5,86.5 "/>
<polygon id="XMLID_238_" class="st5" points="75.1,111.4 75.1,120.2 52.5,107.1 52.5,98.3 "/>
<polygon id="XMLID_237_" class="st5" points="75.1,123.3 75.1,132 52.5,119 52.5,110.2 "/>
<polygon id="XMLID_236_" class="st5" points="75.1,135.1 75.1,143.9 52.5,130.8 52.5,122.1 "/>
<polygon id="XMLID_746_" class="st5" points="75.1,147 75.1,155.8 52.5,142.7 52.5,133.9 "/>
<g id="XMLID_742_">
	<polygon id="XMLID_745_" class="st0" points="123.8,106.1 158,86.3 192.3,106.1 158.1,125.8 	"/>
	<linearGradient id="XMLID_4_" gradientUnits="userSpaceOnUse" x1="120.9158" y1="197.1723" x2="161.5901" y2="126.6972">
		<stop  offset="0.3042" style="stop-color:#FFFFFF"/>
		<stop  offset="1" style="stop-color:#EFF2F9"/>
	</linearGradient>
	<polygon id="XMLID_744_" class="st6" points="123.8,106.1 123.8,199.1 158.1,218.9 158.1,125.8 	"/>
	<linearGradient id="XMLID_5_" gradientUnits="userSpaceOnUse" x1="194.2221" y1="202.7377" x2="158.4998" y2="127.2339">
		<stop  offset="0.2776" style="stop-color:#FFFFFF"/>
		<stop  offset="1" style="stop-color:#E7EBF5"/>
	</linearGradient>
	<polygon id="XMLID_743_" class="st7" points="158.1,218.9 192.3,199.1 192.3,106.1 158.1,125.8 	"/>
</g>
</svg>
