<?xml version="1.0" encoding="utf-8"?>
<!-- Generator: Adobe Illustrator 22.1.0, SVG Export Plug-In . SVG Version: 6.00 Build 0)  -->
<svg version="1.1" id="Layer_1" xmlns="http://www.w3.org/2000/svg" xmlns:xlink="http://www.w3.org/1999/xlink" x="0px" y="0px"
	 viewBox="0 0 163 160" style="enable-background:new 0 0 163 160;" xml:space="preserve">
<style type="text/css">
	.st0{fill:#FFFFFF;}
	.st1{fill:#D1D3D4;}
	.st2{fill:#8BC53F;}
	.st3{fill:#7CBE3F;}
	.st4{fill:#F1F2F2;}
	.st5{opacity:0.5;fill:#D1D3D4;}
</style>
<g>
	<polygon id="XMLID_630_" class="st0" points="55.4,-0.4 119.5,36.5 76.8,61.2 12.7,24.2 	"/>
	<polygon id="XMLID_629_" class="st1" points="59,9.9 101.6,34.5 73.2,50.9 30.6,26.3 	"/>
	<polygon id="XMLID_628_" class="st2" points="99.1,35.9 73.2,50.9 33.1,27.7 59,12.7 	"/>
	<polygon id="XMLID_627_" class="st3" points="119.5,36.5 119.5,110.5 76.8,135.2 76.8,61.2 	"/>
	<polygon id="XMLID_591_" class="st3" points="76.8,135.2 76.8,61.2 12.7,24.2 12.7,98.2 	"/>
	<polygon id="XMLID_588_" class="st0" points="110.1,51.8 103.1,55.8 103.1,114.5 110.1,110.5 	"/>
	<polygon id="XMLID_587_" class="st0" points="94.3,60.8 87.3,64.8 87.3,123.5 94.3,119.5 	"/>
	<g id="XMLID_592_">
		<polygon id="XMLID_586_" class="st0" points="39.1,81.6 76.8,103.2 76.8,111.8 39.1,90.2 		"/>
		<polygon id="XMLID_583_" class="st0" points="31.4,60.8 76.8,86.6 76.8,95.2 31.4,69.3 		"/>
		<polygon id="XMLID_594_" class="st0" points="76.8,69.9 76.8,78.5 22.7,47.2 22.7,38.7 		"/>
		<polygon id="XMLID_593_" class="st0" points="22.7,88.6 76.8,119.9 76.8,128.4 22.7,97.2 		"/>
	</g>
</g>
<g>
	<path id="XMLID_496_" class="st4" d="M41.8,137.3V148c0,0.4,0.2,0.9,0.6,1.1l0,0c0.8,0.5,1.9-0.1,1.9-1.1v-9.3L41.8,137.3z"/>
	<path class="st1" d="M41.8,137.3v0.5l1.6,0.9v9.3c0,0.6-0.4,1-0.8,1.2c0.8,0.3,1.7-0.3,1.7-1.2v-9.3L41.8,137.3z"/>
	<path class="st3" d="M42.5,121.5l-5.4,13.4c-0.8,2.1,0,4.5,2,5.7l0.9,0.5c2,1.2,4.5,1.1,6.4-0.1l0.7-0.4c1.9-1.2,2.7-3.5,1.9-5.6
		l-5.4-13.5C43.5,121,42.7,121,42.5,121.5z"/>
	<path class="st5" d="M42,125.4l-2.8,6.9c-0.4,1.1-0.1,2.7,1,2.9c1.4,0.2,2.6-1.3,2.5-1.9l-0.1-8C42.5,125.1,42.1,125.1,42,125.4z"
		/>
</g>
<g>
	<path id="XMLID_505_" class="st4" d="M147,74.3V85c0,0.4,0.2,0.9,0.6,1.1l0,0c0.8,0.5,1.9-0.1,1.9-1.1v-9.3L147,74.3z"/>
	<path class="st1" d="M147,74.3v0.5l1.6,0.9V85c0,0.6-0.4,1-0.8,1.2c0.8,0.3,1.7-0.3,1.7-1.2v-9.3L147,74.3z"/>
	<path class="st3" d="M147.7,58.5l-5.4,13.4c-0.8,2.1,0,4.5,2,5.7l0.9,0.5c2,1.2,4.5,1.1,6.4-0.1l0.7-0.4c1.9-1.2,2.7-3.5,1.9-5.6
		l-5.4-13.5C148.6,58,147.9,58,147.7,58.5z"/>
	<path class="st5" d="M147.2,62.4l-2.8,6.9c-0.4,1.1-0.1,2.7,1,2.9c1.4,0.2,2.6-1.3,2.5-1.9l-0.1-8
		C147.7,62.1,147.3,62.1,147.2,62.4z"/>
</g>
<g>
	<path id="XMLID_506_" class="st4" d="M134.2,83.3V94c0,0.4,0.2,0.9,0.6,1.1l0,0c0.8,0.5,1.9-0.1,1.9-1.1v-9.3L134.2,83.3z"/>
	<path class="st1" d="M134.2,83.3v0.5l1.6,0.9V94c0,0.6-0.4,1-0.8,1.2c0.8,0.3,1.7-0.3,1.7-1.2v-9.3L134.2,83.3z"/>
	<path class="st3" d="M134.9,67.5l-5.4,13.4c-0.8,2.1,0,4.5,2,5.7l0.9,0.5c2,1.2,4.5,1.1,6.4-0.1l0.7-0.4c1.9-1.2,2.7-3.5,1.9-5.6
		l-5.4-13.5C135.9,67,135.1,67,134.9,67.5z"/>
	<path class="st5" d="M134.4,71.4l-2.8,6.9c-0.4,1.1-0.1,2.7,1,2.9c1.4,0.2,2.6-1.3,2.5-1.9l-0.1-8
		C134.9,71.1,134.5,71.1,134.4,71.4z"/>
</g>
</svg>
