<?xml version="1.0" encoding="utf-8"?>
<!-- Generator: Adobe Illustrator 22.1.0, SVG Export Plug-In . SVG Version: 6.00 Build 0)  -->
<svg version="1.1" id="Layer_1" xmlns="http://www.w3.org/2000/svg" xmlns:xlink="http://www.w3.org/1999/xlink" x="0px" y="0px"
	 viewBox="0 0 184 172" style="enable-background:new 0 0 184 172;" xml:space="preserve">
<style type="text/css">
	.st0{fill:#F5F5F5;}
	.st1{fill:#FFFFFF;}
	.st2{fill:#009836;}
	.st3{fill:#D1D3D4;}
	.st4{fill:#F1F2F2;}
	.st5{fill:#7CBE3F;}
	.st6{opacity:0.5;fill:#D1D3D4;}
	.st7{fill:#E6E7E8;}
	.st8{fill:#8BC53F;}
	.st9{fill:#009F36;}
</style>
<polygon id="XMLID_582_" class="st0" points="124,14.3 51.8,56 99.9,83.8 172.1,42.1 "/>
<polygon id="XMLID_581_" class="st1" points="119.9,25.9 71.9,53.7 103.9,72.2 152,44.4 "/>
<polygon id="XMLID_580_" class="st2" points="74.7,55.3 103.9,72.2 149.2,46.1 119.9,29.2 "/>
<polygon id="XMLID_579_" class="st3" points="51.8,56 51.8,139.3 99.9,167.1 99.9,83.8 "/>
<polygon id="XMLID_578_" class="st1" points="99.9,167.1 99.9,83.8 172.1,42.1 172.1,125.4 "/>
<polygon id="XMLID_577_" class="st2" points="62.4,73.1 70.2,77.7 70.2,143.8 62.4,139.3 "/>
<polygon id="XMLID_576_" class="st2" points="80.2,83.3 88.1,87.8 88.1,153.9 80.2,149.4 "/>
<g id="XMLID_571_">
	<polygon id="XMLID_575_" class="st2" points="142.3,106.7 99.9,131.1 99.9,140.8 142.3,116.4 	"/>
	<polygon id="XMLID_574_" class="st2" points="151,83.3 99.9,112.4 99.9,122 151,92.9 	"/>
	<polygon id="XMLID_573_" class="st2" points="99.9,93.6 99.9,103.2 160.9,68.1 160.9,58.4 	"/>
	<polygon id="XMLID_572_" class="st2" points="160.9,114.7 99.9,149.8 99.9,159.5 160.9,124.3 	"/>
</g>
<g>
	<path id="XMLID_504_" class="st4" d="M32.5,88.4v10.7c0,0.4,0.2,0.9,0.6,1.1l0,0c0.8,0.5,1.9-0.1,1.9-1.1v-9.3L32.5,88.4z"/>
	<path class="st3" d="M32.5,88.4v0.5l1.6,0.9v9.3c0,0.6-0.4,1-0.8,1.2c0.8,0.3,1.7-0.3,1.7-1.2v-9.3L32.5,88.4z"/>
	<path class="st5" d="M33.1,72.6l-5.4,13.4c-0.8,2.1,0,4.5,2,5.7l0.9,0.5c2,1.2,4.5,1.1,6.4-0.1l0.7-0.4c1.9-1.2,2.7-3.5,1.9-5.6
		l-5.4-13.5C34.1,72.1,33.3,72.1,33.1,72.6z"/>
	<path class="st6" d="M32.6,76.5l-2.8,6.9c-0.4,1.1-0.1,2.7,1,2.9c1.4,0.2,2.6-1.3,2.5-1.9l-0.1-8C33.1,76.2,32.8,76.2,32.6,76.5z"
		/>
</g>
<g>
	<path id="XMLID_301_" class="st4" d="M61.1,22.2V33c0,0.4,0.2,0.9,0.6,1.1l0,0c0.8,0.5,1.9-0.1,1.9-1.1v-9.3L61.1,22.2z"/>
	<path class="st3" d="M61.1,22.2v0.5l1.6,0.9V33c0,0.6-0.4,1-0.8,1.2c0.8,0.3,1.7-0.3,1.7-1.2v-9.3L61.1,22.2z"/>
	<path class="st5" d="M61.8,6.4l-5.4,13.4c-0.8,2.1,0,4.5,2,5.7l0.9,0.5c2,1.2,4.5,1.1,6.4-0.1l0.7-0.4c1.9-1.2,2.7-3.5,1.9-5.6
		L62.9,6.4C62.7,5.9,62,5.9,61.8,6.4z"/>
	<path class="st6" d="M61.3,10.3l-2.8,6.9c-0.4,1.1-0.1,2.7,1,2.9c1.4,0.2,2.6-1.3,2.5-1.9l-0.1-8C61.8,10.1,61.4,10.1,61.3,10.3z"
		/>
</g>
<g>
	<path id="XMLID_497_" class="st4" d="M14.3,98.4v10.7c0,0.4,0.2,0.9,0.6,1.1l0,0c0.8,0.5,1.9-0.1,1.9-1.1v-9.3L14.3,98.4z"/>
	<path class="st3" d="M14.3,98.4v0.5l1.6,0.9v9.3c0,0.6-0.4,1-0.8,1.2c0.8,0.3,1.7-0.3,1.7-1.2v-9.3L14.3,98.4z"/>
	<path class="st5" d="M14.9,82.6L9.6,96c-0.8,2.1,0,4.5,2,5.7l0.9,0.5c2,1.2,4.5,1.1,6.4-0.1l0.7-0.4c1.9-1.2,2.7-3.5,1.9-5.6
		l-5.4-13.5C15.9,82.1,15.1,82.1,14.9,82.6z"/>
	<path class="st6" d="M14.5,86.5l-2.8,6.9c-0.4,1.1-0.1,2.7,1,2.9c1.4,0.2,2.6-1.3,2.5-1.9l-0.1-8C14.9,86.2,14.6,86.2,14.5,86.5z"
		/>
</g>
<g id="XMLID_117_">
	<g id="XMLID_146_">
		<polygon id="XMLID_150_" class="st7" points="6.5,51.6 6.5,65.2 6.9,64.9 6.9,51.3 		"/>
		<polygon id="XMLID_149_" class="st4" points="6.5,65.2 6,64.9 6,51.3 6.5,51.6 		"/>
		<polygon id="XMLID_148_" class="st7" points="6,51.3 6.5,51 6.9,51.3 6.5,51.6 		"/>
	</g>
	<g id="XMLID_142_">
		<polygon id="XMLID_145_" class="st7" points="11.1,61.7 11.1,67.8 11.6,67.5 11.6,61.4 		"/>
		<polygon id="XMLID_144_" class="st4" points="11.1,67.8 10.6,67.5 10.6,61.4 11.1,61.7 		"/>
		<polygon id="XMLID_143_" class="st7" points="10.6,61.4 11.1,61.1 11.6,61.4 11.1,61.7 		"/>
	</g>
	<g id="XMLID_134_">
		<polygon id="XMLID_141_" class="st7" points="21.9,57 21.9,61.6 22.3,61.3 22.3,56.7 		"/>
		<polygon id="XMLID_136_" class="st4" points="21.9,61.6 21.4,61.3 21.4,56.7 21.9,57 		"/>
		<polygon id="XMLID_135_" class="st7" points="21.4,56.7 21.9,56.4 22.3,56.7 21.9,57 		"/>
	</g>
	<g id="XMLID_407_">
		<polygon id="XMLID_410_" class="st7" points="15.1,46.8 15.1,60.4 15.5,60.1 15.5,46.5 		"/>
		<polygon id="XMLID_133_" class="st4" points="15.1,60.4 14.6,60.1 14.6,46.5 15.1,46.8 		"/>
		<polygon id="XMLID_132_" class="st7" points="14.6,46.5 15.1,46.2 15.5,46.5 15.1,46.8 		"/>
	</g>
	<polygon id="XMLID_131_" class="st8" points="17.8,50.3 5.5,57.5 5.5,59.2 17.8,52.1 	"/>
	<polygon id="XMLID_394_" class="st8" points="5.5,57.5 5,57.2 5,59 5.5,59.2 	"/>
	<polygon id="XMLID_393_" class="st9" points="5,57.2 17.3,50.1 17.8,50.3 5.5,57.5 	"/>
	<polygon id="XMLID_392_" class="st8" points="17.8,48.3 5.5,55.4 5.5,57.2 17.8,50 	"/>
	<polygon id="XMLID_391_" class="st8" points="5.5,55.4 5,55.1 5,56.9 5.5,57.2 	"/>
	<polygon id="XMLID_130_" class="st9" points="5,55.1 17.3,48 17.8,48.3 5.5,55.4 	"/>
	<polygon id="XMLID_129_" class="st8" points="17.8,46.2 5.5,53.3 5.5,55.1 17.8,48 	"/>
	<polygon id="XMLID_124_" class="st8" points="5.5,60.4 17.8,53.3 19.4,54.2 7,61.3 	"/>
	<polygon id="XMLID_123_" class="st9" points="5.5,60.4 5.5,61.2 7,62 7,61.3 	"/>
	<polygon id="XMLID_122_" class="st9" points="7,62 19.4,54.9 19.4,54.2 7,61.3 	"/>
	<polygon id="XMLID_121_" class="st8" points="5.5,53.3 5,53 5,54.8 5.5,55.1 	"/>
	<polygon id="XMLID_282_" class="st8" points="5,53 17.3,45.9 17.8,46.2 5.5,53.3 	"/>
	<polygon id="XMLID_281_" class="st8" points="7.3,61.5 19.7,54.4 21.3,55.3 8.9,62.4 	"/>
	<polygon id="XMLID_280_" class="st9" points="7.3,61.5 7.3,62.2 8.9,63.1 8.9,62.4 	"/>
	<polygon id="XMLID_279_" class="st9" points="8.9,63.1 21.3,56 21.3,55.3 8.9,62.4 	"/>
	<polygon id="XMLID_120_" class="st8" points="9.2,62.6 21.5,55.5 23.1,56.4 10.7,63.5 	"/>
	<polygon id="XMLID_119_" class="st9" points="9.2,62.6 9.2,63.3 10.7,64.2 10.7,63.5 	"/>
	<polygon id="XMLID_118_" class="st9" points="10.7,64.2 23.1,57.1 23.1,56.4 10.7,63.5 	"/>
</g>
<g id="XMLID_151_">
	<g id="XMLID_289_">
		<polygon id="XMLID_292_" class="st7" points="36,34.1 36,47.8 36.4,47.5 36.4,33.9 		"/>
		<polygon id="XMLID_291_" class="st4" points="36,47.8 35.5,47.5 35.5,33.9 36,34.1 		"/>
		<polygon id="XMLID_290_" class="st7" points="35.5,33.9 36,33.6 36.4,33.9 36,34.1 		"/>
	</g>
	<g id="XMLID_285_">
		<polygon id="XMLID_288_" class="st7" points="40.6,44.2 40.6,50.4 41.1,50.1 41.1,44 		"/>
		<polygon id="XMLID_287_" class="st4" points="40.6,50.4 40.1,50.1 40.1,44 40.6,44.2 		"/>
		<polygon id="XMLID_286_" class="st7" points="40.1,44 40.6,43.7 41.1,44 40.6,44.2 		"/>
	</g>
	<g id="XMLID_220_">
		<polygon id="XMLID_223_" class="st7" points="51.4,39.5 51.4,44.2 51.8,43.9 51.8,39.3 		"/>
		<polygon id="XMLID_222_" class="st4" points="51.4,44.2 50.9,43.9 50.9,39.3 51.4,39.5 		"/>
		<polygon id="XMLID_221_" class="st7" points="50.9,39.3 51.4,39 51.8,39.3 51.4,39.5 		"/>
	</g>
	<g id="XMLID_187_">
		<polygon id="XMLID_219_" class="st7" points="44.6,29.3 44.6,42.9 45,42.7 45,29.1 		"/>
		<polygon id="XMLID_189_" class="st4" points="44.6,42.9 44.1,42.7 44.1,29.1 44.6,29.3 		"/>
		<polygon id="XMLID_188_" class="st7" points="44.1,29.1 44.6,28.8 45,29.1 44.6,29.3 		"/>
	</g>
	<polygon id="XMLID_186_" class="st8" points="47.3,32.9 35,40 35,41.8 47.3,34.7 	"/>
	<polygon id="XMLID_185_" class="st8" points="35,40 34.5,39.7 34.5,41.5 35,41.8 	"/>
	<polygon id="XMLID_184_" class="st9" points="34.5,39.7 46.8,32.6 47.3,32.9 35,40 	"/>
	<polygon id="XMLID_183_" class="st8" points="47.3,30.8 35,37.9 35,39.7 47.3,32.6 	"/>
	<polygon id="XMLID_182_" class="st8" points="35,37.9 34.5,37.7 34.5,39.4 35,39.7 	"/>
	<polygon id="XMLID_181_" class="st9" points="34.5,37.7 46.8,30.6 47.3,30.8 35,37.9 	"/>
	<polygon id="XMLID_180_" class="st8" points="47.3,28.7 35,35.9 35,37.6 47.3,30.5 	"/>
	<polygon id="XMLID_179_" class="st8" points="35,43 47.3,35.9 48.9,36.8 36.5,43.9 	"/>
	<polygon id="XMLID_178_" class="st9" points="35,43 35,43.7 36.5,44.6 36.5,43.9 	"/>
	<polygon id="XMLID_171_" class="st9" points="36.5,44.6 48.9,37.5 48.9,36.8 36.5,43.9 	"/>
	<polygon id="XMLID_170_" class="st8" points="35,35.9 34.5,35.6 34.5,37.4 35,37.6 	"/>
	<polygon id="XMLID_169_" class="st8" points="34.5,35.6 46.8,28.5 47.3,28.7 35,35.9 	"/>
	<polygon id="XMLID_168_" class="st8" points="36.8,44.1 49.2,37 50.8,37.9 38.4,45 	"/>
	<polygon id="XMLID_167_" class="st9" points="36.8,44.1 36.8,44.8 38.4,45.7 38.4,45 	"/>
	<polygon id="XMLID_165_" class="st9" points="38.4,45.7 50.8,38.6 50.8,37.9 38.4,45 	"/>
	<polygon id="XMLID_164_" class="st8" points="38.7,45.2 51,38.1 52.6,39 40.3,46.1 	"/>
	<polygon id="XMLID_163_" class="st9" points="38.7,45.2 38.7,45.9 40.3,46.8 40.3,46.1 	"/>
	<polygon id="XMLID_162_" class="st9" points="40.3,46.8 52.6,39.7 52.6,39 40.3,46.1 	"/>
</g>
</svg>
