<?xml version="1.0" encoding="iso-8859-1"?>
<!-- Generator: Adobe Illustrator 19.2.1, SVG Export Plug-In . SVG Version: 6.00 Build 0)  -->
<svg version="1.1" id="Layer_1" xmlns="http://www.w3.org/2000/svg" xmlns:xlink="http://www.w3.org/1999/xlink" x="0px" y="0px"
	 viewBox="0 0 183 189" style="enable-background:new 0 0 183 189;" xml:space="preserve">
<path style="fill:#00A3E3;" d="M90.091,177c-0.841,0-1.678-0.017-2.514-0.04l17.291-47.522h23.795c4.178,0,8.763-3.212,10.191-7.134
	l18.76-51.53c3.071-8.436-1.764-15.338-10.739-15.338h-33.014l-27.7,76.117H86.15l-15.703,43.148
	C33.191,165.843,5.48,132.353,5.48,92.388c0-38.813,26.136-71.518,61.767-81.487L51.044,55.436h-0.005l-26.937,74.001l17.933,0.002
	l22.908-62.884h13.477L55.511,129.44l17.925,0.002l21.349-58.668c3.07-8.436-1.762-15.338-10.73-15.338H68.98l17.308-47.57
	c1.261-0.057,2.527-0.089,3.803-0.089c46.73,0,84.611,37.882,84.611,84.611S136.821,177,90.091,177z M141.285,66.511h-13.473
	l-18.867,51.768h13.473L141.285,66.511z"/>
<g>
</g>
<g>
</g>
<g>
</g>
<g>
</g>
<g>
</g>
<g>
</g>
</svg>
