<?xml version="1.0" encoding="iso-8859-1"?>
<!-- Generator: Adobe Illustrator 19.2.1, SVG Export Plug-In . SVG Version: 6.00 Build 0)  -->
<svg version="1.1" id="Layer_1" xmlns="http://www.w3.org/2000/svg" xmlns:xlink="http://www.w3.org/1999/xlink" x="0px" y="0px"
	 viewBox="0 0 608.97 190.49" style="enable-background:new 0 0 608.97 190.49;" xml:space="preserve">
<path d="M481.957,151.213c-4.674,0-8.78,0-13.056,0c0-26.898,0-53.622,0-80.579c3.885,0,7.469,0,11.518,0c0,3.432,0,6.668,0,11.258
	c7.063-8.293,14.619-12.851,24.693-12.727c10.086,0.123,17.713,3.768,22.277,13.691c1.316-1.505,2.357-2.688,3.39-3.879
	c8.248-9.503,18.723-11.607,30.394-8.638c9.952,2.532,14.675,10.271,14.979,19.605c0.662,20.273,0.204,40.582,0.204,61.168
	c-4.268,0-8.335,0-12.889,0c0-12.912,0.085-25.694-0.034-38.474c-0.065-6.978,0.051-14.023-0.871-20.91
	c-0.962-7.184-6.426-11.068-13.71-11.052c-11.215,0.025-19.009,8.14-19.313,21.027c-0.366,15.49-0.15,30.994-0.186,46.492
	c-0.002,0.821,0,1.643,0,2.837c-4.242,0-8.305,0-13.149,0c0-1.637,0-3.383,0-5.129c0-14.499,0.002-28.998-0.003-43.496
	c-0.001-1.833,0.022-3.668-0.06-5.499c-0.415-9.305-3.905-14.422-10.792-15.889c-7.806-1.662-16.828,2.38-20.131,9.638
	c-1.545,3.396-2.584,7.308-2.695,11.02c-0.438,14.651-0.419,29.316-0.564,43.976C481.942,147.444,481.957,149.235,481.957,151.213z"
	/>
<path d="M434.162,70.682c4.76,0,8.69,0,12.869,0c0,26.876,0,53.472,0,80.396c-3.569,0-7.16,0-11.266,0c0-3.409,0-6.979,0-11.583
	c-1.464,1.308-2.205,1.84-2.788,2.51c-9.4,10.786-23.739,13.686-36.715,7.746c-7.985-3.655-12.458-10.117-12.691-18.306
	c-0.573-20.122-0.187-40.271-0.187-60.726c4.056,0,8.116,0,12.767,0c0,4.628-0.018,9.084,0.003,13.539
	c0.064,13.164-0.056,26.334,0.281,39.492c0.27,10.565,5.222,16.216,14.291,17.271c9.37,1.091,19.203-4.752,21.53-13.379
	c1.198-4.443,1.749-9.173,1.822-13.786C434.305,99.563,434.162,85.266,434.162,70.682z"/>
<path d="M267.071,140.166c-0.907-0.044-1.548-0.121-2.185-0.099c-9.607,0.337-11.451-1.341-11.493-10.933
	c-0.065-14.816-0.03-29.632,0.001-44.448c0.003-1.249,0.289-2.498,0.496-4.174c4.437,0,8.529,0,12.79,0c0-3.561,0-6.637,0-10.276
	c-4.535,0-8.766,0-13.358,0c0-8.667,0-16.856,0-25.623l-13.255,9.821c-0.123,1.084-0.107,2.263,0.061,3.555
	c0.508,3.892,0.097,7.903,0.097,12.275c-3.423,0-6.344,0-9.646,0c0,3.86,0,6.937,0,10.18c3.233,0.162,6.161,0.309,9.646,0.484
	c0,2.108-0.001,3.887,0,5.666c0.008,15.149-0.04,30.298,0.068,45.447c0.024,3.304,0.472,6.624,0.96,9.901
	c0.708,4.756,3.82,7.873,8.089,9.306c6.242,2.097,12.664,1.975,19.339,0C268.12,147.382,267.605,143.839,267.071,140.166z"/>
<path d="M314.763,40.361c4.152,0,8.1,0,12.436,0c0,36.83,0,73.571,0,110.678c-3.927,0-8.003,0-12.436,0
	C314.763,114.43,314.763,77.697,314.763,40.361z"/>
<path d="M293.676,70.588c0,26.897,0,53.608,0,80.568c-4.106,0-8.045,0-12.408,0c0-26.803,0-53.617,0-80.568
	C285.444,70.588,289.399,70.588,293.676,70.588z"/>
<path d="M216.154,151.239c-4.272,0-8.215,0-12.511,0c0-26.814,0-53.491,0-80.504c4.023,0,8.087,0,12.511,0
	C216.154,97.374,216.154,124.054,216.154,151.239z"/>
<path d="M349.529,151.002c0-26.969,0-53.535,0-80.35c4.312,0,8.376,0,12.714,0c0,26.885,0,53.566,0,80.35
	C357.823,151.002,353.634,151.002,349.529,151.002z"/>
<path d="M281.112,40.443c4.281,0,8.315,0,12.618,0c0,4.993,0,9.712,0,14.701c-4.287,0-8.319,0-12.618,0
	C281.112,50.189,281.112,45.464,281.112,40.443z"/>
<path d="M203.689,40.364c4.343,0,8.267,0,12.504,0c0,4.922,0,9.632,0,14.7c-4.008,0-8.051,0-12.504,0
	C203.689,50.383,203.689,45.563,203.689,40.364z"/>
<path d="M349.531,55.039c0-4.833,0-9.537,0-14.568c4.217,0,8.254,0,12.64,0c0,4.757,0,9.47,0,14.568
	C358.12,55.039,353.955,55.039,349.531,55.039z"/>
<g>
	<path style="fill:#69C335;" d="M149.731,91.173c0-22.027-12.408-41.147-30.614-50.769c0.833,4.236,1.28,8.61,1.28,13.091
		c0,37.259-30.205,67.464-67.464,67.464c-3.444,0-6.826-0.261-10.131-0.759c8.958,15.243,24.742,25.992,43.162,28.023v11.804
		c35.087-0.266,63.474-28.637,63.767-63.717l-0.239-0.018C149.641,94.604,149.731,92.9,149.731,91.173z"/>
	<path style="fill:#69C335;" d="M120.397,53.495c0-4.48-0.447-8.855-1.28-13.091c-6.07-3.208-12.785-5.361-19.9-6.213V22.427
		C65.43,22.682,37.863,49.002,35.603,82.275c-0.451,2.9-0.689,5.871-0.689,8.897c0,10.594,2.882,20.509,7.888,29.027
		c3.305,0.498,6.687,0.759,10.131,0.759C90.192,120.959,120.397,90.754,120.397,53.495z"/>
	<path style="opacity:0.41;fill:#FFFFFF;" d="M120.397,53.495c0-4.48-0.447-8.855-1.28-13.091c-6.07-3.208-12.785-5.361-19.9-6.213
		V22.427C65.43,22.682,37.863,49.002,35.603,82.275c-0.451,2.9-0.689,5.871-0.689,8.897c0,10.594,2.882,20.509,7.888,29.027
		c3.305,0.498,6.687,0.759,10.131,0.759C90.192,120.959,120.397,90.754,120.397,53.495z"/>
	<g>
		<path style="fill:#FFFFFF;" d="M99.71,130.437c-4.329,0-8.323,0-12.676,0c0-20.534,0-40.964,0-61.651c4.076,0,8.193,0,12.676,0
			C99.71,89.187,99.71,109.618,99.71,130.437z"/>
		<path style="fill:#FFFFFF;" d="M87.081,51.784c4.4,0,8.376,0,12.668,0c0,4.335,0,8.483,0,12.947c-4.061,0-8.157,0-12.668,0
			C87.081,60.608,87.081,56.363,87.081,51.784z"/>
	</g>
</g>
</svg>
