<?xml version="1.0" encoding="iso-8859-1"?>
<!-- Generator: Adobe Illustrator 19.2.1, SVG Export Plug-In . SVG Version: 6.00 Build 0)  -->
<svg version="1.1" id="Layer_1" xmlns="http://www.w3.org/2000/svg" xmlns:xlink="http://www.w3.org/1999/xlink" x="0px" y="0px"
	 viewBox="0 0 140.667 45.607" style="enable-background:new 0 0 140.667 45.607;" xml:space="preserve">
<polygon style="fill:#EC2227;" points="8.399,3.901 16.899,3.901 16.899,16.151 28.149,3.901 37.399,3.901 22.899,19.651 
	37.399,37.151 27.899,37.151 16.774,25.151 16.774,37.151 8.399,37.151 "/>
<path style="fill:#EC2227;" d="M59.732,3.901h-9.5l-11,33.25h1.375h6.625l2.25-5.5h11.5l1.625,5.5h8.658L59.732,3.901z
	 M50.899,25.234l4.35-13.417l4.9,13.417H50.899z"/>
<polygon style="fill:#EC2227;" points="74.107,3.901 74.107,37.151 82.357,37.151 82.357,16.151 92.357,37.151 101.232,37.151 
	101.232,3.901 94.357,3.901 94.357,25.234 83.607,3.901 "/>
<polygon style="fill:#EC2227;" points="107.732,3.901 107.732,10.609 123.964,10.335 106.732,32.276 106.732,37.151 132.982,37.151 
	132.982,31.109 117.009,31.125 132.982,10.026 132.982,3.901 "/>
<g>
</g>
<g>
</g>
<g>
</g>
<g>
</g>
<g>
</g>
<g>
</g>
</svg>
