<?xml version="1.0" encoding="utf-8"?>
<!-- Generator: Adobe Illustrator 22.1.0, SVG Export Plug-In . SVG Version: 6.00 Build 0)  -->
<svg version="1.1" id="Layer_1" xmlns="http://www.w3.org/2000/svg" xmlns:xlink="http://www.w3.org/1999/xlink" x="0px" y="0px"
	 viewBox="0 0 541.5 214.5" style="enable-background:new 0 0 541.5 214.5;" xml:space="preserve">
<style type="text/css">
	.st0{fill:#313332;}
	.st1{fill:#33A440;}
	.st2{clip-path:url(#SVGID_4_);fill:#33A440;}
	.st3{fill:#009F36;}
	.st4{clip-path:url(#SVGID_7_);fill:#009F36;}
	.st5{fill:#5DB243;}
	.st6{fill:#FFFFFF;}
	.st7{clip-path:url(#SVGID_10_);fill:#009F36;}
	.st8{fill:#8BC53F;}
	.st9{clip-path:url(#SVGID_12_);fill:url(#SVGID_13_);}
	.st10{fill:#BCD75F;}
</style>
<g>
	<g>
		<path class="st0" d="M251.9,48.4V28.8h2.5v19.5c0,8.5,4.1,12.5,11.2,12.5s11.1-4,11.1-12.5V28.8h2.5v19.6
			c0,9.7-5.2,14.7-13.7,14.7C257,63.1,251.9,58.1,251.9,48.4z"/>
		<path class="st0" d="M299,49.3l-6.6,6v7.5H290v-36h2.4v25.5l16.2-14.8h3.1l-10.9,10.3l12,15.1h-3L299,49.3z"/>
		<path class="st0" d="M330.1,37.3v2.4c-0.2,0-0.4,0-0.6,0c-5.6,0-9,3.7-9,10v13.2h-2.4V37.5h2.3V43C322,39.3,325.4,37.3,330.1,37.3
			z"/>
		<path class="st0" d="M355.2,46.7v16.1h-2.3v-4.5c-1.6,2.9-4.7,4.7-9.1,4.7c-5.7,0-9.1-2.9-9.1-7.2c0-3.8,2.4-7.1,9.5-7.1h8.7v-2
			c0-4.7-2.6-7.2-7.5-7.2c-3.5,0-6.7,1.3-8.8,3.2l-1.2-1.8c2.5-2.2,6.2-3.6,10.2-3.6C351.7,37.3,355.2,40.5,355.2,46.7z M352.7,55.3
			v-4.8H344c-5.3,0-7.1,2.2-7.1,5.1c0,3.3,2.6,5.3,7.1,5.3C348.3,61,351.3,59,352.7,55.3z"/>
		<path class="st0" d="M364.4,29.3c0-1.1,0.9-2,2-2s2,0.9,2,1.9c0,1.1-0.9,2-2,2C365.3,31.3,364.4,30.4,364.4,29.3z M365.2,37.5h2.4
			v25.4h-2.4V37.5z"/>
		<path class="st0" d="M400.6,48v14.8h-2.4V48.2c0-5.7-3.1-8.8-8.2-8.8c-6,0-9.6,3.8-9.6,9.9v13.5H378V37.5h2.3V43
			c1.7-3.5,5.3-5.7,10.1-5.7C396.5,37.3,400.6,40.9,400.6,48z"/>
		<path class="st0" d="M409.8,29.3c0-1.1,0.9-2,2-2s2,0.9,2,1.9c0,1.1-0.9,2-2,2C410.7,31.3,409.8,30.4,409.8,29.3z M410.6,37.5h2.4
			v25.4h-2.4V37.5z"/>
		<path class="st0" d="M441.6,46.7v16.1h-2.3v-4.5c-1.6,2.9-4.7,4.7-9.1,4.7c-5.7,0-9.1-2.9-9.1-7.2c0-3.8,2.4-7.1,9.5-7.1h8.7v-2
			c0-4.7-2.6-7.2-7.5-7.2c-3.5,0-6.7,1.3-8.8,3.2l-1.2-1.8c2.5-2.2,6.2-3.6,10.2-3.6C438.1,37.3,441.6,40.5,441.6,46.7z M439.2,55.3
			v-4.8h-8.7c-5.3,0-7.1,2.2-7.1,5.1c0,3.3,2.6,5.3,7.1,5.3C434.8,61,437.7,59,439.2,55.3z"/>
		<path class="st0" d="M474.4,48v14.8H472V48.2c0-5.7-3.1-8.8-8.2-8.8c-6,0-9.6,3.8-9.6,9.9v13.5h-2.4V37.5h2.3V43
			c1.7-3.5,5.3-5.7,10.1-5.7C470.2,37.3,474.4,40.9,474.4,48z"/>
		<path class="st0" d="M252.2,87.2h2.5v34h-2.5V87.2z"/>
		<path class="st0" d="M288.4,106.4v14.8H286v-14.6c0-5.7-3.1-8.8-8.2-8.8c-6,0-9.6,3.8-9.6,9.9v13.5h-2.4V95.8h2.3v5.5
			c1.7-3.6,5.3-5.7,10.1-5.7C284.3,95.6,288.4,99.3,288.4,106.4z"/>
		<path class="st0" d="M311.1,119.6c-1.3,1.2-3.3,1.8-5.2,1.8c-4.5,0-6.9-2.6-6.9-6.9V97.9h-4.7v-2.1h4.7v-5.5h2.4v5.5h8.1v2.1h-8.1
			v16.3c0,3.3,1.6,5.1,4.7,5.1c1.5,0,2.9-0.5,3.9-1.4L311.1,119.6z"/>
		<path class="st0" d="M338.3,109.1h-21.8c0.2,6,4.7,10.1,10.7,10.1c3.2,0,6.2-1.2,8.1-3.6l1.4,1.6c-2.2,2.7-5.7,4.1-9.6,4.1
			c-7.7,0-13.1-5.3-13.1-12.9s5.2-12.9,12.2-12.9s12.1,5.3,12.1,12.8C338.4,108.6,338.3,108.8,338.3,109.1z M316.5,107.2H336
			c-0.3-5.5-4.3-9.4-9.7-9.4C320.9,97.8,316.9,101.6,316.5,107.2z"/>
		<path class="st0" d="M345.9,85.1h2.4v36.1h-2.4V85.1z"/>
		<path class="st0" d="M358.6,85.1h2.4v36.1h-2.4V85.1z"/>
		<path class="st0" d="M370.5,87.7c0-1.1,0.9-2,2-2s2,0.9,2,1.9c0,1.1-0.9,2-2,2S370.5,88.8,370.5,87.7z M371.3,95.8h2.4v25.4h-2.4
			V95.8z"/>
		<path class="st0" d="M406.9,95.8v22.7c0,8.5-4.1,12.4-12.3,12.4c-4.6,0-9-1.5-11.6-4l1.3-1.8c2.5,2.3,6.2,3.7,10.3,3.7
			c6.8,0,9.9-3.1,9.9-9.9v-4.3c-2.1,3.7-6,5.8-10.6,5.8c-7.2,0-12.6-5.1-12.6-12.4c0-7.2,5.4-12.3,12.6-12.3c4.7,0,8.6,2.1,10.6,5.9
			v-5.7L406.9,95.8L406.9,95.8z M404.5,107.9c0-6-4.4-10.1-10.4-10.1s-10.4,4.1-10.4,10.1s4.4,10.2,10.4,10.2
			S404.5,113.9,404.5,107.9z"/>
		<path class="st0" d="M438.6,109.1h-21.8c0.2,6,4.7,10.1,10.7,10.1c3.2,0,6.2-1.2,8.1-3.6l1.4,1.6c-2.2,2.7-5.7,4.1-9.6,4.1
			c-7.7,0-13.1-5.3-13.1-12.9s5.2-12.9,12.2-12.9s12.1,5.3,12.1,12.8C438.7,108.6,438.6,108.8,438.6,109.1z M416.8,107.2h19.5
			c-0.3-5.5-4.3-9.4-9.7-9.4C421.2,97.8,417.2,101.6,416.8,107.2z"/>
		<path class="st0" d="M468.9,106.4v14.8h-2.4v-14.6c0-5.7-3.1-8.8-8.2-8.8c-6,0-9.6,3.8-9.6,9.9v13.5h-2.4V95.8h2.3v5.5
			c1.7-3.6,5.3-5.7,10.1-5.7C464.8,95.6,468.9,99.3,468.9,106.4z"/>
		<path class="st0" d="M491.5,119.6c-1.3,1.2-3.3,1.8-5.2,1.8c-4.5,0-6.9-2.6-6.9-6.9V97.9h-4.7v-2.1h4.7v-5.5h2.4v5.5h8.1v2.1h-8.1
			v16.3c0,3.3,1.6,5.1,4.7,5.1c1.5,0,2.9-0.5,3.9-1.4L491.5,119.6z"/>
		<path class="st0" d="M258.7,147.8h-12.3v-2.2h27v2.2h-12.3v31.8h-2.5L258.7,147.8L258.7,147.8z"/>
		<path class="st0" d="M297.5,167.4h-21.8c0.2,6,4.7,10.1,10.7,10.1c3.2,0,6.2-1.2,8.1-3.6l1.4,1.6c-2.2,2.7-5.7,4.1-9.6,4.1
			c-7.7,0-13.1-5.3-13.1-12.9s5.2-12.9,12.2-12.9s12.1,5.3,12.1,12.8C297.6,167,297.5,167.2,297.5,167.4z M275.7,165.6h19.5
			c-0.3-5.5-4.3-9.4-9.7-9.4C280.1,156.1,276.1,160,275.7,165.6z"/>
		<path class="st0" d="M302.3,166.9c0-7.6,5.4-12.9,12.8-12.9c4,0,7.5,1.6,9.6,4.7L323,160c-1.8-2.6-4.7-3.8-7.8-3.8
			c-6,0-10.4,4.3-10.4,10.7s4.4,10.7,10.4,10.7c3.2,0,6-1.2,7.8-3.8l1.8,1.3c-2.1,3.1-5.6,4.7-9.6,4.7
			C307.7,179.8,302.3,174.4,302.3,166.9z"/>
		<path class="st0" d="M354.4,164.7v14.8H352v-14.6c0-5.7-3.1-8.8-8.2-8.8c-6,0-9.6,3.8-9.6,9.9v13.5h-2.4v-36.1h2.4v16
			c1.8-3.5,5.3-5.5,10-5.5C350.3,154,354.4,157.6,354.4,164.7z"/>
		<path class="st0" d="M387.1,164.7v14.8h-2.4v-14.6c0-5.7-3.1-8.8-8.2-8.8c-6,0-9.6,3.8-9.6,9.9v13.5h-2.4v-25.4h2.3v5.5
			c1.7-3.6,5.3-5.7,10.1-5.7C383,154,387.1,157.6,387.1,164.7z"/>
		<path class="st0" d="M394.4,166.9c0-7.5,5.4-12.9,12.7-12.9s12.7,5.3,12.7,12.9s-5.4,12.9-12.7,12.9S394.4,174.4,394.4,166.9z
			 M417.3,166.9c0-6.4-4.4-10.7-10.2-10.7s-10.2,4.3-10.2,10.7s4.4,10.7,10.2,10.7S417.3,173.2,417.3,166.9z"/>
		<path class="st0" d="M427.3,143.5h2.4v36.1h-2.4V143.5z"/>
		<path class="st0" d="M437.3,166.9c0-7.5,5.4-12.9,12.7-12.9c7.3,0,12.7,5.3,12.7,12.9s-5.4,12.9-12.7,12.9
			C442.7,179.8,437.3,174.4,437.3,166.9z M460.2,166.9c0-6.4-4.4-10.7-10.2-10.7s-10.2,4.3-10.2,10.7s4.4,10.7,10.2,10.7
			S460.2,173.2,460.2,166.9z"/>
		<path class="st0" d="M493,154.2v22.7c0,8.5-4.1,12.4-12.3,12.4c-4.6,0-9-1.5-11.6-4l1.3-1.8c2.5,2.3,6.2,3.7,10.3,3.7
			c6.8,0,9.9-3.1,9.9-9.9V173c-2.1,3.7-6,5.8-10.6,5.8c-7.2,0-12.6-5.1-12.6-12.4c0-7.2,5.4-12.3,12.6-12.3c4.7,0,8.6,2.1,10.6,5.9
			v-5.7L493,154.2L493,154.2z M490.7,166.3c0-6-4.4-10.1-10.4-10.1s-10.4,4.1-10.4,10.1s4.4,10.2,10.4,10.2
			C486.3,176.4,490.7,172.3,490.7,166.3z"/>
		<path class="st0" d="M523.7,154.2l-13,28.8c-2,4.7-4.6,6.2-7.9,6.2c-2.3,0-4.4-0.8-5.9-2.3l1.2-1.8c1.3,1.4,2.8,2,4.7,2
			c2.3,0,4-1.1,5.6-4.5l1.4-3.1l-11.4-25.3h2.6l10.2,22.7l10.2-22.7L523.7,154.2L523.7,154.2z"/>
	</g>
</g>
<g>
	<g>
		<polygon id="SVGID_1_" class="st1" points="176.7,193.2 228.6,108.4 176.7,23.5 124.8,108.4 		"/>
	</g>
	<g>
		<defs>
			<polygon id="SVGID_2_" points="176.7,193.2 228.6,108.4 176.7,23.5 124.8,108.4 			"/>
		</defs>
		<clipPath id="SVGID_4_">
			<use xlink:href="#SVGID_2_"  style="overflow:visible;"/>
		</clipPath>
		<rect x="124.8" y="23.5" class="st2" width="103.8" height="169.6"/>
	</g>
</g>
<g>
	<g>
		<polygon id="SVGID_3_" class="st3" points="124.9,108.3 124.8,108.4 176.7,193.2 176.7,193.2 228.6,108.4 228.6,108.3 		"/>
	</g>
	<g>
		<defs>
			<polygon id="SVGID_6_" points="124.9,108.3 124.8,108.4 176.7,193.2 176.7,193.2 228.6,108.4 228.6,108.3 			"/>
		</defs>
		<clipPath id="SVGID_7_">
			<use xlink:href="#SVGID_6_"  style="overflow:visible;"/>
		</clipPath>
		<rect x="124.8" y="108.3" class="st4" width="103.8" height="84.8"/>
	</g>
</g>
<polygon class="st5" points="124.8,108.4 125.4,109.3 228,109.3 228.6,108.4 228,107.5 125.4,107.5 "/>
<polygon class="st6" points="166.7,98.1 155.1,116 147.5,103.8 174.6,59.1 182.2,71.4 174.1,85.7 201.8,130.2 194.5,142.5 "/>
<g>
	<g>
		<polygon id="SVGID_5_" class="st3" points="72.6,193.5 170.3,193.5 119.8,111 22.1,111 		"/>
	</g>
	<g>
		<defs>
			<polygon id="SVGID_8_" points="72.6,193.5 170.3,193.5 119.8,111 22.1,111 			"/>
		</defs>
		<clipPath id="SVGID_10_">
			<use xlink:href="#SVGID_8_"  style="overflow:visible;"/>
		</clipPath>
		<rect x="22.1" y="111" class="st7" width="148.2" height="82.5"/>
	</g>
</g>
<polygon class="st5" points="119.8,111 118.7,111 72.1,192.5 72.6,193.5 73.7,193.5 120.4,111.9 "/>
<polygon class="st6" points="80.5,124.5 115.3,181.8 101.5,181.5 66.8,124.3 "/>
<g>
	<g>
		<polygon id="SVGID_9_" class="st8" points="119.8,106 22.1,106 72.6,23.6 170.3,23.6 		"/>
	</g>
</g>
<g>
	<g>
		<defs>
			<polygon id="SVGID_11_" points="72.6,23.6 22.1,106 119.8,106 119.8,106 			"/>
		</defs>
		<clipPath id="SVGID_12_">
			<use xlink:href="#SVGID_11_"  style="overflow:visible;"/>
		</clipPath>
		
			<linearGradient id="SVGID_13_" gradientUnits="userSpaceOnUse" x1="121.5683" y1="-388.9061" x2="123.4414" y2="-388.9061" gradientTransform="matrix(59.6252 -30.3805 -27.6029 -54.1737 -17968.3359 -17281.9102)">
			<stop  offset="0" style="stop-color:#6CB541"/>
			<stop  offset="1" style="stop-color:#8AC650"/>
		</linearGradient>
		<polygon class="st9" points="42.2,145.5 153.2,89 99.7,-15.9 -11.2,40.6 		"/>
	</g>
</g>
<polygon class="st10" points="72.6,23.5 73.7,23.5 120.4,105.1 119.8,106 118.7,106 72.1,24.5 "/>
<path class="st6" d="M100.2,37.1L80.8,68.2c-6.2,9.9-5.1,14.9,2.3,14.7c7.6-0.1,14.8-4.9,21.1-15.1l19.5-31.1l14.5-0.2L118,68.8
	c-11.1,17.7-26.4,26.3-43.1,26.6c-16.2,0.2-20.7-7.6-9.2-26l20.1-32L100.2,37.1z"/>
</svg>
