<?xml version="1.0" encoding="utf-8"?>
<!-- Generator: Adobe Illustrator 22.1.0, SVG Export Plug-In . SVG Version: 6.00 Build 0)  -->
<svg version="1.1" id="Layer_1" xmlns="http://www.w3.org/2000/svg" xmlns:xlink="http://www.w3.org/1999/xlink" x="0px" y="0px"
	 viewBox="0 0 173.9 67.3" style="enable-background:new 0 0 173.9 67.3;" xml:space="preserve">
<style type="text/css">
	.st0{clip-path:url(#SVGID_2_);}
	.st1{opacity:0.5;}
	.st2{fill:#383838;}
</style>
<g>
	<defs>
		<rect id="SVGID_1_" x="6.6" y="18.2" width="37.4" height="37.4"/>
	</defs>
	<clipPath id="SVGID_2_">
		<use xlink:href="#SVGID_1_"  style="overflow:visible;"/>
	</clipPath>
	<g class="st0">
		<g class="st1">
			<path class="st2" d="M27.7,41c-1.1,0-2.1-0.2-3-0.6c-0.9-0.4-1.8-1-2.6-1.8c-0.7-0.8-1.3-1.7-1.7-2.6c-0.4-0.9-0.6-2-0.6-3
				c0-1,0.2-2,0.6-3c0.4-0.9,1-1.8,1.7-2.6c0.8-0.8,1.7-1.4,2.6-1.8c0.9-0.4,1.9-0.6,3-0.6c1.1,0,2.1,0.2,3,0.6
				c0.9,0.4,1.8,1,2.6,1.8c0.8,0.8,1.3,1.7,1.7,2.6c0.4,0.9,0.6,1.9,0.6,2.9c0,1-0.2,2-0.6,3c-0.4,0.9-1,1.8-1.7,2.6
				c-0.8,0.8-1.6,1.4-2.5,1.8C29.8,40.8,28.8,41,27.7,41z M27.7,25.2c-1,0-2,0.2-2.9,0.6c-0.9,0.4-1.7,1-2.5,1.8
				c-0.7,0.8-1.3,1.6-1.7,2.5C20.3,31,20.1,32,20.1,33c0,1,0.2,2,0.6,2.9c0.4,0.9,0.9,1.8,1.7,2.5c0.8,0.8,1.6,1.4,2.5,1.8
				c0.9,0.4,1.9,0.6,2.9,0.6c1.1,0,2-0.2,2.9-0.6c0.9-0.4,1.7-1,2.5-1.8c0.7-0.8,1.3-1.6,1.7-2.5c0.4-0.9,0.6-1.9,0.6-2.9
				c0-1-0.2-2-0.6-2.9c-0.4-0.9-1-1.8-1.7-2.5c-0.8-0.8-1.6-1.4-2.5-1.8C29.8,25.4,28.8,25.2,27.7,25.2z"/>
		</g>
		<g>
			<path class="st2" d="M35.1,30c-0.4-1-1-1.8-1.8-2.6c-0.8-0.8-1.7-1.4-2.6-1.8c-0.9-0.4-1.9-0.6-3-0.6c0,0,0,0,0,0v0.4
				c0,0,0,0,0,0c1,0,2,0.2,2.9,0.6c0.9,0.4,1.7,1,2.5,1.8c0.7,0.8,1.3,1.6,1.7,2.5c0.4,0.9,0.6,1.9,0.6,2.8c0,1-0.2,2-0.6,2.9
				c-0.4,0.9-0.9,1.7-1.7,2.5c-0.7,0.8-1.6,1.4-2.4,1.7c-0.9,0.4-1.8,0.6-2.9,0.6c0,0,0,0,0,0v0.4c0,0,0,0,0,0c1.1,0,2.1-0.2,3-0.6
				c0.9-0.4,1.8-1,2.6-1.8c0.8-0.8,1.4-1.7,1.8-2.6c0.4-1,0.6-2,0.6-3C35.7,32,35.5,31,35.1,30z"/>
		</g>
		<g class="st1">
			<path class="st2" d="M27.9,27.4c0.8,0,1.5,0.1,2.1,0.4c0.6,0.3,1.2,0.7,1.8,1.3c0.5,0.6,0.9,1.2,1.2,1.8c0.3,0.7,0.4,1.4,0.4,2.1
				c0,0.7-0.1,1.4-0.4,2.1c-0.3,0.7-0.7,1.3-1.2,1.8c-0.6,0.6-1.2,1-1.8,1.3c-0.6,0.3-1.3,0.4-2.1,0.4c-0.8,0-1.5-0.1-2.1-0.4
				c-0.6-0.3-1.2-0.7-1.8-1.3c-0.5-0.6-0.9-1.2-1.2-1.8c-0.3-0.7-0.4-1.4-0.4-2.1c0-0.7,0.1-1.4,0.4-2.1c0.3-0.7,0.7-1.3,1.2-1.8
				c0.6-0.6,1.2-1,1.8-1.3C26.4,27.5,27.1,27.4,27.9,27.4z M27.9,38.5c0.7,0,1.4-0.1,2-0.4c0.6-0.3,1.2-0.7,1.8-1.3
				c0.5-0.5,0.9-1.1,1.2-1.8c0.3-0.6,0.4-1.3,0.4-2c0-0.7-0.1-1.4-0.4-2.1c-0.3-0.7-0.7-1.3-1.2-1.8c-0.5-0.6-1.1-1-1.8-1.2
				c-0.6-0.3-1.3-0.4-2.1-0.4c-0.7,0-1.4,0.1-2.1,0.4c-0.6,0.3-1.2,0.7-1.8,1.2c-0.5,0.5-0.9,1.1-1.2,1.8c-0.3,0.7-0.4,1.3-0.4,2.1
				c0,0.7,0.1,1.4,0.4,2c0.3,0.7,0.7,1.3,1.2,1.8c0.6,0.6,1.1,1,1.8,1.3C26.4,38.4,27.1,38.5,27.9,38.5z"/>
		</g>
		<g>
			<path class="st2" d="M22.6,35.1c0.3,0.7,0.7,1.3,1.2,1.9c0.6,0.6,1.2,1,1.8,1.3c0.6,0.3,1.4,0.4,2.1,0.4c0,0,0,0,0,0v-0.3
				c0,0,0,0,0,0c-0.7,0-1.4-0.1-2-0.4c-0.6-0.3-1.2-0.7-1.7-1.2c-0.5-0.5-0.9-1.1-1.2-1.8c-0.3-0.6-0.4-1.3-0.4-2
				c0-0.7,0.1-1.4,0.4-2c0.3-0.6,0.7-1.2,1.2-1.8c0.5-0.6,1.1-1,1.7-1.2c0.6-0.3,1.3-0.4,2-0.4c0,0,0,0,0,0v-0.3c0,0,0,0,0,0
				c-0.8,0-1.5,0.1-2.2,0.4C25,28,24.4,28.4,23.9,29c-0.5,0.6-1,1.2-1.2,1.9c-0.3,0.7-0.4,1.4-0.4,2.1
				C22.2,33.7,22.3,34.4,22.6,35.1z"/>
		</g>
		<g class="st1">
			<path class="st2" d="M38.5,33.1c0,1.4-0.3,2.8-0.8,4c-0.5,1.2-1.3,2.4-2.4,3.4c-1,1-2.2,1.8-3.5,2.3c-1.3,0.5-2.6,0.8-4,0.8
				c-1.4,0-2.7-0.3-3.9-0.8c-1.3-0.5-2.4-1.3-3.5-2.3c-1.1-1.1-1.9-2.2-2.4-3.4c-0.5-1.2-0.8-2.5-0.8-4c0-1.4,0.3-2.8,0.8-4
				c0.5-1.2,1.3-2.4,2.4-3.4c1-1,2.2-1.8,3.5-2.3c1.3-0.5,2.6-0.8,3.9-0.8c1.4,0,2.7,0.3,4,0.8c1.3,0.5,2.4,1.3,3.5,2.3
				c1.1,1,1.9,2.2,2.4,3.4C38.2,30.3,38.5,31.6,38.5,33.1z M17.4,33.1c0,1.4,0.3,2.7,0.8,3.9c0.5,1.2,1.3,2.3,2.4,3.3
				c1,1,2.2,1.7,3.4,2.2c1.2,0.5,2.5,0.8,3.8,0.8c1.3,0,2.6-0.3,3.9-0.8c1.2-0.5,2.4-1.3,3.4-2.2c1.1-1,1.8-2.1,2.4-3.3
				c0.5-1.2,0.8-2.5,0.8-3.9c0-1.4-0.3-2.7-0.8-3.9c-0.5-1.2-1.3-2.3-2.4-3.3c-1-1-2.2-1.7-3.4-2.3c-1.2-0.5-2.5-0.8-3.9-0.8
				c-1.3,0-2.6,0.3-3.8,0.8c-1.2,0.5-2.4,1.3-3.4,2.3c-1.1,1-1.9,2.2-2.4,3.3C17.7,30.4,17.4,31.7,17.4,33.1z"/>
		</g>
		<g>
			<path class="st2" d="M23.8,23.2c-1.3,0.5-2.5,1.3-3.5,2.3c-1.1,1.1-1.9,2.2-2.5,3.5c-0.5,1.2-0.8,2.6-0.8,4c0,0,0,0,0,0h0.5
				c0,0,0,0,0,0c0-1.4,0.3-2.7,0.8-3.8c0.5-1.2,1.3-2.3,2.3-3.3c1-1,2.1-1.7,3.3-2.2c1.2-0.5,2.5-0.8,3.8-0.8c1.3,0,2.6,0.3,3.8,0.8
				C32.8,24.3,34,25,35,26c1,1,1.8,2.1,2.3,3.3c0.5,1.2,0.8,2.5,0.8,3.8c0,0,0,0,0,0h0.5c0,0,0,0,0,0c0-1.5-0.3-2.8-0.8-4.1
				c-0.5-1.2-1.4-2.4-2.4-3.4c-1.1-1-2.2-1.8-3.5-2.3c-1.3-0.5-2.6-0.8-4-0.8C26.4,22.4,25.1,22.7,23.8,23.2z"/>
		</g>
		<g class="st1">
			<path class="st2" d="M27.7,46.7c-1.8,0-3.6-0.3-5.1-1c-1.5-0.7-3-1.7-4.4-3.1c-1.3-1.3-2.3-2.8-2.9-4.5c-0.7-1.6-1-3.3-1-5.1
				c0-1.8,0.3-3.5,1-5.1c0.7-1.6,1.7-3.1,2.9-4.4c1.4-1.4,2.9-2.4,4.4-3.1c1.5-0.7,3.3-1,5.1-1c1.8,0,3.6,0.3,5.1,1
				c1.5,0.7,3,1.7,4.4,3.1c1.3,1.3,2.3,2.8,3,4.5c0.7,1.6,1,3.3,1,5c0,1.8-0.3,3.5-1,5.1c-0.7,1.6-1.7,3.1-3,4.4
				c-1.3,1.4-2.8,2.4-4.4,3.1C31.3,46.3,29.5,46.7,27.7,46.7z M27.7,19.7c-1.8,0-3.4,0.3-4.9,1c-1.5,0.7-2.9,1.7-4.3,3
				c-1.2,1.3-2.2,2.8-2.9,4.3c-0.7,1.6-1,3.2-1,4.9c0,1.7,0.3,3.4,1,5c0.7,1.6,1.6,3,2.9,4.3c1.3,1.3,2.8,2.4,4.3,3
				c1.5,0.7,3.2,1,5,1c1.8,0,3.5-0.3,5-1c1.5-0.7,2.9-1.7,4.2-3c1.3-1.3,2.2-2.8,2.9-4.3c0.7-1.6,1-3.3,1-5c0-1.7-0.3-3.3-1-4.9
				c-0.7-1.6-1.6-3-2.9-4.3c-1.3-1.4-2.8-2.4-4.3-3C31.1,20,29.5,19.7,27.7,19.7z"/>
		</g>
		<g>
			<path class="st2" d="M40.3,27.9c-0.7-1.6-1.7-3.1-3-4.5c-1.4-1.4-2.9-2.5-4.4-3.2c-1.6-0.7-3.3-1-5.2-1c0,0,0,0,0,0v0.7
				c0,0,0,0,0,0c1.8,0,3.4,0.3,4.9,1c1.5,0.7,2.9,1.7,4.2,3c1.2,1.3,2.2,2.7,2.9,4.3c0.7,1.5,1,3.2,1,4.8c0,1.7-0.3,3.4-1,4.9
				c-0.7,1.6-1.6,3-2.9,4.3c-1.3,1.3-2.7,2.3-4.2,3c-1.5,0.6-3.2,1-4.9,1c0,0,0,0,0,0v0.7c0,0,0,0,0,0c1.9,0,3.6-0.3,5.2-1
				c1.6-0.7,3.1-1.7,4.4-3.1c1.3-1.3,2.3-2.9,3-4.5c0.7-1.6,1-3.4,1-5.2C41.4,31.2,41,29.5,40.3,27.9z"/>
		</g>
		<g class="st1">
			<path class="st2" d="M39.9,21.1c1.6,1.6,2.8,3.4,3.6,5.4c0.8,1.9,1.1,4.1,1.1,6.5c0,2.3-0.5,4.5-1.3,6.5c-0.8,2-2,3.8-3.6,5.4
				c-1.5,1.5-3.3,2.7-5.3,3.5c-2,0.8-4.2,1.3-6.5,1.3c-2.4,0-4.6-0.4-6.6-1.1c-2-0.8-3.8-2-5.4-3.6c-1.6-1.6-2.8-3.4-3.6-5.4
				c-0.8-1.9-1.1-4.2-1.1-6.6c0-2.3,0.5-4.5,1.3-6.5c0.8-2,2-3.8,3.5-5.3c1.6-1.6,3.4-2.8,5.4-3.6c2-0.8,4.2-1.3,6.5-1.3
				c2.4,0,4.6,0.3,6.5,1.1C36.4,18.3,38.3,19.5,39.9,21.1z M16.2,44.8c1.6,1.6,3.3,2.7,5.2,3.5s4.1,1.1,6.4,1.1
				c2.2-0.1,4.4-0.5,6.3-1.3c1.9-0.8,3.7-2,5.2-3.5c1.5-1.5,2.7-3.3,3.5-5.2c0.8-2,1.2-4.1,1.3-6.3c0-2.3-0.3-4.5-1.1-6.4
				c-0.7-1.9-1.9-3.6-3.5-5.2c-1.6-1.6-3.3-2.8-5.2-3.5c-1.9-0.8-4-1.1-6.4-1.1c-2.2,0-4.4,0.5-6.3,1.3c-2,0.8-3.7,2-5.2,3.5
				c-1.5,1.5-2.6,3.2-3.4,5.2c-0.8,2-1.2,4.1-1.3,6.4c0,2.4,0.3,4.5,1.1,6.4C13.5,41.4,14.7,43.2,16.2,44.8z"/>
		</g>
		<g>
			<path class="st2" d="M12.3,26.5c-0.8,2-1.3,4.3-1.3,6.6c0,2.5,0.4,4.7,1.1,6.7c0.8,2,2,3.8,3.6,5.4c0,0,0,0,0,0l0.6-0.6
				c0,0,0,0,0,0c-1.5-1.5-2.7-3.3-3.4-5.1c-0.7-1.9-1.1-4-1.1-6.3c0-2.2,0.5-4.3,1.2-6.3c0.8-1.9,1.9-3.6,3.4-5.1
				c1.5-1.5,3.2-2.7,5.2-3.4c1.9-0.8,4-1.2,6.3-1.2c2.3,0,4.4,0.3,6.3,1.1c1.9,0.7,3.6,1.9,5.2,3.5c0,0,0,0,0,0l0.6-0.6c0,0,0,0,0,0
				c-1.6-1.6-3.5-2.9-5.5-3.7c-2-0.8-4.2-1.2-6.6-1.1c-2.3,0-4.5,0.5-6.6,1.3c-2,0.8-3.9,2.1-5.5,3.6C14.4,22.7,13.2,24.5,12.3,26.5
				z"/>
		</g>
		<g class="st1">
			<path class="st2" d="M28.5,36.6c-0.5,0.1-1,0.1-1.4,0c-0.4-0.1-0.9-0.3-1.3-0.6c-0.4-0.3-0.8-0.6-1-1c-0.3-0.4-0.5-0.8-0.5-1.3
				c-0.1-0.5-0.1-0.9,0-1.4c0.1-0.5,0.3-0.9,0.5-1.3c0.3-0.4,0.6-0.8,1-1.1c0.4-0.3,0.8-0.4,1.3-0.5c0.5-0.1,1-0.1,1.4,0
				c0.4,0.1,0.9,0.3,1.3,0.6c0.4,0.3,0.8,0.6,1,1c0.3,0.4,0.5,0.8,0.5,1.3c0.1,0.5,0.1,0.9,0,1.4c-0.1,0.5-0.3,0.9-0.5,1.3
				c-0.3,0.4-0.6,0.8-1,1.1C29.5,36.4,29,36.5,28.5,36.6z M27,29.5c-0.5,0.1-0.9,0.3-1.3,0.5s-0.7,0.6-1,1c-0.3,0.4-0.4,0.9-0.5,1.3
				c-0.1,0.5-0.1,0.9,0,1.4c0.1,0.5,0.3,0.9,0.5,1.3c0.3,0.4,0.6,0.7,1,1c0.4,0.3,0.9,0.5,1.3,0.6c0.4,0.1,0.9,0.1,1.4,0
				c0.5-0.1,0.9-0.3,1.3-0.5c0.4-0.3,0.7-0.6,1-1c0.3-0.4,0.4-0.9,0.5-1.3c0.1-0.5,0.1-0.9,0-1.4c-0.1-0.4-0.3-0.9-0.5-1.3
				c-0.3-0.4-0.6-0.7-1-1c-0.4-0.3-0.9-0.5-1.3-0.6C28,29.4,27.5,29.4,27,29.5z"/>
		</g>
		<g>
			<path class="st2" d="M30.9,31c-0.3-0.4-0.6-0.7-1-1c-0.4-0.3-0.9-0.5-1.4-0.6c-0.5-0.1-0.9-0.1-1.4,0c0,0,0,0,0,0l0,0.2
				c0,0,0,0,0,0c0.5-0.1,0.9-0.1,1.4,0c0.4,0.1,0.9,0.3,1.3,0.6c0.4,0.3,0.7,0.6,1,1c0.3,0.4,0.4,0.8,0.5,1.2c0.1,0.5,0.1,0.9,0,1.4
				c-0.1,0.4-0.3,0.9-0.5,1.3c-0.3,0.4-0.6,0.8-1,1c-0.4,0.3-0.8,0.4-1.3,0.5c0,0,0,0,0,0l0,0.2c0,0,0,0,0,0
				c0.5-0.1,0.9-0.3,1.3-0.6c0.4-0.3,0.7-0.6,1-1.1c0.3-0.4,0.5-0.9,0.6-1.4c0.1-0.5,0.1-1,0-1.4C31.3,31.8,31.1,31.4,30.9,31z"/>
		</g>
		<g class="st1">
			<path class="st2" d="M14,48.5c-2.1-1.8-3.7-4-4.8-6.3c-1.1-2.3-1.7-5-1.9-7.9c-0.1-2.8,0.2-5.5,1.1-8c0.9-2.5,2.2-4.8,4-6.8
				c1.8-2,3.8-3.6,6.2-4.7c2.4-1.2,5-1.9,7.8-2.1c3-0.2,5.7,0.1,8.1,0.8c2.4,0.8,4.7,2.1,6.8,3.9c2.1,1.8,3.7,4,4.8,6.3
				c1.1,2.3,1.7,5,1.9,8c0.1,2.8-0.2,5.5-1.1,8.1c-0.8,2.5-2.1,4.8-3.9,6.8c-1.8,2-3.9,3.6-6.3,4.8c-2.4,1.2-5,1.9-7.8,2.1
				c-2.9,0.2-5.6,0-8.1-0.8C18.4,51.7,16.1,50.3,14,48.5z M41,17.7c-2-1.8-4.3-3.1-6.6-3.8s-5-1-7.9-0.8c-2.7,0.2-5.3,0.9-7.6,2.1
				c-2.3,1.1-4.4,2.7-6.1,4.6c-1.7,2-3,4.2-3.9,6.7c-0.8,2.5-1.2,5.1-1.1,7.8C8,37.1,8.6,39.7,9.7,42c1.1,2.3,2.6,4.3,4.7,6.1
				c2.1,1.8,4.3,3.1,6.7,3.9c2.4,0.8,5,1,7.9,0.8c2.7-0.2,5.3-0.9,7.7-2c2.3-1.1,4.4-2.7,6.1-4.7c1.7-1.9,3-4.1,3.8-6.6
				c0.8-2.5,1.2-5.1,1-7.9c-0.2-2.9-0.8-5.5-1.8-7.8C44.6,21.6,43.1,19.5,41,17.7z"/>
		</g>
		<g>
			<path class="st2" d="M47.2,39.7c0.9-2.6,1.2-5.3,1.1-8.2c-0.2-3-0.8-5.7-1.9-8.1c-1.1-2.4-2.7-4.5-4.9-6.4c0,0,0,0-0.1,0
				l-0.7,0.8c0,0,0,0,0.1,0c2,1.8,3.6,3.8,4.6,6c1,2.2,1.6,4.8,1.8,7.7c0.1,2.7-0.2,5.3-1,7.8c-0.8,2.4-2.1,4.6-3.7,6.5
				c-1.7,1.9-3.7,3.5-6,4.6c-2.3,1.1-4.9,1.8-7.6,2c-2.8,0.2-5.4,0-7.8-0.8c-2.3-0.8-4.6-2.1-6.6-3.8c0,0,0,0-0.1-0.1l-0.7,0.8
				c0,0,0,0,0.1,0.1c2.1,1.9,4.5,3.2,7,4c2.5,0.8,5.2,1.1,8.2,0.8c2.8-0.2,5.5-0.9,7.9-2.1c2.4-1.2,4.6-2.8,6.4-4.9
				C45,44.6,46.4,42.3,47.2,39.7z"/>
		</g>
		<g class="st1">
			<path class="st2" d="M11.4,51.3C9,49.2,7,46.7,5.8,43.9c-1.3-2.7-2-5.9-2.2-9.4C3.4,31.2,3.8,28,4.8,25c1-3,2.6-5.7,4.7-8.1
				c2.1-2.4,4.6-4.3,7.4-5.6c2.8-1.4,5.9-2.2,9.3-2.5c3.5-0.3,6.8,0.1,9.6,1c2.9,0.9,5.6,2.5,8.1,4.6c2.5,2.2,4.4,4.7,5.7,7.4
				c1.3,2.7,2,5.9,2.2,9.4c0.2,3.4-0.3,6.6-1.3,9.5c-1,3-2.5,5.7-4.6,8c-2.1,2.4-4.6,4.3-7.5,5.7c-2.8,1.4-6,2.2-9.3,2.5
				c-3.4,0.3-6.7,0-9.6-1C16.7,55.1,13.9,53.5,11.4,51.3z M43.5,14.9c-2.4-2.1-5-3.6-7.9-4.5c-2.8-0.9-6-1.2-9.4-1
				c-3.2,0.3-6.3,1.1-9,2.4C14.4,13.2,12,15,10,17.3c-2,2.3-3.6,5-4.6,7.9c-1,2.9-1.4,6-1.3,9.3c0.2,3.4,0.9,6.5,2.2,9.1
				c1.3,2.7,3.1,5.1,5.5,7.2c2.4,2.1,5.1,3.7,7.9,4.6c2.8,0.9,6,1.2,9.3,1c3.3-0.3,6.3-1.1,9.1-2.4c2.8-1.3,5.2-3.2,7.3-5.5
				c2-2.3,3.5-4.9,4.5-7.8c1-2.9,1.4-6,1.2-9.3c-0.2-3.4-0.9-6.5-2.2-9.2S45.9,17,43.5,14.9z"/>
		</g>
		<g class="st1">
			<path class="st2" d="M8.7,54.4c-2.9-2.5-5.1-5.5-6.6-8.7c-1.5-3.2-2.4-6.9-2.6-10.9c-0.2-3.9,0.3-7.6,1.5-11.1
				c1.2-3.5,3-6.7,5.5-9.5c2.4-2.8,5.3-5,8.6-6.6c3.3-1.6,6.9-2.6,10.8-2.9c4.1-0.3,7.9,0.1,11.3,1.2c3.4,1.1,6.5,2.9,9.4,5.4
				c2.9,2.5,5.1,5.5,6.6,8.7c1.5,3.2,2.4,6.9,2.6,11c0.2,3.9-0.3,7.7-1.5,11.1c-1.2,3.5-3,6.6-5.4,9.4c-2.5,2.8-5.4,5-8.7,6.6
				c-3.3,1.6-7,2.6-10.8,2.9c-4,0.3-7.8-0.1-11.2-1.2C14.8,58.8,11.7,57,8.7,54.4z M46.1,11.9c-2.8-2.5-5.9-4.2-9.2-5.3
				s-7-1.4-11-1.1c-3.8,0.3-7.3,1.3-10.5,2.8c-3.2,1.6-6,3.7-8.4,6.4c-2.4,2.7-4.2,5.8-5.3,9.2C0.6,27.3,0.1,31,0.2,34.8
				c0.2,4,1.1,7.5,2.5,10.7c1.5,3.1,3.6,5.9,6.5,8.4c2.8,2.5,6,4.3,9.2,5.4c3.3,1.1,7,1.4,10.9,1.1c3.8-0.3,7.4-1.2,10.6-2.8
				c3.2-1.6,6.1-3.7,8.5-6.5c2.3-2.7,4.1-5.7,5.2-9.1c1.1-3.4,1.6-7.1,1.4-10.9c-0.2-4-1.1-7.6-2.5-10.7S48.9,14.4,46.1,11.9z"/>
		</g>
	</g>
</g>
<g>
	<g>
		<g>
			<path class="st2" d="M59.3,30c0-1.5,0.3-3,0.9-4.4c0.6-1.4,1.5-2.7,2.6-3.9c1.2-1.2,2.5-2.1,3.9-2.7c1.4-0.6,2.8-0.9,4.5-0.9
				c1.6,0,3.1,0.3,4.5,0.9c1.4,0.6,2.6,1.5,3.9,2.7c1.1,1.2,2,2.5,2.6,3.9c0.6,1.4,0.9,2.9,0.9,4.4c0,1.6-0.3,3-0.9,4.5
				c-0.6,1.4-1.5,2.7-2.6,3.9c-1.2,1.2-2.5,2.1-3.8,2.7c-1.4,0.6-2.9,0.9-4.5,0.9c-1.6,0-3.1-0.3-4.5-0.9c-1.4-0.6-2.6-1.5-3.8-2.7
				c-1.1-1.2-2-2.5-2.6-3.9C59.5,33,59.3,31.6,59.3,30z M66.1,30c0,2.9,0,4.9,0.1,6c0.1,1.1,0.3,1.9,0.5,2.5
				c0.4,0.8,0.9,1.4,1.6,1.8c0.7,0.4,1.6,0.5,2.7,0.5c1.2,0,2.1-0.2,2.8-0.5c0.7-0.4,1.2-1,1.6-1.8c0.3-0.6,0.4-1.5,0.5-2.6
				c0.1-1.2,0.2-3.1,0.2-5.9c0-2.7-0.1-4.7-0.2-5.9c-0.1-1.2-0.3-2-0.5-2.6c-0.4-0.8-0.9-1.4-1.6-1.8c-0.7-0.4-1.6-0.5-2.8-0.5
				c-1.2,0-2.1,0.2-2.7,0.5c-0.7,0.4-1.2,1-1.6,1.8c-0.3,0.5-0.4,1.4-0.5,2.5C66.1,25.1,66.1,27.1,66.1,30z"/>
			<path class="st2" d="M86.6,40.3h2.8V19.6h-2.8v-1h11.8c3.2,0,5.6,0.5,7.2,1.4c1.6,1,2.4,2.4,2.4,4.4c0,2.1-0.8,3.6-2.4,4.7
				c-1.6,1-4,1.6-7.3,1.6h-3.1v9.7h3.2v1.1H86.6V40.3z M95.1,19.6v10.1h3.2c1.3,0,2.1-0.3,2.6-0.8c0.4-0.5,0.6-2,0.6-4.4
				c0-2.2-0.2-3.5-0.6-4c-0.4-0.5-1.3-0.8-2.7-0.8H95.1z"/>
			<path class="st2" d="M110.5,41.4v-1.1h2.8V19.6h-2.4v-1h19l0.1,6h-1.1c-0.8-1.9-1.6-3.3-2.4-3.9c-0.8-0.7-2-1-3.5-1h-3.9V29
				c0.1,0,0.2,0,0.3,0c0.1,0,0.3,0,0.5,0c1.2,0,2.2-0.3,2.8-1c0.6-0.7,1.1-1.7,1.3-3.2h1.1v9.7H124c-0.1-1.6-0.5-2.7-1.2-3.4
				c-0.7-0.7-1.7-1-3.1-1h-0.7v10.1h3.8c1.9,0,3.4-0.5,4.4-1.5c1.1-1,1.9-2.7,2.5-5h1.1l-0.2,7.6H110.5z"/>
			<path class="st2" d="M133.5,41.4v-1.1h1.7c0.5,0,0.9-0.1,1.1-0.2c0.3-0.1,0.6-0.5,1-1.1l5.3-7.7l-7.1-11.6h-2v-1h11.1v1h-2.4
				l3.9,6.7l3.9-5.8c0,0,0-0.1,0.1-0.1c0.1-0.1,0.2-0.3,0.2-0.4c0-0.1-0.1-0.3-0.2-0.3c-0.1-0.1-0.3-0.1-0.5-0.1h-2.2v-1h7.8v1h-1.5
				c-0.7,0-1.3,0.1-1.5,0.2c-0.3,0.1-0.6,0.5-0.9,1l-4.4,6.4l7.9,13.1h1.9v1.1h-11v-1.1h2.5l-4.9-8l-4.3,6.6
				c-0.1,0.1-0.2,0.3-0.2,0.5c-0.1,0.2-0.1,0.3-0.1,0.4c0,0.2,0.1,0.3,0.2,0.4c0.1,0.1,0.4,0.2,0.7,0.2h2v1.1H133.5z"/>
		</g>
		<g>
			<path class="st2" d="M66.1,51.7c0,0.7-0.1,1.3-0.3,1.8c-0.2,0.5-0.5,0.9-1,1.1c-0.4,0.3-0.9,0.4-1.4,0.4c-0.5,0-1-0.1-1.4-0.4
				c-0.4-0.3-0.7-0.6-1-1.1c-0.2-0.5-0.3-1.1-0.4-1.7v-0.5c0-0.7,0.1-1.2,0.3-1.7c0.2-0.5,0.6-0.9,1-1.2c0.4-0.3,0.9-0.4,1.4-0.4
				c0.5,0,1,0.1,1.4,0.4c0.4,0.3,0.7,0.6,1,1.2c0.2,0.5,0.3,1.1,0.3,1.8V51.7z M65.2,51.2c0-0.8-0.2-1.4-0.5-1.9
				c-0.3-0.4-0.8-0.7-1.4-0.7c-0.6,0-1,0.2-1.3,0.7c-0.3,0.4-0.5,1-0.5,1.8v0.5c0,0.8,0.2,1.4,0.5,1.9c0.3,0.4,0.8,0.7,1.4,0.7
				c0.6,0,1-0.2,1.4-0.6c0.3-0.4,0.5-1,0.5-1.8V51.2z"/>
			<path class="st2" d="M68.5,52.2v2.7h-0.9V48h2.5c0.7,0,1.3,0.2,1.8,0.6c0.4,0.4,0.6,0.9,0.6,1.5c0,0.7-0.2,1.2-0.6,1.5
				c-0.4,0.4-1,0.5-1.8,0.5H68.5z M68.5,51.5h1.6c0.5,0,0.9-0.1,1.1-0.3c0.3-0.2,0.4-0.6,0.4-1c0-0.4-0.1-0.7-0.4-1
				c-0.3-0.2-0.6-0.4-1.1-0.4h-1.7V51.5z"/>
			<path class="st2" d="M77.6,51.7h-3v2.4h3.4v0.7h-4.3V48h4.3v0.7h-3.4V51h3V51.7z"/>
			<path class="st2" d="M81.8,52.1h-1.6v2.8h-0.9V48h2.3c0.8,0,1.4,0.2,1.8,0.5c0.4,0.4,0.6,0.9,0.6,1.5c0,0.4-0.1,0.8-0.3,1.1
				c-0.2,0.3-0.6,0.6-1,0.7l1.6,2.9v0.1h-1L81.8,52.1z M80.2,51.4h1.4c0.4,0,0.8-0.1,1.1-0.3c0.3-0.2,0.4-0.5,0.4-0.9
				c0-0.4-0.1-0.7-0.4-1c-0.3-0.2-0.6-0.3-1.1-0.3h-1.4V51.4z"/>
			<path class="st2" d="M89.1,53.1h-2.9l-0.6,1.8h-0.9l2.6-6.8h0.8l2.6,6.8h-0.9L89.1,53.1z M86.5,52.3h2.3l-1.2-3.2L86.5,52.3z"/>
			<path class="st2" d="M95.9,48.8h-2.2v6.1h-0.9v-6.1h-2.2V48h5.3V48.8z"/>
			<path class="st2" d="M97.9,54.9H97V48h0.9V54.9z"/>
			<path class="st2" d="M104.9,54.9H104l-3.4-5.3v5.3h-0.9V48h0.9l3.5,5.3V48h0.9V54.9z"/>
			<path class="st2" d="M111.7,54c-0.2,0.3-0.6,0.6-1,0.7c-0.4,0.2-0.9,0.2-1.5,0.2c-0.6,0-1.1-0.1-1.5-0.4c-0.4-0.3-0.8-0.6-1-1.1
				c-0.2-0.5-0.4-1-0.4-1.7v-0.6c0-1,0.2-1.8,0.7-2.4c0.5-0.6,1.2-0.9,2-0.9c0.7,0,1.3,0.2,1.7,0.5c0.4,0.4,0.7,0.9,0.8,1.6h-0.9
				c-0.2-0.9-0.7-1.4-1.6-1.4c-0.6,0-1.1,0.2-1.4,0.6c-0.3,0.4-0.5,1-0.5,1.8v0.6c0,0.8,0.2,1.4,0.5,1.8c0.4,0.5,0.8,0.7,1.4,0.7
				c0.3,0,0.6,0,0.9-0.1c0.3-0.1,0.5-0.2,0.6-0.4v-1.5h-1.6v-0.7h2.5V54z"/>
			<path class="st2" d="M119.6,51.7h-3v2.4h3.4v0.7h-4.3V48h4.3v0.7h-3.4V51h3V51.7z"/>
			<path class="st2" d="M123.6,50.7l1.6-2.6h1.1l-2.2,3.4l2.2,3.5h-1.1l-1.7-2.7l-1.7,2.7h-1.1l2.2-3.5l-2.2-3.4h1.1L123.6,50.7z"/>
			<path class="st2" d="M128.4,52.2v2.7h-0.9V48h2.5c0.7,0,1.3,0.2,1.8,0.6s0.6,0.9,0.6,1.5c0,0.7-0.2,1.2-0.6,1.5
				c-0.4,0.4-1,0.5-1.8,0.5H128.4z M128.4,51.5h1.6c0.5,0,0.9-0.1,1.1-0.3c0.3-0.2,0.4-0.6,0.4-1c0-0.4-0.1-0.7-0.4-1
				c-0.3-0.2-0.6-0.4-1.1-0.4h-1.7V51.5z"/>
			<path class="st2" d="M137.5,51.7h-3v2.4h3.4v0.7h-4.3V48h4.3v0.7h-3.4V51h3V51.7z"/>
			<path class="st2" d="M144.5,54.9h-0.9l-3.4-5.3v5.3h-0.9V48h0.9l3.5,5.3V48h0.9V54.9z"/>
			<path class="st2" d="M148.2,51.8c-0.8-0.2-1.3-0.5-1.7-0.8c-0.4-0.3-0.5-0.7-0.5-1.2c0-0.5,0.2-1,0.6-1.3c0.4-0.4,1-0.5,1.7-0.5
				c0.5,0,0.9,0.1,1.3,0.3s0.7,0.4,0.9,0.8c0.2,0.3,0.3,0.7,0.3,1h-0.9c0-0.4-0.1-0.7-0.4-1c-0.3-0.2-0.6-0.4-1.1-0.4
				c-0.4,0-0.8,0.1-1,0.3c-0.2,0.2-0.4,0.5-0.4,0.8c0,0.3,0.1,0.5,0.4,0.7c0.2,0.2,0.6,0.4,1.2,0.5c0.6,0.2,1,0.3,1.3,0.5
				c0.3,0.2,0.6,0.4,0.7,0.7c0.2,0.3,0.2,0.6,0.2,0.9c0,0.6-0.2,1-0.6,1.3c-0.4,0.3-1,0.5-1.7,0.5c-0.5,0-0.9-0.1-1.3-0.3
				c-0.4-0.2-0.7-0.4-0.9-0.7c-0.2-0.3-0.3-0.7-0.3-1.1h0.9c0,0.4,0.2,0.7,0.5,1c0.3,0.2,0.7,0.4,1.2,0.4c0.5,0,0.8-0.1,1.1-0.3
				c0.3-0.2,0.4-0.5,0.4-0.8c0-0.3-0.1-0.6-0.4-0.8C149.2,52.2,148.8,52,148.2,51.8z"/>
			<path class="st2" d="M155.8,51.7h-3v2.4h3.4v0.7H152V48h4.3v0.7h-3.4V51h3V51.7z"/>
		</g>
	</g>
</g>
<g>
	<g>
		<path class="st2" d="M164.1,10h-2v5.5h-0.5V10h-2V9.6h4.6V10z"/>
		<path class="st2" d="M165.7,9.6l2.2,5.3l2.2-5.3h0.7v6h-0.5V13l0-2.7l-2.2,5.3h-0.4l-2.2-5.2l0,2.6v2.6H165v-6H165.7z"/>
	</g>
</g>
</svg>
