<?xml version="1.0" encoding="utf-8"?>
<!-- Generator: Adobe Illustrator 22.1.0, SVG Export Plug-In . SVG Version: 6.00 Build 0)  -->
<svg version="1.1" id="Layer_1" xmlns="http://www.w3.org/2000/svg" xmlns:xlink="http://www.w3.org/1999/xlink" x="0px" y="0px"
	 viewBox="0 0 226 139" style="enable-background:new 0 0 226 139;" xml:space="preserve">
<style type="text/css">
	.st0{opacity:0.3;}
	.st1{fill:#212121;}
	.st2{fill:#009836;}
	.st3{fill:#33A440;}
	.st4{opacity:0.7;fill:#8BC53F;}
	.st5{opacity:0.2;fill:#8BC53F;}
	.st6{opacity:0.5;fill:#C48B67;}
	.st7{fill:#4C4B44;}
	.st8{fill:#E4E4E4;}
	.st9{opacity:0.4;fill:#363633;}
	.st10{fill:#E3E8EC;}
	.st11{fill:url(#SVGID_1_);}
	.st12{fill:url(#SVGID_2_);}
	.st13{fill:url(#SVGID_3_);}
	.st14{fill:url(#SVGID_4_);}
	.st15{opacity:0.6;fill:url(#SVGID_5_);}
</style>
<g class="st0">
	<polygon class="st1" points="117.6,95.7 50.5,134.8 5.3,108.7 72.5,69.6 	"/>
</g>
<g>
	<g>
		<g>
			<g>
				<polygon class="st2" points="215.1,36.1 215.1,54.5 140.8,97.7 140.8,79.3 				"/>
			</g>
			<g>
				<polygon class="st3" points="140.8,79.3 140.8,97.7 85.4,65.7 85.4,47.3 				"/>
			</g>
			<g>
				<polygon class="st2" points="215.1,36.1 140.8,79.3 85.4,47.3 159.7,4.1 				"/>
			</g>
		</g>
		<g>
			<polygon class="st4" points="182.7,17.3 108,60.4 108,67.8 114.4,71.5 114.4,64 189,20.9 			"/>
			<polygon class="st5" points="111.6,62.4 186.1,19.3 185.3,18.9 110.8,61.9 			"/>
		</g>
		<polygon class="st6" points="108,60.4 108,67.8 114.4,71.5 114.4,64 		"/>
	</g>
	<g>
		<path class="st7" d="M145.5,80.5c-0.3,0.7-1,1.3-1.5,1.3s-0.7-0.6-0.4-1.3c0.3-0.7,1-1.3,1.5-1.3S145.8,79.8,145.5,80.5z"/>
		<path class="st7" d="M149.5,78.2c-0.3,0.7-1,1.3-1.5,1.3c-0.5,0-0.7-0.6-0.4-1.3c0.3-0.7,1-1.3,1.5-1.3S149.8,77.5,149.5,78.2z"/>
		<path class="st7" d="M153.5,75.9c-0.3,0.7-1,1.3-1.5,1.3s-0.7-0.6-0.4-1.3c0.3-0.7,1-1.3,1.5-1.3
			C153.6,74.6,153.8,75.2,153.5,75.9z"/>
	</g>
	<g>
		<polygon class="st8" points="211.3,51.8 185.4,67 185.4,57.8 211.3,42.8 		"/>
		<path class="st9" d="M210.2,47.6l-23.6,13.6v-0.3l23.6-13.6V47.6z M210.2,48.3l-23.6,13.6v0.3l23.6-13.6V48.3z M210.2,49.3
			l-23.6,13.6v0.3l23.6-13.6V49.3z M210.2,50.3l-23.6,13.6v0.3l23.6-13.6V50.3z M210.2,51.3l-23.6,13.6v0.3l23.6-13.6V51.3z
			 M207,46.7l-16.7,9.6v1.2l16.7-9.6V46.7z"/>
	</g>
	<path class="st9" d="M124.3,74l12.7,7.3v0.3l-12.7-7.3V74z M124.3,75.3l12.7,7.3v-0.3L124.3,75V75.3z M124.3,76.3l12.7,7.3v-0.3
		L124.3,76V76.3z M124.3,77.3l12.7,7.3v-0.3L124.3,77V77.3z M124.3,78.3l12.7,7.3v-0.3L124.3,78V78.3z M124.3,80l12.7,7.3v0.3
		l-12.7-7.3V80z M124.3,81.3l12.7,7.3v-0.3L124.3,81V81.3z M124.3,82.3l12.7,7.3v-0.3L124.3,82V82.3z M124.3,83.3l12.7,7.3v-0.3
		L124.3,83V83.3z M124.3,84.3l12.7,7.3v-0.3L124.3,84V84.3z"/>
</g>
<g>
	<path class="st10" d="M74.8,68L8.3,106.1c11.8,5.5,31.5,16.8,43.6,25l66.4-38.2C106.3,84.8,86.5,73.4,74.8,68z"/>
	<g>
		<linearGradient id="SVGID_1_" gradientUnits="userSpaceOnUse" x1="51.9297" y1="112.5154" x2="118.3618" y2="112.5154">
			<stop  offset="0" style="stop-color:#C6CBCD"/>
			<stop  offset="0.5516" style="stop-color:#ADB2B3"/>
			<stop  offset="1" style="stop-color:#9DA2A3"/>
		</linearGradient>
		<polygon class="st11" points="51.9,131.1 118.4,92.9 118.4,93.9 51.9,132.1 		"/>
	</g>
	<g>
		<linearGradient id="SVGID_2_" gradientUnits="userSpaceOnUse" x1="8.3361" y1="119.115" x2="51.9297" y2="119.115">
			<stop  offset="0" style="stop-color:#C6CBCD"/>
			<stop  offset="0.5516" style="stop-color:#ADB2B3"/>
			<stop  offset="1" style="stop-color:#9DA2A3"/>
		</linearGradient>
		<path class="st12" d="M51.9,132.1c-11.9-5.6-31.7-17-43.6-25v-0.9c11.8,5.5,31.5,16.8,43.6,25V132.1z"/>
	</g>
	<g>
		<linearGradient id="SVGID_3_" gradientUnits="userSpaceOnUse" x1="43.9795" y1="111.6106" x2="79.4897" y2="111.6106">
			<stop  offset="0" style="stop-color:#C6CBCD"/>
			<stop  offset="0.5516" style="stop-color:#ADB2B3"/>
			<stop  offset="1" style="stop-color:#9DA2A3"/>
		</linearGradient>
		<path class="st13" d="M44.5,116.1l24.9-14.4c0.6-0.4,1.6-0.4,2.2-0.1l7.5,4.3c0.6,0.3,0.5,0.9-0.2,1.3L54,121.6
			c-0.6,0.4-1.6,0.4-2.2,0.1l-7.5-4.3C43.8,117,43.9,116.4,44.5,116.1z"/>
		<linearGradient id="SVGID_4_" gradientUnits="userSpaceOnUse" x1="43.9854" y1="109.2082" x2="79.4691" y2="109.2082">
			<stop  offset="0" style="stop-color:#C6CBCD"/>
			<stop  offset="0.5516" style="stop-color:#ADB2B3"/>
			<stop  offset="1" style="stop-color:#9DA2A3"/>
		</linearGradient>
		<path class="st14" d="M44.5,116.6l24.9-14.4c0.6-0.4,1.6-0.4,2.2-0.1l7.5,4.3c0.1,0.1,0.2,0.2,0.3,0.3c0.2-0.3,0.1-0.6-0.3-0.8
			l-7.5-4.3c-0.6-0.3-1.5-0.3-2.2,0.1l-24.9,14.4c-0.5,0.3-0.6,0.7-0.4,1C44.2,116.9,44.3,116.7,44.5,116.6z"/>
		
			<linearGradient id="SVGID_5_" gradientUnits="userSpaceOnUse" x1="764.5646" y1="109.7864" x2="788.3163" y2="150.9257" gradientTransform="matrix(-0.5 0.866 -0.866 -0.5 563.0896 -495.6088)">
			<stop  offset="0" style="stop-color:#C6CBCD"/>
			<stop  offset="0.5516" style="stop-color:#ADB2B3"/>
			<stop  offset="1" style="stop-color:#9DA2A3"/>
		</linearGradient>
		<path class="st15" d="M44.5,116.1l24.9-14.4c0.6-0.4,1.6-0.4,2.2-0.1l7.5,4.3c0.6,0.3,0.5,0.9-0.2,1.3L54,121.6
			c-0.6,0.4-1.6,0.4-2.2,0.1l-7.5-4.3C43.8,117,43.9,116.4,44.5,116.1z"/>
	</g>
</g>
</svg>
