<?xml version="1.0" encoding="utf-8"?>
<!-- Generator: Adobe Illustrator 22.1.0, SVG Export Plug-In . SVG Version: 6.00 Build 0)  -->
<svg version="1.1" id="Layer_1" xmlns="http://www.w3.org/2000/svg" xmlns:xlink="http://www.w3.org/1999/xlink" x="0px" y="0px"
	 viewBox="0 0 111 69" style="enable-background:new 0 0 111 69;" xml:space="preserve">
<style type="text/css">
	.st0{fill:#33A440;}
	.st1{fill:#ABB9D1;}
	.st2{fill:#FFFFFF;}
	.st3{fill:#DDE2E8;}
	.st4{fill:#231F20;}
</style>
<path class="st0" d="M52.6,62.6L5.5,35.5c-1.7-1-1.5-2.7,0.5-3.9L52.1,5c2-1.1,5-1.3,6.7-0.3l47.1,27.2c1.7,1,1.5,2.7-0.5,3.9
	L59.3,62.4C57.4,63.5,54.3,63.6,52.6,62.6z"/>
<g>
	<path class="st1" d="M58,39.3c-5.2,3-11.6,3-16.8,0L39,38c-0.9-0.5-1.5-1.3-1.8-2.2c-0.5,1.7,0.1,3.6,1.8,4.6l2.2,1.3
		c5.2,3,11.6,3,16.8,0L66,37l-2-1.2L58,39.3z"/>
	<path class="st2" d="M39,38l2.2,1.3c5.2,3,11.6,3,16.8,0l6-3.5l-9.5-5.5h0L50,27.7c-1.3,0.5-4.4,0.9-9.2,4.1
		c-2,1.4-3.3,3.2-3.6,4.1C37.5,36.7,38.1,37.5,39,38z"/>
	<path class="st3" d="M50,27.7l4.5,2.6c2.9-1.9,6.8-2.7,9.1-3.2C59.4,26.2,54,26.3,50,27.7z"/>
	<polygon class="st4" points="64,35.8 64,35.8 66,37 66,37 	"/>
	<path class="st1" d="M70.9,31c-0.2,0.6-0.7,1.2-1.4,1.6L64,35.8v2.3l5.5-3.2C71,34.1,71.4,32.4,70.9,31z"/>
	<path class="st3" d="M70.9,31c-0.2-0.6-0.7-1.2-1.4-1.6l0,0c-2.2-1.3-3.5-1.9-6-2.4c-2.3,0.5-6.2,1.3-9.1,3.2l9.5,5.5l5.5-3.2
		C70.2,32.2,70.6,31.7,70.9,31z"/>
</g>
</svg>
