<?xml version="1.0" encoding="iso-8859-1"?>
<!-- Generator: Adobe Illustrator 19.2.1, SVG Export Plug-In . SVG Version: 6.00 Build 0)  -->
<svg version="1.1" id="Layer_1" xmlns="http://www.w3.org/2000/svg" xmlns:xlink="http://www.w3.org/1999/xlink" x="0px" y="0px"
	 viewBox="0 0 191 98.75" style="enable-background:new 0 0 191 98.75;" xml:space="preserve">
<g>
	<path style="fill-rule:evenodd;clip-rule:evenodd;" d="M94.748,11.736h-0.827v-0.799c0-0.554,0.414-0.798,0.827-0.798
		c0.474,0,0.829,0.245,0.889,0.798v0.799H94.748L94.748,11.736z M94.748,13.272c2.369,0,4.675,0.368,6.807,1.106l2.426-4.669
		l-2.959-1.536c-0.83-0.247-1.244,0-1.244,1.105c-0.355,1.291-2.662,0.553-2.071-0.736c0.533-0.799,1.184-1.536,0.059-2.212
		l-3.019-1.905l-3.017,1.905c-1.066,0.676-0.473,1.413,0.059,2.212c0.592,1.289-1.716,2.028-2.071,0.736
		c0.059-1.105-0.414-1.352-1.242-1.105l-2.96,1.536l2.427,4.669C90.074,13.641,92.382,13.272,94.748,13.272L94.748,13.272z
		 M94.748,16.345c-2.721,0-4.971,0.492-6.805,1.106v-2.52c1.894-0.614,4.557-1.044,6.805-0.984c2.249-0.06,4.912,0.37,6.807,0.984
		v2.52C99.72,16.837,97.53,16.345,94.748,16.345L94.748,16.345z M94.748,45.653l7.755-3.994c0.355-0.184,0.65-0.492,1.005-0.737
		c-0.238,0.553-0.117,1.351,0.414,2.334h3.728c2.074-2.888,3.435-3.871,5.032-5.346c-0.238,1.229,0,2.458,0.474,3.134l2.721,3.133
		l-0.533,0.123c-0.827-0.43-1.596-0.737-2.484-0.615c-2.247-0.368-3.077,1.352-3.019,3.687h13.315
		c-0.117-0.922-0.236-2.027-1.181-2.581c-0.18-0.246-0.356-0.492-0.474-0.799c0.591-0.062,1.006-0.675,1.361-1.291
		c0.889,1.106,1.775,1.721,2.901,1.844c2.19-0.062,4.26-3.196,3.906-5.468c-0.711-2.028-2.902-3.072-4.38-4.301
		c-1.361-1.168,0-3.38,1.539-3.626c0.827,0,0.77,0.86-0.118,1.107c0.531,2.211,1.954,3.748,3.256,5.039
		c0.827-3.38,2.188-7.803-2.013-8.05c-0.592-0.061-1.125-0.123-1.717-0.306c-2.546,0.859-4.973,4.608-2.664,6.943
		c1.124,1.413,3.73,2.457,3.906,3.87c-0.059,0.799-0.889,2.335-1.836,2.212c-1.833-1.167-2.011-3.933-3.017-5.715
		c-1.007-1.167-2.189-2.334-3.375-3.441c3.375-1.781,5.151-3.932,6.391-5.898c1.421,1.413,3.612,1.966,5.034,1.168l-6.986-11.121
		c-0.591-1.106-1.951-1.352-2.782-0.861c-1.832-0.86-2.9,1.169-2.069,3.134c-0.414,1.598-1.361,3.749-2.547,5.899
		c0.297-1.598,1.124-3.319,1.185-5.53c0-0.369-0.415-1.659-0.535-2.212c0.535-1.044,0.594-1.905,0.473-3.134l-0.59,0.553
		l-0.178-1.474l-1.777,1.597c-1.005-0.246-1.655-0.553-2.72-0.798c-0.12,0.245-0.237,0.491-0.297,0.737l-1.125-0.184
		c-1.776-0.123-1.302,1.598-0.71,3.318c1.48-1.474,3.315,0.308,2.782,2.949c-0.829,1.413-1.421,2.089-2.782,3.073l0.533,0.306
		c-0.412,0.369-0.533,0.553-1.184,0.43l-1.717-3.809c-0.65-1.105-1.774-2.765-4.38-2.15l-0.828,1.045
		c-0.414-0.738-0.71-1.474-1.776-1.72c-1.894-0.554-3.669-0.738-5.918-0.738c-2.248,0-4.023,0.184-5.918,0.738
		c-1.006,0.246-1.302,0.982-1.716,1.72l-0.887-1.045c-2.604-0.615-3.669,1.045-4.321,2.15l-1.775,3.809
		c-0.592,0.123-0.77-0.061-1.125-0.43l0.533-0.306c-1.361-0.984-1.953-1.66-2.782-3.073c-0.592-2.642,1.244-4.423,2.782-2.949
		c0.532-1.72,1.006-3.441-0.77-3.318l-1.065,0.184c-0.118-0.246-0.236-0.492-0.297-0.737c-1.064,0.245-1.775,0.553-2.721,0.798
		l-1.836-1.597l-0.177,1.474l-0.533-0.553c-0.177,1.228-0.059,2.09,0.474,3.134c-0.119,0.553-0.533,1.843-0.592,2.212
		c0.118,2.211,0.887,3.933,1.183,5.53c-1.183-2.151-2.131-4.302-2.544-5.899c0.827-1.965-0.178-3.993-2.012-3.134
		c-0.888-0.492-2.249-0.245-2.842,0.861l-6.923,11.121c1.42,0.799,3.55,0.246,5.03-1.168c1.184,1.966,3.017,4.117,6.332,5.898
		c-1.183,1.106-2.308,2.274-3.373,3.441c-1.006,1.782-1.184,4.548-3.019,5.715c-0.888,0.122-1.775-1.413-1.835-2.212
		c0.178-1.413,2.782-2.457,3.966-3.87c2.249-2.335-0.118-6.084-2.663-6.943c-0.592,0.183-1.184,0.246-1.775,0.306
		c-4.203,0.247-2.841,4.67-2.012,8.05c1.303-1.291,2.722-2.827,3.254-5.039c-0.888-0.246-0.946-1.107-0.059-1.107
		c1.538,0.246,2.841,2.457,1.48,3.626c-1.421,1.229-3.669,2.273-4.321,4.301c-0.414,2.273,1.716,5.407,3.848,5.468
		c1.124-0.122,2.012-0.738,2.899-1.844c0.414,0.615,0.769,1.229,1.361,1.291c-0.118,0.307-0.236,0.553-0.473,0.799
		c-0.948,0.554-1.006,1.659-1.184,2.581h13.316c0.119-2.335-0.769-4.055-3.018-3.687c-0.888-0.123-1.657,0.184-2.426,0.615
		l-0.533-0.123l2.663-3.133c0.532-0.676,0.77-1.905,0.473-3.134c1.598,1.475,3.018,2.458,5.089,5.346h3.67
		c0.592-0.983,0.651-1.782,0.473-2.334c0.296,0.244,0.652,0.553,0.946,0.737L94.748,45.653L94.748,45.653z M123.155,53.885
		c-0.295-0.674-0.946-1.657-1.776-2.763c0.83-1.107,1.481-2.09,1.776-2.705h-14.853c0.354-0.184,0.475-0.429,0.533-0.859
		l0.176-3.256h-3.55c-1.065,0-1.183,1.413-1.126,2.335c0,0.246-0.414,0.246-0.591,0.123c-0.178-0.123-0.354-0.43-0.354-0.799
		c0.472-0.86,0.412-1.659-0.297-1.659h-2.189c-0.533,0-0.888,0.368-0.888,0.799v1.044c0,0.431,0.236,0.615,0.473,0.676
		c2.071,1.29,2.84,3.134,2.78,5.899c0,0.674,0.297,1.166,1.126,1.166H123.155L123.155,53.885z M100.372,12.474l0.237-0.614
		c0.296-0.738-0.651-1.045-0.948-0.246l-0.237,0.615L100.372,12.474L100.372,12.474z M105.461,22.673v13.825
		c0,1.106-0.356,2.274-0.889,3.195l-0.237,0.245c0.474-0.245,1.126-0.245,1.776-0.061c0.533-0.799,3.197-4.362,4.086-5.591v-0.983
		c-0.594-0.738-0.947-1.475-1.186-2.212h-1.124C106.763,28.756,106.171,25.5,105.461,22.673L105.461,22.673z M66.341,53.885
		c0.296-0.674,0.947-1.657,1.835-2.763c-0.888-1.107-1.539-2.09-1.835-2.705h14.854c-0.355-0.184-0.473-0.429-0.473-0.859
		l-0.178-3.256h3.551c1.066,0,1.184,1.413,1.124,2.335c0,0.246,0.356,0.246,0.533,0.123c0.237-0.123,0.355-0.43,0.355-0.799
		c-0.413-0.86-0.413-1.659,0.356-1.659h2.189c0.533,0,0.889,0.368,0.889,0.799v1.044c0,0.431-0.297,0.615-0.475,0.676
		c-2.13,1.29-2.899,3.134-2.84,5.899c0,0.674-0.237,1.166-1.065,1.166H66.341L66.341,53.885z M89.126,12.474l-0.178-0.614
		c-0.296-0.738,0.652-1.045,0.947-0.246l0.178,0.615L89.126,12.474L89.126,12.474z M84.037,22.673v13.825
		c0,1.106,0.414,2.274,0.888,3.195c0.118,0.061,0.177,0.185,0.237,0.245c-0.474-0.245-1.125-0.245-1.776-0.061
		c-0.473-0.799-3.136-4.362-4.024-5.591v-0.983c0.592-0.738,0.946-1.475,1.125-2.212h1.183C82.794,28.756,83.386,25.5,84.037,22.673
		L84.037,22.673z M94.748,56.406c0.829-0.245,1.836-0.922,2.604-2.029c1.066,0.677,3.67,0.738,4.618,0.369
		c1.714-3.563-0.297-7.557-3.198-7.741c-0.828,0-1.775,0.123-2.544,0.983c-0.473-0.124-0.888-0.246-1.481-0.307
		c-0.591,0.061-0.946,0.184-1.42,0.307c-0.828-0.86-1.775-0.983-2.545-0.983c-2.9,0.183-4.913,4.178-3.195,7.741
		c0.946,0.369,3.551,0.308,4.616-0.369C92.973,55.484,93.98,56.16,94.748,56.406L94.748,56.406z"/>
	<path style="fill:#EE3224;" d="M94.69,42.643l5.919-3.01c1.124-0.615,2.189-1.476,2.189-3.626V23.779
		c-1.598-0.982-2.367-1.966-3.019-3.072c-0.887-0.368-2.959-0.615-5.089-0.615c-2.071,0-4.143,0.247-5.031,0.615
		c-0.652,1.106-1.42,2.09-3.078,3.072v12.228c0,2.15,1.124,3.012,2.189,3.626L94.69,42.643L94.69,42.643z"/>
	<path d="M94.748,22.797c4.084,0,7.398,3.44,7.398,7.68c0,4.24-3.314,7.68-7.398,7.68c-4.083,0-7.397-3.441-7.397-7.68
		C87.351,26.236,90.665,22.797,94.748,22.797L94.748,22.797z"/>
	<path style="fill-rule:evenodd;clip-rule:evenodd;fill:#A98150;" d="M94.69,45.161l-7.517-3.932
		c-1.953-1.168-2.722-2.826-2.722-5.161V22.366c3.609-1.476,2.781-3.195,4.319-3.686c1.599-0.552,3.137-0.798,5.919-0.798
		c2.84,0,4.38,0.246,5.977,0.798c1.48,0.492,0.712,2.211,4.262,3.686v13.702c0,2.335-0.71,3.993-2.723,5.161L94.69,45.161
		L94.69,45.161z M94.69,53.456c0.651-0.369,0.947-0.737,1.361-1.228c-0.355-0.308-0.593-0.615-0.888-0.983
		c-0.179,0.123-0.297,0.184-0.474,0.246c-0.177-0.061-0.296-0.123-0.474-0.246c-0.236,0.368-0.474,0.676-0.828,0.983
		C93.803,52.72,94.098,53.087,94.69,53.456L94.69,53.456z M94.69,50.999c0.474-0.245,0.888-0.493,1.183-1.045
		c0.473,0.308,1.185,0.738,1.776,0.738c-0.237-1.476-1.597-2.519-2.959-2.519c-1.302,0-2.723,1.043-2.959,2.519
		c0.592,0,1.361-0.43,1.834-0.738C93.861,50.506,94.216,50.753,94.69,50.999L94.69,50.999z M94.69,55.975
		c0.592-0.245,1.006-0.553,1.361-0.922c-0.414-0.368-0.593-0.799-0.948-1.291c-0.118,0.062-0.236,0.122-0.414,0.184
		c-0.177-0.062-0.296-0.122-0.414-0.184c-0.296,0.491-0.473,0.923-0.888,1.291C93.742,55.422,94.157,55.73,94.69,55.975
		L94.69,55.975z M94.69,15.914c1.361,0,4.082,0.123,6.392,0.861v-1.476c-2.131-0.614-3.965-0.859-6.392-0.859
		c-2.426,0-4.202,0.246-6.333,0.859v1.476C90.665,16.037,93.388,15.914,94.69,15.914L94.69,15.914z M113.096,53.394l-1.538-2.026
		h2.248l1.598,2.026H113.096L113.096,53.394z M110.138,53.394l-1.482-2.026h2.25l1.538,2.026H110.138L110.138,53.394z
		 M100.431,45.469v0.491c0,0.43,0.236,0.552,0.413,0.615c0.414,0.368,1.243,0.799,1.894,2.089c0.296-0.369-0.887-2.704-0.829-2.766
		c0.237-0.122,1.184,2.151,1.361,3.564c2.606-1.721,2.901-2.95,3.078-2.642c0.177,0.185-1.479,1.904-2.958,2.95
		c0.531,1.106,2.721,2.518,2.721,2.581c-0.118,0.306-2.427-1.598-2.604-1.845c0.473,2.091-0.178,2.95,0.828,2.888h5.208
		l-1.539-2.026h-1.893c-0.592-1.291-0.059-2.888,0.829-2.95c0.474-0.122,1.361-0.244,1.361-0.859l0.177-2.765h-3.017
		c-0.947,0-0.71,1.904-0.71,2.028c0,0.737-1.539,0.799-1.716-0.245c-0.177-0.493-0.118-0.738,0.118-1.229
		c0.117-0.246,0.117-0.554-0.295-0.554h-1.953C100.372,44.793,100.49,45.223,100.431,45.469L100.431,45.469z M107.297,48.847
		c-0.948,0-1.126,1.292-0.889,2.028h1.597l1.539-2.028H107.297L107.297,48.847z M110.138,48.847l-1.482,2.028h2.25l1.538-2.028
		H110.138L110.138,48.847z M113.096,48.847l-1.538,2.028h2.248l1.598-2.028H113.096L113.096,48.847z M114.221,51.122l1.064,1.475
		l2.129-1.475l-2.129-1.352L114.221,51.122L114.221,51.122z M115.64,52.964l1.066-0.736h4.794c0.353,0.369,0.65,0.859,0.768,1.166
		h-6.271L115.64,52.964L115.64,52.964z M118.302,51.122l-0.947,0.552h3.848l-0.353-0.552l0.353-0.553h-3.848L118.302,51.122
		L118.302,51.122z M115.64,49.401l1.066,0.675h4.794c0.353-0.306,0.65-0.922,0.768-1.229h-6.271L115.64,49.401L115.64,49.401z
		 M96.584,48.233c0.592,0.369,1.36,1.289,1.598,2.52h0.413c0.236-0.554,0.176-1.352,0.059-1.906
		c0.769-0.123,1.242-0.306,1.776-0.674C98.772,46.759,96.997,47.803,96.584,48.233L96.584,48.233z M95.518,50.999
		c0.533,0.922,1.539,1.29,2.072,1.413c0.236-0.492,0.236-0.738,0.118-1.229c-0.65-0.06-1.42-0.491-1.717-0.677
		C95.815,50.692,95.696,50.876,95.518,50.999L95.518,50.999z M95.578,53.456c0.178,0.491,0.592,0.983,0.828,1.29
		c0.474-0.552,0.888-1.167,1.066-1.904c-0.473-0.123-0.828-0.308-1.066-0.43C96.169,52.905,95.873,53.211,95.578,53.456
		L95.578,53.456z M100.431,52.964c0.059-0.184,0.117-0.367,0.117-0.49c0.593,0.124,0.948,0.184,1.422,0.246
		c0,0.429-0.179,1.35-0.414,1.597c-0.474,0.122-1.007,0.245-1.539,0.245c-0.059-0.615-0.059-1.045-0.12-1.535
		C100.077,53.027,100.193,53.027,100.431,52.964L100.431,52.964z M99.188,49.954c0.889,0.122,1.479,0.185,2.427-0.184
		c-0.237-0.615-0.533-0.983-0.771-1.229c-0.473,0.246-0.887,0.43-1.656,0.675V49.954L99.188,49.954z M100.727,51.982
		c0.473,0.184,0.71,0.184,1.301,0.246c0.059-0.615,0-1.291-0.237-2.029c-0.414,0.185-0.592,0.247-0.887,0.247
		C100.844,50.937,100.844,51.429,100.727,51.982L100.727,51.982z M97.53,54.009c0.178-0.369,0.296-0.553,0.473-1.045
		c0.534,0.063,0.947,0.124,1.42,0.124c0.059,0.492,0.059,0.859,0.119,1.352C98.951,54.439,98.24,54.377,97.53,54.009L97.53,54.009z
		 M98.122,52.473c0.061-0.368,0.118-0.675,0.118-1.229h0.651c0.118-0.369,0.178-0.553,0.237-0.86
		c0.414,0.122,0.71,0.122,1.302,0.122c0,0.431-0.059,1.476-0.414,2.028C99.483,52.657,98.655,52.597,98.122,52.473L98.122,52.473z
		 M129.844,27.835c-1.243,0.492-3.078-0.37-4.025-1.352l-2.839-4.301c-0.238-0.246-0.532-1.044-0.829-0.43
		c-0.473,1.537-3.374,6.39-7.633,8.357c-0.238-0.245-0.829-0.676-1.184-0.798c3.608-2.704,5.09-4.732,7.161-9.893
		c-0.712-2.642,1.3-4.178,2.782-2.212L129.844,27.835L129.844,27.835z M120.552,16.468c-0.71,0.553-0.829,2.212-0.59,2.826
		c-0.948,2.397-1.836,4.67-3.789,6.882c1.716-2.887,2.427-4.609,3.076-6.882C118.423,17.144,119.548,15.976,120.552,16.468
		L120.552,16.468z M125.226,26.544c-0.352,0.614-0.767,1.168-1.124,1.597l-2.485-4.178c0.416-0.676,0.65-1.229,0.83-1.721
		L125.226,26.544L125.226,26.544z M123.808,28.572c-0.354,0.43-0.77,0.922-1.184,1.228l-2.189-4.116
		c0.295-0.431,0.651-0.922,0.889-1.29L123.808,28.572L123.808,28.572z M122.268,30.108c-0.294,0.307-0.65,0.615-1.124,0.983
		l-1.833-4.117c0.177-0.185,0.531-0.615,0.767-0.86L122.268,30.108L122.268,30.108z M120.729,31.398
		c-0.473,0.307-0.767,0.43-1.124,0.676l-1.538-3.809c0.177-0.246,0.591-0.553,0.888-0.923L120.729,31.398L120.729,31.398z
		 M119.191,32.32c-0.533,0.307-0.65,0.307-1.244,0.554l-1.062-3.626c0.176-0.184,0.53-0.368,0.767-0.614L119.191,32.32
		L119.191,32.32z M117.476,32.996c-0.238,0.122-0.829,0.246-1.185,0.368l-0.473-3.379c0.237-0.185,0.415-0.308,0.71-0.492
		L117.476,32.996L117.476,32.996z M115.818,33.426c-0.297,0.06-0.71,0.246-1.006,0.307v-3.257c0.238-0.122,0.413-0.184,0.709-0.307
		L115.818,33.426L115.818,33.426z M114.043,28.203l-1.303,0.983c-2.309,0.061-2.664,2.335-2.664,3.317
		c-1.007-1.536-1.421-3.932-0.177-6.145c0.77,0.369,1.658,0.554,3.017,0.307C113.155,27.342,113.747,27.896,114.043,28.203
		L114.043,28.203z M115.579,26.79c-0.412,0.369-0.709,0.676-1.182,1.106c-0.71-0.676-1.064-1.167-1.183-1.782
		c-1.894,0.552-3.491,0-3.611-0.86c0.415,0.062,0.829-0.122,1.362-0.737c0.711,0.368,1.894,0.368,2.959,0
		C114.043,25.623,114.635,26.299,115.579,26.79L115.579,26.79z M116.941,15.177c0.059,0.43-0.235,1.598-0.53,2.028
		c0,0.308,0.353,1.413,0.53,2.274c-0.056,2.703-1.42,4.916-1.182,6.881c-1.181-0.737-1.302-1.29-1.538-2.457
		c-0.888,0.306-2.134,0.675-3.374,0c2.013-1.783,4.023-4.732,2.544-7.312c-1.005-0.553-1.655-0.677-1.064-1.905
		C114.397,14.993,115.759,16.468,116.941,15.177L116.941,15.177z M114.577,15.546h-1.601c0.119,0.245,0.297,0.368,0.473,0.245
		c0,0.122,0.06,0.369,0.356,0.492l0.356-0.492C114.457,15.791,114.635,15.791,114.577,15.546L114.577,15.546z M111.676,15.423
		c-0.061,0.43,0.177,1.106,1.3,1.475c0.533,0.798,0.593,2.027,0.297,3.194c0.236-2.58-2.072-3.624-3.076-2.887
		c-0.179-0.798-0.771-2.273,0.473-2.089L111.676,15.423L111.676,15.423z M116.35,15.054c-0.236,0.122-0.473,0.184-1.064,0.062
		l1.005-0.86L116.35,15.054L116.35,15.054z M107.177,21.199l2.309,4.977c-0.71,1.352-0.948,3.072-0.651,4.424h-0.71
		c-0.65-0.922-1.54-4.609-2.191-7.681c-0.236-1.106-0.946-0.799-1.893-1.475l0.355-0.615c0.236-0.429-0.118-0.738-0.415-0.368
		l-0.355,0.675c-0.415-0.308-0.71-0.615-1.007-0.922l0.888-0.921C104.455,18.986,106.052,18.986,107.177,21.199L107.177,21.199z
		 M114.397,30.6v5.284c-2.662,2.15-4.971,4.054-7.042,6.882h-1.717v-0.492c0-0.492-0.593-0.492-0.593,0v0.492h-0.828
		c-0.888-1.475-0.178-3.133,2.012-2.335c1.007-1.475,3.967-5.591,4.382-5.96v-1.905c0-1.289,0.412-2.765,2.011-2.888
		C113.214,29.617,113.57,29.863,114.397,30.6L114.397,30.6z M122.799,42.028c0.655,0.799,1.422,1.781,2.901,2.089
		c1.953-0.123,3.788-3.133,3.433-4.854c-0.709-2.519-4.852-3.747-4.912-5.283c-0.059-1.352,0.947-2.888,2.131-3.256
		c1.125-0.246,2.368,1.044,0.83,1.781c0.118,0.615,0.414,1.168,0.592,1.475l0.238-1.046c0.115-0.49,0.53-0.429,0.412,0.124
		l-0.236,1.29c0.118,0.307,0.295,0.615,0.474,0.861l0.471-2.275c0.061-0.49,0.476-0.429,0.417,0.124l-0.535,2.581
		c0.238,0.307,0.356,0.43,0.652,0.799c0.415-1.597,1.422-5.223-0.355-6.329c-0.829-0.491-1.952-0.184-3.135-0.676
		c-1.776,0.676-3.553,3.011-3.022,4.915c0.83,2.52,4.383,3.195,4.796,5.407c0,1.107-1.422,3.195-2.605,2.643
		c-2.013-1.291-2.132-4.363-3.137-5.837c-1.359-1.475-2.486-2.58-3.434-3.503c-1.182,0.429-1.835,0.738-3.964,1.107v1.413
		c0.653-0.431,2.368-0.676,3.668,0.185c0.238,0.06,0.238,0.553,0,0.553c-1.301-0.922-2.721-0.861-3.845,0
		c-1.302,1.043-0.888,3.318-0.058,4.116l2.958,3.318c0.591-0.185,0.709,0.429,0.177,0.491l-2.487,0.615
		c-2.366-1.413-3.549-0.492-3.905,1.29v0.798h1.597v-0.737c0-0.369,0.474-0.369,0.474,0v0.737h9.174
		c-0.118-0.982-0.474-1.596-0.888-1.72c-0.415-0.307-0.771-1.536-1.005-2.335c-0.177-0.553,0.235-0.677,0.414-0.123l0.238,0.736
		C122.091,43.441,122.209,42.458,122.799,42.028L122.799,42.028z M117,43.809l-0.767,0.185l-2.724-3.195
		c-0.768-1.106-0.828-2.888,0.179-3.809c-0.592,1.044-0.239,2.643,0.412,3.563L117,43.809L117,43.809z M110.847,46.943h-0.591
		c-0.117-1.29,0.473-2.518,1.538-2.765C111.438,44.547,110.788,45.223,110.847,46.943L110.847,46.943z M76.343,53.394l1.539-2.026
		h-2.25l-1.597,2.026H76.343L76.343,53.394z M79.244,53.394l1.538-2.026h-2.25l-1.597,2.026H79.244L79.244,53.394z M89.007,45.469
		v0.491c0,0.43-0.236,0.552-0.413,0.615c-0.414,0.368-1.303,0.799-1.953,2.089c-0.237-0.369,0.888-2.704,0.828-2.766
		c-0.237-0.122-1.125,2.151-1.302,3.564c-2.603-1.721-2.9-2.95-3.078-2.642c-0.176,0.185,1.42,1.904,2.96,2.95
		c-0.533,1.106-2.723,2.518-2.723,2.581c0.119,0.306,2.426-1.598,2.604-1.845c-0.473,2.091,0.177,2.95-0.888,2.888h-5.208
		l1.598-2.026h1.894c0.592-1.291,0.059-2.888-0.887-2.95c-0.474-0.122-1.302-0.244-1.302-0.859l-0.178-2.765h3.018
		c0.888,0,0.651,1.904,0.651,2.028c0,0.737,1.598,0.799,1.775-0.245c0.178-0.493,0.118-0.738-0.118-1.229
		c-0.119-0.246-0.119-0.554,0.295-0.554h1.953C89.067,44.793,88.949,45.223,89.007,45.469L89.007,45.469z M82.084,48.847
		c1.006,0,1.183,1.292,0.947,2.028h-1.598l-1.598-2.028H82.084L82.084,48.847z M79.244,48.847l1.538,2.028h-2.25l-1.597-2.028
		H79.244L79.244,48.847z M76.343,48.847l1.539,2.028h-2.25l-1.597-2.028H76.343L76.343,48.847z M75.219,51.122l-1.125,1.475
		l-2.13-1.475l2.13-1.352L75.219,51.122L75.219,51.122z M73.798,52.964l-1.066-0.736h-4.793c-0.414,0.369-0.71,0.859-0.829,1.166
		h6.333L73.798,52.964L73.798,52.964z M71.135,51.122l0.888,0.552h-3.788l0.355-0.552l-0.355-0.553h3.788L71.135,51.122
		L71.135,51.122z M73.798,49.401l-1.066,0.675h-4.793c-0.414-0.306-0.71-0.922-0.829-1.229h6.333L73.798,49.401L73.798,49.401z
		 M92.855,48.233c-0.651,0.369-1.361,1.289-1.598,2.52h-0.414c-0.237-0.554-0.178-1.352-0.06-1.906
		c-0.828-0.123-1.301-0.306-1.776-0.674C90.665,46.759,92.382,47.803,92.855,48.233L92.855,48.233z M93.921,50.999
		c-0.533,0.922-1.598,1.29-2.131,1.413c-0.177-0.492-0.177-0.738-0.118-1.229c0.651-0.06,1.481-0.491,1.776-0.677
		C93.625,50.692,93.742,50.876,93.921,50.999L93.921,50.999z M93.861,53.456c-0.179,0.491-0.592,0.983-0.829,1.29
		c-0.532-0.552-0.947-1.167-1.124-1.904c0.473-0.123,0.888-0.308,1.124-0.43C93.269,52.905,93.565,53.211,93.861,53.456
		L93.861,53.456z M89.007,52.964c-0.058-0.184-0.118-0.367-0.118-0.49c-0.592,0.124-0.946,0.184-1.479,0.246
		c0,0.429,0.178,1.35,0.473,1.597c0.474,0.122,1.006,0.245,1.481,0.245c0.059-0.615,0.059-1.045,0.118-1.535
		C89.304,53.027,89.185,53.027,89.007,52.964L89.007,52.964z M90.252,49.954c-0.947,0.122-1.481,0.185-2.427-0.184
		c0.237-0.615,0.533-0.983,0.77-1.229c0.473,0.246,0.828,0.43,1.658,0.675V49.954L90.252,49.954z M88.712,51.982
		c-0.473,0.184-0.71,0.184-1.361,0.246c-0.06-0.615,0-1.291,0.237-2.029c0.473,0.185,0.651,0.247,0.946,0.247
		C88.594,50.937,88.594,51.429,88.712,51.982L88.712,51.982z M91.849,54.009c-0.178-0.369-0.236-0.553-0.414-1.045
		c-0.532,0.063-0.947,0.124-1.479,0.124c-0.06,0.492-0.06,0.859-0.118,1.352C90.488,54.439,91.198,54.377,91.849,54.009
		L91.849,54.009z M91.317,52.473c-0.059-0.368-0.118-0.675-0.118-1.229h-0.651c-0.118-0.369-0.177-0.553-0.237-0.86
		c-0.473,0.122-0.769,0.122-1.303,0.122c0,0.431,0.06,1.476,0.356,2.028C89.896,52.657,90.783,52.597,91.317,52.473L91.317,52.473z
		 M88.476,11.921c-0.356-1.292,1.361-1.721,1.716-0.491l0.355,1.043l-1.717,0.369L88.476,11.921L88.476,11.921z M94.748,12.106
		h1.243v-1.168c-0.058-0.86-0.59-1.229-1.243-1.229c-0.709,0-1.242,0.368-1.302,1.229v1.168H94.748L94.748,12.106z M94.748,12.781
		c2.191,0,4.557,0.307,6.63,0.982l2.013-3.932l-2.547-1.289c-0.354-0.185-0.651,0.06-0.592,0.43
		c-0.118,1.105-0.77,1.475-1.774,1.412c-1.067-0.122-1.835-1.351-0.948-2.457c0.414-0.49,0.473-0.921-0.059-1.228l-2.723-1.782
		l-2.721,1.782c-0.592,0.308-0.533,0.738-0.06,1.228c0.829,1.106,0.119,2.335-1.005,2.457c-0.947,0.063-1.658-0.307-1.777-1.412
		c0.059-0.37-0.236-0.615-0.591-0.43l-2.545,1.289l2.012,3.932C90.133,13.088,92.559,12.781,94.748,12.781L94.748,12.781z
		 M100.964,11.921l-0.355,0.922l-1.717-0.369l0.354-1.043C99.66,10.201,101.319,10.63,100.964,11.921L100.964,11.921z
		 M59.535,27.835c1.303,0.492,3.136-0.37,4.083-1.352l2.84-4.301c0.178-0.246,0.473-1.044,0.77-0.43
		c0.533,1.537,3.434,6.39,7.635,8.357c0.237-0.245,0.888-0.676,1.243-0.798c-3.669-2.704-5.09-4.732-7.161-9.893
		c0.651-2.642-1.303-4.178-2.782-2.212L59.535,27.835L59.535,27.835z M68.887,16.468c0.651,0.553,0.769,2.212,0.532,2.826
		c1.006,2.397,1.894,4.67,3.847,6.882c-1.716-2.887-2.427-4.609-3.077-6.882C71.017,17.144,69.833,15.976,68.887,16.468
		L68.887,16.468z M64.151,26.544c0.355,0.614,0.77,1.168,1.184,1.597l2.485-4.178c-0.473-0.676-0.71-1.229-0.888-1.721
		L64.151,26.544L64.151,26.544z M65.631,28.572c0.356,0.43,0.77,0.922,1.125,1.228l2.249-4.116c-0.296-0.431-0.652-0.922-0.888-1.29
		L65.631,28.572L65.631,28.572z M67.11,30.108c0.296,0.307,0.71,0.615,1.184,0.983l1.774-4.117c-0.177-0.185-0.532-0.615-0.768-0.86
		L67.11,30.108L67.11,30.108z M68.709,31.398c0.415,0.307,0.71,0.43,1.066,0.676l1.597-3.809c-0.177-0.246-0.591-0.553-0.888-0.923
		L68.709,31.398L68.709,31.398z M70.247,32.32c0.533,0.307,0.652,0.307,1.243,0.554l1.006-3.626
		c-0.177-0.184-0.532-0.368-0.769-0.614L70.247,32.32L70.247,32.32z M71.905,32.996c0.236,0.122,0.887,0.246,1.243,0.368
		l0.473-3.379c-0.237-0.185-0.414-0.308-0.71-0.492L71.905,32.996L71.905,32.996z M73.62,33.426c0.296,0.06,0.651,0.246,0.947,0.307
		v-3.257c-0.237-0.122-0.415-0.184-0.651-0.307L73.62,33.426L73.62,33.426z M75.396,28.203l1.243,0.983
		c2.368,0.061,2.663,2.335,2.663,3.317c1.066-1.536,1.481-3.932,0.178-6.145c-0.711,0.369-1.598,0.554-2.96,0.307
		C76.284,27.342,75.692,27.896,75.396,28.203L75.396,28.203z M73.857,26.79c0.356,0.369,0.651,0.676,1.125,1.106
		c0.769-0.676,1.124-1.167,1.243-1.782c1.894,0.552,3.432,0,3.552-0.86c-0.415,0.062-0.77-0.122-1.303-0.737
		c-0.71,0.368-1.894,0.368-2.959,0C75.396,25.623,74.745,26.299,73.857,26.79L73.857,26.79z M72.496,15.177
		c-0.058,0.43,0.237,1.598,0.533,2.028c0,0.308-0.354,1.413-0.533,2.274c0.06,2.703,1.421,4.916,1.184,6.881
		c1.183-0.737,1.302-1.29,1.539-2.457c0.887,0.306,2.13,0.675,3.372,0c-2.071-1.783-4.023-4.732-2.544-7.312
		c0.947-0.553,1.657-0.677,1.066-1.905C75.041,14.993,73.68,16.468,72.496,15.177L72.496,15.177z M74.863,15.546h1.598
		c-0.119,0.245-0.297,0.368-0.474,0.245c0,0.122-0.059,0.369-0.355,0.492l-0.355-0.492C74.982,15.791,74.804,15.791,74.863,15.546
		L74.863,15.546z M77.763,15.423c0.06,0.43-0.236,1.106-1.301,1.475c-0.533,0.798-0.593,2.027-0.297,3.194
		c-0.236-2.58,2.072-3.624,3.019-2.887c0.177-0.798,0.769-2.273-0.415-2.089L77.763,15.423L77.763,15.423z M73.088,15.054
		c0.238,0.122,0.474,0.184,1.006,0.062l-0.946-0.86L73.088,15.054L73.088,15.054z M82.203,21.199l-2.308,4.977
		c0.769,1.352,1.006,3.072,0.71,4.424h0.71c0.591-0.922,1.539-4.609,2.19-7.681c0.237-1.106,0.888-0.799,1.894-1.475l-0.414-0.615
		c-0.238-0.429,0.118-0.738,0.473-0.368l0.355,0.675c0.414-0.308,0.71-0.615,0.946-0.922l-0.828-0.921
		C84.925,18.986,83.386,18.986,82.203,21.199L82.203,21.199z M74.982,30.6v5.284c2.722,2.15,4.971,4.054,7.043,6.882H83.8v-0.492
		c0-0.492,0.531-0.492,0.531,0v0.492h0.83c0.946-1.475,0.236-3.133-1.954-2.335c-1.064-1.475-4.024-5.591-4.38-5.96v-1.905
		c0-1.289-0.414-2.765-2.072-2.888C76.225,29.617,75.869,29.863,74.982,30.6L74.982,30.6z M66.577,42.028
		c-0.591,0.799-1.361,1.781-2.84,2.089c-2.013-0.123-3.848-3.133-3.433-4.854c0.71-2.519,4.852-3.747,4.911-5.283
		c0.059-1.352-1.006-2.888-2.129-3.256c-1.185-0.246-2.369,1.044-0.888,1.781c-0.119,0.615-0.414,1.168-0.592,1.475l-0.177-1.046
		c-0.118-0.49-0.533-0.429-0.415,0.124l0.237,1.29c-0.118,0.307-0.295,0.615-0.473,0.861l-0.473-2.275
		c-0.06-0.49-0.532-0.429-0.475,0.124l0.593,2.581c-0.237,0.307-0.415,0.43-0.711,0.799c-0.414-1.597-1.361-5.223,0.415-6.329
		c0.828-0.491,1.893-0.184,3.136-0.676c1.716,0.676,3.492,3.011,3.017,4.915c-0.828,2.52-4.438,3.195-4.793,5.407
		c0,1.107,1.42,3.195,2.544,2.643c2.072-1.291,2.19-4.363,3.136-5.837c1.421-1.475,2.487-2.58,3.493-3.503
		c1.124,0.429,1.775,0.738,3.906,1.107v1.413c-0.592-0.431-2.367-0.676-3.611,0.185c-0.236,0.06-0.236,0.553,0,0.553
		c1.244-0.922,2.723-0.861,3.788,0c1.361,1.043,0.947,3.318,0.059,4.116l-2.959,3.318c-0.532-0.185-0.651,0.429-0.177,0.491
		l2.485,0.615c2.427-1.413,3.61-0.492,3.965,1.29v0.798H76.52v-0.737c0-0.369-0.473-0.369-0.473,0v0.737h-9.233
		c0.118-0.982,0.474-1.596,0.948-1.72c0.414-0.307,0.769-1.536,1.007-2.335c0.177-0.553-0.238-0.677-0.416-0.123l-0.236,0.736
		C67.288,43.441,67.169,42.458,66.577,42.028L66.577,42.028z M72.378,43.809l0.829,0.185l2.722-3.195
		c0.71-1.106,0.769-2.888-0.178-3.809c0.592,1.044,0.237,2.643-0.414,3.563L72.378,43.809L72.378,43.809z M78.591,46.943h0.534
		c0.118-1.29-0.416-2.518-1.539-2.765C78,44.547,78.651,45.223,78.591,46.943L78.591,46.943z M94.69,23.226
		c3.906,0,6.983,3.196,6.983,7.25c0,3.933-3.077,7.251-6.983,7.251c-3.787,0-6.925-3.318-6.925-7.251
		C87.765,26.422,90.903,23.226,94.69,23.226L94.69,23.226z M94.69,24.209c-3.255,0-5.977,2.765-5.977,6.206
		c0,3.441,2.722,6.267,5.977,6.267c3.373,0,6.037-2.826,6.037-6.267C100.727,26.974,98.063,24.209,94.69,24.209L94.69,24.209z
		 M96.82,33.426c3.432,0.368,4.203-4.302,2.723-6.085c-1.421-1.842-3.255-1.719-3.373-0.305c-1.421-3.258-5.623-1.598-6.451,0.614
		c-0.829,2.274,0.177,3.81,1.48,3.195c-2.013,2.888,1.479,5.837,3.669,5.469C97.176,35.945,98.003,34.224,96.82,33.426L96.82,33.426
		z M95.696,33.304c-0.592-0.185-1.598,0.061-2.072,0.43c-0.473,0.368,0,1.167,0.592,0.736
		C94.571,34.164,94.807,33.304,95.696,33.304L95.696,33.304z M96.643,28.203c0.117,0.615,0.768,1.291,1.42,1.597
		c0.533,0.247,0.947-0.614,0.296-0.921C97.945,28.695,97.058,28.879,96.643,28.203L96.643,28.203z M91.849,29.863
		c0.474-0.43,0.829-1.413,0.71-2.028c-0.059-0.615-1.006-0.615-0.947,0.123C91.671,28.449,92.264,29.064,91.849,29.863
		L91.849,29.863z M94.867,28.265c0.355,0.799,0.297,1.229,0.236,2.212c0.119-0.307,0.355-0.552,0.592-0.614
		c0.355-1.413-0.948-3.012-2.013-3.564c1.362,1.843-0.473,1.966,0,3.564c0.356-0.062,0.77,0.061,1.125,0.614
		C95.045,29.8,95.104,29.124,94.867,28.265L94.867,28.265z M95.045,30.968c-1.48-2.888-3.314,0.675-3.136,2.335
		c0.414-2.212,2.367-0.308,2.959-1.66c0.71,1.352,2.9,0.799,3.551,0c-0.651,0.184-1.007,0.184-1.479-0.861
		C96.584,30.047,95.578,29.002,95.045,30.968L95.045,30.968z M94.039,35.392c0.532,0.184,1.598-0.061,2.012-0.492
		c0.473-0.369,0.059-1.167-0.533-0.737C95.164,34.409,94.807,35.331,94.039,35.392L94.039,35.392z M91.02,27.404
		c-0.473,0.368-0.769,1.352-0.651,1.966c0.059,0.677,0.947,0.677,0.888-0.123C91.198,28.756,90.606,28.081,91.02,27.404
		L91.02,27.404z M99.188,28.633c-0.118-0.615-0.829-1.352-1.361-1.659c-0.592-0.245-1.066,0.615-0.415,0.922
		C97.884,28.081,98.772,27.896,99.188,28.633L99.188,28.633z M94.69,43.195L100.904,40c1.42-0.861,2.366-1.844,2.366-3.933V23.473
		c-1.597-0.861-2.366-1.721-3.137-3.134c-1.361-0.492-3.373-0.676-5.444-0.676c-2.012,0-4.025,0.185-5.386,0.676
		c-0.77,1.413-1.539,2.273-3.137,3.134v12.595c0,2.089,0.888,3.072,2.367,3.933L94.69,43.195L94.69,43.195z"/>
	<path style="fill-rule:evenodd;clip-rule:evenodd;" d="M180.19,61.691c0.495,0,0.973,0.125,1.429,0.373
		c0.459,0.248,0.816,0.604,1.077,1.07c0.262,0.464,0.393,0.948,0.393,1.457c0,0.504-0.128,0.985-0.384,1.444
		c-0.257,0.457-0.613,0.815-1.072,1.071c-0.459,0.257-0.94,0.385-1.444,0.385c-0.502,0-0.985-0.128-1.443-0.385
		c-0.458-0.256-0.817-0.613-1.073-1.071c-0.255-0.459-0.383-0.94-0.383-1.444c0-0.509,0.131-0.993,0.39-1.457
		c0.261-0.465,0.623-0.822,1.078-1.07C179.217,61.816,179.693,61.691,180.19,61.691L180.19,61.691z M180.192,62.265
		c-0.4,0-0.78,0.098-1.148,0.298c-0.364,0.199-0.653,0.485-0.865,0.858c-0.209,0.372-0.313,0.762-0.313,1.17
		c0,0.406,0.101,0.793,0.306,1.16c0.206,0.368,0.493,0.655,0.862,0.861c0.369,0.207,0.753,0.311,1.158,0.311
		c0.407,0,0.794-0.104,1.161-0.311c0.366-0.206,0.655-0.493,0.862-0.861c0.206-0.367,0.311-0.754,0.311-1.16
		c0-0.408-0.108-0.798-0.318-1.17c-0.209-0.373-0.498-0.66-0.867-0.858C180.974,62.364,180.59,62.265,180.192,62.265L180.192,62.265
		z M178.88,66.142v-3.07h0.624c0.586,0,0.91,0.001,0.98,0.007c0.206,0.018,0.368,0.058,0.482,0.122
		c0.115,0.064,0.211,0.164,0.287,0.295c0.077,0.132,0.115,0.279,0.115,0.44c0,0.222-0.07,0.411-0.217,0.569
		c-0.143,0.157-0.346,0.255-0.607,0.292c0.091,0.036,0.164,0.074,0.213,0.116c0.052,0.041,0.122,0.121,0.21,0.236
		c0.023,0.03,0.096,0.154,0.227,0.373l0.359,0.621h-0.775l-0.254-0.5c-0.173-0.336-0.317-0.547-0.427-0.634
		c-0.113-0.087-0.257-0.13-0.429-0.13h-0.162v1.264H178.88L178.88,66.142z M179.508,64.389h0.253c0.361,0,0.581-0.014,0.668-0.042
		c0.087-0.027,0.156-0.075,0.205-0.143c0.051-0.069,0.074-0.146,0.074-0.234c0-0.086-0.023-0.16-0.073-0.226
		c-0.048-0.067-0.116-0.113-0.207-0.142c-0.09-0.029-0.312-0.043-0.667-0.043h-0.253V64.389L179.508,64.389z"/>
	<path style="fill-rule:evenodd;clip-rule:evenodd;" d="M20.301,72.909c-0.785,1.468-1.173,3.171-1.203,4.739
		c0.007,2.891,1.841,5.955,4.393,6.797c0.786,0.12,1.403-0.097,1.745-0.397c0.411-0.427,0.722-1.108,0.698-2.003
		c-0.279-0.818-0.688-1.522-1.178-2.194c-0.6-0.822-1.279-1.543-1.879-2.239C21.911,76.453,20.883,75.023,20.301,72.909
		L20.301,72.909z M45.385,77.464v7.128c0,0.127,0.361,0.732,0.865,0.732c0.27,0,1.534-0.705,1.534-3.611
		C47.784,79.58,46.762,78.16,45.385,77.464L45.385,77.464z M32.779,71.457v-1.619c0-0.43-0.139-0.568-0.193-0.619
		c-0.158,0.054-0.562,0.148-0.591,0.72c0.02,0.083,0.056,0.111,0.095,0.202c0.143,0.335,0.348,0.706,0.577,1.134
		C32.703,71.33,32.741,71.391,32.779,71.457L32.779,71.457z M45.328,70.093c0.038,0.232,0.059,0.462,0.059,0.682v1.403
		c1.885,0.168,3.703,0.536,5.359,1.104C49.343,71.59,47.358,70.519,45.328,70.093L45.328,70.093z M69.328,72.909
		c-0.785,1.468-1.173,3.171-1.204,4.739c0.008,2.891,1.843,5.955,4.393,6.797c0.786,0.12,1.403-0.097,1.744-0.397
		c0.41-0.427,0.721-1.108,0.699-2.003c-0.28-0.818-0.688-1.522-1.178-2.194c-0.601-0.822-1.279-1.543-1.879-2.239
		C70.937,76.453,69.91,75.023,69.328,72.909L69.328,72.909z M56.321,76.649c0.059-0.909,0.213-1.823,0.459-2.719l-0.073,0.196
		c-0.105,0.295-0.196,0.583-0.24,0.854c-0.067,0.426-0.29,0.854-0.606,1.215C56.02,76.343,56.174,76.494,56.321,76.649
		L56.321,76.649z M117.269,72.909c-0.785,1.468-1.172,3.171-1.204,4.739c0.009,2.891,1.842,5.955,4.395,6.797
		c0.783,0.12,1.401-0.097,1.743-0.397c0.41-0.427,0.721-1.108,0.698-2.003c-0.279-0.818-0.687-1.522-1.176-2.194
		c-0.602-0.822-1.28-1.543-1.88-2.239C118.88,76.453,117.851,75.023,117.269,72.909L117.269,72.909z M142.049,68.928
		c0.17,0.57,0.26,1.187,0.26,1.846v1.303h1.21v-2.24c0-0.232-0.09-0.406-0.257-0.556c-0.087-0.081-0.181-0.137-0.253-0.168
		C142.843,69.114,142.462,69.083,142.049,68.928L142.049,68.928z M129.771,71.611v-1.773c0-0.357-0.124-0.506-0.217-0.592
		c-0.007-0.003-0.202-0.139-0.207-0.139c-0.025,0-0.426,0.09-0.426,0.731c0.022,0.091,0.067,0.216,0.111,0.316
		c0.144,0.346,0.349,0.729,0.591,1.179C129.664,71.408,129.714,71.502,129.771,71.611L129.771,71.611z M142.309,77.747v7.357
		c0,0.035,0.052,0.314,0.23,0.561c0.186,0,0.693,0.069,1.215,0.311c-0.154-0.532-0.235-1.075-0.235-1.608v-4.606
		C143.412,78.966,142.875,78.234,142.309,77.747L142.309,77.747z M170.403,78.787c-0.372-0.454-0.845-0.83-1.37-1.108v7.083
		c0,0.31,0.24,0.73,0.867,0.73c0.384,0,1.534-0.819,1.534-3.61C171.434,80.472,170.966,79.428,170.403,78.787L170.403,78.787z
		 M156.234,69.282c-0.088-0.081-0.181-0.137-0.253-0.168c-0.038,0-0.09-0.002-0.15-0.007c0.148,0.539,0.228,1.118,0.228,1.736
		v14.262c0,0.038,0.031,0.394,0.249,0.561c0.063,0.048,0.179,0.115,0.371,0.166c-0.132-0.516-0.19-1.014-0.19-1.463v-14.53
		C156.49,69.606,156.401,69.432,156.234,69.282L156.234,69.282z M110.647,88.676c-0.319,1.598-2.034,1.763-2.411,1.763h-7.83
		c-2.318,0-5.448-1.515-6.21-5.194l-1.744-6.907c-0.225,0.486-0.4,0.877-0.483,1.088c-0.351,0.899-0.536,1.651-0.532,2.284
		c0.021,3.289,1.052,4.077,1.639,4.332c1.533,0.669,2.689,4.398-0.895,4.398h-6.048c-2.874,0-5.339-1.761-5.909-4.639
		c-0.756,0.889-1.509,1.541-2.098,1.987c-0.486,0.369-0.923,0.63-0.99,0.682c-2.492,1.547-5.246,1.971-7.877,1.971
		c-4.262,0-8.326-2.116-10.732-5.622c-1.032,4.032-5.041,5.622-7.562,5.622H39.05c-3.815,0-6.27-3.162-6.27-6.071V83.58
		c-0.459,0.859-0.978,1.599-1.501,2.22c-0.743,0.882-1.486,1.53-2.058,1.973c-0.283,0.219-0.526,0.389-0.704,0.511
		c-2.631,1.596-5.557,2.155-8.211,2.155c-6.73,0-12.965-5.273-12.965-12.968c0-6.209,4.563-12.966,12.696-12.966h12.384h6.962
		h13.255c3.348,0,5.399,2.63,5.399,5.534c0,0.418-0.081,0.82-0.175,1.15c1.98-3.764,5.783-6.684,11.129-6.684h12.451
		c0.437,0,2.461,0.213,2.461,2.301c0,2.086-2.024,2.3-2.461,2.3c-0.011,0-0.491,0.271-0.491,0.731
		c0.023,0.092,0.069,0.216,0.113,0.319c0.137,0.33,0.332,0.697,0.557,1.12c0.589,0.915,1.509,3.116,1.656,5.799
		c0.064-0.066,0.126-0.126,0.188-0.185c0.941-0.983,3.979-4.244,4.229-4.514c0.646-0.687,1.059-1.331,1.299-1.824
		c0.107-0.22,0.184-0.419,0.232-0.59c0-0.198-0.047-0.516-0.208-0.677c-0.08-0.08-0.164-0.133-0.227-0.164
		c-0.687,0-2.42-0.467-2.442-2.274c0-1.535,1.319-2.345,2.464-2.345h7.832c3.8,0,5.833,3.181,6.218,5.35l1.511,5.469
		c0.918-5.53,5.334-10.819,12.584-10.819h12.387h6.694c1.7,0,3.406,0.711,4.61,1.985c0.193-1.794,2.031-1.985,2.445-1.985h6.695
		c1.365,0,2.799,0.504,3.955,1.435c0.467-1.285,1.953-1.435,2.322-1.435l7.104,0.002c1.906,0.118,3.343,1.105,4.287,2.145
		c1.059,1.176,1.572,2.86,1.572,4.122v1.408c2.649,0.248,4.998,0.901,6.996,1.781c3.681,1.723,6.393,4.717,6.393,8.796
		c0,5.543-4.876,7.679-7.741,7.679h-11.916c-1.634,0-2.999-0.558-4.031-1.416c-0.476,1.265-1.947,1.416-2.313,1.416h-6.627
		c-1.963,0-3.534-0.803-4.615-1.969c-0.203,1.777-2.028,1.969-2.441,1.969h-6.693c-3.815,0-6.27-3.162-6.27-6.071v-1.047
		c-0.491,0.971-1.06,1.796-1.636,2.478c-0.743,0.882-1.485,1.53-2.058,1.973c-0.282,0.219-0.526,0.389-0.705,0.511
		c-2.585,1.619-5.506,2.155-8.209,2.155C114.867,90.439,112.615,89.814,110.647,88.676L110.647,88.676z"/>
	<path style="fill-rule:evenodd;clip-rule:evenodd;fill:#A98150;" d="M23.227,77.315c-1.097-1.317-2.245-2.948-2.72-5.56
		c-1.238,1.736-1.827,3.914-1.868,5.876c0,3.052,1.934,6.357,4.744,7.262c0.924,0.15,1.705-0.096,2.169-0.513
		c0.521-0.533,0.883-1.366,0.838-2.419c-0.298-0.899-0.742-1.665-1.265-2.381C24.518,78.75,23.834,78.019,23.227,77.315
		L23.227,77.315z M44.926,76.779v7.813c0,0.273,0.469,1.19,1.324,1.19c0.712,0,1.993-1.154,1.993-4.07
		C48.243,79.055,46.767,77.397,44.926,76.779L44.926,76.779z M33.238,73.687v-3.849c0-0.905-0.558-1.153-0.777-1.187
		c-0.416,0.043-0.882,0.438-0.924,1.265c0.026,0.105,0.082,0.289,0.133,0.406c0.149,0.35,0.362,0.738,0.602,1.186
		C32.548,71.93,32.921,72.693,33.238,73.687L33.238,73.687z M44.73,69.523c0.125,0.437,0.198,0.865,0.198,1.251v1.826
		c2.568,0.185,4.986,0.739,7.043,1.646C50.404,71.504,47.545,69.92,44.73,69.523L44.73,69.523z M72.254,77.315
		c-1.098-1.317-2.244-2.948-2.719-5.56c-1.238,1.736-1.829,3.914-1.869,5.876c0,3.052,1.934,6.357,4.745,7.262
		c0.923,0.15,1.705-0.096,2.169-0.513c0.52-0.533,0.882-1.366,0.838-2.419c-0.299-0.899-0.741-1.665-1.264-2.381
		C73.546,78.75,72.861,78.019,72.254,77.315L72.254,77.315z M120.196,77.315c-1.095-1.317-2.245-2.948-2.719-5.56
		c-1.239,1.736-1.827,3.914-1.87,5.876c0,3.052,1.935,6.357,4.746,7.262c0.923,0.15,1.705-0.096,2.167-0.513
		c0.52-0.533,0.884-1.366,0.838-2.419c-0.298-0.899-0.74-1.665-1.265-2.381C121.487,78.75,120.803,78.019,120.196,77.315
		L120.196,77.315z M130.229,74.114v-4.276c0-0.902-0.691-1.19-0.882-1.19c-0.355,0-0.883,0.378-0.883,1.19
		c0,0.038,0.012,0.173,0.144,0.493c0.15,0.358,0.362,0.757,0.612,1.223C129.44,71.946,129.88,72.859,130.229,74.114L130.229,74.114z
		 M170.754,78.489c-0.57-0.69-1.336-1.212-2.18-1.515v7.788c0,0.486,0.374,1.189,1.326,1.189c0.845,0,1.992-1.301,1.992-4.069
		C171.892,80.372,171.397,79.222,170.754,78.489L170.754,78.489z M156.068,68.648c-0.175,0-0.564-0.033-0.957-0.201
		c0.312,0.705,0.492,1.508,0.492,2.396v14.262c0,0.658,0.573,1.19,0.815,1.19c0.178,0,0.588,0.037,0.991,0.218
		c-0.303-0.694-0.458-1.43-0.458-2.144v-14.53C156.951,69.039,156.166,68.648,156.068,68.648L156.068,68.648z M110.224,87.878
		c0.01,0.082,0.014,0.172,0.014,0.266c-0.007,1.664-1.614,1.835-2.002,1.835h-7.83c-2.148,0-5.057-1.406-5.763-4.837l-2.06-8.161
		c-0.478,1.006-0.898,1.913-1.04,2.275c-0.361,0.923-0.568,1.74-0.564,2.457c0.022,3.384,1.093,4.392,1.914,4.75
		c1.278,0.558,2.16,3.517-0.711,3.517h-6.048c-3.022,0-5.519-2.07-5.573-5.367c-0.226,0.323-0.459,0.622-0.692,0.896
		c-0.724,0.853-1.452,1.482-2.019,1.913c-0.485,0.368-0.904,0.617-0.971,0.668c-2.388,1.483-5.029,1.889-7.619,1.889
		c-4.512,0-8.787-2.452-10.979-6.435c-0.434,4.627-4.691,6.435-7.316,6.435H39.05c-3.541,0-5.812-2.932-5.812-5.611v-3.026
		c-0.567,1.738-1.434,3.122-2.311,4.162c-0.717,0.852-1.435,1.479-1.988,1.906c-0.274,0.213-0.509,0.378-0.681,0.496l-0.222,0.149
		c-2.534,1.536-5.123,1.925-7.731,1.925c-6.499,0-12.506-5.086-12.506-12.508c0-6.013,4.412-12.509,12.238-12.509h12.384h6.962
		h13.255c3.06,0,4.941,2.389,4.941,5.076c0,0.6-0.197,1.179-0.325,1.53c-0.134,0.367-0.314,0.785-0.506,1.231
		c-0.37,0.865-0.646,1.556-0.734,2.107c-0.079,0.496-0.394,0.983-0.815,1.318c0.596,0.509,1.12,1.067,1.561,1.674
		c-0.005-0.143-0.007-0.285-0.007-0.428c0-6.013,4.412-12.509,12.238-12.509h12.451c0.406,0,2.002,0.185,2.002,1.844
		c0,1.657-1.596,1.841-2.002,1.841c-0.346,0-0.95,0.566-0.95,1.19c0,0.037,0.013,0.173,0.147,0.495
		c0.145,0.347,0.349,0.732,0.586,1.177c0.567,0.871,1.535,3.162,1.609,5.956c-0.007,0.302-0.023,0.598-0.047,0.887
		c0.341-0.453,0.684-0.837,1.001-1.135c0.933-0.976,3.99-4.256,4.241-4.527c1.411-1.501,1.69-2.705,1.69-2.852
		c0-0.745-0.693-1.191-0.946-1.191c-0.592,0-1.95-0.376-1.967-1.799c0-1.22,1.047-1.885,2.006-1.885h7.832
		c3.52,0,5.422,2.968,5.771,4.993l2.255,8.159c-0.01-0.213-0.015-0.428-0.015-0.643c0-6.022,4.419-12.509,12.303-12.509h12.387
		h6.694c2.898,0,5.81,2.227,5.81,5.812v1.762h2.129v-2.699c0-0.799-0.785-1.19-0.884-1.19c-0.406,0-2.002-0.185-2.002-1.841
		c0-1.659,1.596-1.844,2.002-1.844h6.695c1.515,0,3.133,0.674,4.275,1.899l-0.001-0.055c0-1.659,1.594-1.844,2.003-1.844l7.09,0.002
		c1.75,0.109,3.068,1.012,3.96,1.995c0.975,1.083,1.453,2.651,1.453,3.815v1.83c2.773,0.212,5.21,0.87,7.265,1.777
		c3.58,1.676,6.124,4.536,6.124,8.379c0,5.194-4.567,7.219-7.283,7.219h-11.916c-1.863,0-3.343-0.778-4.344-1.892l0.001,0.05
		c0,1.659-1.594,1.842-2.001,1.842h-6.627c-3.632,0-5.811-2.958-5.811-5.611v-4.635c-0.158-1.272-1.214-2.343-2.012-2.784
		c-0.037-0.02-0.076-0.038-0.117-0.054v8.21c0,0.624,0.548,1.19,0.884,1.19c0.406,0,2.002,0.185,2.002,1.842
		c0,1.659-1.596,1.842-2.002,1.842h-6.693c-3.54,0-5.812-2.932-5.812-5.611v-3.464c-0.558,1.944-1.497,3.475-2.445,4.599
		c-0.717,0.852-1.437,1.479-1.988,1.906c-0.273,0.213-0.51,0.378-0.682,0.495l-0.211,0.143c-2.482,1.554-5.081,1.931-7.741,1.931
		C114.689,89.979,112.267,89.227,110.224,87.878L110.224,87.878z M106.351,84.191c0.272,1.045,0.772,1.548,1.155,1.798
		c0.205,0.135,0.404,0.215,0.555,0.26c0.088,0.025,0.153,0.045,0.188,0.045c-0.803-0.828-1.525-1.779-2.101-2.836L106.351,84.191
		L106.351,84.191z"/>
	<path style="fill-rule:evenodd;clip-rule:evenodd;" d="M23.926,76.723c-1.047-1.257-2.08-2.729-2.515-5.124
		c-0.138-0.849-0.04-1.63,0.182-2.31c-2.693,1.987-3.821,5.517-3.872,8.352c0.004,3.358,2.128,7.116,5.445,8.144
		c1.193,0.215,2.313-0.086,3.031-0.753c0.74-0.75,1.194-1.889,1.103-3.241c-0.337-1.066-0.848-1.951-1.433-2.754
		C25.243,78.186,24.549,77.444,23.926,76.723L23.926,76.723z M44.009,75.638v8.955c0,0.562,0.688,2.108,2.241,2.108
		c1.598,0,2.91-2.055,2.91-4.988C49.16,78.054,46.703,75.971,44.009,75.638L44.009,75.638z M43.338,68.508
		c0.402,0.782,0.672,1.633,0.672,2.267v2.692c7.578,0.295,13.388,3.727,13.388,9.294c0,4.506-3.952,6.303-6.434,6.303H39.05
		c-2.991,0-4.894-2.477-4.894-4.695v-14.53c0-1.548-1.113-2.076-1.684-2.107c-1.053,0.041-1.791,0.976-1.85,2.138
		c-0.009,0.192,0.046,0.442,0.205,0.813c0.163,0.38,0.395,0.806,0.658,1.297c0.458,0.679,1.411,2.811,1.482,5.49
		c-0.074,3.404-1.398,5.853-2.739,7.444c-0.667,0.791-1.335,1.373-1.849,1.773c-0.256,0.198-0.475,0.351-0.636,0.462l-0.2,0.135
		c-2.336,1.416-4.719,1.78-7.235,1.78c-6.035,0-11.588-4.719-11.588-11.591c0-5.619,4.106-11.592,11.32-11.592h12.384h6.962h13.255
		c2.484,0,4.024,1.907,4.024,4.16c0,0.425-0.143,0.871-0.268,1.215c-0.13,0.353-0.304,0.756-0.488,1.186
		c-0.361,0.844-0.687,1.642-0.797,2.322c-0.142,0.888-1.251,1.494-1.759,0.234C51.604,70.658,47.198,68.51,43.338,68.508
		L43.338,68.508z M72.953,76.723c-1.046-1.257-2.079-2.729-2.514-5.124c-0.137-0.849-0.04-1.63,0.182-2.31
		c-2.694,1.987-3.821,5.517-3.872,8.352c0.004,3.358,2.127,7.116,5.445,8.144c1.192,0.215,2.312-0.086,3.03-0.753
		c0.74-0.75,1.194-1.889,1.103-3.241c-0.337-1.066-0.848-1.951-1.433-2.754C74.27,78.186,73.577,77.444,72.953,76.723L72.953,76.723
		z M81.919,77.469c-0.073,3.404-1.398,5.854-2.75,7.447c-0.672,0.791-1.348,1.376-1.875,1.776c-0.482,0.366-0.866,0.591-0.933,0.642
		c-2.184,1.355-4.595,1.73-7.102,1.73c-6.034,0-11.589-4.72-11.589-11.591c0-5.619,4.107-11.592,11.321-11.592h12.451
		c0.344,0,1.085,0.126,1.085,0.927c0,0.799-0.742,0.925-1.085,0.925c-1.015,0-1.866,1.155-1.866,2.107
		c0,0.214,0.063,0.479,0.219,0.848c0.158,0.38,0.381,0.801,0.643,1.293C80.896,72.659,81.849,74.79,81.919,77.469L81.919,77.469z
		 M120.896,76.723c-1.047-1.257-2.079-2.729-2.516-5.124c-0.137-0.849-0.039-1.63,0.183-2.31c-2.693,1.987-3.821,5.517-3.872,8.352
		c0.005,3.358,2.128,7.116,5.444,8.144c1.195,0.215,2.313-0.086,3.03-0.753c0.743-0.75,1.195-1.889,1.102-3.241
		c-0.335-1.066-0.846-1.951-1.431-2.754C122.212,78.186,121.518,77.444,120.896,76.723L120.896,76.723z M140.935,75.774v9.33
		c0,0.83,0.703,2.108,1.799,2.108c0.342,0,1.085,0.125,1.085,0.925c0,0.8-0.742,0.926-1.085,0.926h-6.693
		c-2.991,0-4.895-2.477-4.895-4.695v-14.53c0-1.503-1.203-2.107-1.799-2.107c-1.011,0-1.799,0.952-1.799,2.107
		c0,0.214,0.06,0.478,0.216,0.846c0.16,0.385,0.389,0.816,0.656,1.318c0.337,0.596,1.33,2.719,1.401,5.466
		c-0.072,3.404-1.397,5.853-2.738,7.444c-0.668,0.791-1.335,1.373-1.852,1.773c-0.255,0.198-0.474,0.351-0.636,0.462l-0.192,0.131
		c-2.28,1.426-4.667,1.785-7.242,1.785c-5.963,0-11.588-4.715-11.588-11.591c0-5.624,4.113-11.592,11.386-11.592h12.387h6.694
		c2.459,0,4.895,1.883,4.895,4.895v2.68h3.96l0.001-3.617c0-1.382-1.274-2.107-1.8-2.107c-0.343,0-1.085-0.126-1.085-0.925
		c0-0.801,0.742-0.927,1.085-0.927h6.695c2.313,0,4.893,1.872,4.893,4.963v14.262c0,0.849,0.719,2.108,1.734,2.108
		c0.342,0,1.085,0.125,1.085,0.925c0,0.8-0.743,0.926-1.085,0.926h-6.627c-3.071,0-4.895-2.491-4.895-4.695v-4.687
		c-0.181-1.696-1.525-3.004-2.481-3.535C141.971,75.916,141.45,75.818,140.935,75.774L140.935,75.774z M171.453,77.895
		c-0.952-1.152-2.345-1.891-3.795-2.086v8.953c0,0.839,0.643,2.107,2.242,2.107c1.767,0,2.91-2.269,2.91-4.986
		C172.81,80.174,172.255,78.812,171.453,77.895L171.453,77.895z M156.068,67.732c-0.346,0-1.087-0.126-1.087-0.925
		c0-0.801,0.741-0.927,1.087-0.927l7.059,0.001c1.439,0.091,2.521,0.825,3.311,1.693c0.802,0.892,1.217,2.233,1.217,3.201v2.694
		c3.031,0.129,5.639,0.794,7.802,1.748c3.382,1.583,5.587,4.174,5.587,7.544c0,4.5-3.945,6.303-6.367,6.303h-11.916
		c-3.071,0-4.894-2.491-4.894-4.695v-14.53C157.867,68.457,156.591,67.732,156.068,67.732L156.068,67.732z M105.465,84.428
		c0.648,2.493,2.523,2.781,2.776,2.783c0.338,0.003,1.085,0.127,1.081,0.929c-0.004,0.802-0.753,0.922-1.087,0.922h-7.83
		c-1.806,0-4.265-1.185-4.866-4.111l-2.688-10.651c-0.772,1.597-1.909,3.972-2.163,4.621c-0.38,0.969-0.632,1.911-0.627,2.796
		c0.022,3.575,1.176,5.023,2.463,5.584c0.768,0.336,1.102,1.761-0.344,1.761h-6.048c-2.601,0-4.657-1.757-4.657-4.561
		c0-2.801,1.718-5.472,2.959-6.633c0.917-0.956,4.014-4.28,4.266-4.553c1.498-1.593,1.937-3.008,1.937-3.478
		c0-1.25-1.102-2.108-1.863-2.108c-0.405,0-1.042-0.234-1.05-0.889c0-0.586,0.5-0.962,1.089-0.962h7.832
		c2.953,0,4.596,2.533,4.874,4.274L105.465,84.428L105.465,84.428z"/>
	<path style="fill-rule:evenodd;clip-rule:evenodd;fill:#EE3224;" d="M26.362,78.677c-0.634-0.867-1.335-1.618-1.969-2.351
		c-1.012-1.216-1.969-2.583-2.377-4.83c-0.266-1.65,0.484-3.013,1.198-3.783c-4.369,1.658-6.043,6.39-6.106,9.918
		c0,3.566,2.247,7.64,5.913,8.752c1.359,0.255,2.701-0.073,3.593-0.9c0.898-0.899,1.418-2.25,1.293-3.806
		C27.545,80.499,26.988,79.534,26.362,78.677L26.362,78.677z M49.773,81.713c0-4.316-3.16-6.662-6.377-6.735v9.614
		c0,0.756,0.832,2.722,2.854,2.722C48.44,87.314,49.773,84.658,49.773,81.713L49.773,81.713z M75.388,78.677
		c-0.633-0.867-1.334-1.618-1.968-2.351c-1.013-1.216-1.969-2.583-2.378-4.83c-0.266-1.65,0.485-3.013,1.199-3.783
		c-4.37,1.658-6.043,6.39-6.106,9.918c0,3.566,2.248,7.64,5.912,8.752c1.36,0.255,2.702-0.073,3.593-0.9
		c0.899-0.899,1.418-2.25,1.293-3.806C76.571,80.499,76.015,79.534,75.388,78.677L75.388,78.677z M123.331,78.677
		c-0.634-0.867-1.335-1.618-1.967-2.351c-1.014-1.216-1.971-2.583-2.38-4.83c-0.266-1.65,0.483-3.013,1.199-3.783
		c-4.369,1.658-6.042,6.39-6.106,9.918c0,3.566,2.248,7.64,5.912,8.752c1.362,0.255,2.704-0.073,3.595-0.9
		c0.897-0.899,1.416-2.25,1.29-3.806C124.513,80.499,123.958,79.534,123.331,78.677L123.331,78.677z M173.423,81.882
		c0-1.841-0.594-3.345-1.503-4.385c-1.204-1.46-3.034-2.306-4.876-2.352v9.617c0,1.077,0.822,2.72,2.855,2.72
		C172.283,87.482,173.423,84.569,173.423,81.882L173.423,81.882z M34.768,69.838c0-1.963-1.471-2.69-2.293-2.721
		c-1.488,0.041-2.397,1.348-2.466,2.721c-0.034,0.661,0.391,1.413,0.949,2.46c0.378,0.539,1.325,2.564,1.394,5.171
		c-0.07,3.239-1.325,5.543-2.595,7.048c-0.632,0.75-1.267,1.305-1.755,1.683c-0.244,0.189-0.452,0.335-0.605,0.439l-0.187,0.127
		c-2.205,1.338-4.45,1.683-6.904,1.683c-5.725,0-10.975-4.472-10.975-10.977c0-5.356,3.904-10.977,10.707-10.977h12.384h6.962
		h13.255c2.098,0,3.41,1.583,3.41,3.544c0,0.308-0.107,0.664-0.232,1.002c-0.125,0.346-0.295,0.738-0.475,1.155
		c-0.356,0.832-0.715,1.699-0.839,2.47c-0.08,0.503-0.394,0.573-0.584,0.1c-1.86-4.62-6.53-6.873-10.586-6.873h-1.092
		c0.664,0.895,1.156,2.143,1.156,2.881v3.29c7.822,0.129,13.388,3.544,13.388,8.696c0,4.037-3.531,5.688-5.821,5.688H39.05
		c-2.621,0-4.282-2.171-4.282-4.08V69.838L34.768,69.838z M140.321,75.123v9.981c0,0.967,0.806,2.721,2.413,2.721
		c0.299,0,0.471,0.086,0.471,0.312c0,0.226-0.171,0.312-0.471,0.312h-6.693c-2.624,0-4.281-2.171-4.281-4.08v-14.53
		c0-1.904-1.54-2.721-2.412-2.721c-1.451,0-2.416,1.339-2.416,2.721c0,0.662,0.39,1.407,0.946,2.454
		c0.294,0.513,1.262,2.535,1.331,5.178c-0.071,3.239-1.327,5.543-2.593,7.048c-0.635,0.75-1.268,1.305-1.757,1.683
		c-0.245,0.189-0.453,0.335-0.607,0.439l-0.185,0.127c-2.14,1.339-4.388,1.683-6.905,1.683c-5.655,0-10.974-4.471-10.974-10.977
		c0-5.358,3.905-10.977,10.772-10.977h12.387h6.694c2.165,0,4.28,1.649,4.28,4.28v3.294h5.185v-4.231
		c0-1.771-1.598-2.721-2.41-2.721c-0.302,0-0.473-0.086-0.473-0.311c0-0.226,0.171-0.312,0.473-0.312h6.695
		c2.028,0,4.28,1.645,4.28,4.348v14.262c0,0.977,0.814,2.721,2.347,2.721c0.3,0,0.471,0.086,0.471,0.312
		c0,0.226-0.17,0.312-0.471,0.312h-6.627c-2.693,0-4.285-2.178-4.285-4.08l0.002-4.718c-0.193-1.984-1.733-3.45-2.795-4.04
		c-0.555-0.293-1.182-0.401-1.736-0.449C140.732,75.141,140.506,75.131,140.321,75.123L140.321,75.123z M79.912,72.298
		c0.378,0.539,1.325,2.564,1.394,5.171c-0.07,3.239-1.326,5.543-2.604,7.049c-0.638,0.751-1.279,1.305-1.778,1.685
		c-0.48,0.365-0.841,0.574-0.909,0.624c-2.046,1.271-4.304,1.622-6.756,1.622c-5.724,0-10.974-4.472-10.974-10.977
		c0-5.356,3.903-10.977,10.707-10.977h12.451c0.301,0,0.472,0.086,0.472,0.312c0,0.225-0.171,0.311-0.472,0.311
		c-1.464,0-2.48,1.552-2.48,2.721C78.963,70.5,79.354,71.252,79.912,72.298L79.912,72.298z M100.919,70.283l3.953,14.304
		c0.739,2.839,2.925,3.235,3.365,3.238c0.301,0.002,0.471,0.087,0.469,0.314c0,0.226-0.172,0.31-0.47,0.31h-7.83
		c-1.583,0-3.75-1.045-4.271-3.646l-3.099-12.284c0,0-2.523,5.168-2.918,6.179c-0.391,1-0.676,2.028-0.669,3.025
		c0.024,3.702,1.234,5.446,2.833,6.143c0.427,0.186,0.394,0.584-0.099,0.584h-6.048c-2.297,0-4.044-1.515-4.044-3.947
		c0-2.593,1.621-5.121,2.777-6.195c0.903-0.943,4.03-4.298,4.284-4.572c1.556-1.655,2.102-3.212,2.102-3.897
		c0-1.589-1.377-2.722-2.477-2.722c-0.279,0-0.435-0.136-0.437-0.278c0-0.164,0.136-0.344,0.476-0.344h7.832
		C99.217,66.495,100.688,68.732,100.919,70.283L100.919,70.283z M158.481,69.838c0-1.771-1.603-2.721-2.413-2.721
		c-0.302,0-0.473-0.086-0.473-0.311c0-0.226,0.17-0.312,0.473-0.312h7.04c1.232,0.076,2.155,0.698,2.877,1.492
		c0.687,0.765,1.057,1.954,1.057,2.788v3.29c3.207,0.058,5.932,0.726,8.163,1.711c3.245,1.52,5.224,3.933,5.224,6.985
		c0,4.035-3.527,5.688-5.751,5.688h-11.916c-2.693,0-4.28-2.178-4.28-4.08V69.838L158.481,69.838z"/>
</g>
</svg>
