<?xml version="1.0" encoding="utf-8"?>
<!-- Generator: Adobe Illustrator 22.1.0, SVG Export Plug-In . SVG Version: 6.00 Build 0)  -->
<svg version="1.1" id="Layer_1" xmlns="http://www.w3.org/2000/svg" xmlns:xlink="http://www.w3.org/1999/xlink" x="0px" y="0px"
	 viewBox="0 0 1920 1080" style="enable-background:new 0 0 1920 1080;" xml:space="preserve">
<style type="text/css">
	.st0{fill:none;}
	.st1{fill:#2F2D2A;}
	.st2{opacity:0.2;fill:url(#SVGID_1_);}
</style>
<pattern  x="760" y="140" width="71.6" height="124.4" patternUnits="userSpaceOnUse" id="Geo_Hexagon_Pattern_10" viewBox="72.7 -208.6 71.6 124.4" style="overflow:visible;">
	<g>
		<rect x="72.7" y="-208.6" class="st0" width="71.6" height="124.4"/>
		<g>
			<path class="st1" d="M180.1,0l-36.9-21.3v-42.6l36.9-21.3l36.9,21.3v42.6L180.1,0z M145.2-22.4l34.9,20.1l34.9-20.1v-40.2
				l-34.9-20.1l-34.9,20.1V-22.4z"/>
		</g>
		<g>
			<path class="st1" d="M108.5,0L71.6-21.3v-42.6l36.9-21.3l36.9,21.3v42.6L108.5,0z M73.6-22.4l34.9,20.1l34.9-20.1v-40.2
				l-34.9-20.1L73.6-62.7V-22.4z"/>
		</g>
		<g>
			<path class="st1" d="M36.9,0L0-21.3v-42.6l36.9-21.3l36.9,21.3v42.6L36.9,0z M2-22.4L36.9-2.3l34.9-20.1v-40.2L36.9-82.8L2-62.7
				V-22.4z"/>
		</g>
		<g>
			<path class="st1" d="M144.3-103.5l-36.9-21.3v-42.6l36.9-21.3l36.9,21.3v42.6L144.3-103.5z M109.4-125.9l34.9,20.1l34.9-20.1
				v-40.2l-34.9-20.1l-34.9,20.1V-125.9z"/>
			<path class="st1" d="M180.1-124.4l-36.9-21.3v-42.6l36.9-21.3l36.9,21.3v42.6L180.1-124.4z M145.2-146.8l34.9,20.1l34.9-20.1
				v-40.2l-34.9-20.1l-34.9,20.1V-146.8z"/>
			<path class="st1" d="M144.3-62.2l-36.9-21.3v-42.6l36.9-21.3l36.9,21.3v42.6L144.3-62.2z M109.4-84.7l34.9,20.1l34.9-20.1v-40.2
				L144.3-145l-34.9,20.1V-84.7z"/>
			<rect x="143.2" y="-104.6" class="st1" width="2" height="41.4"/>
		</g>
		<g>
			<path class="st1" d="M72.7-103.5l-36.9-21.3v-42.6l36.9-21.3l36.9,21.3v42.6L72.7-103.5z M37.8-125.9l34.9,20.1l34.9-20.1v-40.2
				l-34.9-20.1l-34.9,20.1V-125.9z"/>
			<path class="st1" d="M108.5-124.4l-36.9-21.3v-42.6l36.9-21.3l36.9,21.3v42.6L108.5-124.4z M73.6-146.8l34.9,20.1l34.9-20.1
				v-40.2l-34.9-20.1l-34.9,20.1V-146.8z"/>
			<path class="st1" d="M72.7-62.2L35.8-83.5v-42.6l36.9-21.3l36.9,21.3v42.6L72.7-62.2z M37.8-84.7l34.9,20.1l34.9-20.1v-40.2
				L72.7-145l-34.9,20.1V-84.7z"/>
			<rect x="71.6" y="-104.6" class="st1" width="2" height="41.4"/>
		</g>
		<g>
			<path class="st1" d="M36.9-124.4L0-145.7v-42.6l36.9-21.3l36.9,21.3v42.6L36.9-124.4z M2-146.8l34.9,20.1l34.9-20.1v-40.2
				l-34.9-20.1L2-187.1V-146.8z"/>
		</g>
		<g>
			<path class="st1" d="M144.3-186.6l-36.9-21.3v-42.6l36.9-21.3l36.9,21.3v42.6L144.3-186.6z M109.4-209.1l34.9,20.1l34.9-20.1
				v-40.2l-34.9-20.1l-34.9,20.1V-209.1z"/>
			<rect x="143.2" y="-229" class="st1" width="2" height="41.4"/>
		</g>
		<g>
			<path class="st1" d="M72.7-186.6l-36.9-21.3v-42.6l36.9-21.3l36.9,21.3v42.6L72.7-186.6z M37.8-209.1l34.9,20.1l34.9-20.1v-40.2
				l-34.9-20.1l-34.9,20.1V-209.1z"/>
			<rect x="71.6" y="-229" class="st1" width="2" height="41.4"/>
		</g>
	</g>
</pattern>
<pattern  id="SVGID_1_" xlink:href="#Geo_Hexagon_Pattern_10" patternTransform="matrix(1 0 0 1 233 0)">
</pattern>
<rect class="st2" width="1920" height="1080"/>
</svg>
