<?xml version="1.0" encoding="utf-8"?>
<!-- Generator: Adobe Illustrator 22.1.0, SVG Export Plug-In . SVG Version: 6.00 Build 0)  -->
<svg version="1.1" id="Layer_1" xmlns="http://www.w3.org/2000/svg" xmlns:xlink="http://www.w3.org/1999/xlink" x="0px" y="0px"
	 viewBox="0 0 277 269" style="enable-background:new 0 0 277 269;" xml:space="preserve">
<style type="text/css">
	.st0{fill:#ABB9D1;}
	.st1{fill:#DDE2E8;}
	.st2{fill:#FFFFFF;}
	.st3{fill:#8BC53F;}
	.st4{fill:#E77465;}
	.st5{opacity:0.64;}
	.st6{fill:#33A440;}
	.st7{fill:#BCBEC0;}
	.st8{fill:#D1D3D4;}
</style>
<path class="st0" d="M215.9,111.7l-171.5-99C43.2,12,42,12,41.2,12.5l0,0l-4.3,2.6l0.3,0.8L36,16.6l-0.6,101.3l1.5,15.3l162.7,96.5
	l14.9,8.5l4.5-2.7v0c1.1-0.5,1.9-2,1.9-4V121C220.8,117.5,218.6,113.3,215.9,111.7z"/>
<path class="st0" d="M76.2,208.3v-2l35.1,20.3l21.1-12.4c2.1-1.3,3.4-3.5,3.4-6v-26.2l1.8,1.1v26.4c0,2.5-1.3,4.8-3.5,6l-22.9,13.2
	L76.2,208.3z"/>
<path class="st1" d="M76.2,206.2l21.9-12.6c2.8-1.6,4.5-4.5,4.5-7.7l0-23.2l33.3,19.2v26.2c0,2.5-1.3,4.8-3.4,6l-21.1,12.4
	L76.2,206.2z"/>
<polygon class="st0" points="102.5,172.8 102.5,180.3 135.8,199.2 135.8,192 "/>
<g>
	<polygon class="st1" points="41.1,200.9 121.8,247.5 92.5,264.4 11.6,217.7 	"/>
	<g>
		<polygon class="st2" points="48.8,228.4 72.8,242.3 68.7,244.7 44.6,230.8 		"/>
		<polygon class="st0" points="68.7,245.1 68.7,244.7 72.8,242.3 72.8,242.7 		"/>
		<polygon class="st0" points="44.6,230.8 44.6,231.2 68.7,245.1 68.7,244.7 		"/>
	</g>
	<polygon class="st0" points="92.5,265.6 92.5,264.4 121.8,247.5 121.8,248.7 	"/>
	<polygon class="st0" points="11.6,217.7 11.6,219.2 92.5,265.6 92.5,264.4 	"/>
	<g>
		<polygon class="st2" points="23.5,213.9 35,220.5 30.8,222.9 19.3,216.3 		"/>
		<polygon class="st0" points="30.8,223.3 30.8,222.9 35,220.5 35,220.9 		"/>
		<polygon class="st0" points="19.3,216.3 19.3,216.7 30.8,223.3 30.8,222.9 		"/>
	</g>
	<g>
		<polygon class="st2" points="36.1,221.2 47.6,227.8 43.4,230.2 31.9,223.5 		"/>
		<polygon class="st0" points="43.4,230.6 43.4,230.2 47.6,227.8 47.6,228.2 		"/>
		<polygon class="st0" points="31.9,223.5 31.9,224 43.4,230.6 43.4,230.2 		"/>
	</g>
	<g>
		<polygon class="st2" points="74,242.9 85.5,249.5 81.3,251.9 69.8,245.3 		"/>
		<polygon class="st0" points="81.3,252.3 81.3,251.9 85.5,249.5 85.5,249.9 		"/>
		<polygon class="st0" points="69.8,245.3 69.8,245.7 81.3,252.3 81.3,251.9 		"/>
	</g>
	<g>
		<polygon class="st2" points="86.6,250.1 98.1,256.8 93.9,259.2 82.4,252.5 		"/>
		<polygon class="st0" points="93.9,259.6 93.9,259.2 98.1,256.8 98.1,257.2 		"/>
		<polygon class="st0" points="82.4,252.5 82.4,253 93.9,259.6 93.9,259.2 		"/>
	</g>
	<g>
		<polygon class="st2" points="29.3,210.9 40.7,217.5 36.6,219.9 25.1,213.3 		"/>
		<polygon class="st0" points="36.6,220.3 36.6,219.9 40.7,217.5 40.7,217.9 		"/>
		<polygon class="st0" points="25.1,213.3 25.1,213.7 36.6,220.3 36.6,219.9 		"/>
	</g>
	<g>
		<polygon class="st2" points="41.9,218.1 53.3,224.8 49.2,227.2 37.7,220.5 		"/>
		<polygon class="st0" points="49.2,227.6 49.2,227.2 53.3,224.8 53.3,225.2 		"/>
		<polygon class="st0" points="37.7,220.5 37.7,221 49.2,227.6 49.2,227.2 		"/>
	</g>
	<g>
		<polygon class="st2" points="54.5,225.4 66,232 61.8,234.4 50.3,227.8 		"/>
		<polygon class="st0" points="61.8,234.8 61.8,234.4 66,232 66,232.4 		"/>
		<polygon class="st0" points="50.3,227.8 50.3,228.2 61.8,234.8 61.8,234.4 		"/>
	</g>
	<g>
		<polygon class="st2" points="67.1,232.6 78.6,239.2 74.4,241.7 62.9,235 		"/>
		<polygon class="st0" points="74.4,242 74.4,241.7 78.6,239.2 78.6,239.6 		"/>
		<polygon class="st0" points="62.9,235 62.9,235.4 74.4,242 74.4,241.7 		"/>
	</g>
	<g>
		<polygon class="st2" points="79.7,239.9 91.2,246.5 87,248.9 75.5,242.3 		"/>
		<polygon class="st0" points="87,249.3 87,248.9 91.2,246.5 91.2,246.9 		"/>
		<polygon class="st0" points="75.5,242.3 75.5,242.7 87,249.3 87,248.9 		"/>
	</g>
	<g>
		<polygon class="st2" points="92.4,247.1 103.8,253.7 99.7,256.1 88.2,249.5 		"/>
		<polygon class="st0" points="99.7,256.5 99.7,256.1 103.8,253.7 103.8,254.1 		"/>
		<polygon class="st0" points="88.2,249.5 88.2,249.9 99.7,256.5 99.7,256.1 		"/>
	</g>
	<g>
		<polygon class="st2" points="35,207.9 46.5,214.5 42.3,216.9 30.8,210.3 		"/>
		<polygon class="st0" points="42.3,217.3 42.3,216.9 46.5,214.5 46.5,214.9 		"/>
		<polygon class="st0" points="30.8,210.3 30.8,210.7 42.3,217.3 42.3,216.9 		"/>
	</g>
	<g>
		<polygon class="st2" points="47.6,215.1 59.1,221.7 54.9,224.1 43.4,217.5 		"/>
		<polygon class="st0" points="54.9,224.5 54.9,224.1 59.1,221.7 59.1,222.1 		"/>
		<polygon class="st0" points="43.4,217.5 43.4,217.9 54.9,224.5 54.9,224.1 		"/>
	</g>
	<g>
		<polygon class="st2" points="60.3,222.4 71.7,229 67.5,231.4 56,224.7 		"/>
		<polygon class="st0" points="67.5,231.8 67.5,231.4 71.7,229 71.7,229.4 		"/>
		<polygon class="st0" points="56,224.7 56,225.2 67.5,231.8 67.5,231.4 		"/>
	</g>
	<g>
		<polygon class="st2" points="72.9,229.6 84.3,236.2 80.2,238.6 68.7,232 		"/>
		<polygon class="st0" points="80.2,239 80.2,238.6 84.3,236.2 84.3,236.6 		"/>
		<polygon class="st0" points="68.7,232 68.7,232.4 80.2,239 80.2,238.6 		"/>
	</g>
	<g>
		<polygon class="st2" points="85.5,236.9 97,243.5 92.8,245.9 81.3,239.2 		"/>
		<polygon class="st0" points="92.8,246.3 92.8,245.9 97,243.5 97,243.9 		"/>
		<polygon class="st0" points="81.3,239.2 81.3,239.7 92.8,246.3 92.8,245.9 		"/>
	</g>
	<g>
		<polygon class="st2" points="98.1,244.1 109.6,250.7 105.4,253.1 93.9,246.5 		"/>
		<polygon class="st0" points="105.4,253.5 105.4,253.1 109.6,250.7 109.6,251.1 		"/>
		<polygon class="st0" points="93.9,246.5 93.9,246.9 105.4,253.5 105.4,253.1 		"/>
	</g>
	<g>
		<polygon class="st2" points="40.8,204.9 52.2,211.5 48.1,213.9 36.6,207.2 		"/>
		<polygon class="st0" points="48.1,214.3 48.1,213.9 52.2,211.5 52.2,211.9 		"/>
		<polygon class="st0" points="36.6,207.2 36.6,207.7 48.1,214.3 48.1,213.9 		"/>
	</g>
	<g>
		<polygon class="st2" points="53.4,212.1 64.8,218.7 60.7,221.1 49.2,214.5 		"/>
		<polygon class="st0" points="60.7,221.5 60.7,221.1 64.8,218.7 64.8,219.1 		"/>
		<polygon class="st0" points="49.2,214.5 49.2,214.9 60.7,221.5 60.7,221.1 		"/>
	</g>
	<g>
		<polygon class="st2" points="66,219.3 77.5,226 73.3,228.4 61.8,221.7 		"/>
		<polygon class="st0" points="73.3,228.8 73.3,228.4 77.5,226 77.5,226.4 		"/>
		<polygon class="st0" points="61.8,221.7 61.8,222.2 73.3,228.8 73.3,228.4 		"/>
	</g>
	<g>
		<polygon class="st2" points="78.6,226.6 90.1,233.2 85.9,235.6 74.4,229 		"/>
		<polygon class="st0" points="85.9,236 85.9,235.6 90.1,233.2 90.1,233.6 		"/>
		<polygon class="st0" points="74.4,229 74.4,229.4 85.9,236 85.9,235.6 		"/>
	</g>
	<g>
		<polygon class="st2" points="91.2,233.8 102.7,240.4 98.5,242.9 87,236.2 		"/>
		<polygon class="st0" points="98.5,243.3 98.5,242.9 102.7,240.4 102.7,240.8 		"/>
		<polygon class="st0" points="87,236.2 87,236.7 98.5,243.3 98.5,242.9 		"/>
	</g>
	<g>
		<polygon class="st2" points="103.9,241.1 115.3,247.7 111.2,250.1 99.7,243.5 		"/>
		<polygon class="st0" points="111.2,250.5 111.2,250.1 115.3,247.7 115.3,248.1 		"/>
		<polygon class="st0" points="99.7,243.5 99.7,243.9 111.2,250.5 111.2,250.1 		"/>
	</g>
</g>
<path class="st1" d="M211.4,237.8l-171.5-99c-2.7-1.6-4.9-5.7-4.9-9.3V19.1c0-3.6,2.2-5.2,4.9-3.7l171.5,99c2.7,1.6,4.9,5.7,4.9,9.3
	v110.4C216.2,237.7,214.1,239.4,211.4,237.8z"/>
<path class="st3" d="M216.2,227.3L35,122.6V19.1c0-3.6,2.2-5.2,4.9-3.7l171.5,99c2.7,1.6,4.9,5.7,4.9,9.3V227.3z"/>
<g>
	<path class="st1" d="M195,192.2L93,133.4c-0.1,0-0.1-0.1-0.1-0.2V62.8c0-1.5,1.6-2.4,2.9-1.7l97.2,56.1c1.4,0.8,2.2,2.2,2.2,3.8v71
		C195.3,192.1,195.1,192.2,195,192.2z"/>
	<path class="st4" d="M104.7,70.7c0-0.5-0.4-1.2-0.8-1.5l0,0c-0.5-0.3-0.8-0.1-0.8,0.5c0,0.5,0.4,1.2,0.8,1.5
		C104.3,71.4,104.7,71.2,104.7,70.7L104.7,70.7z"/>
	<path class="st4" d="M102.1,69.2c0-0.5-0.4-1.2-0.8-1.5v0c-0.5-0.3-0.8-0.1-0.8,0.5c0,0.5,0.4,1.2,0.8,1.5
		C101.7,70,102.1,69.8,102.1,69.2L102.1,69.2z"/>
	<path class="st4" d="M99.4,67.6c0-0.5-0.4-1.2-0.8-1.5v0c-0.5-0.3-0.8-0.1-0.8,0.5c0,0.5,0.4,1.2,0.8,1.5
		C99,68.4,99.4,68.2,99.4,67.6L99.4,67.6z"/>
	<polygon class="st2" points="195.3,202.1 92.9,143.1 92.9,66.7 195.3,125.8 	"/>
</g>
<path class="st1" d="M266.7,160.8l-61.1-35.2v-2.8c0-0.8,0.9-1.3,1.6-0.9l58.3,33.6c0.8,0.4,1.3,1.3,1.3,2.2V160.8z"/>
<polygon class="st3" points="266.7,206.4 205.5,171.1 205.5,125.6 266.7,160.8 "/>
<g class="st5">
	<g>
		<path class="st1" d="M76.1,50.4L11.2,13.1v-3c0-0.9,0.9-1.4,1.7-1l61.8,35.7c0.8,0.5,1.3,1.4,1.3,2.3V50.4z"/>
		<path class="st2" d="M18.7,15.3c0-0.3-0.2-0.8-0.5-0.9v0c-0.3-0.2-0.5,0-0.5,0.3c0,0.3,0.2,0.8,0.5,0.9
			C18.5,15.8,18.7,15.6,18.7,15.3L18.7,15.3z"/>
		<path class="st2" d="M17.1,14.4c0-0.3-0.2-0.8-0.5-0.9l0,0c-0.3-0.2-0.5,0-0.5,0.3c0,0.3,0.2,0.8,0.5,0.9
			C16.8,14.8,17.1,14.7,17.1,14.4L17.1,14.4z"/>
		<path class="st2" d="M15.4,13.4c0-0.3-0.2-0.8-0.5-0.9l0,0c-0.3-0.2-0.5,0-0.5,0.3c0,0.3,0.2,0.8,0.5,0.9
			C15.1,13.8,15.4,13.7,15.4,13.4L15.4,13.4z"/>
		<polygon class="st3" points="76.1,98.8 11.2,61.4 11.2,13 76.1,50.4 		"/>
	</g>
	<g>
		<polygon class="st2" points="49.3,45.8 17.1,27.2 17.1,25.8 49.3,44.4 		"/>
		<polygon class="st2" points="57.6,57.6 25.4,39 25.4,37.6 57.6,56.2 		"/>
		<polygon class="st2" points="26.4,47.2 17.1,41.8 17.1,40.4 26.4,45.7 		"/>
		<polygon class="st2" points="49.3,60.4 27.5,47.8 27.5,46.4 49.3,59 		"/>
		<polygon class="st2" points="31.3,39.2 17.1,31 17.1,29.6 31.3,37.8 		"/>
		<polygon class="st2" points="47.1,48.3 32.8,40.1 32.8,38.7 47.1,46.9 		"/>
		<polygon class="st2" points="23.8,38.1 17.1,34.2 17.1,32.8 23.8,36.7 		"/>
		<polygon class="st2" points="44.8,54 38.1,50.1 38.1,48.7 44.8,52.5 		"/>
		<polygon class="st2" points="57.6,61.3 46.4,54.8 46.4,53.4 57.6,59.9 		"/>
		<polygon class="st2" points="57.6,50.6 50.5,46.5 50.5,45.1 57.6,49.2 		"/>
		<polygon class="st2" points="36.8,49.3 17.1,37.9 17.1,36.5 36.8,47.9 		"/>
	</g>
</g>
<g class="st5">
	<g>
		<path class="st1" d="M86.5,92.6L21.7,55.2v-3c0-0.9,0.9-1.4,1.7-1L85.2,87c0.8,0.5,1.3,1.4,1.3,2.3V92.6z"/>
		<path class="st2" d="M29.1,57.5c0-0.3-0.2-0.8-0.5-0.9v0c-0.3-0.2-0.5,0-0.5,0.3c0,0.3,0.2,0.8,0.5,0.9
			C28.9,58,29.1,57.8,29.1,57.5L29.1,57.5z"/>
		<path class="st2" d="M27.5,56.6c0-0.3-0.2-0.8-0.5-0.9v0c-0.3-0.2-0.5,0-0.5,0.3c0,0.3,0.2,0.8,0.5,0.9
			C27.3,57,27.5,56.9,27.5,56.6L27.5,56.6z"/>
		<path class="st2" d="M25.8,55.6c0-0.3-0.2-0.8-0.5-0.9v0c-0.3-0.2-0.5,0-0.5,0.3c0,0.3,0.2,0.8,0.5,0.9
			C25.6,56,25.8,55.9,25.8,55.6L25.8,55.6z"/>
		<polygon class="st3" points="86.5,141 21.7,103.6 21.7,55.2 86.5,92.6 		"/>
	</g>
	<g>
		<polygon class="st2" points="59.7,88 27.5,69.4 27.5,68 59.7,86.6 		"/>
		<polygon class="st2" points="68,99.8 35.8,81.2 35.8,79.8 68,98.4 		"/>
		<polygon class="st2" points="36.8,89.4 27.5,84 27.5,82.6 36.8,87.9 		"/>
		<polygon class="st2" points="59.7,102.6 38,90 38,88.6 59.7,101.1 		"/>
		<polygon class="st2" points="41.7,81.4 27.5,73.2 27.5,71.8 41.7,80 		"/>
		<polygon class="st2" points="57.5,90.5 43.3,82.3 43.3,80.9 57.5,89.1 		"/>
		<polygon class="st2" points="34.2,80.3 27.5,76.4 27.5,75 34.2,78.9 		"/>
		<polygon class="st2" points="55.2,96.2 48.6,92.3 48.6,90.8 55.2,94.7 		"/>
		<polygon class="st2" points="68,103.5 56.8,97 56.8,95.6 68,102.1 		"/>
		<polygon class="st2" points="68,92.8 60.9,88.7 60.9,87.3 68,91.4 		"/>
		<polygon class="st2" points="47.2,91.5 27.5,80.1 27.5,78.7 47.2,90.1 		"/>
	</g>
</g>
<g class="st5">
	<g>
		<path class="st1" d="M243.2,188.7l-64.8-37.4v-3c0-0.9,0.9-1.4,1.7-1l61.8,35.7c0.8,0.5,1.3,1.4,1.3,2.3V188.7z"/>
		<path class="st2" d="M185.8,153.5c0-0.3-0.2-0.8-0.5-0.9v0c-0.3-0.2-0.5,0-0.5,0.3c0,0.3,0.2,0.8,0.5,0.9
			C185.6,154,185.8,153.9,185.8,153.5L185.8,153.5z"/>
		<path class="st2" d="M184.2,152.6c0-0.3-0.2-0.8-0.5-0.9v0c-0.3-0.2-0.5,0-0.5,0.3c0,0.3,0.2,0.8,0.5,0.9
			C184,153.1,184.2,153,184.2,152.6L184.2,152.6z"/>
		<path class="st2" d="M182.5,151.6c0-0.3-0.2-0.8-0.5-0.9v0c-0.3-0.2-0.5,0-0.5,0.3c0,0.3,0.2,0.8,0.5,0.9
			C182.3,152.1,182.5,151.9,182.5,151.6L182.5,151.6z"/>
		<polygon class="st3" points="243.2,237.1 178.4,199.7 178.4,151.3 243.2,188.7 		"/>
	</g>
	<g>
		<polygon class="st2" points="216.4,184.1 184.2,165.5 184.2,164 216.4,182.6 		"/>
		<polygon class="st2" points="224.7,195.9 192.5,177.3 192.5,175.8 224.7,194.4 		"/>
		<polygon class="st2" points="193.5,185.4 184.2,180.1 184.2,178.6 193.5,184 		"/>
		<polygon class="st2" points="216.4,198.6 194.7,186.1 194.7,184.6 216.4,197.2 		"/>
		<polygon class="st2" points="198.4,177.5 184.2,169.3 184.2,167.8 198.4,176 		"/>
		<polygon class="st2" points="214.2,186.6 200,178.4 200,176.9 214.2,185.1 		"/>
		<polygon class="st2" points="190.9,176.4 184.2,172.5 184.2,171 190.9,174.9 		"/>
		<polygon class="st2" points="212,192.2 205.3,188.3 205.3,186.9 212,190.8 		"/>
		<polygon class="st2" points="224.7,199.6 213.5,193.1 213.5,191.6 224.7,198.1 		"/>
		<polygon class="st2" points="224.7,188.9 217.6,184.8 217.6,183.3 224.7,187.4 		"/>
		<polygon class="st2" points="203.9,187.6 184.2,176.2 184.2,174.7 203.9,186.1 		"/>
	</g>
</g>
<path class="st6" d="M101.5,133.5L101.5,133.5c0-7.3,1.3-14,3.9-19.3c2.1-4.3,5-7.7,8.7-5.5c8.1,4.8,6.3,15.9,15,20.9
	c8.3,4.8,5.7-14.1,15.5-8.4c9.4,5.4,6.7,27.7,15.9,33.1c8,4.6,6.6-9.8,13.1-6c3.3,1.9,5.5,8,6.9,13.7c1.3,5.4,2,10.7,2,15.6v2.8
	L101.5,133.5z"/>
<g>
	<polygon class="st7" points="141.9,158.9 142.2,159 142.2,116.1 141.9,116 	"/>
</g>
<g>
	<polygon class="st7" points="126.1,149.8 126.4,149.9 126.4,107 126.1,106.9 	"/>
</g>
<g>
	<polygon class="st7" points="110.4,140.6 110.6,140.8 110.6,97.9 110.4,97.7 	"/>
</g>
<g>
	<path class="st8" d="M150,134.2c5.3,3.1,8.6,2.8,11.8,2.5c3-0.3,6.1-0.6,10.9,1.9c5.2,2.7,9.7,10.1,9.7,10.1l0.2-0.1
		c0-0.1-4.6-7.6-9.9-10.3c-4.9-2.6-8-2.3-11-2c-3.5,0.3-6.9,0.7-13-3.3c-6-3.9-9.7-11.9-12.9-19c-2.9-6.3-5.6-12.3-9.5-14.2
		c-3.1-1.5-5.2,0.3-7.4,2.3c-2.3,2.1-4.7,4.2-8.4,2.5c-6.2-3-8.9-9.1-8.9-9.2l-0.2,0c0,0.1,2.4,5.6,8,8.9c0.4,0.2,0.8,0.4,1.2,0.6
		c3.9,1.8,6.3-0.3,8.6-2.5c2.2-1.9,4.2-3.8,7.2-2.3c3.7,1.8,6.3,7.5,9.2,14c3.3,7.2,6.9,15.3,13.1,19.3
		C149.1,133.6,149.6,133.9,150,134.2z"/>
</g>
<path class="st7" d="M128,100.8c0-1-0.7-2.3-1.6-2.8c-0.9-0.5-1.6-0.1-1.6,0.9c0,1,0.7,2.3,1.6,2.8C127.2,102.3,128,101.9,128,100.8
	z"/>
</svg>
