<?xml version="1.0" encoding="utf-8"?>
<!-- Generator: Adobe Illustrator 22.1.0, SVG Export Plug-In . SVG Version: 6.00 Build 0)  -->
<svg version="1.1" id="Layer_1" xmlns="http://www.w3.org/2000/svg" xmlns:xlink="http://www.w3.org/1999/xlink" x="0px" y="0px"
	 viewBox="0 0 219 365" style="enable-background:new 0 0 219 365;" xml:space="preserve">
<style type="text/css">
	.st0{fill:#F1F2F2;}
	.st1{fill:#FFFFFF;}
	.st2{fill:url(#XMLID_2_);}
	.st3{fill:#BCBEC0;}
	.st4{fill:url(#XMLID_3_);}
	.st5{fill:url(#XMLID_4_);}
	.st6{fill:url(#XMLID_5_);}
	.st7{fill:url(#XMLID_6_);}
	.st8{fill:url(#XMLID_7_);}
	.st9{fill:url(#XMLID_8_);}
	.st10{fill:url(#XMLID_9_);}
	.st11{fill:url(#XMLID_10_);}
	.st12{fill:url(#XMLID_11_);}
	.st13{fill:url(#XMLID_12_);}
	.st14{fill:#8BC53F;}
	.st15{fill:url(#SVGID_1_);}
	.st16{fill:url(#XMLID_13_);}
</style>
<polygon id="XMLID_1199_" class="st0" points="77,31.6 77,37.7 129.7,68.2 169.1,45.7 169.1,39.1 "/>
<polygon id="XMLID_1198_" class="st0" points="116.5,8.8 169.1,39.1 129.7,62.1 77,31.6 "/>
<polygon id="XMLID_1197_" class="st0" points="94.3,30.7 94.3,34.5 127.2,53.6 151.8,39.5 151.8,35.4 "/>
<polygon id="XMLID_1196_" class="st1" points="119,16.5 151.8,35.4 127.2,49.7 94.3,30.7 "/>
<linearGradient id="XMLID_2_" gradientUnits="userSpaceOnUse" x1="72.5894" y1="173.2998" x2="134.0522" y2="70.4678">
	<stop  offset="0.3042" style="stop-color:#FFFFFF"/>
	<stop  offset="1" style="stop-color:#EFF2F9"/>
</linearGradient>
<polygon id="XMLID_1195_" class="st2" points="77,37.7 76.9,175.7 129.6,206.1 129.7,68.2 "/>
<polygon id="XMLID_1194_" class="st3" points="129.6,206.1 169.1,183.8 169.1,45.7 129.7,68.2 "/>
<g id="XMLID_1187_">
	<polygon id="XMLID_1193_" class="st0" points="136.7,70.8 136.7,75.7 132.5,78.1 132.5,73.3 	"/>
	<polygon id="XMLID_1192_" class="st0" points="142.8,67.6 142.8,72.4 138.5,74.9 138.5,70 	"/>
	<polygon id="XMLID_1191_" class="st0" points="148.8,64 148.8,68.9 144.6,71.3 144.6,66.5 	"/>
	<polygon id="XMLID_1190_" class="st0" points="154.9,60.6 154.9,65.5 150.6,67.9 150.6,63.1 	"/>
	<polygon id="XMLID_1189_" class="st0" points="160.9,57 160.9,61.8 156.7,64.3 156.7,59.4 	"/>
	<polygon id="XMLID_1188_" class="st0" points="167,53.5 167,58.4 162.7,60.8 162.7,55.9 	"/>
</g>
<g id="XMLID_1180_">
	<polygon id="XMLID_1186_" class="st0" points="136.7,79.8 136.7,84.7 132.5,87.1 132.5,82.2 	"/>
	<polygon id="XMLID_1185_" class="st0" points="142.8,76.5 142.8,81.4 138.5,83.8 138.5,79 	"/>
	<polygon id="XMLID_1184_" class="st0" points="148.8,73 148.8,77.9 144.6,80.3 144.6,75.4 	"/>
	<polygon id="XMLID_1183_" class="st0" points="154.9,69.6 154.9,74.5 150.6,76.9 150.6,72 	"/>
	<polygon id="XMLID_1182_" class="st0" points="160.9,65.9 160.9,70.8 156.7,73.3 156.7,68.4 	"/>
	<polygon id="XMLID_1181_" class="st0" points="167,62.5 167,67.4 162.7,69.8 162.7,64.9 	"/>
</g>
<g id="XMLID_1173_">
	<polygon id="XMLID_1179_" class="st0" points="136.7,88.8 136.7,93.6 132.5,96.1 132.5,91.2 	"/>
	<polygon id="XMLID_1178_" class="st0" points="142.8,85.5 142.8,90.4 138.5,92.8 138.5,87.9 	"/>
	<polygon id="XMLID_1177_" class="st0" points="148.8,82 148.8,86.8 144.6,89.3 144.6,84.4 	"/>
	<polygon id="XMLID_1176_" class="st0" points="154.9,78.6 154.9,83.4 150.6,85.9 150.6,81 	"/>
	<polygon id="XMLID_1175_" class="st0" points="160.9,74.9 160.9,79.8 156.7,82.2 156.7,77.4 	"/>
	<polygon id="XMLID_1174_" class="st0" points="167,71.5 167,76.3 162.7,78.8 162.7,73.9 	"/>
</g>
<g id="XMLID_1166_">
	<polygon id="XMLID_1172_" class="st0" points="136.7,97.7 136.7,102.6 132.5,105.1 132.5,100.2 	"/>
	<polygon id="XMLID_1171_" class="st0" points="142.8,94.5 142.8,99.3 138.5,101.8 138.5,96.9 	"/>
	<polygon id="XMLID_1170_" class="st0" points="148.8,90.9 148.8,95.8 144.6,98.2 144.6,93.4 	"/>
	<polygon id="XMLID_1169_" class="st0" points="154.9,87.5 154.9,92.4 150.6,94.9 150.6,90 	"/>
	<polygon id="XMLID_1168_" class="st0" points="160.9,83.9 160.9,88.8 156.7,91.2 156.7,86.3 	"/>
	<polygon id="XMLID_1167_" class="st0" points="167,80.4 167,85.3 162.7,87.7 162.7,82.9 	"/>
</g>
<g id="XMLID_1159_">
	<polygon id="XMLID_1165_" class="st0" points="136.7,106.7 136.7,111.6 132.5,114 132.5,109.1 	"/>
	<polygon id="XMLID_1164_" class="st0" points="142.8,103.4 142.8,108.3 138.5,110.8 138.5,105.9 	"/>
	<polygon id="XMLID_1163_" class="st0" points="148.8,99.9 148.8,104.8 144.6,107.2 144.6,102.3 	"/>
	<polygon id="XMLID_1162_" class="st0" points="154.9,96.5 154.9,101.4 150.6,103.8 150.6,99 	"/>
	<polygon id="XMLID_1161_" class="st0" points="160.9,92.9 160.9,97.7 156.7,100.2 156.7,95.3 	"/>
	<polygon id="XMLID_1160_" class="st0" points="167,89.4 167,94.3 162.7,96.7 162.7,91.8 	"/>
</g>
<g id="XMLID_1053_">
	<polygon id="XMLID_1059_" class="st0" points="136.7,115.7 136.7,120.6 132.5,123 132.5,118.1 	"/>
	<polygon id="XMLID_1058_" class="st0" points="142.8,112.4 142.8,117.3 138.5,119.7 138.5,114.8 	"/>
	<polygon id="XMLID_1057_" class="st0" points="148.8,108.9 148.8,113.8 144.6,116.2 144.6,111.3 	"/>
	<polygon id="XMLID_1056_" class="st0" points="154.9,105.5 154.9,110.4 150.6,112.8 150.6,107.9 	"/>
	<polygon id="XMLID_1055_" class="st0" points="160.9,101.8 160.9,106.7 156.7,109.1 156.7,104.3 	"/>
	<polygon id="XMLID_1054_" class="st0" points="167,98.4 167,103.2 162.7,105.7 162.7,100.8 	"/>
</g>
<g id="XMLID_1046_">
	<polygon id="XMLID_1052_" class="st0" points="136.7,124.7 136.7,129.5 132.5,132 132.5,127.1 	"/>
	<polygon id="XMLID_1051_" class="st0" points="142.8,121.4 142.8,126.3 138.5,128.7 138.5,123.8 	"/>
	<polygon id="XMLID_1050_" class="st0" points="148.8,117.8 148.8,122.7 144.6,125.2 144.6,120.3 	"/>
	<polygon id="XMLID_1049_" class="st0" points="154.9,114.5 154.9,119.3 150.6,121.8 150.6,116.9 	"/>
	<polygon id="XMLID_1048_" class="st0" points="160.9,110.8 160.9,115.7 156.7,118.1 156.7,113.2 	"/>
	<polygon id="XMLID_1047_" class="st0" points="167,107.3 167,112.2 162.7,114.7 162.7,109.8 	"/>
</g>
<g id="XMLID_1039_">
	<polygon id="XMLID_1045_" class="st0" points="136.7,133.6 136.7,138.5 132.5,140.9 132.5,136.1 	"/>
	<polygon id="XMLID_1044_" class="st0" points="142.8,130.4 142.8,135.2 138.5,137.7 138.5,132.8 	"/>
	<polygon id="XMLID_1043_" class="st0" points="148.8,126.8 148.8,131.7 144.6,134.1 144.6,129.3 	"/>
	<polygon id="XMLID_1042_" class="st0" points="154.9,123.4 154.9,128.3 150.6,130.7 150.6,125.9 	"/>
	<polygon id="XMLID_1041_" class="st0" points="160.9,119.8 160.9,124.6 156.7,127.1 156.7,122.2 	"/>
	<polygon id="XMLID_1040_" class="st0" points="167,116.3 167,121.2 162.7,123.6 162.7,118.7 	"/>
</g>
<g id="XMLID_1032_">
	<polygon id="XMLID_1038_" class="st0" points="136.7,142.6 136.7,147.5 132.5,149.9 132.5,145 	"/>
	<polygon id="XMLID_1037_" class="st0" points="142.8,139.3 142.8,144.2 138.5,146.6 138.5,141.8 	"/>
	<polygon id="XMLID_1036_" class="st0" points="148.8,135.8 148.8,140.7 144.6,143.1 144.6,138.2 	"/>
	<polygon id="XMLID_1035_" class="st0" points="154.9,132.4 154.9,137.3 150.6,139.7 150.6,134.8 	"/>
	<polygon id="XMLID_1034_" class="st0" points="160.9,128.7 160.9,133.6 156.7,136.1 156.7,131.2 	"/>
	<polygon id="XMLID_1033_" class="st0" points="167,125.3 167,130.2 162.7,132.6 162.7,127.7 	"/>
</g>
<g id="XMLID_1025_">
	<polygon id="XMLID_1031_" class="st0" points="136.7,151.6 136.7,156.4 132.5,158.9 132.5,154 	"/>
	<polygon id="XMLID_1030_" class="st0" points="142.8,148.3 142.8,153.2 138.5,155.6 138.5,150.7 	"/>
	<polygon id="XMLID_1029_" class="st0" points="148.8,144.8 148.8,149.6 144.6,152.1 144.6,147.2 	"/>
	<polygon id="XMLID_1028_" class="st0" points="154.9,141.4 154.9,146.3 150.6,148.7 150.6,143.8 	"/>
	<polygon id="XMLID_1027_" class="st0" points="160.9,137.7 160.9,142.6 156.7,145 156.7,140.2 	"/>
	<polygon id="XMLID_1026_" class="st0" points="167,134.3 167,139.1 162.7,141.6 162.7,136.7 	"/>
</g>
<g id="XMLID_1018_">
	<polygon id="XMLID_1024_" class="st0" points="136.7,160.5 136.7,165.4 132.5,167.9 132.5,163 	"/>
	<polygon id="XMLID_1023_" class="st0" points="142.8,157.3 142.8,162.1 138.5,164.6 138.5,159.7 	"/>
	<polygon id="XMLID_1022_" class="st0" points="148.8,153.7 148.8,158.6 144.6,161 144.6,156.2 	"/>
	<polygon id="XMLID_1021_" class="st0" points="154.9,150.3 154.9,155.2 150.6,157.7 150.6,152.8 	"/>
	<polygon id="XMLID_1020_" class="st0" points="160.9,146.7 160.9,151.6 156.7,154 156.7,149.1 	"/>
	<polygon id="XMLID_1019_" class="st0" points="167,143.2 167,148.1 162.7,150.5 162.7,145.7 	"/>
</g>
<g id="XMLID_1011_">
	<polygon id="XMLID_1017_" class="st0" points="136.7,169.5 136.7,174.4 132.5,176.8 132.5,171.9 	"/>
	<polygon id="XMLID_1016_" class="st0" points="142.8,166.2 142.8,171.1 138.5,173.6 138.5,168.7 	"/>
	<polygon id="XMLID_1015_" class="st0" points="148.8,162.7 148.8,167.6 144.6,170 144.6,165.1 	"/>
	<polygon id="XMLID_1014_" class="st0" points="154.9,159.3 154.9,164.2 150.6,166.6 150.6,161.8 	"/>
	<polygon id="XMLID_1013_" class="st0" points="160.9,155.7 160.9,160.5 156.7,163 156.7,158.1 	"/>
	<polygon id="XMLID_1012_" class="st0" points="167,152.2 167,157.1 162.7,159.5 162.7,154.6 	"/>
</g>
<g id="XMLID_1004_">
	<polygon id="XMLID_1010_" class="st0" points="136.7,178.5 136.7,183.4 132.5,185.8 132.5,180.9 	"/>
	<polygon id="XMLID_1009_" class="st0" points="142.8,175.2 142.8,180.1 138.5,182.5 138.5,177.7 	"/>
	<polygon id="XMLID_1008_" class="st0" points="148.8,171.7 148.8,176.6 144.6,179 144.6,174.1 	"/>
	<polygon id="XMLID_1007_" class="st0" points="154.9,168.3 154.9,173.2 150.6,175.6 150.6,170.7 	"/>
	<polygon id="XMLID_1006_" class="st0" points="160.9,164.6 160.9,169.5 156.7,171.9 156.7,167.1 	"/>
	<polygon id="XMLID_1005_" class="st0" points="167,161.2 167,166 162.7,168.5 162.7,163.6 	"/>
</g>
<g id="XMLID_997_">
	<polygon id="XMLID_1003_" class="st0" points="136.7,187.5 136.7,192.3 132.5,194.8 132.5,189.9 	"/>
	<polygon id="XMLID_1002_" class="st0" points="142.8,184.2 142.8,189.1 138.5,191.5 138.5,186.6 	"/>
	<polygon id="XMLID_1001_" class="st0" points="148.8,180.6 148.8,185.5 144.6,188 144.6,183.1 	"/>
	<polygon id="XMLID_1000_" class="st0" points="154.9,177.3 154.9,182.1 150.6,184.6 150.6,179.7 	"/>
	<polygon id="XMLID_999_" class="st0" points="160.9,173.6 160.9,178.5 156.7,180.9 156.7,176 	"/>
	<polygon id="XMLID_998_" class="st0" points="167,170.1 167,175 162.7,177.5 162.7,172.6 	"/>
</g>
<g id="XMLID_330_">
	<polygon id="XMLID_996_" class="st0" points="115.9,70.8 115.9,75.7 120.1,78.1 120.1,73.3 	"/>
	<polygon id="XMLID_335_" class="st0" points="109.8,67.6 109.8,72.4 114,74.9 114,70 	"/>
	<polygon id="XMLID_334_" class="st0" points="103.8,64 103.8,68.9 108,71.3 108,66.5 	"/>
	<polygon id="XMLID_333_" class="st0" points="97.7,60.6 97.7,65.5 101.9,67.9 101.9,63.1 	"/>
	<polygon id="XMLID_332_" class="st0" points="91.7,57 91.7,61.8 95.9,64.3 95.9,59.4 	"/>
	<polygon id="XMLID_331_" class="st0" points="85.6,53.5 85.6,58.4 89.8,60.8 89.8,55.9 	"/>
</g>
<g id="XMLID_323_">
	<polygon id="XMLID_329_" class="st0" points="115.9,79.8 115.9,84.7 120.1,87.1 120.1,82.2 	"/>
	<polygon id="XMLID_328_" class="st0" points="109.8,76.5 109.8,81.4 114,83.8 114,79 	"/>
	<polygon id="XMLID_327_" class="st0" points="103.8,73 103.8,77.9 108,80.3 108,75.4 	"/>
	<polygon id="XMLID_326_" class="st0" points="97.7,69.6 97.7,74.5 101.9,76.9 101.9,72 	"/>
	<polygon id="XMLID_325_" class="st0" points="91.7,65.9 91.7,70.8 95.9,73.3 95.9,68.4 	"/>
	<polygon id="XMLID_324_" class="st0" points="85.6,62.5 85.6,67.4 89.8,69.8 89.8,64.9 	"/>
</g>
<g id="XMLID_299_">
	<polygon id="XMLID_322_" class="st0" points="115.9,88.8 115.9,93.6 120.1,96.1 120.1,91.2 	"/>
	<polygon id="XMLID_321_" class="st0" points="109.8,85.5 109.8,90.4 114,92.8 114,87.9 	"/>
	<polygon id="XMLID_304_" class="st0" points="103.8,82 103.8,86.8 108,89.3 108,84.4 	"/>
	<polygon id="XMLID_303_" class="st0" points="97.7,78.6 97.7,83.4 101.9,85.9 101.9,81 	"/>
	<polygon id="XMLID_302_" class="st0" points="91.7,74.9 91.7,79.8 95.9,82.2 95.9,77.4 	"/>
	<polygon id="XMLID_300_" class="st0" points="85.6,71.5 85.6,76.3 89.8,78.8 89.8,73.9 	"/>
</g>
<g id="XMLID_284_">
	<polygon id="XMLID_298_" class="st0" points="115.9,97.7 115.9,102.6 120.1,105.1 120.1,100.2 	"/>
	<polygon id="XMLID_297_" class="st0" points="109.8,94.5 109.8,99.3 114,101.8 114,96.9 	"/>
	<polygon id="XMLID_296_" class="st0" points="103.8,90.9 103.8,95.8 108,98.2 108,93.4 	"/>
	<polygon id="XMLID_295_" class="st0" points="97.7,87.5 97.7,92.4 101.9,94.9 101.9,90 	"/>
	<polygon id="XMLID_294_" class="st0" points="91.7,83.9 91.7,88.8 95.9,91.2 95.9,86.3 	"/>
	<polygon id="XMLID_293_" class="st0" points="85.6,80.4 85.6,85.3 89.8,87.7 89.8,82.9 	"/>
</g>
<g id="XMLID_846_">
	<polygon id="XMLID_283_" class="st0" points="115.9,106.7 115.9,111.6 120.1,114 120.1,109.1 	"/>
	<polygon id="XMLID_278_" class="st0" points="109.8,103.4 109.8,108.3 114,110.8 114,105.9 	"/>
	<polygon id="XMLID_277_" class="st0" points="103.8,99.9 103.8,104.8 108,107.2 108,102.3 	"/>
	<polygon id="XMLID_276_" class="st0" points="97.7,96.5 97.7,101.4 101.9,103.8 101.9,99 	"/>
	<polygon id="XMLID_275_" class="st0" points="91.7,92.9 91.7,97.7 95.9,100.2 95.9,95.3 	"/>
	<polygon id="XMLID_847_" class="st0" points="85.6,89.4 85.6,94.3 89.8,96.7 89.8,91.8 	"/>
</g>
<g id="XMLID_839_">
	<polygon id="XMLID_845_" class="st0" points="115.9,115.7 115.9,120.6 120.1,123 120.1,118.1 	"/>
	<polygon id="XMLID_844_" class="st0" points="109.8,112.4 109.8,117.3 114,119.7 114,114.8 	"/>
	<polygon id="XMLID_843_" class="st0" points="103.8,108.9 103.8,113.8 108,116.2 108,111.3 	"/>
	<polygon id="XMLID_842_" class="st0" points="97.7,105.5 97.7,110.4 101.9,112.8 101.9,107.9 	"/>
	<polygon id="XMLID_841_" class="st0" points="91.7,101.8 91.7,106.7 95.9,109.1 95.9,104.3 	"/>
	<polygon id="XMLID_840_" class="st0" points="85.6,98.4 85.6,103.2 89.8,105.7 89.8,100.8 	"/>
</g>
<g id="XMLID_832_">
	<polygon id="XMLID_838_" class="st0" points="115.9,124.7 115.9,129.5 120.1,132 120.1,127.1 	"/>
	<polygon id="XMLID_837_" class="st0" points="109.8,121.4 109.8,126.3 114,128.7 114,123.8 	"/>
	<polygon id="XMLID_836_" class="st0" points="103.8,117.8 103.8,122.7 108,125.2 108,120.3 	"/>
	<polygon id="XMLID_835_" class="st0" points="97.7,114.5 97.7,119.3 101.9,121.8 101.9,116.9 	"/>
	<polygon id="XMLID_834_" class="st0" points="91.7,110.8 91.7,115.7 95.9,118.1 95.9,113.2 	"/>
	<polygon id="XMLID_833_" class="st0" points="85.6,107.3 85.6,112.2 89.8,114.7 89.8,109.8 	"/>
</g>
<g id="XMLID_825_">
	<polygon id="XMLID_831_" class="st0" points="115.9,133.6 115.9,138.5 120.1,140.9 120.1,136.1 	"/>
	<polygon id="XMLID_830_" class="st0" points="109.8,130.4 109.8,135.2 114,137.7 114,132.8 	"/>
	<polygon id="XMLID_829_" class="st0" points="103.8,126.8 103.8,131.7 108,134.1 108,129.3 	"/>
	<polygon id="XMLID_828_" class="st0" points="97.7,123.4 97.7,128.3 101.9,130.7 101.9,125.9 	"/>
	<polygon id="XMLID_827_" class="st0" points="91.7,119.8 91.7,124.6 95.9,127.1 95.9,122.2 	"/>
	<polygon id="XMLID_826_" class="st0" points="85.6,116.3 85.6,121.2 89.8,123.6 89.8,118.7 	"/>
</g>
<g id="XMLID_818_">
	<polygon id="XMLID_824_" class="st0" points="115.9,142.6 115.9,147.5 120.1,149.9 120.1,145 	"/>
	<polygon id="XMLID_823_" class="st0" points="109.8,139.3 109.8,144.2 114,146.6 114,141.8 	"/>
	<polygon id="XMLID_822_" class="st0" points="103.8,135.8 103.8,140.7 108,143.1 108,138.2 	"/>
	<polygon id="XMLID_821_" class="st0" points="97.7,132.4 97.7,137.3 101.9,139.7 101.9,134.8 	"/>
	<polygon id="XMLID_820_" class="st0" points="91.7,128.7 91.7,133.6 95.9,136.1 95.9,131.2 	"/>
	<polygon id="XMLID_819_" class="st0" points="85.6,125.3 85.6,130.2 89.8,132.6 89.8,127.7 	"/>
</g>
<g id="XMLID_273_">
	<polygon id="XMLID_817_" class="st0" points="115.9,151.6 115.9,156.4 120.1,158.9 120.1,154 	"/>
	<polygon id="XMLID_816_" class="st0" points="109.8,148.3 109.8,153.2 114,155.6 114,150.7 	"/>
	<polygon id="XMLID_815_" class="st0" points="103.8,144.8 103.8,149.6 108,152.1 108,147.2 	"/>
	<polygon id="XMLID_814_" class="st0" points="97.7,141.4 97.7,146.3 101.9,148.7 101.9,143.8 	"/>
	<polygon id="XMLID_813_" class="st0" points="91.7,137.7 91.7,142.6 95.9,145 95.9,140.2 	"/>
	<polygon id="XMLID_274_" class="st0" points="85.6,134.3 85.6,139.1 89.8,141.6 89.8,136.7 	"/>
</g>
<g id="XMLID_266_">
	<polygon id="XMLID_272_" class="st0" points="115.9,160.5 115.9,165.4 120.1,167.9 120.1,163 	"/>
	<polygon id="XMLID_271_" class="st0" points="109.8,157.3 109.8,162.1 114,164.6 114,159.7 	"/>
	<polygon id="XMLID_270_" class="st0" points="103.8,153.7 103.8,158.6 108,161 108,156.2 	"/>
	<polygon id="XMLID_269_" class="st0" points="97.7,150.3 97.7,155.2 101.9,157.7 101.9,152.8 	"/>
	<polygon id="XMLID_268_" class="st0" points="91.7,146.7 91.7,151.6 95.9,154 95.9,149.1 	"/>
	<polygon id="XMLID_267_" class="st0" points="85.6,143.2 85.6,148.1 89.8,150.5 89.8,145.7 	"/>
</g>
<g id="XMLID_259_">
	<polygon id="XMLID_265_" class="st0" points="115.9,169.5 115.9,174.4 120.1,176.8 120.1,171.9 	"/>
	<polygon id="XMLID_264_" class="st0" points="109.8,166.2 109.8,171.1 114,173.6 114,168.7 	"/>
	<polygon id="XMLID_263_" class="st0" points="103.8,162.7 103.8,167.6 108,170 108,165.1 	"/>
	<polygon id="XMLID_262_" class="st0" points="97.7,159.3 97.7,164.2 101.9,166.6 101.9,161.8 	"/>
	<polygon id="XMLID_261_" class="st0" points="91.7,155.7 91.7,160.5 95.9,163 95.9,158.1 	"/>
	<polygon id="XMLID_260_" class="st0" points="85.6,152.2 85.6,157.1 89.8,159.5 89.8,154.6 	"/>
</g>
<g id="XMLID_790_">
	<polygon id="XMLID_258_" class="st0" points="115.9,178.5 115.9,183.4 120.1,185.8 120.1,180.9 	"/>
	<polygon id="XMLID_257_" class="st0" points="109.8,175.2 109.8,180.1 114,182.5 114,177.7 	"/>
	<polygon id="XMLID_256_" class="st0" points="103.8,171.7 103.8,176.6 108,179 108,174.1 	"/>
	<polygon id="XMLID_255_" class="st0" points="97.7,168.3 97.7,173.2 101.9,175.6 101.9,170.7 	"/>
	<polygon id="XMLID_254_" class="st0" points="91.7,164.6 91.7,169.5 95.9,171.9 95.9,167.1 	"/>
	<polygon id="XMLID_791_" class="st0" points="85.6,161.2 85.6,166 89.8,168.5 89.8,163.6 	"/>
</g>
<g id="XMLID_252_">
	<polygon id="XMLID_789_" class="st0" points="115.9,187.5 115.9,192.3 120.1,194.8 120.1,189.9 	"/>
	<polygon id="XMLID_788_" class="st0" points="109.8,184.2 109.8,189.1 114,191.5 114,186.6 	"/>
	<polygon id="XMLID_787_" class="st0" points="103.8,180.6 103.8,185.5 108,188 108,183.1 	"/>
	<polygon id="XMLID_786_" class="st0" points="97.7,177.3 97.7,182.1 101.9,184.6 101.9,179.7 	"/>
	<polygon id="XMLID_785_" class="st0" points="91.7,173.6 91.7,178.5 95.9,180.9 95.9,176 	"/>
	<polygon id="XMLID_253_" class="st0" points="85.6,170.1 85.6,175 89.8,177.5 89.8,172.6 	"/>
</g>
<g id="XMLID_778_">
	<polygon id="XMLID_781_" class="st0" points="114.5,151.7 150,131.1 185.6,151.7 150,172.2 	"/>
	<linearGradient id="XMLID_3_" gradientUnits="userSpaceOnUse" x1="105.2118" y1="271.5956" x2="160.125" y2="176.449">
		<stop  offset="0.3042" style="stop-color:#FFFFFF"/>
		<stop  offset="1" style="stop-color:#EFF2F9"/>
	</linearGradient>
	<polygon id="XMLID_780_" class="st4" points="114.5,151.7 114.5,277.3 150,297.8 150,172.2 	"/>
	<linearGradient id="XMLID_4_" gradientUnits="userSpaceOnUse" x1="193.342" y1="278.6486" x2="145.5229" y2="177.5765">
		<stop  offset="0.2776" style="stop-color:#FFFFFF"/>
		<stop  offset="1" style="stop-color:#E7EBF5"/>
	</linearGradient>
	<polygon id="XMLID_779_" class="st5" points="150,297.8 185.6,277.3 185.6,151.7 150,172.2 	"/>
</g>
<g id="XMLID_734_">
	<polygon id="XMLID_737_" class="st0" points="21,159.7 63.9,135 106.7,159.7 63.9,184.4 	"/>
	<linearGradient id="XMLID_5_" gradientUnits="userSpaceOnUse" x1="29.4754" y1="224.7204" x2="55.8326" y2="179.052">
		<stop  offset="0.3042" style="stop-color:#FFFFFF"/>
		<stop  offset="1" style="stop-color:#EFF2F9"/>
	</linearGradient>
	<polygon id="XMLID_736_" class="st6" points="21,159.7 21,220 63.9,244.7 63.9,184.4 	"/>
	<linearGradient id="XMLID_6_" gradientUnits="userSpaceOnUse" x1="98.0565" y1="229.2225" x2="74.1138" y2="178.6163">
		<stop  offset="0.2776" style="stop-color:#FFFFFF"/>
		<stop  offset="1" style="stop-color:#E7EBF5"/>
	</linearGradient>
	<polygon id="XMLID_735_" class="st7" points="63.9,244.7 106.7,220 106.7,159.7 63.9,184.4 	"/>
</g>
<polygon id="XMLID_733_" class="st0" points="64.4,243.4 8.4,275.7 45.7,297.2 101.6,265 "/>
<linearGradient id="XMLID_7_" gradientUnits="userSpaceOnUse" x1="24.0058" y1="270.3419" x2="86.0554" y2="270.3419">
	<stop  offset="0" style="stop-color:#6CB541"/>
	<stop  offset="1" style="stop-color:#8AC650"/>
</linearGradient>
<polygon id="XMLID_732_" class="st8" points="61.2,252.4 24,273.9 48.8,288.3 86.1,266.8 "/>
<polygon id="XMLID_731_" class="st0" points="26.2,275.2 48.8,288.3 83.9,268 61.2,254.9 "/>
<linearGradient id="XMLID_8_" gradientUnits="userSpaceOnUse" x1="8.425" y1="318.7757" x2="45.7096" y2="318.7757">
	<stop  offset="0.3042" style="stop-color:#FFFFFF"/>
	<stop  offset="1" style="stop-color:#EFF2F9"/>
</linearGradient>
<polygon id="XMLID_730_" class="st9" points="8.4,275.7 8.4,340.3 45.7,361.8 45.7,297.2 "/>
<linearGradient id="XMLID_9_" gradientUnits="userSpaceOnUse" x1="45.7096" y1="313.3943" x2="101.6361" y2="313.3943">
	<stop  offset="0.3042" style="stop-color:#FFFFFF"/>
	<stop  offset="1" style="stop-color:#EFF2F9"/>
</linearGradient>
<polygon id="XMLID_729_" class="st10" points="45.7,361.8 45.7,297.2 101.6,265 101.6,329.5 "/>
<polygon id="XMLID_728_" class="st0" points="16.6,289 22.7,292.5 22.7,343.8 16.6,340.2 "/>
<polygon id="XMLID_727_" class="st0" points="30.5,296.9 36.5,300.4 36.5,351.6 30.5,348.1 "/>
<g id="XMLID_722_">
	<polygon id="XMLID_726_" class="st0" points="78.6,315 45.7,333.9 45.7,341.4 78.6,322.5 	"/>
	<polygon id="XMLID_725_" class="st0" points="85.3,296.9 45.7,319.4 45.7,326.9 85.3,304.4 	"/>
	<polygon id="XMLID_724_" class="st0" points="45.7,304.9 45.7,312.3 92.9,285.1 92.9,277.6 	"/>
	<polygon id="XMLID_723_" class="st0" points="92.9,321.2 45.7,348.4 45.7,355.9 92.9,328.7 	"/>
</g>
<g id="XMLID_718_">
	<polygon id="XMLID_721_" class="st0" points="169.1,243.2 189.7,231.3 210.4,243.2 189.7,255.1 	"/>
	<linearGradient id="XMLID_10_" gradientUnits="userSpaceOnUse" x1="165.2919" y1="306.4648" x2="193.9806" y2="256.7566">
		<stop  offset="0.3042" style="stop-color:#FFFFFF"/>
		<stop  offset="1" style="stop-color:#EFF2F9"/>
	</linearGradient>
	<polygon id="XMLID_720_" class="st11" points="169.1,243.2 169.1,308.8 189.7,320.8 189.7,255.1 	"/>
	<linearGradient id="XMLID_11_" gradientUnits="userSpaceOnUse" x1="213.4402" y1="310.239" x2="188.3784" y2="257.2674">
		<stop  offset="0.2776" style="stop-color:#FFFFFF"/>
		<stop  offset="1" style="stop-color:#E7EBF5"/>
	</linearGradient>
	<polygon id="XMLID_719_" class="st12" points="189.7,320.8 210.4,308.8 210.4,243.2 189.7,255.1 	"/>
</g>
<linearGradient id="XMLID_12_" gradientUnits="userSpaceOnUse" x1="87.7105" y1="165.3356" x2="29.3213" y2="54.332">
	<stop  offset="0" style="stop-color:#5C629E"/>
	<stop  offset="1" style="stop-color:#99A7D8"/>
</linearGradient>
<path id="XMLID_564_" class="st13" d="M44.3,69.1l-0.4,1.8c-0.5,0.3-0.2,2.4-0.2,2.9l0.4,71.8c0,3.5,1.2,6.5,4.2,8.2l27.1,15.7
	c0.4,0.2,1.6,1.2,2.1,1.1l1.2,0.2c2.6-0.9,4.3-3.3,4.3-6.1l0-72c0-3.5-2.5-7.7-5.5-9.5l-25-14.4C49.5,67.1,47.2,67.1,44.3,69.1z"/>
<path id="XMLID_563_" class="st14" d="M48.4,69.3c-3-1.7-5.5-0.3-5.5,3.2l0,73.1c0,3.5,2.5,7.7,5.5,9.5L75,170.4
	c3,1.7,5.5,0.3,5.5-3.2V94.1c0-3.5-2.5-7.7-5.5-9.5L48.4,69.3z"/>
<polygon id="XMLID_562_" class="st0" points="46,81.2 46,140.3 77.4,158.4 77.4,99.3 "/>
<g id="XMLID_561_">
	<linearGradient id="SVGID_1_" gradientUnits="userSpaceOnUse" x1="56.9095" y1="83.3553" x2="66.4796" y2="83.3553">
		<stop  offset="0" style="stop-color:#6CB541"/>
		<stop  offset="1" style="stop-color:#8AC650"/>
	</linearGradient>
	<path class="st15" d="M65.8,86.4c-0.1,0-0.2,0-0.3-0.1l-8.3-4.8c-0.3-0.2-0.4-0.6-0.2-0.9c0.2-0.3,0.6-0.4,0.9-0.2l8.3,4.8
		c0.3,0.2,0.4,0.6,0.2,0.9C66.3,86.3,66.1,86.4,65.8,86.4z"/>
</g>
<linearGradient id="XMLID_13_" gradientUnits="userSpaceOnUse" x1="58.3902" y1="155.6604" x2="64.9986" y2="155.6604">
	<stop  offset="0" style="stop-color:#6CB541"/>
	<stop  offset="1" style="stop-color:#8AC650"/>
</linearGradient>
<path id="XMLID_560_" class="st16" d="M61.7,151.8c-1.8-1.1-3.3-0.2-3.3,1.9c0,2.1,1.5,4.7,3.3,5.8c1.8,1,3.3,0.2,3.3-1.9
	C65,155.5,63.5,152.9,61.7,151.8z"/>
</svg>
