<?xml version="1.0" encoding="utf-8"?>
<!-- Generator: Adobe Illustrator 22.1.0, SVG Export Plug-In . SVG Version: 6.00 Build 0)  -->
<svg version="1.1" id="Layer_1" xmlns="http://www.w3.org/2000/svg" xmlns:xlink="http://www.w3.org/1999/xlink" x="0px" y="0px"
	 viewBox="0 0 326 283.5" style="enable-background:new 0 0 326 283.5;" xml:space="preserve">
<style type="text/css">
	.st0{fill:#FFFFFF;}
</style>
<g>
	<path class="st0" d="M161.8,7.5C87.4,7.5,27,67.8,27,142.3c0,74.4,60.4,134.8,134.8,134.8c74.4,0,134.8-60.4,134.8-134.8
		C296.6,67.8,236.2,7.5,161.8,7.5L161.8,7.5z M233,204.2l-10.8,10.8c-1.9,1.9-7.6,3.1-7.8,3.1c-34.1,0.3-67-13.1-91.2-37.3
		C99,156.6,85.6,123.6,86,89.3c0,0,1.2-5.5,3.2-7.4l10.8-10.8c3.9-4,11.5-5.8,16.8-4l2.3,0.8c5.3,1.8,10.9,7.6,12.3,13l5.4,19.9
		c1.5,5.4-0.5,13.1-4.5,17.1l-7.2,7.2c7.1,26.2,27.6,46.7,53.8,53.8l7.2-7.2c4-4,11.7-5.9,17.1-4.5l19.9,5.4c5.4,1.5,11.3,7,13,12.3
		l0.8,2.3C238.7,192.6,236.9,200.2,233,204.2L233,204.2z M233,204.2"/>
</g>
</svg>
