<?xml version="1.0" encoding="utf-8"?>
<!-- Generator: Adobe Illustrator 22.1.0, SVG Export Plug-In . SVG Version: 6.00 Build 0)  -->
<svg version="1.1" id="Layer_1" xmlns="http://www.w3.org/2000/svg" xmlns:xlink="http://www.w3.org/1999/xlink" x="0px" y="0px"
	 viewBox="0 0 76 84" style="enable-background:new 0 0 76 84;" xml:space="preserve">
<style type="text/css">
	.st0{fill:#FFFFFF;}
</style>
<g>
	<path class="st0" d="M51.4,45.3l-17.6-12c-0.2-0.2-0.6-0.2-0.8,0c-0.3,0.1-0.4,0.4-0.4,0.7v24c0,0.3,0.2,0.6,0.4,0.7
		c0.1,0.1,0.2,0.1,0.4,0.1c0.2,0,0.3,0,0.5-0.1l17.6-12c0.2-0.1,0.4-0.4,0.4-0.7C51.8,45.7,51.7,45.5,51.4,45.3L51.4,45.3z
		 M34.2,56.5v-21L49.6,46L34.2,56.5z M34.2,56.5"/>
	<path class="st0" d="M39,22c-13.2,0-24,10.8-24,24c0,13.2,10.8,24,24,24c13.2,0,24-10.8,24-24C63,32.8,52.2,22,39,22L39,22z
		 M39,68.4c-12.4,0-22.4-10-22.4-22.4c0-12.4,10-22.4,22.4-22.4c12.4,0,22.4,10,22.4,22.4C61.4,58.4,51.4,68.4,39,68.4L39,68.4z
		 M39,68.4"/>
</g>
</svg>
