<?xml version="1.0" encoding="utf-8"?>
<!-- Generator: Adobe Illustrator 22.1.0, SVG Export Plug-In . SVG Version: 6.00 Build 0)  -->
<svg version="1.1" id="Layer_1" xmlns="http://www.w3.org/2000/svg" xmlns:xlink="http://www.w3.org/1999/xlink" x="0px" y="0px"
	 viewBox="0 0 173 239" style="enable-background:new 0 0 173 239;" xml:space="preserve">
<style type="text/css">
	.st0{fill:#F1F2F2;}
	.st1{fill:url(#XMLID_2_);}
	.st2{fill:url(#XMLID_3_);}
	.st3{fill:url(#XMLID_4_);}
	.st4{fill:#BCBEC0;}
	.st5{fill:url(#XMLID_5_);}
	.st6{fill:url(#XMLID_6_);}
	.st7{opacity:0.79;}
	.st8{opacity:0;fill:#FFFFFF;}
	.st9{opacity:2.439000e-02;fill:#FBFBFB;}
	.st10{opacity:4.878000e-02;fill:#F6F6F8;}
	.st11{opacity:7.317100e-02;fill:#F2F2F4;}
	.st12{opacity:9.756100e-02;fill:#EDEDF0;}
	.st13{opacity:0.122;fill:#E9E9ED;}
	.st14{opacity:0.1463;fill:#E4E4E9;}
	.st15{opacity:0.1707;fill:#E0E0E6;}
	.st16{opacity:0.1951;fill:#DBDBE2;}
	.st17{opacity:0.2195;fill:#D7D7DE;}
	.st18{opacity:0.2439;fill:#D2D2DB;}
	.st19{opacity:0.2683;fill:#CECED7;}
	.st20{opacity:0.2927;fill:#C9C9D3;}
	.st21{opacity:0.3171;fill:#C5C5D0;}
	.st22{opacity:0.3415;fill:#C1C1CC;}
	.st23{opacity:0.3659;fill:#BCBCC8;}
	.st24{opacity:0.3902;fill:#B8B8C5;}
	.st25{opacity:0.4146;fill:#B3B3C1;}
	.st26{opacity:0.439;fill:#AFAFBE;}
	.st27{opacity:0.4634;fill:#AAAABA;}
	.st28{opacity:0.4878;fill:#A6A6B6;}
	.st29{opacity:0.5122;fill:#A1A1B3;}
	.st30{opacity:0.5366;fill:#9D9DAF;}
	.st31{opacity:0.561;fill:#9898AB;}
	.st32{opacity:0.5854;fill:#9494A8;}
	.st33{opacity:0.6098;fill:#8F8FA4;}
	.st34{opacity:0.6341;fill:#8B8BA1;}
	.st35{opacity:0.6585;fill:#86869D;}
	.st36{opacity:0.6829;fill:#828299;}
	.st37{opacity:0.7073;fill:#7E7E96;}
	.st38{opacity:0.7317;fill:#797992;}
	.st39{opacity:0.7561;fill:#75758E;}
	.st40{opacity:0.7805;fill:#70708B;}
	.st41{opacity:0.8049;fill:#6C6C87;}
	.st42{opacity:0.8293;fill:#676783;}
	.st43{opacity:0.8537;fill:#636380;}
	.st44{opacity:0.878;fill:#5E5E7C;}
	.st45{opacity:0.9024;fill:#5A5A79;}
	.st46{opacity:0.9268;fill:#555575;}
	.st47{opacity:0.9512;fill:#515171;}
	.st48{opacity:0.9756;fill:#4C4C6E;}
	.st49{fill:#8BC53F;}
	.st50{fill:#009F36;}
	.st51{fill:#FFEB74;}
	.st52{fill:#FAC466;}
</style>
<g id="XMLID_1277_">
	<polygon id="XMLID_1280_" class="st0" points="12.7,25 42,8.1 71.2,25 42,41.9 	"/>
	<linearGradient id="XMLID_2_" gradientUnits="userSpaceOnUse" x1="6.9724" y1="116.0544" x2="48.3222" y2="44.4087">
		<stop  offset="0.3042" style="stop-color:#FFFFFF"/>
		<stop  offset="1" style="stop-color:#EFF2F9"/>
	</linearGradient>
	<polygon id="XMLID_1279_" class="st1" points="12.7,25 12.7,119.6 42,136.5 42,41.9 	"/>
	<linearGradient id="XMLID_3_" gradientUnits="userSpaceOnUse" x1="75.8681" y1="121.4729" x2="39.7648" y2="45.1636">
		<stop  offset="0.2776" style="stop-color:#FFFFFF"/>
		<stop  offset="1" style="stop-color:#E7EBF5"/>
	</linearGradient>
	<polygon id="XMLID_1278_" class="st2" points="42,136.5 71.2,119.6 71.2,25 42,41.9 	"/>
</g>
<polygon id="XMLID_1276_" class="st0" points="98.9,61.4 51.7,88.6 114.7,124.6 161.8,97.4 "/>
<linearGradient id="XMLID_4_" gradientUnits="userSpaceOnUse" x1="83.0788" y1="96.688" x2="130.3982" y2="96.688">
	<stop  offset="0" style="stop-color:#6CB541"/>
	<stop  offset="1" style="stop-color:#8AC650"/>
</linearGradient>
<polygon id="XMLID_1275_" class="st3" points="103.4,83.1 83.1,91.1 83.1,94.8 110.2,110.3 130.4,98.6 130.4,94.9 "/>
<polygon id="XMLID_1274_" class="st0" points="103.4,79.4 83.1,91.1 110.2,106.6 130.4,94.9 "/>
<polygon id="XMLID_1273_" class="st4" points="51.7,88.6 51.7,143.1 114.6,179.4 114.7,124.6 "/>
<polygon id="XMLID_1272_" class="st4" points="114.6,179.4 161.8,152.2 161.8,97.4 114.7,124.6 "/>
<polygon id="XMLID_1271_" class="st0" points="56.1,99.8 56.1,108.9 63.7,113.3 63.7,104.2 "/>
<polygon id="XMLID_1270_" class="st0" points="67.4,106.6 67.4,115.6 75,120 75,110.9 "/>
<polygon id="XMLID_1269_" class="st0" points="78.8,113.3 78.8,122.4 86.4,126.8 86.4,117.7 "/>
<polygon id="XMLID_1268_" class="st0" points="90.2,120 90.2,129.1 97.8,133.5 97.8,124.4 "/>
<polygon id="XMLID_1267_" class="st0" points="101.5,126.8 101.5,135.8 109.1,140.2 109.1,131.1 "/>
<polygon id="XMLID_1266_" class="st0" points="56.1,114.5 56.1,123.6 63.7,128 63.7,118.9 "/>
<polygon id="XMLID_1265_" class="st0" points="67.4,121.3 67.4,130.4 75,134.7 75,125.7 "/>
<polygon id="XMLID_1264_" class="st0" points="78.8,128 78.8,137.1 86.4,141.5 86.4,132.4 "/>
<polygon id="XMLID_1263_" class="st0" points="90.2,134.7 90.2,143.8 97.8,148.2 97.8,139.1 "/>
<polygon id="XMLID_1262_" class="st0" points="101.5,141.5 101.5,150.6 109.1,154.9 109.1,145.9 "/>
<polygon id="XMLID_1261_" class="st0" points="56.1,129.3 56.1,138.3 63.7,142.7 63.7,133.7 "/>
<polygon id="XMLID_1260_" class="st0" points="67.4,136 67.4,145.1 75,149.5 75,140.4 "/>
<polygon id="XMLID_1259_" class="st0" points="78.8,142.7 78.8,151.8 86.4,156.2 86.4,147.1 "/>
<polygon id="XMLID_1258_" class="st0" points="90.2,149.5 90.2,158.5 97.8,162.9 97.8,153.8 "/>
<polygon id="XMLID_1257_" class="st0" points="101.5,156.2 101.5,165.3 109.1,169.7 109.1,160.6 "/>
<polygon id="XMLID_1256_" class="st0" points="159.3,106.6 159.3,115.6 151.7,120 151.7,110.9 "/>
<polygon id="XMLID_1255_" class="st0" points="147.9,113.3 147.9,122.4 140.3,126.8 140.3,117.7 "/>
<polygon id="XMLID_1254_" class="st0" points="136.6,120 136.6,129.1 129,133.5 129,124.4 "/>
<polygon id="XMLID_1253_" class="st0" points="125.2,126.8 125.2,135.8 117.6,140.2 117.6,131.1 "/>
<polygon id="XMLID_1252_" class="st0" points="159.3,121.3 159.3,130.4 151.7,134.7 151.7,125.7 "/>
<polygon id="XMLID_1251_" class="st0" points="147.9,128 147.9,137.1 140.3,141.5 140.3,132.4 "/>
<polygon id="XMLID_1250_" class="st0" points="136.6,134.7 136.6,143.8 129,148.2 129,139.1 "/>
<polygon id="XMLID_1249_" class="st0" points="125.2,141.5 125.2,150.6 117.6,154.9 117.6,145.9 "/>
<polygon id="XMLID_1248_" class="st0" points="159.3,136 159.3,145.1 151.7,149.5 151.7,140.4 "/>
<polygon id="XMLID_1247_" class="st0" points="147.9,142.7 147.9,151.8 140.3,156.2 140.3,147.1 "/>
<polygon id="XMLID_1246_" class="st0" points="136.6,149.5 136.6,158.5 129,162.9 129,153.8 "/>
<polygon id="XMLID_1245_" class="st0" points="125.2,156.2 125.2,165.3 117.6,169.7 117.6,160.6 "/>
<g id="XMLID_1241_">
	<polygon id="XMLID_1244_" class="st0" points="30.3,145.6 54.2,131.9 78,145.6 54.2,159.4 	"/>
	<linearGradient id="XMLID_5_" gradientUnits="userSpaceOnUse" x1="25.9393" y1="218.6783" x2="59.069" y2="161.2753">
		<stop  offset="0.3042" style="stop-color:#FFFFFF"/>
		<stop  offset="1" style="stop-color:#EFF2F9"/>
	</linearGradient>
	<polygon id="XMLID_1243_" class="st5" points="30.3,145.6 30.3,221.4 54.2,235.2 54.2,159.4 	"/>
	<linearGradient id="XMLID_6_" gradientUnits="userSpaceOnUse" x1="81.5411" y1="223.0368" x2="52.5997" y2="161.8652">
		<stop  offset="0.2776" style="stop-color:#FFFFFF"/>
		<stop  offset="0.5703" style="stop-color:#FAFBFD"/>
		<stop  offset="0.9218" style="stop-color:#EBEFF7"/>
		<stop  offset="1" style="stop-color:#E7EBF5"/>
	</linearGradient>
	<polygon id="XMLID_1242_" class="st6" points="54.2,235.2 78,221.4 78,145.6 54.2,159.4 	"/>
</g>
<g>
	<g class="st7">
		<path id="XMLID_235_" class="st8" d="M37.9,147.5c-0.7-0.4-0.7-1.1,0-1.5l14.2-8.2c0.7-0.4,1.9-0.4,2.6,0l14.2,8.2
			c0.7,0.4,0.7,1.1,0,1.5l-14.2,8.2c-0.7,0.4-1.9,0.4-2.6,0L37.9,147.5z"/>
		<path class="st9" d="M38,147.5c-0.7-0.4-0.7-1.1,0-1.5l14-8.1c0.7-0.4,1.9-0.4,2.6,0l14,8.1c0.7,0.4,0.7,1.1,0,1.5l-14,8.1
			c-0.7,0.4-1.9,0.4-2.6,0L38,147.5z"/>
		<path class="st10" d="M38.1,147.5c-0.7-0.4-0.7-1.1,0-1.5l13.9-8c0.7-0.4,1.8-0.4,2.5,0l13.9,8c0.7,0.4,0.7,1.1,0,1.5l-13.9,8
			c-0.7,0.4-1.8,0.4-2.5,0L38.1,147.5z"/>
		<path class="st11" d="M38.3,147.5c-0.7-0.4-0.7-1.1,0-1.5l13.8-8c0.7-0.4,1.8-0.4,2.5,0l13.8,8c0.7,0.4,0.7,1.1,0,1.5l-13.8,8
			c-0.7,0.4-1.8,0.4-2.5,0L38.3,147.5z"/>
		<path class="st12" d="M38.4,147.5c-0.7-0.4-0.7-1,0-1.4l13.7-7.9c0.7-0.4,1.8-0.4,2.5,0l13.7,7.9c0.7,0.4,0.7,1,0,1.4l-13.7,7.9
			c-0.7,0.4-1.8,0.4-2.5,0L38.4,147.5z"/>
		<path class="st13" d="M38.5,147.5c-0.7-0.4-0.7-1,0-1.4l13.6-7.8c0.7-0.4,1.8-0.4,2.5,0l13.6,7.8c0.7,0.4,0.7,1,0,1.4l-13.6,7.8
			c-0.7,0.4-1.8,0.4-2.5,0L38.5,147.5z"/>
		<path class="st14" d="M38.6,147.5c-0.7-0.4-0.7-1,0-1.4l13.4-7.8c0.7-0.4,1.8-0.4,2.5,0l13.4,7.8c0.7,0.4,0.7,1,0,1.4l-13.4,7.8
			c-0.7,0.4-1.8,0.4-2.5,0L38.6,147.5z"/>
		<path class="st15" d="M38.8,147.5c-0.7-0.4-0.7-1,0-1.4l13.3-7.7c0.7-0.4,1.8-0.4,2.4,0l13.3,7.7c0.7,0.4,0.7,1,0,1.4l-13.3,7.7
			c-0.7,0.4-1.8,0.4-2.4,0L38.8,147.5z"/>
		<path class="st16" d="M38.9,147.5c-0.7-0.4-0.7-1,0-1.4l13.2-7.6c0.7-0.4,1.8-0.4,2.4,0l13.2,7.6c0.7,0.4,0.7,1,0,1.4l-13.2,7.6
			c-0.7,0.4-1.8,0.4-2.4,0L38.9,147.5z"/>
		<path class="st17" d="M39,147.5c-0.7-0.4-0.7-1,0-1.4l13.1-7.6c0.7-0.4,1.7-0.4,2.4,0l13.1,7.6c0.7,0.4,0.7,1,0,1.4L54.5,155
			c-0.7,0.4-1.7,0.4-2.4,0L39,147.5z"/>
		<path class="st18" d="M39.2,147.5c-0.7-0.4-0.7-1,0-1.4l13-7.5c0.7-0.4,1.7-0.4,2.4,0l13,7.5c0.7,0.4,0.7,1,0,1.4l-13,7.5
			c-0.7,0.4-1.7,0.4-2.4,0L39.2,147.5z"/>
		<path class="st19" d="M39.3,147.5c-0.6-0.4-0.6-1,0-1.4l12.9-7.4c0.6-0.4,1.7-0.4,2.3,0l12.9,7.4c0.6,0.4,0.6,1,0,1.4l-12.9,7.4
			c-0.6,0.4-1.7,0.4-2.3,0L39.3,147.5z"/>
		<path class="st20" d="M39.4,147.5c-0.6-0.4-0.6-1,0-1.3l12.7-7.4c0.6-0.4,1.7-0.4,2.3,0l12.7,7.4c0.6,0.4,0.6,1,0,1.3l-12.7,7.4
			c-0.6,0.4-1.7,0.4-2.3,0L39.4,147.5z"/>
		<path class="st21" d="M39.6,147.5c-0.6-0.4-0.6-1,0-1.3l12.6-7.3c0.6-0.4,1.7-0.4,2.3,0l12.6,7.3c0.6,0.4,0.6,1,0,1.3l-12.6,7.3
			c-0.6,0.4-1.7,0.4-2.3,0L39.6,147.5z"/>
		<path class="st22" d="M39.7,147.5c-0.6-0.4-0.6-1,0-1.3l12.5-7.2c0.6-0.4,1.7-0.4,2.3,0l12.5,7.2c0.6,0.4,0.6,1,0,1.3l-12.5,7.2
			c-0.6,0.4-1.7,0.4-2.3,0L39.7,147.5z"/>
		<path class="st23" d="M39.8,147.4c-0.6-0.4-0.6-0.9,0-1.3l12.4-7.1c0.6-0.4,1.6-0.4,2.3,0l12.4,7.1c0.6,0.4,0.6,0.9,0,1.3
			l-12.4,7.1c-0.6,0.4-1.6,0.4-2.3,0L39.8,147.4z"/>
		<path class="st24" d="M39.9,147.4c-0.6-0.4-0.6-0.9,0-1.3l12.3-7.1c0.6-0.4,1.6-0.4,2.2,0l12.3,7.1c0.6,0.4,0.6,0.9,0,1.3
			l-12.3,7.1c-0.6,0.4-1.6,0.4-2.2,0L39.9,147.4z"/>
		<path class="st25" d="M40.1,147.4c-0.6-0.4-0.6-0.9,0-1.3l12.1-7c0.6-0.4,1.6-0.4,2.2,0l12.1,7c0.6,0.4,0.6,0.9,0,1.3l-12.1,7
			c-0.6,0.4-1.6,0.4-2.2,0L40.1,147.4z"/>
		<path class="st26" d="M40.2,147.4c-0.6-0.3-0.6-0.9,0-1.3l12-6.9c0.6-0.3,1.6-0.3,2.2,0l12,6.9c0.6,0.3,0.6,0.9,0,1.3l-12,6.9
			c-0.6,0.3-1.6,0.3-2.2,0L40.2,147.4z"/>
		<path class="st27" d="M40.3,147.4c-0.6-0.3-0.6-0.9,0-1.3l11.9-6.9c0.6-0.3,1.6-0.3,2.2,0l11.9,6.9c0.6,0.3,0.6,0.9,0,1.3
			l-11.9,6.9c-0.6,0.3-1.6,0.3-2.2,0L40.3,147.4z"/>
		<path class="st28" d="M40.5,147.4c-0.6-0.3-0.6-0.9,0-1.2l11.8-6.8c0.6-0.3,1.6-0.3,2.2,0l11.8,6.8c0.6,0.3,0.6,0.9,0,1.2
			l-11.8,6.8c-0.6,0.3-1.6,0.3-2.2,0L40.5,147.4z"/>
		<path class="st29" d="M40.6,147.4c-0.6-0.3-0.6-0.9,0-1.2l11.7-6.7c0.6-0.3,1.5-0.3,2.1,0l11.7,6.7c0.6,0.3,0.6,0.9,0,1.2
			l-11.7,6.7c-0.6,0.3-1.5,0.3-2.1,0L40.6,147.4z"/>
		<path class="st30" d="M40.7,147.4c-0.6-0.3-0.6-0.9,0-1.2l11.5-6.7c0.6-0.3,1.5-0.3,2.1,0l11.5,6.7c0.6,0.3,0.6,0.9,0,1.2
			l-11.5,6.7c-0.6,0.3-1.5,0.3-2.1,0L40.7,147.4z"/>
		<path class="st31" d="M40.9,147.4c-0.6-0.3-0.6-0.9,0-1.2l11.4-6.6c0.6-0.3,1.5-0.3,2.1,0l11.4,6.6c0.6,0.3,0.6,0.9,0,1.2
			L54.4,154c-0.6,0.3-1.5,0.3-2.1,0L40.9,147.4z"/>
		<path class="st32" d="M41,147.4c-0.6-0.3-0.6-0.9,0-1.2l11.3-6.5c0.6-0.3,1.5-0.3,2.1,0l11.3,6.5c0.6,0.3,0.6,0.9,0,1.2l-11.3,6.5
			c-0.6,0.3-1.5,0.3-2.1,0L41,147.4z"/>
		<path class="st33" d="M41.1,147.4c-0.6-0.3-0.6-0.9,0-1.2l11.2-6.5c0.6-0.3,1.5-0.3,2,0l11.2,6.5c0.6,0.3,0.6,0.9,0,1.2l-11.2,6.5
			c-0.6,0.3-1.5,0.3-2,0L41.1,147.4z"/>
		<path class="st34" d="M41.3,147.4c-0.6-0.3-0.6-0.8,0-1.2l11.1-6.4c0.6-0.3,1.5-0.3,2,0l11.1,6.4c0.6,0.3,0.6,0.8,0,1.2l-11.1,6.4
			c-0.6,0.3-1.5,0.3-2,0L41.3,147.4z"/>
		<path class="st35" d="M41.4,147.4c-0.5-0.3-0.5-0.8,0-1.2l10.9-6.3c0.5-0.3,1.4-0.3,2,0l10.9,6.3c0.5,0.3,0.5,0.8,0,1.2l-10.9,6.3
			c-0.5,0.3-1.4,0.3-2,0L41.4,147.4z"/>
		<path class="st36" d="M41.5,147.4c-0.5-0.3-0.5-0.8,0-1.1l10.8-6.2c0.5-0.3,1.4-0.3,2,0l10.8,6.2c0.5,0.3,0.5,0.8,0,1.1l-10.8,6.2
			c-0.5,0.3-1.4,0.3-2,0L41.5,147.4z"/>
		<path class="st37" d="M41.6,147.4c-0.5-0.3-0.5-0.8,0-1.1l10.7-6.2c0.5-0.3,1.4-0.3,2,0l10.7,6.2c0.5,0.3,0.5,0.8,0,1.1l-10.7,6.2
			c-0.5,0.3-1.4,0.3-2,0L41.6,147.4z"/>
		<path class="st38" d="M41.8,147.4c-0.5-0.3-0.5-0.8,0-1.1l10.6-6.1c0.5-0.3,1.4-0.3,1.9,0l10.6,6.1c0.5,0.3,0.5,0.8,0,1.1
			l-10.6,6.1c-0.5,0.3-1.4,0.3-1.9,0L41.8,147.4z"/>
		<path class="st39" d="M41.9,147.3c-0.5-0.3-0.5-0.8,0-1.1l10.5-6c0.5-0.3,1.4-0.3,1.9,0l10.5,6c0.5,0.3,0.5,0.8,0,1.1l-10.5,6
			c-0.5,0.3-1.4,0.3-1.9,0L41.9,147.3z"/>
		<path class="st40" d="M42,147.3c-0.5-0.3-0.5-0.8,0-1.1l10.3-6c0.5-0.3,1.4-0.3,1.9,0l10.3,6c0.5,0.3,0.5,0.8,0,1.1l-10.3,6
			c-0.5,0.3-1.4,0.3-1.9,0L42,147.3z"/>
		<path class="st41" d="M42.2,147.3c-0.5-0.3-0.5-0.8,0-1.1l10.2-5.9c0.5-0.3,1.4-0.3,1.9,0l10.2,5.9c0.5,0.3,0.5,0.8,0,1.1
			l-10.2,5.9c-0.5,0.3-1.4,0.3-1.9,0L42.2,147.3z"/>
		<path class="st42" d="M42.3,147.3c-0.5-0.3-0.5-0.8,0-1.1l10.1-5.8c0.5-0.3,1.3-0.3,1.8,0l10.1,5.8c0.5,0.3,0.5,0.8,0,1.1
			l-10.1,5.8c-0.5,0.3-1.3,0.3-1.8,0L42.3,147.3z"/>
		<path class="st43" d="M42.4,147.3c-0.5-0.3-0.5-0.8,0-1.1l10-5.8c0.5-0.3,1.3-0.3,1.8,0l10,5.8c0.5,0.3,0.5,0.8,0,1.1l-10,5.8
			c-0.5,0.3-1.3,0.3-1.8,0L42.4,147.3z"/>
		<path class="st44" d="M42.6,147.3c-0.5-0.3-0.5-0.8,0-1l9.9-5.7c0.5-0.3,1.3-0.3,1.8,0l9.9,5.7c0.5,0.3,0.5,0.8,0,1l-9.9,5.7
			c-0.5,0.3-1.3,0.3-1.8,0L42.6,147.3z"/>
		<path class="st45" d="M42.7,147.3c-0.5-0.3-0.5-0.7,0-1l9.7-5.6c0.5-0.3,1.3-0.3,1.8,0l9.7,5.6c0.5,0.3,0.5,0.7,0,1l-9.7,5.6
			c-0.5,0.3-1.3,0.3-1.8,0L42.7,147.3z"/>
		<path class="st46" d="M42.8,147.3c-0.5-0.3-0.5-0.7,0-1l9.6-5.6c0.5-0.3,1.3-0.3,1.8,0l9.6,5.6c0.5,0.3,0.5,0.7,0,1l-9.6,5.6
			c-0.5,0.3-1.3,0.3-1.8,0L42.8,147.3z"/>
		<path class="st47" d="M42.9,147.3c-0.5-0.3-0.5-0.7,0-1l9.5-5.5c0.5-0.3,1.3-0.3,1.7,0l9.5,5.5c0.5,0.3,0.5,0.7,0,1l-9.5,5.5
			c-0.5,0.3-1.3,0.3-1.7,0L42.9,147.3z"/>
		<path class="st48" d="M43.1,147.3c-0.5-0.3-0.5-0.7,0-1l9.4-5.4c0.5-0.3,1.2-0.3,1.7,0l9.4,5.4c0.5,0.3,0.5,0.7,0,1l-9.4,5.4
			c-0.5,0.3-1.2,0.3-1.7,0L43.1,147.3z"/>
		<path id="XMLID_234_" class="st49" d="M43.2,147.3c-0.5-0.3-0.5-0.7,0-1l9.3-5.3c0.5-0.3,1.2-0.3,1.7,0l9.3,5.3
			c0.5,0.3,0.5,0.7,0,1l-9.3,5.3c-0.5,0.3-1.2,0.3-1.7,0L43.2,147.3z"/>
	</g>
	<polygon id="XMLID_233_" class="st49" points="40.3,131.8 53.1,124.4 66,131.8 53.1,139.2 	"/>
	<polygon id="XMLID_232_" class="st49" points="40.3,131.8 40.3,146.6 53.1,154 53.1,139.2 	"/>
	<polygon id="XMLID_231_" class="st49" points="53.1,154 66,146.6 66,131.8 53.1,139.2 	"/>
	<polygon id="XMLID_230_" class="st50" points="45.4,149.6 45.4,134.8 48,136.3 48,151.1 	"/>
	<polygon id="XMLID_229_" class="st50" points="45.4,134.8 58.3,127.4 60.9,128.8 48,136.3 	"/>
	<polygon id="XMLID_228_" class="st50" points="45.5,128.8 58.3,136.3 60.8,134.7 48.1,127.3 	"/>
	<polygon id="XMLID_227_" class="st50" points="58.3,136.3 58.3,151.1 60.8,149.6 60.8,134.7 	"/>
	<path id="XMLID_226_" class="st50" d="M59.9,131.6L59.9,131.6c-1-0.6-2.2-0.9-3.4-0.8l-2.4,0.3l-1.9,1l5.3,2.9l2.4-1.1
		C60.7,133.3,60.8,132.1,59.9,131.6z"/>
	<path id="XMLID_225_" class="st50" d="M53.3,128.9c-0.5-1.1-1.3-2-2.3-2.6c-0.4-0.2-0.8-0.2-1.2-0.1l0,0l0,0c0,0-0.1,0-0.1,0l-2,1
		l4.5,4.8l1.9-1L53.3,128.9z"/>
	<path id="XMLID_224_" class="st51" d="M52.2,132.1l-4.5-2.6c-0.4-0.2-0.6-0.7-0.6-1.1l0,0c0-1,1.1-1.6,1.9-1.1l0,0
		c1,0.6,1.8,1.5,2.3,2.6L52.2,132.1z"/>
	<path id="XMLID_218_" class="st52" d="M52.2,132.1l-4.5-2.6c-0.4-0.2-0.6-0.7-0.6-1.1l0,0c0-1,1.1-1.6,1.9-1.1l0,0
		c1,0.6,1.8,1.5,2.3,2.6L52.2,132.1z"/>
	<path id="XMLID_217_" class="st50" d="M47.8,129.3c-0.3-0.2-0.6-0.6-0.6-1c0-0.7,0.6-1.1,1.1-1.1c0.2,0,0.4,0.1,0.6,0.2
		c1,0.6,1.8,1.5,2.2,2.5l0.7,1.7L47.8,129.3z"/>
	<path id="XMLID_216_" class="st52" d="M52.2,132.1l4.4,2.7c0.4,0.2,0.9,0.2,1.3,0l0,0c0.9-0.5,0.9-1.7,0-2.2l0,0
		c-1-0.6-2.2-0.9-3.4-0.8L52.2,132.1z"/>
	<path id="XMLID_215_" class="st50" d="M57.3,134.8c-0.2,0-0.4-0.1-0.6-0.2l-4-2.4l1.8-0.2c0.2,0,0.4,0,0.6,0c1,0,1.9,0.3,2.7,0.8
		c0.3,0.2,0.5,0.6,0.5,1c0,0.4-0.2,0.8-0.6,0.9C57.7,134.7,57.5,134.8,57.3,134.8L57.3,134.8z"/>
</g>
</svg>
