<?xml version="1.0" encoding="utf-8"?>
<!-- Generator: Adobe Illustrator 22.1.0, SVG Export Plug-In . SVG Version: 6.00 Build 0)  -->
<svg version="1.1" id="Layer_1" xmlns="http://www.w3.org/2000/svg" xmlns:xlink="http://www.w3.org/1999/xlink" x="0px" y="0px"
	 viewBox="0 0 173 183" style="enable-background:new 0 0 173 183;" xml:space="preserve">
<style type="text/css">
	.st0{fill:#F1F2F2;}
	.st1{fill:url(#XMLID_2_);}
	.st2{fill:url(#XMLID_4_);}
	.st3{fill:#BCBEC0;}
	.st4{fill:#8BC53F;}
	.st5{fill:#D6DCEF;}
	.st6{fill:#009F36;}
	.st7{fill:url(#XMLID_5_);}
	.st8{fill:#414042;}
	.st9{fill:url(#XMLID_6_);}
	.st10{fill:url(#XMLID_7_);}
	.st11{fill:url(#XMLID_8_);}
	.st12{fill:#E6E7E8;}
	.st13{fill:url(#XMLID_9_);}
	.st14{fill:url(#XMLID_10_);}
	.st15{fill:url(#XMLID_11_);}
	.st16{fill:url(#XMLID_12_);}
</style>
<g>
	<polygon id="XMLID_1240_" class="st0" points="45,58.3 12.6,77 55.8,101.7 88.1,83 	"/>
	<polygon id="XMLID_1239_" class="st0" points="48,73.2 34.1,78.7 34.1,81.3 52.7,91.9 66.6,83.8 66.6,81.3 	"/>
	<linearGradient id="XMLID_2_" gradientUnits="userSpaceOnUse" x1="34.1224" y1="79.9963" x2="66.5758" y2="79.9963">
		<stop  offset="0" style="stop-color:#6CB541"/>
		<stop  offset="1" style="stop-color:#8AC650"/>
	</linearGradient>
	<polygon id="XMLID_1238_" class="st1" points="48,70.7 34.1,78.7 52.7,89.3 66.6,81.3 	"/>
	<polygon id="XMLID_1237_" class="st0" points="12.6,77 12.6,114.4 55.7,139.3 55.8,101.7 	"/>
	<polygon id="XMLID_1236_" class="st0" points="55.7,139.3 88.1,120.6 88.1,83 55.8,101.7 	"/>
	<polygon id="XMLID_1235_" class="st0" points="12.6,89.5 55.8,114.2 55.8,108 12.6,83.2 	"/>
	<polygon id="XMLID_1234_" class="st0" points="12.5,101.9 55.7,126.6 55.7,120.4 12.5,95.6 	"/>
	<polygon id="XMLID_1233_" class="st0" points="88.1,89.5 55.8,108 55.8,114.2 88.1,95.7 	"/>
	<polygon id="XMLID_1232_" class="st0" points="88.1,102 55.9,120.4 55.9,126.6 88.1,108.2 	"/>
</g>
<g>
	<polygon id="XMLID_1231_" class="st0" points="116.8,107.6 89.5,123.3 125.9,144.1 153.1,128.4 	"/>
	<linearGradient id="XMLID_4_" gradientUnits="userSpaceOnUse" x1="107.6396" y1="127.9658" x2="134.9931" y2="127.9658">
		<stop  offset="0" style="stop-color:#6CB541"/>
		<stop  offset="1" style="stop-color:#8AC650"/>
	</linearGradient>
	<polygon id="XMLID_1230_" class="st2" points="119.4,120.1 107.6,124.7 107.6,126.9 123.3,135.8 135,129.1 135,126.9 	"/>
	<polygon id="XMLID_1229_" class="st0" points="119.4,118 107.6,124.7 123.3,133.7 135,126.9 	"/>
	<polygon id="XMLID_1228_" class="st3" points="89.5,123.3 89.5,154.8 125.9,175.8 125.9,144.1 	"/>
	<polygon id="XMLID_1227_" class="st3" points="125.9,175.8 153.1,160 153.1,128.4 125.9,144.1 	"/>
	<polygon id="XMLID_1226_" class="st0" points="92,129.8 92,135 96.4,137.6 96.4,132.3 	"/>
	<polygon id="XMLID_1225_" class="st0" points="98.6,133.7 98.6,138.9 103,141.5 103,136.2 	"/>
	<polygon id="XMLID_1224_" class="st0" points="105.2,137.6 105.2,142.8 109.6,145.3 109.6,140.1 	"/>
	<polygon id="XMLID_1223_" class="st0" points="111.7,141.5 111.7,146.7 116.1,149.2 116.1,144 	"/>
	<polygon id="XMLID_1222_" class="st0" points="118.3,145.3 118.3,150.6 122.7,153.1 122.7,147.9 	"/>
	<polygon id="XMLID_1221_" class="st0" points="92,138.3 92,143.5 96.4,146.1 96.4,140.8 	"/>
	<polygon id="XMLID_1220_" class="st0" points="98.6,142.2 98.6,147.4 103,150 103,144.7 	"/>
	<polygon id="XMLID_1219_" class="st0" points="105.2,146.1 105.2,151.3 109.6,153.9 109.6,148.6 	"/>
	<polygon id="XMLID_1218_" class="st0" points="111.7,150 111.7,155.2 116.1,157.7 116.1,152.5 	"/>
	<polygon id="XMLID_1217_" class="st0" points="118.3,153.9 118.3,159.1 122.7,161.6 122.7,156.4 	"/>
	<polygon id="XMLID_1216_" class="st0" points="92,146.8 92,152 96.4,154.6 96.4,149.3 	"/>
	<polygon id="XMLID_1215_" class="st0" points="98.6,150.7 98.6,155.9 103,158.5 103,153.2 	"/>
	<polygon id="XMLID_1214_" class="st0" points="105.2,154.6 105.2,159.8 109.6,162.4 109.6,157.1 	"/>
	<polygon id="XMLID_1213_" class="st0" points="111.7,158.5 111.7,163.7 116.1,166.3 116.1,161 	"/>
	<polygon id="XMLID_1212_" class="st0" points="118.3,162.4 118.3,167.6 122.7,170.1 122.7,164.9 	"/>
	<polygon id="XMLID_1211_" class="st0" points="151.7,133.7 151.7,138.9 147.3,141.5 147.3,136.2 	"/>
	<polygon id="XMLID_1210_" class="st0" points="145.1,137.6 145.1,142.8 140.7,145.3 140.7,140.1 	"/>
	<polygon id="XMLID_1209_" class="st0" points="138.6,141.5 138.6,146.7 134.2,149.2 134.2,144 	"/>
	<polygon id="XMLID_1208_" class="st0" points="132,145.3 132,150.6 127.6,153.1 127.6,147.9 	"/>
	<polygon id="XMLID_1207_" class="st0" points="151.7,142.2 151.7,147.4 147.3,150 147.3,144.7 	"/>
	<polygon id="XMLID_1206_" class="st0" points="145.1,146.1 145.1,151.3 140.7,153.9 140.7,148.6 	"/>
	<polygon id="XMLID_1205_" class="st0" points="138.6,150 138.6,155.2 134.2,157.7 134.2,152.5 	"/>
	<polygon id="XMLID_1204_" class="st0" points="132,153.9 132,159.1 127.6,161.6 127.6,156.4 	"/>
	<polygon id="XMLID_1203_" class="st0" points="151.7,150.7 151.7,155.9 147.3,158.5 147.3,153.2 	"/>
	<polygon id="XMLID_1202_" class="st0" points="145.1,154.6 145.1,159.8 140.7,162.4 140.7,157.1 	"/>
	<polygon id="XMLID_1201_" class="st0" points="138.6,158.5 138.6,163.7 134.2,166.3 134.2,161 	"/>
	<polygon id="XMLID_1200_" class="st0" points="132,162.4 132,167.6 127.6,170.1 127.6,164.9 	"/>
</g>
<g>
	<rect x="104.4" y="33.3" class="st4" width="1" height="58.4"/>
</g>
<g>
	<polygon class="st4" points="82.6,78.5 81.7,78.3 104.9,30.6 128.2,78.3 127.3,78.5 104.9,32.8 	"/>
</g>
<polygon class="st4" points="83.8,44.3 83.7,45.5 102,39.8 101.3,36.8 "/>
<polygon class="st4" points="126.6,44.3 126.6,45.5 108.4,39.8 109,36.8 "/>
<polygon id="XMLID_101_" class="st4" points="127,25.1 127.9,25.1 129.2,17.7 125.7,17.7 "/>
<polygon id="XMLID_100_" class="st4" points="82.9,25.1 81.9,25.1 80.6,17.7 84.2,17.7 "/>
<polygon class="st4" points="82.2,20.2 82.2,21.4 96,32.5 98,30.4 "/>
<polygon class="st4" points="127.9,20.2 127.9,21.4 114.1,32.5 112.1,30.4 "/>
<g id="XMLID_98_">
	<rect id="XMLID_99_" x="104.7" y="40.6" class="st5" width="1.3" height="2.4"/>
</g>
<path id="XMLID_3_" class="st4" d="M95.3,31.7v6.7l0,0c6.2,3.6,13.8,3.6,20,0.1l0,0v-6.5L95.3,31.7z"/>
<polygon id="XMLID_96_" class="st6" points="81.7,18.4 75.1,22.2 74,21.6 77.4,18.4 81.7,17.5 "/>
<polygon id="XMLID_95_" class="st6" points="90.8,13.7 84.2,17.5 83.1,16.9 86.5,13.6 89.9,12.9 "/>
<path id="XMLID_94_" class="st4" d="M83.6,16.8c-0.7-0.4-1.8-0.4-2.5,0c-0.7,0.4-0.7,1.1,0,1.5c0.7,0.4,1.8,0.4,2.5,0
	C84.3,17.8,84.3,17.2,83.6,16.8z"/>
<linearGradient id="XMLID_5_" gradientUnits="userSpaceOnUse" x1="81.3607" y1="17.3585" x2="83.4186" y2="17.3585">
	<stop  offset="0" style="stop-color:#6CB541"/>
	<stop  offset="1" style="stop-color:#8AC650"/>
</linearGradient>
<path id="XMLID_92_" class="st7" d="M83.1,16.9c-0.4-0.2-1.1-0.2-1.5,0c-0.4,0.2-0.4,0.6,0,0.8c0.4,0.2,1.1,0.2,1.5,0
	C83.5,17.5,83.5,17.2,83.1,16.9z"/>
<polygon id="XMLID_91_" class="st6" points="128.1,18.4 134.8,22.2 135.9,21.6 132.4,18.4 128.1,17.5 "/>
<polygon id="XMLID_90_" class="st6" points="119.1,13.7 125.7,17.5 126.8,16.9 123.3,13.6 119.9,12.9 "/>
<path id="XMLID_88_" class="st8" d="M126.7,17.1c0.4-0.2,1.1-0.2,1.5,0c0.4,0.2,0.4,0.6,0,0.8c-0.4,0.2-1.1,0.2-1.5,0
	C126.3,17.7,126.3,17.3,126.7,17.1z"/>
<linearGradient id="XMLID_6_" gradientUnits="userSpaceOnUse" x1="126.4295" y1="17.3585" x2="128.4872" y2="17.3585">
	<stop  offset="0" style="stop-color:#6CB541"/>
	<stop  offset="1" style="stop-color:#8AC650"/>
</linearGradient>
<path id="XMLID_87_" class="st9" d="M126.7,16.9c0.4-0.2,1.1-0.2,1.5,0c0.4,0.2,0.4,0.6,0,0.8c-0.4,0.2-1.1,0.2-1.5,0
	C126.3,17.5,126.3,17.2,126.7,16.9z"/>
<path id="XMLID_86_" class="st6" d="M112.4,27.6c-3.9-2.2-10.3-2.2-14.2,0c-3.9,2.2-3.9,5.9,0,8.2c3.9,2.2,10.3,2.2,14.2,0
	C116.3,33.5,116.3,29.9,112.4,27.6z"/>
<polygon id="XMLID_85_" class="st6" points="108.8,36.7 126.3,44.3 127.9,43.4 110,31.9 "/>
<polygon id="XMLID_84_" class="st6" points="101.3,36.8 83.8,44.3 82.2,43.4 100.1,31.9 "/>
<polygon id="XMLID_83_" class="st6" points="109.6,26.5 126.3,19.3 127.9,20.2 110,31.8 "/>
<polygon id="XMLID_82_" class="st6" points="101,26.8 83.8,19.3 82.2,20.2 100.1,31.8 "/>
<polygon id="XMLID_81_" class="st4" points="128.2,50.8 127.3,50.8 126,43.4 129.5,43.4 "/>
<polygon id="XMLID_80_" class="st6" points="127.1,44.1 120.4,47.9 119.3,47.3 122.8,44.1 127.1,43.2 "/>
<polygon id="XMLID_79_" class="st6" points="136.1,39.4 129.5,43.2 128.4,42.6 131.9,39.3 135.3,38.6 "/>
<path id="XMLID_78_" class="st4" d="M129,42.5c-0.7-0.4-1.8-0.4-2.5,0c-0.7,0.4-0.7,1.1,0,1.5c0.7,0.4,1.8,0.4,2.5,0
	C129.7,43.5,129.7,42.9,129,42.5z"/>
<path id="XMLID_77_" class="st8" d="M128.5,42.8c-0.4-0.2-1.1-0.2-1.5,0c-0.4,0.2-0.4,0.6,0,0.8c0.4,0.2,1.1,0.2,1.5,0
	C128.9,43.4,128.9,43,128.5,42.8z"/>
<linearGradient id="XMLID_7_" gradientUnits="userSpaceOnUse" x1="126.7172" y1="43.0546" x2="128.7749" y2="43.0546">
	<stop  offset="0" style="stop-color:#6CB541"/>
	<stop  offset="1" style="stop-color:#8AC650"/>
</linearGradient>
<path id="XMLID_76_" class="st10" d="M128.5,42.6c-0.4-0.2-1.1-0.2-1.5,0c-0.4,0.2-0.4,0.6,0,0.8c0.4,0.2,1.1,0.2,1.5,0
	C128.9,43.2,128.9,42.9,128.5,42.6z"/>
<polygon id="XMLID_75_" class="st4" points="81.9,50.8 82.9,50.8 84.2,43.4 80.6,43.4 "/>
<polygon id="XMLID_73_" class="st6" points="83.1,44.1 89.7,47.9 90.8,47.3 87.4,44.1 83.1,43.2 "/>
<polygon id="XMLID_72_" class="st6" points="74,39.4 80.6,43.2 81.7,42.6 78.3,39.3 74.9,38.6 "/>
<path id="XMLID_71_" class="st4" d="M81.1,42.5c0.7-0.4,1.8-0.4,2.5,0c0.7,0.4,0.7,1.1,0,1.5c-0.7,0.4-1.8,0.4-2.5,0
	C80.5,43.5,80.5,42.9,81.1,42.5z"/>
<path id="XMLID_69_" class="st8" d="M81.7,42.8c0.4-0.2,1.1-0.2,1.5,0c0.4,0.2,0.4,0.6,0,0.8c-0.4,0.2-1.1,0.2-1.5,0
	C81.3,43.4,81.3,43,81.7,42.8z"/>
<linearGradient id="XMLID_8_" gradientUnits="userSpaceOnUse" x1="81.3705" y1="43.0546" x2="83.4284" y2="43.0546">
	<stop  offset="0" style="stop-color:#6CB541"/>
	<stop  offset="1" style="stop-color:#8AC650"/>
</linearGradient>
<path id="XMLID_68_" class="st11" d="M81.7,42.6c0.4-0.2,1.1-0.2,1.5,0c0.4,0.2,0.4,0.6,0,0.8c-0.4,0.2-1.1,0.2-1.5,0
	C81.3,43.2,81.3,42.9,81.7,42.6z"/>
<path id="XMLID_67_" class="st12" d="M107,44.2c0,0.9-0.7,1.7-1.7,1.7c-0.9,0-1.7-0.7-1.7-1.7c0-0.9,0.7-1.7,1.7-1.7
	C106.2,42.6,107,43.3,107,44.2z"/>
<linearGradient id="XMLID_9_" gradientUnits="userSpaceOnUse" x1="104.0479" y1="44.2144" x2="106.5777" y2="44.2144">
	<stop  offset="0" style="stop-color:#6CB541"/>
	<stop  offset="1" style="stop-color:#8AC650"/>
</linearGradient>
<path id="XMLID_66_" class="st13" d="M106.6,44.2c0,0.7-0.6,1.3-1.3,1.3c-0.7,0-1.3-0.6-1.3-1.3c0-0.7,0.6-1.3,1.3-1.3
	C106,42.9,106.6,43.5,106.6,44.2z"/>
<path id="XMLID_65_" class="st4" d="M106.2,44.2c0,0.5-0.4,0.8-0.8,0.8c-0.5,0-0.8-0.4-0.8-0.8s0.4-0.8,0.8-0.8
	C105.8,43.4,106.2,43.7,106.2,44.2z"/>
<path id="XMLID_63_" class="st4" d="M110.3,28.8c-2.8-1.6-7.3-1.6-10,0c-2.8,1.6-2.8,4.2,0,5.8c2.8,1.6,7.3,1.6,10,0
	C113.1,33,113.1,30.4,110.3,28.8z"/>
<g id="XMLID_56_">
	<polygon id="XMLID_62_" class="st6" points="81.7,78.3 104.9,64.9 128.2,78.3 104.9,91.7 	"/>
	<polygon id="XMLID_61_" class="st6" points="81.7,78.3 81.7,88.4 104.9,101.8 104.9,91.7 	"/>
	<linearGradient id="XMLID_10_" gradientUnits="userSpaceOnUse" x1="82.7332" y1="83.6709" x2="88.5929" y2="83.6709">
		<stop  offset="0" style="stop-color:#6CB541"/>
		<stop  offset="1" style="stop-color:#8AC650"/>
	</linearGradient>
	<polygon id="XMLID_60_" class="st14" points="82.7,80.7 82.7,83.2 88.6,86.6 88.6,84.1 	"/>
	<polygon id="XMLID_59_" class="st6" points="104.9,101.8 128.2,88.4 128.2,78.3 104.9,91.7 	"/>
	<linearGradient id="XMLID_11_" gradientUnits="userSpaceOnUse" x1="90.9582" y1="90.0515" x2="95.6108" y2="90.0515">
		<stop  offset="0" style="stop-color:#6CB541"/>
		<stop  offset="1" style="stop-color:#8AC650"/>
	</linearGradient>
	<polygon id="XMLID_58_" class="st15" points="91,93.7 91,83.7 95.6,86.4 95.6,96.4 	"/>
	<linearGradient id="XMLID_12_" gradientUnits="userSpaceOnUse" x1="90.9582" y1="78.3265" x2="119.0455" y2="78.3265">
		<stop  offset="0" style="stop-color:#6CB541"/>
		<stop  offset="1" style="stop-color:#8AC650"/>
	</linearGradient>
	<polygon id="XMLID_57_" class="st16" points="91,83.7 114.2,70.3 119,72.9 95.6,86.4 	"/>
</g>
<g>
	<polygon class="st4" points="105.4,91.5 104.9,91.7 104.4,91.5 104.4,59.6 105.4,59.6 	"/>
</g>
</svg>
