<?xml version="1.0" encoding="iso-8859-1"?>
<!-- Generator: Adobe Illustrator 19.2.1, SVG Export Plug-In . SVG Version: 6.00 Build 0)  -->
<svg version="1.1" id="Layer_1" xmlns="http://www.w3.org/2000/svg" xmlns:xlink="http://www.w3.org/1999/xlink" x="0px" y="0px"
	 viewBox="0 0 350 189" style="enable-background:new 0 0 350 189;" xml:space="preserve">
<g id="g10" transform="matrix(1.25,0,0,-1.25,0,440)">
	<g id="g12" transform="scale(0.1,0.1)">
		<path id="path14" style="fill:#FFE394;" d="M175.126,3461.417h2470.925c12.835-8.359,25.987-16.598,36.485-27.888
			c16.955-18.064,26.74-42.466,27.849-67.146c1.228-79.228-0.04-158.496,0.079-237.763c-0.356-93.766,1.268-187.533-0.277-281.299
			c-1.149-28.998,2.02-57.995,0.436-86.992c-1.981-62.075,1.466-124.15-0.04-186.225c0.872-113.574-0.277-227.149-0.436-340.68
			c0.951-25.989,2.377-52.212-1.584-78.04c-5.942-35.851-32.048-67.188-65.878-80.18c-23.768-9.904-49.993-6.575-75.029-6.971
			c-784.358,0.037-1568.715,0.037-2353.034,0c-56.331-1.625-107.552,49.239-105.412,105.77
			c-0.04,384.256,0.039,768.551-0.04,1152.847c0.277,26.7-2.852,55.182,9.586,79.902
			C129.809,3431.35,151.2,3449.77,175.126,3461.417z M196.399,3423.664c-27.689-8.398-47.377-36.405-46.15-65.323
			c0-393.407,0-786.853,0-1180.3c-1.029-25.868,14.261-51.221,37.753-62.155c16.797-8.437,36.126-6.021,54.271-6.34
			c787.052,0.161,1574.104,0.082,2361.195,0.04c34.425-0.91,65.521,29.988,65.363,64.334c0.04,394.794-0.079,789.627,0.04,1184.42
			c1.782,30.582-20.877,59.857-50.548,66.552c-16.757,3.209-33.87,1.545-50.785,1.862c-783.011-0.079-1566.021-0.079-2348.993,0
			C211.056,3426.556,203.529,3426.002,196.399,3423.664L196.399,3423.664z M1424.87,3276.459c16.638,5.387,36.524,3.05,49.914-8.794
			c18.42-16.955,19.49-48.765,3.09-67.463c-19.134-21.154-57.876-19.688-74.355,3.961
			C1386.405,3227.813,1395.675,3267.466,1424.87,3276.459z M1432.318,3265.644c-27.611-12.518-24.561-63.383,7.051-68.295
			c23.808-2.496,36.603,25.987,30.146,45.952C1466.782,3259.86,1448.56,3272.973,1432.318,3265.644L1432.318,3265.644z
			 M1281.111,3273.092c6.932,0.594,13.905,1.188,20.877,1.822c-0.871-12.993-0.198-26.026,0.396-39.02
			c14.103,1.109,28.324,0.871,42.387,2.535c4.239,12.003,0.238,26.066-1.981,38.505c6.932,0.198,13.865,0.396,20.797,0.594
			c-0.911-30.067,0.951-60.332,4.912-90.122c-6.893-0.356-13.746-0.713-20.639-1.149c1.347,13.548,0.753,27.175-0.436,40.684
			c-14.816-0.832-29.592-1.664-44.368-2.535c0.713-13.469,1.505-26.977,3.882-40.327c-7.051-0.357-14.103-0.753-21.114-1.149
			c2.575,14.776,0.634,29.75-0.079,44.605C1284.874,3242.787,1285.231,3258.276,1281.111,3273.092L1281.111,3273.092z
			 M1542.405,3266.595c16.796,10.458,37.673,7.448,54.905-0.238c-1.783-5.229-3.565-10.419-5.308-15.648
			c-8.636,6.457-18.579,13.429-29.988,10.22c-28.601-8.16-31.81-56.292-3.684-67.265c13.231-5.625,26.819,1.228,36.405,10.339
			c1.307-5.269,2.615-10.537,3.961-15.806c-20.362-12.241-49.517-11.726-66.235,6.457
			C1513.17,3214.938,1517.686,3252.651,1542.405,3266.595L1542.405,3266.595z M1188.969,3255.78
			c14.974,13.509,36.96,14.459,55.38,8.478c-1.228-5.229-2.456-10.418-3.684-15.648c-9.349,4.912-20.362,11.29-30.78,5.19
			c-27.135-12.677-22.065-59.857,6.972-66.988c14.103-3.843,26.304,5.982,34.702,16.163c1.941-4.952,3.882-9.904,5.863-14.816
			c-16.915-15.093-43.298-19.371-62.788-6.734C1169.558,3196.755,1166.627,3236.805,1188.969,3255.78L1188.969,3255.78z
			 M1658.633,3260.653c22.857,6.14,51.736-4.833,59.302-28.641c5.586-18.104,0.871-39.733-13.271-52.766
			c-20.995-18.936-58.708-12.716-72.811,11.765C1617.157,3215.691,1629.873,3253.364,1658.633,3260.653z M1666.397,3248.927
			c-16.004-6.219-23.57-24.997-22.461-41.159c0.555-15.925,16.202-30.424,32.285-26.938c20.995,5.11,30.186,31.335,24.006,50.468
			C1696.464,3245.243,1679.906,3253.879,1666.397,3248.927L1666.397,3248.927z M1762.699,3247.976
			c6.814-1.347,13.667-2.694,20.56-4.001c-7.844-25.155-11.132-51.458-16.876-77.128c13.033-2.931,26.224-5.189,39.614-6.021
			c-2.535-4.12-5.031-8.279-7.527-12.399c-17.708,3.565-35.415,7.091-53.122,10.656
			C1753.35,3188.159,1760.243,3217.869,1762.699,3247.976L1762.699,3247.976z M1013.202,3234.389
			c18.143,3.684,36.207,7.566,54.35,11.25c-0.277-3.565-0.871-10.617-1.149-14.182c-10.815-0.317-21.471-2.02-32.087-3.961
			c1.941-8.953,3.843-17.906,5.784-26.819c10.26,2.1,20.48,4.12,30.78,5.902c-0.515-2.971-1.545-8.873-2.02-11.844
			c-8.913-1.862-17.787-3.763-26.66-5.625c2.1-9.388,4.12-18.817,6.101-28.245c12.993,2.694,26.026,5.585,38.267,10.775
			c-0.555-4.952-1.109-9.904-1.664-14.855c-17.47-3.684-35.019-7.012-52.33-11.29
			C1027.265,3175.324,1022.63,3205.55,1013.202,3234.389L1013.202,3234.389z M955.246,3220.841
			c5.665,1.466,11.33,2.931,17.034,4.437c5.586-30.542,16.004-59.896,22.699-90.162c-26.383,14.618-51.023,32.167-76.574,48.171
			c6.18-20.441,10.3-41.515,18.064-61.481c-5.704-1.545-11.409-3.09-17.074-4.674c-2.179,20.282-9.309,39.495-13.944,59.263
			c-2.179,9.983-5.625,19.648-11.369,28.126c5.744,1.347,11.528,2.694,17.351,4.041c19.728-12.875,39.456-25.789,59.302-38.505
			C965.982,3187.089,962.773,3204.718,955.246,3220.841z M1876.47,3220.127c5.744-1.584,11.448-3.169,17.232-4.754
			c4.358-32.404,5.625-65.244,12.677-97.252c-7.091,1.822-14.142,3.645-21.193,5.506c-0.04,10.656-0.792,21.313-2.06,31.929
			c-10.26,2.813-20.52,5.665-30.78,8.477c-6.497-8.358-12.637-16.994-17.628-26.343c-5.506,1.624-11.052,3.248-16.519,4.833
			c15.251,17.549,28.998,36.366,43.892,54.231C1868.032,3203.767,1873.142,3211.491,1876.47,3220.127L1876.47,3220.127z
			 M1860.03,3173.938c7.249-2.02,14.538-4.001,21.827-6.021c-1.228,10.022-2.456,20.084-3.724,30.107
			C1872.113,3189.981,1866.052,3181.979,1860.03,3173.938z M1942.546,3200.439c23.491-7.289,47.061-14.538,70.196-22.937
			c-3.288-3.486-6.536-6.932-9.785-10.418c-7.606,3.565-15.37,6.774-23.174,9.745c-7.408-25.472-17.192-50.27-23.333-76.099
			c-6.457,2.219-12.914,4.437-19.371,6.616c12.122,23.57,17.113,49.953,26.304,74.712c-9.785,2.931-19.649,5.506-29.671,7.368
			C1936.644,3193.111,1939.575,3196.755,1942.546,3200.439L1942.546,3200.439z M831.888,3181.702
			c6.417,2.298,12.835,4.595,19.252,6.932c8.636-28.958,18.46-57.718,30.82-85.289c-6.536-2.337-13.033-4.674-19.53-7.012
			C854.904,3125.569,845,3154.487,831.888,3181.702z M753.373,3148.584c16.836,7.764,33.632,15.687,50.825,22.58
			c0.396-3.367,1.109-10.141,1.466-13.509c-10.379-2.971-20.322-7.051-30.067-11.646c3.803-8.2,7.606-16.4,11.409-24.6
			c9.468,4.516,18.975,8.874,28.641,12.914c0.119-3.09,0.277-9.309,0.396-12.439c-8.081-3.605-16.163-7.17-24.204-10.775
			c5.031-12.518,10.735-24.798,17.47-36.524c-6.259-2.931-12.439-5.902-18.619-8.953
			C781.063,3094.353,768.07,3122.122,753.373,3148.584L753.373,3148.584z M2035.243,3168.59
			c17.351-6.893,34.662-13.944,51.894-21.233c-3.129-3.684-6.219-7.368-9.309-11.013c-9.032,5.863-18.737,10.498-28.68,14.538
			c-3.367-8.438-6.774-16.915-10.141-25.353c9.626-3.882,19.292-7.764,28.879-11.844c-1.901-2.298-5.784-6.933-7.725-9.27
			c-8.517,3.447-17.074,6.893-25.551,10.379c-3.565-8.874-7.17-17.708-10.775-26.542c12.32-5.546,24.996-10.379,38.267-13.35
			c-3.922-3.169-6.853-8.081-11.805-9.586c-16.717,5.15-32.483,12.993-48.765,19.332
			C2015.198,3111.466,2026.924,3139.632,2035.243,3168.59z M2117.125,3091.897c6.497,2.179,15.331-3.605,14.855-10.696
			c1.703-8.438-8.121-15.925-15.687-12.439C2104.885,3071.337,2105.637,3089.956,2117.125,3091.897z M699.379,3088.332
			c9.666,10.894,28.086-2.575,19.767-14.935C710.233,3059.334,688.367,3075.338,699.379,3088.332z M842.703,2967.628
			c59.421,10.26,124.665,0.951,173.945-35.534c42.744-30.582,70.038-79.981,76.97-131.717c9.428-62.234-5.15-130.132-47.656-177.867
			c-77.881-88.577-231.425-89.805-312.951-5.665c-37.277,39.099-56.529,93.766-54.984,147.483
			c-0.832,54.469,19.134,109.969,57.757,148.87C764.624,2941.878,802.732,2960.656,842.703,2967.628L842.703,2967.628z
			 M870.274,2928.014c-35.494-3.645-67.78-24.957-87.388-54.39c-31.454-46.507-39.337-106.799-26.224-160.873
			c8.477-36.168,27.849-71.186,59.104-92.419c46.745-32.642,116.029-28.086,157.268,11.765
			c39.218,37.713,52.845,95.193,49.28,148.077c-2.931,44.328-19.767,89.805-53.835,119.555
			C941.857,2923.022,905.016,2932.45,870.274,2928.014L870.274,2928.014z M1161.873,2933.916
			c33.83,32.801,84.734,41.793,129.974,34.147c22.857-3.645,43.338-15.37,60.887-29.988c-8.161-20.045-16.598-39.931-24.838-59.936
			c-2.377,0.872-7.17,2.694-9.547,3.565c-10.933,39.574-60.57,58.47-95.985,39.456c-29.037-14.221-41.476-55.46-21.154-81.763
			c20.243-26.343,54.35-34.266,83.506-46.626c35.454-15.41,71.741-39.297,85.051-77.445c15.885-49.953-8.319-107.354-51.974-134.965
			c-35.058-23.451-79.664-27.651-120.347-20.282c-30.78,5.625-60.649,19.767-81.209,43.813c6.655,21.59,12.756,43.377,19.015,65.086
			c3.644-1.07,7.329-2.1,11.013-3.209c11.884-51.617,73.88-77.842,121.972-63.818c41.357,12.439,58.391,71.622,27.928,102.957
			c-38.901,38.584-99.946,40.525-139.045,78.951C1117.149,2823.71,1121.15,2896.006,1161.873,2933.916L1161.873,2933.916z
			 M364.997,2964.181c40.958,1.624,81.961,0.594,122.923,2.06c41.912,0.99,87.864-5.229,120.189-34.345
			c37.435-32.523,42.268-92.935,15.766-133.658c-17.549-28.403-48.329-46.507-80.694-52.647
			c28.284-33.078,55.182-67.304,82.358-101.333c35.613-45.715,75.623-89.528,125.576-119.793
			c32.325-19.767,70.077-31.612,108.226-29.473c2.377-4.833,4.793-9.706,7.21-14.578c-30.344-8.715-62.075-14.776-93.727-11.171
			c-36.445,3.447-70.87,18.658-100.263,40.05c-43.377,31.493-78.159,72.811-111.712,114.128
			c-34.385,43.021-68.255,86.478-103.313,128.983c2.852,3.882,3.763,11.013,10.021,10.26c33.078,2.218,68.89,11.805,90.321,38.98
			c26.898,33.236,21.827,92.855-18.381,113.375c-28.641,14.34-61.877,14.459-93.093,12.36c0.079-111.157,0-222.354,0-333.51
			c-0.277-11.607,6.496-21.55,11.132-31.691c-31.612,0.119-63.184,0.04-94.758,0.079c6.338,11.092,16.798,21.51,15.332,35.296
			c-0.08,108.344-0.119,216.728,0.039,325.112C379.02,2937.719,370.385,2950.752,364.997,2964.181L364.997,2964.181z
			 M1404.509,2964.379c31.652,0.119,63.343,0,95.034,0.119c-4.873-10.815-12.201-21.392-11.211-33.791
			c0.119-47.141,0.119-94.321,0.04-141.462c70.553-0.079,141.105,0.119,211.618-0.198c-0.04,47.339,0.04,94.677,0.079,141.977
			c1.228,13.073-8.636,22.897-14.657,33.434c31.652-0.079,63.303-0.04,94.955-0.04c-4.674-10.854-12.122-21.312-11.726-33.593
			c0.079-110.998,0.198-222.037-0.079-333.035c-1.188-13.033,6.893-24.006,11.964-35.336c-31.771-0.832-63.541-0.317-95.272-0.475
			c5.427,10.3,15.331,19.53,14.776,32.008c0.079,51.063-0.158,102.165,0,153.227c-70.553-0.158-141.105-0.119-211.658-0.079
			c0.158-51.023-0.04-102.046,0.04-153.069c-0.238-11.765,6.814-21.827,11.448-32.167c-32.008,0.119-63.937,0.04-95.906,0.04
			c6.338,11.33,17.311,21.788,15.964,35.811c-0.238,110.999-0.079,222.037-0.079,333.035
			C1420.433,2943.82,1410.292,2953.644,1404.509,2964.379L1404.509,2964.379z M1821.169,2964.34
			c82.239,0.198,164.438-0.158,246.677,0.079c-5.902-18.183-12.399-36.207-18.5-54.35c-17.074,5.031-33.672,13.865-51.934,12.677
			c-31.731-0.238-63.422-0.238-95.113-0.119c0.079-44.843,0.119-89.726,0-134.569c47.418,1.228,95.034-2.337,142.333,1.822
			c-5.506-14.063-10.537-28.324-15.449-42.585c-42.308,0-84.576-0.119-126.844,0c0-47.497,0.079-94.994,0-142.491
			c39.574,0,79.149,0.158,118.723-0.119c21.392-0.555,41.357,8.279,61.917,12.993c-6.417-18.421-12.875-36.802-19.054-55.301
			c-80.615-0.356-161.229-0.198-241.844-0.356c4.635,12.875,11.567,25.591,10.814,39.693c-0.158,106.998-0.198,213.995,0,321.032
			C1833.845,2937.6,1826.24,2950.871,1821.169,2964.34L1821.169,2964.34z M2110.787,2964.3c25.155,0.079,50.31-0.119,75.504,0.158
			c75.544-83.625,150.573-167.726,225.998-251.51c0.04,72.613-0.04,145.225,0.119,217.838c1.149,13.033-8.755,22.857-14.657,33.474
			c27.373,0,54.747-0.079,82.159,0.04c-5.585-11.963-13.429-23.848-12.28-37.673c0.317-124.428-0.119-248.855,0.238-373.243
			c-94.163,102.798-187.573,206.35-281.378,309.504c-0.119-88.339,0.079-176.639-0.079-264.978
			c-1.03-13.073,6.774-24.165,11.805-35.613c-27.334-0.119-54.628-0.04-81.922-0.079c6.219,11.29,16.955,21.629,15.766,35.494
			c-0.04,106.958-0.238,213.916,0.079,320.874C2134.239,2936.808,2118.948,2949.682,2110.787,2964.3L2110.787,2964.3z
			 M347.249,2479.068c0.119,8.24,0.198,16.44,0.277,24.64c87.509-0.079,175.016,0.04,262.484,0.04
			c8.359-7.17,21.233-11.805,21.907-24.561C537.041,2478.83,442.165,2479.068,347.249,2479.068L347.249,2479.068z M920.346,2503.708
			c517.122,0.436,1034.243,0.158,1551.364-0.119c-0.04-8.16-0.04-16.361,0-24.561c-510.466,0.04-1020.932-0.436-1531.399-0.158
			C932.072,2485.763,920.465,2491.348,920.346,2503.708L920.346,2503.708z M1288.321,2344.024
			c16.519,14.496,40.763,12.834,59.579,4.081c-1.941-4.836-3.843-9.626-5.744-14.459c-8.121,7.329-18.817,13.705-30.146,9.823
			c-28.68-9.269-31.216-57.281-2.654-68.452c12.993-5.586,26.541,1.188,35.771,10.338c0.99-3.644,2.931-10.894,3.882-14.538
			c-17.826-9.784-41.119-11.686-58.153,0.791C1267.167,2287.495,1265.781,2326.515,1288.321,2344.024z M1798.708,2276.601
			c-15.133,32.166,9.072,72.215,43.219,77.761c8.319-1.782,2.06-8.754-2.852-10.26c-12.518-5.982-20.837-17.272-27.294-29.156
			c10.933,2.338,23.214,6.696,33.87,0.634c17.51-9.111,17.074-36.683,1.822-47.735
			C1832.816,2256.318,1807.225,2258.615,1798.708,2276.601z M1820.575,2307.064c-14.895-7.486-11.092-35.414,6.259-36.524
			C1850.167,2272.323,1844.898,2318.473,1820.575,2307.064z M1004.288,2351.034c11.646,6.419,25.313,2.931,36.722-2.137
			c-2.02-5.269-4.001-10.578-5.982-15.886c-5.189,3.842-8.874,12.123-16.242,11.409c-9.666,1.148-18.262-11.053-11.29-18.978
			c10.062-9.425,26.462-9.902,34.345-22.023c10.181-15.251-2.417-36.762-19.49-39.495c-12.439-3.367-24.957,1.663-34.979,8.873
			c1.664,5.625,3.248,11.29,4.793,16.955c5.467-7.923,12.161-16.559,22.738-16.836c10.933-1.704,20.877,12.636,13.35,21.588
			c-8.992,9.271-23.451,10.499-32.523,19.689C986.502,2325.443,990.621,2345.172,1004.288,2351.034L1004.288,2351.034z
			 M1087.874,2353.412c6.338,0,12.716,0,19.054,0c-1.426-29.75-2.06-59.698,0.396-89.449c-6.615,0.041-13.191,0-19.767-0.038
			C1091.994,2293.355,1091.4,2323.9,1087.874,2353.412L1087.874,2353.412z M1156.485,2353.689
			c5.546-0.199,11.132-0.356,16.717-0.515c15.964-18.183,32.286-36.049,48.448-54.073c0.079,18.143,1.386,36.445-2.218,54.352
			c5.546-0.04,11.092-0.04,16.638-0.04c-2.852-30.503-0.396-61.204-1.505-91.785c-20.758,22.223-41.119,44.843-61.323,67.581
			c0.317-21.748-1.03-43.535,1.426-65.204c-5.744-0.041-11.448-0.119-17.192-0.239c4.674,14.578,2.575,29.949,2.931,44.924
			C1160.011,2323.742,1162.507,2339.428,1156.485,2353.689z M1386.128,2263.925c1.545,29.749,2.179,59.777-0.475,89.487
			c18.262-0.119,36.564-0.079,54.826-0.04c-1.545-4.079-3.09-8.2-4.595-12.319c-10.458,1.861-21.114,2.335-31.691,2.456
			c-0.04-9.627-0.04-19.253-0.04-28.918c10.656,0.119,21.273,0.156,31.929,0.079c-3.645-15.211-20.639-8.794-31.969-10.18
			c0.04-10.18,0.04-20.361,0.04-30.582c13.152-0.119,26.383,0.119,39.297,2.971c-1.505-4.28-2.971-8.557-4.437-12.836
			C1421.384,2263.963,1403.756,2264.042,1386.128,2263.925z M1523.509,2342.478c7.962,3.803,15.925,7.725,23.887,11.606
			c-0.238-30.026-2.575-60.331,1.307-90.159c-6.576,0-13.152,0-19.728-0.119c5.625,23.293,1.466,47.418,3.011,71.107
			C1529.135,2337.447,1526.322,2339.943,1523.509,2342.478L1523.509,2342.478z M1605.51,2301.2
			c-17.509,12.36-12.161,43.457,7.804,50.309c14.499,6.697,34.543,2.456,41.674-12.874c11.29-24.283,0.515-55.498-22.184-69.165
			c-8.2-4.834-18.658-11.649-27.73-4.556c15.331,8.039,29.116,19.094,36.762,35.018
			C1629.992,2297.676,1616.167,2293.318,1605.51,2301.2z M1621.594,2343.469c-10.181-5.783-11.924-19.807-7.249-29.712
			c3.843-8.95,17.668-9.506,23.253-1.981C1648.452,2322.752,1639.222,2350.203,1621.594,2343.469z M1704.744,2347.747
			c14.182,10.498,38.109,9.35,47.299-7.209c13.112-24.045,2.139-56.648-20.599-70.751c-8.438-4.953-19.015-11.804-28.483-4.99
			c15.291,8.24,29.909,18.936,36.722,35.574c-11.448-2.855-24.759-6.895-35.415,0.356
			C1688.423,2311.182,1689.968,2337.051,1704.744,2347.747L1704.744,2347.747z M1720.431,2343.587
			c-11.844-5.782-13.231-22.936-6.14-32.918c7.329-7.609,21.59-4.043,24.759,5.862
			C1744.397,2328.217,1735.524,2349.095,1720.431,2343.587"/>
		<path id="path16" style="fill:#8C0A0D;" d="M196.399,3423.664c7.131,2.337,14.657,2.892,22.145,3.09
			c782.971-0.079,1565.982-0.079,2348.993,0c16.915-0.317,34.028,1.347,50.785-1.862c29.671-6.695,52.33-35.969,50.548-66.552
			c-0.119-394.793,0-789.626-0.04-1184.42c0.158-34.346-30.938-65.244-65.363-64.334c-787.091,0.042-1574.142,0.121-2361.195-0.04
			c-18.145,0.318-37.474-2.097-54.271,6.34c-23.492,10.934-38.781,36.287-37.753,62.155c0,393.447,0,786.893,0,1180.3
			C149.022,3387.259,168.71,3415.266,196.399,3423.664L196.399,3423.664z M1424.87,3276.459
			c-29.196-8.992-38.465-48.646-21.352-72.296c16.479-23.65,55.222-25.115,74.355-3.961c16.4,18.698,15.331,50.508-3.09,67.463
			C1461.395,3279.509,1441.508,3281.846,1424.87,3276.459z M1281.111,3273.092c4.12-14.816,3.763-30.305,4.635-45.556
			c0.713-14.855,2.654-29.829,0.079-44.605c7.012,0.396,14.063,0.792,21.114,1.149c-2.377,13.35-3.169,26.858-3.882,40.327
			c14.776,0.872,29.552,1.703,44.368,2.535c1.188-13.508,1.783-27.135,0.436-40.684c6.893,0.436,13.746,0.792,20.639,1.149
			c-3.961,29.79-5.823,60.055-4.912,90.122c-6.932-0.198-13.865-0.396-20.797-0.594c2.219-12.439,6.219-26.502,1.981-38.505
			c-14.063-1.664-28.284-1.426-42.387-2.535c-0.594,12.993-1.268,26.026-0.396,39.02
			C1295.016,3274.28,1288.044,3273.686,1281.111,3273.092L1281.111,3273.092z M1542.405,3266.595
			c-24.719-13.944-29.235-51.656-9.943-71.939c16.717-18.183,45.873-18.698,66.235-6.457c-1.347,5.269-2.654,10.537-3.961,15.806
			c-9.587-9.111-23.174-15.965-36.405-10.339c-28.126,10.973-24.917,59.104,3.684,67.265c11.409,3.209,21.352-3.763,29.988-10.22
			c1.743,5.229,3.526,10.418,5.308,15.647C1580.078,3274.042,1559.202,3277.053,1542.405,3266.595L1542.405,3266.595z
			 M1188.969,3255.78c-22.342-18.975-19.411-59.025,5.665-74.355c19.49-12.637,45.873-8.358,62.788,6.734
			c-1.981,4.912-3.922,9.864-5.863,14.816c-8.398-10.181-20.599-20.005-34.702-16.163c-29.037,7.131-34.108,54.311-6.972,66.988
			c10.418,6.1,21.431-0.277,30.78-5.19c1.228,5.229,2.456,10.419,3.684,15.648
			C1225.929,3270.239,1203.943,3269.289,1188.969,3255.78L1188.969,3255.78z M1658.633,3260.653
			c-28.76-7.289-41.476-44.962-26.779-69.641c14.103-24.481,51.815-30.701,72.811-11.765c14.142,13.033,18.856,34.662,13.271,52.766
			C1710.369,3255.82,1681.49,3266.793,1658.633,3260.653z M1762.699,3247.976c-2.456-30.107-9.349-59.817-17.351-88.894
			c17.708-3.565,35.415-7.091,53.122-10.656c2.496,4.12,4.991,8.279,7.527,12.399c-13.389,0.832-26.581,3.09-39.614,6.021
			c5.744,25.67,9.032,51.974,16.876,77.129C1776.366,3245.282,1769.513,3246.629,1762.699,3247.976L1762.699,3247.976z
			 M1013.202,3234.389c9.428-28.839,14.063-59.065,19.371-88.894c17.311,4.279,34.86,7.606,52.33,11.29
			c0.555,4.952,1.109,9.904,1.664,14.855c-12.241-5.189-25.274-8.081-38.267-10.775c-1.981,9.428-4.001,18.856-6.101,28.245
			c8.874,1.862,17.747,3.763,26.66,5.625c0.475,2.971,1.505,8.873,2.02,11.844c-10.3-1.783-20.52-3.803-30.78-5.903
			c-1.941,8.913-3.843,17.866-5.784,26.819c10.617,1.941,21.273,3.644,32.087,3.961c0.277,3.565,0.871,10.616,1.149,14.182
			C1049.409,3241.955,1031.345,3238.073,1013.202,3234.389L1013.202,3234.389z M955.246,3220.841
			c7.527-16.123,10.735-33.751,15.489-50.785c-19.847,12.716-39.574,25.63-59.302,38.505c-5.823-1.347-11.607-2.694-17.351-4.041
			c5.744-8.477,9.19-18.143,11.369-28.126c4.635-19.768,11.765-38.98,13.944-59.263c5.665,1.584,11.369,3.129,17.074,4.674
			c-7.764,19.966-11.884,41.04-18.064,61.481c25.551-16.004,50.191-33.553,76.574-48.171c-6.695,30.265-17.113,59.619-22.699,90.162
			C966.576,3223.772,960.911,3222.306,955.246,3220.841z M1876.47,3220.127c-3.328-8.636-8.438-16.361-14.38-23.372
			c-14.895-17.866-28.641-36.683-43.892-54.232c5.467-1.584,11.013-3.209,16.519-4.833c4.991,9.349,11.132,17.985,17.628,26.343
			c10.26-2.813,20.52-5.665,30.78-8.477c1.268-10.617,2.02-21.273,2.06-31.929c7.051-1.862,14.103-3.684,21.193-5.506
			c-7.051,32.008-8.319,64.848-12.677,97.252C1887.919,3216.958,1882.215,3218.543,1876.47,3220.127L1876.47,3220.127z
			 M1942.546,3200.439c-2.971-3.684-5.902-7.329-8.834-11.013c10.022-1.862,19.886-4.437,29.671-7.368
			c-9.191-24.759-14.182-51.142-26.304-74.712c6.457-2.179,12.914-4.397,19.371-6.616c6.14,25.828,15.925,50.627,23.333,76.099
			c7.804-2.971,15.568-6.18,23.174-9.745c3.249,3.486,6.497,6.933,9.785,10.418
			C1989.608,3185.901,1966.038,3193.15,1942.546,3200.439L1942.546,3200.439z M831.888,3181.702
			c13.112-27.215,23.016-56.133,30.542-85.368c6.497,2.337,12.993,4.675,19.53,7.012c-12.36,27.571-22.184,56.331-30.82,85.289
			C844.723,3186.297,838.305,3184,831.888,3181.702z M753.373,3148.584c14.697-26.462,27.69-54.231,37.316-82.952
			c6.18,3.05,12.36,6.021,18.619,8.953c-6.734,11.726-12.439,24.006-17.47,36.524c8.042,3.605,16.123,7.17,24.204,10.775
			c-0.119,3.129-0.277,9.349-0.396,12.439c-9.666-4.041-19.173-8.398-28.641-12.914c-3.803,8.2-7.606,16.4-11.409,24.6
			c9.745,4.595,19.688,8.675,30.067,11.646c-0.357,3.367-1.07,10.141-1.466,13.508
			C787.005,3164.272,770.209,3156.349,753.373,3148.584L753.373,3148.584z M2035.243,3168.59
			c-8.319-28.958-20.045-57.123-33.712-83.942c16.281-6.338,32.048-14.182,48.765-19.332c4.952,1.505,7.883,6.417,11.805,9.587
			c-13.271,2.971-25.947,7.804-38.267,13.35c3.605,8.834,7.21,17.668,10.775,26.541c8.477-3.486,17.034-6.932,25.551-10.379
			c1.941,2.337,5.823,6.972,7.725,9.27c-9.587,4.08-19.252,7.962-28.879,11.844c3.367,8.438,6.774,16.915,10.141,25.353
			c9.943-4.041,19.649-8.676,28.68-14.538c3.09,3.645,6.18,7.329,9.309,11.013
			C2069.905,3154.646,2052.594,3161.697,2035.243,3168.59z M2117.125,3091.897c-11.488-1.941-12.241-20.56-0.832-23.135
			c7.566-3.486,17.391,4.001,15.687,12.439C2132.456,3088.292,2123.622,3094.076,2117.125,3091.897z M699.379,3088.332
			c-11.013-12.993,10.854-28.997,19.767-14.934C727.466,3085.757,709.045,3099.225,699.379,3088.332z M842.703,2967.628
			c-39.971-6.972-78.079-25.749-106.918-54.43c-38.624-38.901-58.589-94.4-57.757-148.869
			c-1.545-53.717,17.707-108.384,54.984-147.483c81.526-84.14,235.07-82.912,312.951,5.665
			c42.506,47.735,57.084,115.634,47.656,177.867c-6.932,51.736-34.226,101.135-76.97,131.717
			C967.368,2968.578,902.124,2977.888,842.703,2967.628L842.703,2967.628z M1161.873,2933.916
			c-40.723-37.91-44.724-110.206-4.754-150.058c39.099-38.426,100.144-40.367,139.045-78.951
			c30.463-31.335,13.429-90.518-27.928-102.957c-48.091-14.023-110.087,12.201-121.972,63.818
			c-3.684,1.109-7.368,2.139-11.013,3.209c-6.259-21.708-12.36-43.496-19.015-65.086c20.56-24.046,50.429-38.188,81.209-43.813
			c40.684-7.368,85.289-3.169,120.347,20.282c43.655,27.611,67.859,85.012,51.974,134.965
			c-13.31,38.148-49.597,62.035-85.051,77.445c-29.156,12.36-63.264,20.282-83.506,46.626
			c-20.322,26.304-7.883,67.542,21.154,81.763c35.415,19.015,85.051,0.119,95.985-39.456c2.377-0.871,7.17-2.694,9.547-3.565
			c8.24,20.005,16.678,39.891,24.838,59.936c-17.549,14.617-38.029,26.343-60.887,29.988
			C1246.607,2975.709,1195.703,2966.716,1161.873,2933.916L1161.873,2933.916z M364.997,2964.181
			c5.388-13.429,14.023-26.462,13.151-41.515c-0.158-108.384-0.119-216.768-0.039-325.112c1.466-13.786-8.994-24.204-15.332-35.296
			c31.574-0.04,63.146,0.04,94.758-0.079c-4.636,10.141-11.409,20.084-11.132,31.691c0,111.157,0.079,222.354,0,333.51
			c31.216,2.1,64.452,1.981,93.093-12.36c40.208-20.52,45.279-80.139,18.381-113.375c-21.431-27.175-57.243-36.762-90.321-38.98
			c-6.258,0.753-7.169-6.378-10.021-10.26c35.058-42.506,68.928-85.962,103.313-128.983
			c33.553-41.317,68.334-82.635,111.712-114.128c29.394-21.392,63.818-36.603,100.263-40.05
			c31.652-3.605,63.382,2.456,93.727,11.171c-2.417,4.873-4.833,9.745-7.21,14.578c-38.148-2.139-75.9,9.705-108.225,29.473
			c-49.953,30.265-89.963,74.078-125.576,119.793c-27.175,34.028-54.073,68.255-82.358,101.333
			c32.365,6.14,63.145,24.244,80.694,52.647c26.502,40.723,21.669,101.135-15.766,133.657
			c-32.325,29.116-78.277,35.336-120.189,34.345C446.957,2964.775,405.955,2965.805,364.997,2964.181L364.997,2964.181z
			 M1404.509,2964.379c5.784-10.735,15.925-20.56,15.331-33.593c0-110.999-0.158-222.037,0.079-333.035
			c1.347-14.023-9.626-24.481-15.964-35.811c31.969,0,63.897,0.079,95.906-0.04c-4.635,10.339-11.686,20.401-11.448,32.167
			c-0.079,51.023,0.119,102.046-0.04,153.069c70.553-0.04,141.105-0.079,211.658,0.079c-0.158-51.063,0.079-102.165,0-153.227
			c0.555-12.479-9.349-21.708-14.776-32.008c31.731,0.158,63.501-0.356,95.272,0.475c-5.071,11.33-13.152,22.303-11.964,35.336
			c0.277,110.999,0.158,222.037,0.079,333.035c-0.396,12.28,7.051,22.738,11.726,33.593c-31.652,0-63.303-0.04-94.955,0.04
			c6.021-10.537,15.885-20.362,14.657-33.434c-0.04-47.299-0.119-94.638-0.079-141.977c-70.513,0.317-141.066,0.119-211.618,0.198
			c0.079,47.141,0.079,94.321-0.04,141.462c-0.99,12.399,6.338,22.976,11.211,33.791
			C1467.852,2964.379,1436.16,2964.498,1404.509,2964.379z M1821.169,2964.34c5.071-13.469,12.677-26.74,11.726-41.595
			c-0.198-107.037-0.158-214.035,0-321.032c0.753-14.103-6.18-26.819-10.815-39.693c80.615,0.158,161.229,0,241.844,0.357
			c6.18,18.5,12.637,36.881,19.054,55.301c-20.56-4.714-40.525-13.548-61.917-12.993c-39.574,0.277-79.149,0.119-118.723,0.119
			c0.079,47.497,0,94.994,0,142.492c42.268-0.119,84.536,0,126.844,0c4.912,14.261,9.943,28.522,15.449,42.585
			c-47.299-4.159-94.915-0.594-142.333-1.822c0.119,44.843,0.079,89.726,0,134.569c31.691-0.119,63.382-0.119,95.113,0.119
			c18.262,1.188,34.86-7.646,51.934-12.676c6.1,18.143,12.597,36.167,18.5,54.35
			C1985.607,2964.181,1903.408,2964.538,1821.169,2964.34L1821.169,2964.34z M2110.787,2964.3
			c8.16-14.618,23.452-27.492,21.352-45.715c-0.317-106.958-0.119-213.916-0.079-320.874c1.188-13.865-9.547-24.204-15.766-35.494
			c27.294,0.04,54.588-0.04,81.922,0.079c-5.031,11.448-12.835,22.541-11.805,35.613c0.158,88.339-0.04,176.639,0.079,264.978
			c93.806-103.155,187.216-206.706,281.378-309.504c-0.357,124.388,0.079,248.816-0.238,373.243
			c-1.149,13.825,6.695,25.709,12.28,37.673c-27.413-0.119-54.786-0.04-82.159-0.04c5.903-10.617,15.806-20.441,14.657-33.474
			c-0.158-72.613-0.079-145.225-0.119-217.838c-75.425,83.784-150.454,167.884-225.998,251.51
			C2161.097,2964.181,2135.942,2964.379,2110.787,2964.3L2110.787,2964.3z M347.249,2479.068c94.916,0,189.792-0.238,284.667,0.119
			c-0.673,12.756-13.548,17.391-21.907,24.561c-87.468,0-174.975-0.119-262.484-0.04
			C347.447,2495.508,347.369,2487.308,347.249,2479.068L347.249,2479.068z M920.346,2503.708
			c0.119-12.36,11.726-17.945,19.965-24.838c510.466-0.277,1020.933,0.198,1531.399,0.158c-0.04,8.2-0.04,16.4,0,24.561
			C1954.589,2503.866,1437.468,2504.144,920.346,2503.708L920.346,2503.708z M1288.321,2344.024
			c-22.54-17.509-21.154-56.529,2.535-72.417c17.034-12.477,40.327-10.575,58.153-0.791c-0.951,3.644-2.892,10.894-3.882,14.538
			c-9.23-9.15-22.778-15.925-35.771-10.338c-28.562,11.171-26.026,59.183,2.654,68.452c11.33,3.882,22.026-2.494,30.146-9.823
			c1.901,4.833,3.803,9.623,5.744,14.459C1329.084,2356.858,1304.84,2358.52,1288.321,2344.024z M1798.708,2276.601
			c8.517-17.986,34.108-20.284,48.765-8.756c15.251,11.052,15.687,38.624-1.822,47.735c-10.656,6.062-22.936,1.704-33.87-0.634
			c6.457,11.884,14.776,23.174,27.294,29.156c4.912,1.506,11.171,8.477,2.852,10.26
			C1807.78,2348.816,1783.576,2308.767,1798.708,2276.601z M1004.288,2351.034c-13.667-5.862-17.787-25.591-8.557-36.84
			c9.072-9.19,23.531-10.419,32.523-19.689c7.527-8.952-2.417-23.292-13.35-21.588c-10.577,0.277-17.272,8.913-22.738,16.836
			c-1.545-5.665-3.129-11.33-4.793-16.955c10.022-7.209,22.54-12.24,34.979-8.873c17.074,2.732,29.671,24.243,19.49,39.495
			c-7.883,12.121-24.283,12.598-34.345,22.023c-6.972,7.924,1.624,20.125,11.29,18.977c7.368,0.714,11.052-7.567,16.242-11.409
			c1.981,5.308,3.961,10.617,5.982,15.886C1029.602,2353.965,1015.935,2357.452,1004.288,2351.034L1004.288,2351.034z
			 M1087.874,2353.412c3.526-29.512,4.12-60.057-0.317-89.487c6.576,0.038,13.152,0.079,19.767,0.038
			c-2.456,29.751-1.822,59.698-0.396,89.449C1100.59,2353.412,1094.212,2353.412,1087.874,2353.412L1087.874,2353.412z
			 M1156.485,2353.689c6.021-14.261,3.526-29.947,3.922-45c-0.356-14.974,1.743-30.345-2.931-44.923
			c5.744,0.119,11.448,0.198,17.192,0.239c-2.456,21.668-1.109,43.456-1.426,65.204c20.203-22.738,40.565-45.358,61.323-67.581
			c1.109,30.582-1.347,61.282,1.505,91.785c-5.546,0-11.092,0-16.638,0.04c3.605-17.907,2.298-36.208,2.218-54.352
			c-16.162,18.024-32.484,35.891-48.448,54.073C1167.617,2353.333,1162.031,2353.49,1156.485,2353.689z M1386.128,2263.925
			c17.628,0.118,35.256,0.038,52.885,0.118c1.466,4.278,2.931,8.555,4.437,12.836c-12.914-2.852-26.145-3.09-39.297-2.971
			c0,10.221,0,20.401-0.04,30.582c11.33,1.386,28.324-5.031,31.969,10.18c-10.656,0.078-21.273,0.04-31.929-0.079
			c0,9.665,0,19.292,0.04,28.918c10.577-0.12,21.233-0.594,31.691-2.456c1.505,4.119,3.05,8.24,4.595,12.319
			c-18.262-0.039-36.564-0.079-54.826,0.04C1388.307,2323.701,1387.673,2293.674,1386.128,2263.925z M1523.509,2342.478
			c2.813-2.535,5.625-5.031,8.477-7.566c-1.545-23.689,2.615-47.814-3.011-71.107c6.576,0.119,13.152,0.119,19.728,0.119
			c-3.882,29.828-1.545,60.133-1.307,90.159C1539.434,2350.203,1531.472,2346.281,1523.509,2342.478L1523.509,2342.478z
			 M1605.51,2301.2c10.656-7.883,24.481-3.525,36.326-1.267c-7.646-15.924-21.431-26.979-36.762-35.018
			c9.072-7.093,19.53-0.278,27.73,4.556c22.699,13.667,33.474,44.882,22.184,69.165c-7.13,15.329-27.175,19.571-41.674,12.874
			C1593.349,2344.657,1588.001,2313.56,1605.51,2301.2z M1704.744,2347.747c-14.776-10.696-16.321-36.565-0.475-47.021
			c10.656-7.251,23.966-3.211,35.415-0.356c-6.814-16.638-21.431-27.334-36.722-35.574c9.468-6.813,20.045,0.037,28.483,4.99
			c22.738,14.103,33.712,46.706,20.599,70.751C1742.852,2357.096,1718.925,2358.245,1704.744,2347.747L1704.744,2347.747z
			 M1432.318,3265.644c16.242,7.329,34.464-5.784,37.198-22.342c6.457-19.965-6.338-48.448-30.146-45.952
			C1407.757,3202.262,1404.707,3253.126,1432.318,3265.644L1432.318,3265.644z M1666.397,3248.927
			c13.508,4.952,30.067-3.684,33.83-17.628c6.18-19.134-3.011-45.358-24.006-50.468c-16.083-3.486-31.731,11.013-32.285,26.938
			C1642.827,3223.931,1650.393,3242.708,1666.397,3248.927L1666.397,3248.927z M1860.03,3173.938
			c6.021,8.042,12.082,16.043,18.104,24.085c1.268-10.022,2.496-20.084,3.724-30.107
			C1874.569,3169.937,1867.28,3171.917,1860.03,3173.938z M870.274,2928.014c34.742,4.437,71.583-4.991,98.203-28.284
			c34.068-29.75,50.904-75.227,53.835-119.555c3.565-52.885-10.062-110.365-49.28-148.077
			c-41.238-39.852-110.523-44.407-157.268-11.765c-31.255,21.233-50.627,56.252-59.104,92.419
			c-13.112,54.073-5.229,114.366,26.224,160.873C802.494,2903.057,834.78,2924.369,870.274,2928.014L870.274,2928.014z
			 M1621.594,2343.469c17.628,6.734,26.858-20.717,16.004-31.693c-5.586-7.525-19.411-6.97-23.253,1.981
			C1609.67,2323.661,1611.413,2337.686,1621.594,2343.469z M1720.431,2343.587c15.093,5.508,23.966-15.37,18.619-27.056
			c-3.169-9.905-17.43-13.47-24.759-5.862C1707.2,2320.652,1708.586,2337.805,1720.431,2343.587z M1820.575,2307.064
			c24.323,11.409,29.592-34.741,6.259-36.524C1809.483,2271.649,1805.68,2299.577,1820.575,2307.064"/>
	</g>
</g>
<g>
</g>
<g>
</g>
<g>
</g>
<g>
</g>
<g>
</g>
<g>
</g>
</svg>
