<?xml version="1.0" encoding="utf-8"?>
<!-- Generator: Adobe Illustrator 22.1.0, SVG Export Plug-In . SVG Version: 6.00 Build 0)  -->
<svg version="1.1" id="Layer_1" xmlns="http://www.w3.org/2000/svg" xmlns:xlink="http://www.w3.org/1999/xlink" x="0px" y="0px"
	 viewBox="0 0 213 304" style="enable-background:new 0 0 213 304;" xml:space="preserve">
<style type="text/css">
	.st0{fill:#009836;}
	.st1{fill:#E6E7E8;}
	.st2{fill:#F1F2F2;}
	.st3{fill:#D1D3D4;}
	.st4{fill:#FFFFFF;}
	.st5{fill:#8BC53F;}
</style>
<polygon id="XMLID_1103_" class="st0" points="61,35.3 61,41.9 118.1,75 160.9,50.6 160.9,43.5 "/>
<polygon id="XMLID_1102_" class="st1" points="103.8,10.5 160.9,43.5 118.1,68.3 61,35.3 "/>
<polygon id="XMLID_1101_" class="st0" points="79.7,34.3 79.7,38.4 115.4,59.1 142.1,43.9 142.1,39.4 "/>
<polygon id="XMLID_1100_" class="st2" points="106.5,18.9 142.1,39.4 115.4,54.9 79.7,34.3 "/>
<polygon id="XMLID_1099_" class="st3" points="61,41.9 60.8,233.3 118,266.3 118.1,75 "/>
<polygon id="XMLID_1098_" class="st4" points="118,266.3 160.9,242.1 160.9,50.6 118.1,75 "/>
<g id="XMLID_1091_">
	<polygon id="XMLID_1097_" class="st0" points="125.7,77.8 125.7,83.1 121.1,85.8 121.1,80.5 	"/>
	<polygon id="XMLID_1096_" class="st0" points="132.3,74.3 132.3,79.6 127.7,82.2 127.7,76.9 	"/>
	<polygon id="XMLID_1095_" class="st0" points="138.9,70.4 138.9,75.7 134.3,78.4 134.3,73.1 	"/>
	<polygon id="XMLID_1094_" class="st0" points="145.4,66.8 145.4,72.1 140.8,74.7 140.8,69.4 	"/>
	<polygon id="XMLID_1093_" class="st0" points="152,62.8 152,68.1 147.4,70.7 147.4,65.4 	"/>
	<polygon id="XMLID_1092_" class="st0" points="158.5,59 158.5,64.3 154,67 154,61.7 	"/>
</g>
<g id="XMLID_1084_">
	<polygon id="XMLID_1090_" class="st0" points="125.7,87.6 125.7,92.8 121.1,95.5 121.1,90.2 	"/>
	<polygon id="XMLID_1089_" class="st0" points="132.3,84 132.3,89.3 127.7,92 127.7,86.7 	"/>
	<polygon id="XMLID_1088_" class="st0" points="138.9,80.2 138.9,85.5 134.3,88.1 134.3,82.8 	"/>
	<polygon id="XMLID_1087_" class="st0" points="145.4,76.5 145.4,81.8 140.8,84.4 140.8,79.1 	"/>
	<polygon id="XMLID_1086_" class="st0" points="152,72.5 152,77.8 147.4,80.5 147.4,75.2 	"/>
	<polygon id="XMLID_1085_" class="st0" points="158.5,68.8 158.5,74.1 154,76.7 154,71.4 	"/>
</g>
<g id="XMLID_1077_">
	<polygon id="XMLID_1083_" class="st0" points="125.7,97.3 125.7,102.6 121.1,105.2 121.1,99.9 	"/>
	<polygon id="XMLID_1082_" class="st0" points="132.3,93.7 132.3,99 127.7,101.7 127.7,96.4 	"/>
	<polygon id="XMLID_1081_" class="st0" points="138.9,89.9 138.9,95.2 134.3,97.8 134.3,92.6 	"/>
	<polygon id="XMLID_1080_" class="st0" points="145.4,86.2 145.4,91.5 140.8,94.2 140.8,88.9 	"/>
	<polygon id="XMLID_1079_" class="st0" points="152,82.3 152,87.6 147.4,90.2 147.4,84.9 	"/>
	<polygon id="XMLID_1078_" class="st0" points="158.5,78.5 158.5,83.8 154,86.4 154,81.2 	"/>
</g>
<g id="XMLID_1070_">
	<polygon id="XMLID_1076_" class="st0" points="125.7,107 125.7,112.3 121.1,115 121.1,109.7 	"/>
	<polygon id="XMLID_1075_" class="st0" points="132.3,103.5 132.3,108.8 127.7,111.4 127.7,106.1 	"/>
	<polygon id="XMLID_1074_" class="st0" points="138.9,99.6 138.9,104.9 134.3,107.6 134.3,102.3 	"/>
	<polygon id="XMLID_1073_" class="st0" points="145.4,96 145.4,101.3 140.8,103.9 140.8,98.6 	"/>
	<polygon id="XMLID_1072_" class="st0" points="152,92 152,97.3 147.4,99.9 147.4,94.6 	"/>
	<polygon id="XMLID_1071_" class="st0" points="158.5,88.2 158.5,93.5 154,96.2 154,90.9 	"/>
</g>
<g id="XMLID_1063_">
	<polygon id="XMLID_1069_" class="st0" points="125.7,116.8 125.7,122 121.1,124.7 121.1,119.4 	"/>
	<polygon id="XMLID_1068_" class="st0" points="132.3,113.2 132.3,118.5 127.7,121.1 127.7,115.9 	"/>
	<polygon id="XMLID_1067_" class="st0" points="138.9,109.4 138.9,114.7 134.3,117.3 134.3,112 	"/>
	<polygon id="XMLID_1066_" class="st0" points="145.4,105.7 145.4,111 140.8,113.6 140.8,108.3 	"/>
	<polygon id="XMLID_1065_" class="st0" points="152,101.7 152,107 147.4,109.7 147.4,104.4 	"/>
	<polygon id="XMLID_1064_" class="st0" points="158.5,98 158.5,103.3 154,105.9 154,100.6 	"/>
</g>
<g id="XMLID_1056_">
	<polygon id="XMLID_1062_" class="st0" points="125.7,126.5 125.7,131.8 121.1,134.4 121.1,129.1 	"/>
	<polygon id="XMLID_1061_" class="st0" points="132.3,122.9 132.3,128.2 127.7,130.9 127.7,125.6 	"/>
	<polygon id="XMLID_1060_" class="st0" points="138.9,119.1 138.9,124.4 134.3,127 134.3,121.8 	"/>
	<polygon id="XMLID_1059_" class="st0" points="145.4,115.4 145.4,120.7 140.8,123.4 140.8,118.1 	"/>
	<polygon id="XMLID_1058_" class="st0" points="152,111.5 152,116.8 147.4,119.4 147.4,114.1 	"/>
	<polygon id="XMLID_1057_" class="st0" points="158.5,107.7 158.5,113 154,115.6 154,110.4 	"/>
</g>
<g id="XMLID_1049_">
	<polygon id="XMLID_1055_" class="st0" points="125.7,136.2 125.7,141.5 121.1,144.2 121.1,138.9 	"/>
	<polygon id="XMLID_1054_" class="st0" points="132.3,132.7 132.3,138 127.7,140.6 127.7,135.3 	"/>
	<polygon id="XMLID_1053_" class="st0" points="138.9,128.8 138.9,134.1 134.3,136.8 134.3,131.5 	"/>
	<polygon id="XMLID_1052_" class="st0" points="145.4,125.2 145.4,130.5 140.8,133.1 140.8,127.8 	"/>
	<polygon id="XMLID_1051_" class="st0" points="152,121.2 152,126.5 147.4,129.1 147.4,123.8 	"/>
	<polygon id="XMLID_1050_" class="st0" points="158.5,117.4 158.5,122.7 154,125.4 154,120.1 	"/>
</g>
<g id="XMLID_1042_">
	<polygon id="XMLID_1048_" class="st0" points="125.7,146 125.7,151.2 121.1,153.9 121.1,148.6 	"/>
	<polygon id="XMLID_1047_" class="st0" points="132.3,142.4 132.3,147.7 127.7,150.3 127.7,145.1 	"/>
	<polygon id="XMLID_1046_" class="st0" points="138.9,138.6 138.9,143.9 134.3,146.5 134.3,141.2 	"/>
	<polygon id="XMLID_1045_" class="st0" points="145.4,134.9 145.4,140.2 140.8,142.8 140.8,137.5 	"/>
	<polygon id="XMLID_1044_" class="st0" points="152,130.9 152,136.2 147.4,138.9 147.4,133.6 	"/>
	<polygon id="XMLID_1043_" class="st0" points="158.5,127.2 158.5,132.5 154,135.1 154,129.8 	"/>
</g>
<g id="XMLID_1035_">
	<polygon id="XMLID_1041_" class="st0" points="125.7,155.7 125.7,161 121.1,163.6 121.1,158.3 	"/>
	<polygon id="XMLID_1040_" class="st0" points="132.3,152.1 132.3,157.4 127.7,160.1 127.7,154.8 	"/>
	<polygon id="XMLID_1039_" class="st0" points="138.9,148.3 138.9,153.6 134.3,156.2 134.3,151 	"/>
	<polygon id="XMLID_1038_" class="st0" points="145.4,144.6 145.4,149.9 140.8,152.6 140.8,147.3 	"/>
	<polygon id="XMLID_1037_" class="st0" points="152,140.7 152,146 147.4,148.6 147.4,143.3 	"/>
	<polygon id="XMLID_1036_" class="st0" points="158.5,136.9 158.5,142.2 154,144.8 154,139.5 	"/>
</g>
<g id="XMLID_1028_">
	<polygon id="XMLID_1034_" class="st0" points="125.7,165.4 125.7,170.7 121.1,173.4 121.1,168.1 	"/>
	<polygon id="XMLID_1033_" class="st0" points="132.3,161.9 132.3,167.2 127.7,169.8 127.7,164.5 	"/>
	<polygon id="XMLID_1032_" class="st0" points="138.9,158 138.9,163.3 134.3,166 134.3,160.7 	"/>
	<polygon id="XMLID_1031_" class="st0" points="145.4,154.4 145.4,159.7 140.8,162.3 140.8,157 	"/>
	<polygon id="XMLID_1030_" class="st0" points="152,150.4 152,155.7 147.4,158.3 147.4,153 	"/>
	<polygon id="XMLID_1029_" class="st0" points="158.5,146.6 158.5,151.9 154,154.6 154,149.3 	"/>
</g>
<g id="XMLID_1021_">
	<polygon id="XMLID_1027_" class="st0" points="125.7,175.1 125.7,180.4 121.1,183.1 121.1,177.8 	"/>
	<polygon id="XMLID_1026_" class="st0" points="132.3,171.6 132.3,176.9 127.7,179.5 127.7,174.3 	"/>
	<polygon id="XMLID_1025_" class="st0" points="138.9,167.8 138.9,173.1 134.3,175.7 134.3,170.4 	"/>
	<polygon id="XMLID_1024_" class="st0" points="145.4,164.1 145.4,169.4 140.8,172 140.8,166.7 	"/>
	<polygon id="XMLID_1023_" class="st0" points="152,160.1 152,165.4 147.4,168.1 147.4,162.8 	"/>
	<polygon id="XMLID_1022_" class="st0" points="158.5,156.4 158.5,161.7 154,164.3 154,159 	"/>
</g>
<g id="XMLID_1014_">
	<polygon id="XMLID_1020_" class="st0" points="125.7,184.9 125.7,190.2 121.1,192.8 121.1,187.5 	"/>
	<polygon id="XMLID_1019_" class="st0" points="132.3,181.3 132.3,186.6 127.7,189.3 127.7,184 	"/>
	<polygon id="XMLID_1018_" class="st0" points="138.9,177.5 138.9,182.8 134.3,185.4 134.3,180.1 	"/>
	<polygon id="XMLID_1017_" class="st0" points="145.4,173.8 145.4,179.1 140.8,181.8 140.8,176.5 	"/>
	<polygon id="XMLID_1016_" class="st0" points="152,169.9 152,175.1 147.4,177.8 147.4,172.5 	"/>
	<polygon id="XMLID_1015_" class="st0" points="158.5,166.1 158.5,171.4 154,174 154,168.7 	"/>
</g>
<g id="XMLID_1007_">
	<polygon id="XMLID_1013_" class="st0" points="125.7,194.6 125.7,199.9 121.1,202.6 121.1,197.3 	"/>
	<polygon id="XMLID_1012_" class="st0" points="132.3,191.1 132.3,196.4 127.7,199 127.7,193.7 	"/>
	<polygon id="XMLID_1011_" class="st0" points="138.9,187.2 138.9,192.5 134.3,195.2 134.3,189.9 	"/>
	<polygon id="XMLID_1010_" class="st0" points="145.4,183.6 145.4,188.8 140.8,191.5 140.8,186.2 	"/>
	<polygon id="XMLID_1009_" class="st0" points="152,179.6 152,184.9 147.4,187.5 147.4,182.2 	"/>
	<polygon id="XMLID_1008_" class="st0" points="158.5,175.8 158.5,181.1 154,183.8 154,178.5 	"/>
</g>
<g id="XMLID_1000_">
	<polygon id="XMLID_1006_" class="st0" points="125.7,204.3 125.7,209.6 121.1,212.3 121.1,207 	"/>
	<polygon id="XMLID_1005_" class="st0" points="132.3,200.8 132.3,206.1 127.7,208.7 127.7,203.4 	"/>
	<polygon id="XMLID_1004_" class="st0" points="138.9,197 138.9,202.3 134.3,204.9 134.3,199.6 	"/>
	<polygon id="XMLID_1003_" class="st0" points="145.4,193.3 145.4,198.6 140.8,201.2 140.8,195.9 	"/>
	<polygon id="XMLID_1002_" class="st0" points="152,189.3 152,194.6 147.4,197.3 147.4,192 	"/>
	<polygon id="XMLID_1001_" class="st0" points="158.5,185.6 158.5,190.9 154,193.5 154,188.2 	"/>
</g>
<g id="XMLID_993_">
	<polygon id="XMLID_999_" class="st0" points="125.7,214.1 125.7,219.4 121.1,222 121.1,216.7 	"/>
	<polygon id="XMLID_998_" class="st0" points="132.3,210.5 132.3,215.8 127.7,218.5 127.7,213.2 	"/>
	<polygon id="XMLID_997_" class="st0" points="138.9,206.7 138.9,212 134.3,214.6 134.3,209.3 	"/>
	<polygon id="XMLID_996_" class="st0" points="145.4,203 145.4,208.3 140.8,211 140.8,205.7 	"/>
	<polygon id="XMLID_995_" class="st0" points="152,199.1 152,204.3 147.4,207 147.4,201.7 	"/>
	<polygon id="XMLID_994_" class="st0" points="158.5,195.3 158.5,200.6 154,203.2 154,197.9 	"/>
</g>
<g id="XMLID_986_">
	<polygon id="XMLID_992_" class="st0" points="125.7,223.8 125.7,229.1 121.1,231.7 121.1,226.5 	"/>
	<polygon id="XMLID_991_" class="st0" points="132.3,220.3 132.3,225.6 127.7,228.2 127.7,222.9 	"/>
	<polygon id="XMLID_990_" class="st0" points="138.9,216.4 138.9,221.7 134.3,224.4 134.3,219.1 	"/>
	<polygon id="XMLID_989_" class="st0" points="145.4,212.8 145.4,218 140.8,220.7 140.8,215.4 	"/>
	<polygon id="XMLID_988_" class="st0" points="152,208.8 152,214.1 147.4,216.7 147.4,211.4 	"/>
	<polygon id="XMLID_987_" class="st0" points="158.5,205 158.5,210.3 154,213 154,207.7 	"/>
</g>
<g id="XMLID_979_">
	<polygon id="XMLID_985_" class="st0" points="125.7,233.5 125.7,238.8 121.1,241.5 121.1,236.2 	"/>
	<polygon id="XMLID_984_" class="st0" points="132.3,230 132.3,235.3 127.7,237.9 127.7,232.6 	"/>
	<polygon id="XMLID_983_" class="st0" points="138.9,226.2 138.9,231.5 134.3,234.1 134.3,228.8 	"/>
	<polygon id="XMLID_982_" class="st0" points="145.4,222.5 145.4,227.8 140.8,230.4 140.8,225.1 	"/>
	<polygon id="XMLID_981_" class="st0" points="152,218.5 152,223.8 147.4,226.5 147.4,221.2 	"/>
	<polygon id="XMLID_980_" class="st0" points="158.5,214.8 158.5,220.1 154,222.7 154,217.4 	"/>
</g>
<g id="XMLID_972_">
	<polygon id="XMLID_978_" class="st0" points="125.7,243.3 125.7,248.6 121.1,251.2 121.1,245.9 	"/>
	<polygon id="XMLID_977_" class="st0" points="132.3,239.7 132.3,245 127.7,247.7 127.7,242.4 	"/>
	<polygon id="XMLID_976_" class="st0" points="138.9,235.9 138.9,241.2 134.3,243.8 134.3,238.5 	"/>
	<polygon id="XMLID_975_" class="st0" points="145.4,232.2 145.4,237.5 140.8,240.2 140.8,234.9 	"/>
	<polygon id="XMLID_974_" class="st0" points="152,228.3 152,233.5 147.4,236.2 147.4,230.9 	"/>
	<polygon id="XMLID_973_" class="st0" points="158.5,224.5 158.5,229.8 154,232.4 154,227.1 	"/>
</g>
<g id="XMLID_965_">
	<polygon id="XMLID_971_" class="st0" points="103.1,77.8 103.1,83.1 107.7,85.8 107.7,80.5 	"/>
	<polygon id="XMLID_970_" class="st0" points="96.5,74.3 96.5,79.6 101.1,82.2 101.1,76.9 	"/>
	<polygon id="XMLID_969_" class="st0" points="90,70.4 90,75.7 94.6,78.4 94.6,73.1 	"/>
	<polygon id="XMLID_968_" class="st0" points="83.4,66.8 83.4,72.1 88,74.7 88,69.4 	"/>
	<polygon id="XMLID_967_" class="st0" points="76.9,62.8 76.9,68.1 81.4,70.7 81.4,65.4 	"/>
	<polygon id="XMLID_966_" class="st0" points="70.3,59 70.3,64.3 74.9,67 74.9,61.7 	"/>
</g>
<g id="XMLID_958_">
	<polygon id="XMLID_964_" class="st0" points="103.1,87.6 103.1,92.8 107.7,95.5 107.7,90.2 	"/>
	<polygon id="XMLID_963_" class="st0" points="96.5,84 96.5,89.3 101.1,92 101.1,86.7 	"/>
	<polygon id="XMLID_962_" class="st0" points="90,80.2 90,85.5 94.6,88.1 94.6,82.8 	"/>
	<polygon id="XMLID_961_" class="st0" points="83.4,76.5 83.4,81.8 88,84.4 88,79.1 	"/>
	<polygon id="XMLID_960_" class="st0" points="76.9,72.5 76.9,77.8 81.4,80.5 81.4,75.2 	"/>
	<polygon id="XMLID_959_" class="st0" points="70.3,68.8 70.3,74.1 74.9,76.7 74.9,71.4 	"/>
</g>
<g id="XMLID_951_">
	<polygon id="XMLID_957_" class="st0" points="103.1,97.3 103.1,102.6 107.7,105.2 107.7,99.9 	"/>
	<polygon id="XMLID_956_" class="st0" points="96.5,93.7 96.5,99 101.1,101.7 101.1,96.4 	"/>
	<polygon id="XMLID_955_" class="st0" points="90,89.9 90,95.2 94.6,97.8 94.6,92.6 	"/>
	<polygon id="XMLID_954_" class="st0" points="83.4,86.2 83.4,91.5 88,94.2 88,88.9 	"/>
	<polygon id="XMLID_953_" class="st0" points="76.9,82.3 76.9,87.6 81.4,90.2 81.4,84.9 	"/>
	<polygon id="XMLID_952_" class="st0" points="70.3,78.5 70.3,83.8 74.9,86.4 74.9,81.2 	"/>
</g>
<g id="XMLID_944_">
	<polygon id="XMLID_950_" class="st0" points="103.1,107 103.1,112.3 107.7,115 107.7,109.7 	"/>
	<polygon id="XMLID_949_" class="st0" points="96.5,103.5 96.5,108.8 101.1,111.4 101.1,106.1 	"/>
	<polygon id="XMLID_948_" class="st0" points="90,99.6 90,104.9 94.6,107.6 94.6,102.3 	"/>
	<polygon id="XMLID_947_" class="st0" points="83.4,96 83.4,101.3 88,103.9 88,98.6 	"/>
	<polygon id="XMLID_946_" class="st0" points="76.9,92 76.9,97.3 81.4,99.9 81.4,94.6 	"/>
	<polygon id="XMLID_945_" class="st0" points="70.3,88.2 70.3,93.5 74.9,96.2 74.9,90.9 	"/>
</g>
<g id="XMLID_937_">
	<polygon id="XMLID_943_" class="st0" points="103.1,116.8 103.1,122 107.7,124.7 107.7,119.4 	"/>
	<polygon id="XMLID_942_" class="st0" points="96.5,113.2 96.5,118.5 101.1,121.1 101.1,115.9 	"/>
	<polygon id="XMLID_941_" class="st0" points="90,109.4 90,114.7 94.6,117.3 94.6,112 	"/>
	<polygon id="XMLID_940_" class="st0" points="83.4,105.7 83.4,111 88,113.6 88,108.3 	"/>
	<polygon id="XMLID_939_" class="st0" points="76.9,101.7 76.9,107 81.4,109.7 81.4,104.4 	"/>
	<polygon id="XMLID_938_" class="st0" points="70.3,98 70.3,103.3 74.9,105.9 74.9,100.6 	"/>
</g>
<g id="XMLID_930_">
	<polygon id="XMLID_936_" class="st0" points="103.1,126.5 103.1,131.8 107.7,134.4 107.7,129.1 	"/>
	<polygon id="XMLID_935_" class="st0" points="96.5,122.9 96.5,128.2 101.1,130.9 101.1,125.6 	"/>
	<polygon id="XMLID_934_" class="st0" points="90,119.1 90,124.4 94.6,127 94.6,121.8 	"/>
	<polygon id="XMLID_933_" class="st0" points="83.4,115.4 83.4,120.7 88,123.4 88,118.1 	"/>
	<polygon id="XMLID_932_" class="st0" points="76.9,111.5 76.9,116.8 81.4,119.4 81.4,114.1 	"/>
	<polygon id="XMLID_931_" class="st0" points="70.3,107.7 70.3,113 74.9,115.6 74.9,110.4 	"/>
</g>
<g id="XMLID_923_">
	<polygon id="XMLID_929_" class="st0" points="103.1,136.2 103.1,141.5 107.7,144.2 107.7,138.9 	"/>
	<polygon id="XMLID_928_" class="st0" points="96.5,132.7 96.5,138 101.1,140.6 101.1,135.3 	"/>
	<polygon id="XMLID_927_" class="st0" points="90,128.8 90,134.1 94.6,136.8 94.6,131.5 	"/>
	<polygon id="XMLID_926_" class="st0" points="83.4,125.2 83.4,130.5 88,133.1 88,127.8 	"/>
	<polygon id="XMLID_925_" class="st0" points="76.9,121.2 76.9,126.5 81.4,129.1 81.4,123.8 	"/>
	<polygon id="XMLID_924_" class="st0" points="70.3,117.4 70.3,122.7 74.9,125.4 74.9,120.1 	"/>
</g>
<g id="XMLID_916_">
	<polygon id="XMLID_922_" class="st0" points="103.1,146 103.1,151.2 107.7,153.9 107.7,148.6 	"/>
	<polygon id="XMLID_921_" class="st0" points="96.5,142.4 96.5,147.7 101.1,150.3 101.1,145.1 	"/>
	<polygon id="XMLID_920_" class="st0" points="90,138.6 90,143.9 94.6,146.5 94.6,141.2 	"/>
	<polygon id="XMLID_919_" class="st0" points="83.4,134.9 83.4,140.2 88,142.8 88,137.5 	"/>
	<polygon id="XMLID_918_" class="st0" points="76.9,130.9 76.9,136.2 81.4,138.9 81.4,133.6 	"/>
	<polygon id="XMLID_917_" class="st0" points="70.3,127.2 70.3,132.5 74.9,135.1 74.9,129.8 	"/>
</g>
<g id="XMLID_909_">
	<polygon id="XMLID_915_" class="st0" points="103.1,155.7 103.1,161 107.7,163.6 107.7,158.3 	"/>
	<polygon id="XMLID_914_" class="st0" points="96.5,152.1 96.5,157.4 101.1,160.1 101.1,154.8 	"/>
	<polygon id="XMLID_913_" class="st0" points="90,148.3 90,153.6 94.6,156.2 94.6,151 	"/>
	<polygon id="XMLID_912_" class="st0" points="83.4,144.6 83.4,149.9 88,152.6 88,147.3 	"/>
	<polygon id="XMLID_911_" class="st0" points="76.9,140.7 76.9,146 81.4,148.6 81.4,143.3 	"/>
	<polygon id="XMLID_910_" class="st0" points="70.3,136.9 70.3,142.2 74.9,144.8 74.9,139.5 	"/>
</g>
<g id="XMLID_902_">
	<polygon id="XMLID_908_" class="st0" points="103.1,165.4 103.1,170.7 107.7,173.4 107.7,168.1 	"/>
	<polygon id="XMLID_907_" class="st0" points="96.5,161.9 96.5,167.2 101.1,169.8 101.1,164.5 	"/>
	<polygon id="XMLID_906_" class="st0" points="90,158 90,163.3 94.6,166 94.6,160.7 	"/>
	<polygon id="XMLID_905_" class="st0" points="83.4,154.4 83.4,159.7 88,162.3 88,157 	"/>
	<polygon id="XMLID_904_" class="st0" points="76.9,150.4 76.9,155.7 81.4,158.3 81.4,153 	"/>
	<polygon id="XMLID_903_" class="st0" points="70.3,146.6 70.3,151.9 74.9,154.6 74.9,149.3 	"/>
</g>
<g id="XMLID_895_">
	<polygon id="XMLID_901_" class="st0" points="103.1,175.1 103.1,180.4 107.7,183.1 107.7,177.8 	"/>
	<polygon id="XMLID_900_" class="st0" points="96.5,171.6 96.5,176.9 101.1,179.5 101.1,174.3 	"/>
	<polygon id="XMLID_899_" class="st0" points="90,167.8 90,173.1 94.6,175.7 94.6,170.4 	"/>
	<polygon id="XMLID_898_" class="st0" points="83.4,164.1 83.4,169.4 88,172 88,166.7 	"/>
	<polygon id="XMLID_897_" class="st0" points="76.9,160.1 76.9,165.4 81.4,168.1 81.4,162.8 	"/>
	<polygon id="XMLID_896_" class="st0" points="70.3,156.4 70.3,161.7 74.9,164.3 74.9,159 	"/>
</g>
<g id="XMLID_888_">
	<polygon id="XMLID_894_" class="st0" points="103.1,184.9 103.1,190.2 107.7,192.8 107.7,187.5 	"/>
	<polygon id="XMLID_893_" class="st0" points="96.5,181.3 96.5,186.6 101.1,189.3 101.1,184 	"/>
	<polygon id="XMLID_892_" class="st0" points="90,177.5 90,182.8 94.6,185.4 94.6,180.1 	"/>
	<polygon id="XMLID_891_" class="st0" points="83.4,173.8 83.4,179.1 88,181.8 88,176.5 	"/>
	<polygon id="XMLID_890_" class="st0" points="76.9,169.9 76.9,175.1 81.4,177.8 81.4,172.5 	"/>
	<polygon id="XMLID_889_" class="st0" points="70.3,166.1 70.3,171.4 74.9,174 74.9,168.7 	"/>
</g>
<g id="XMLID_881_">
	<polygon id="XMLID_887_" class="st0" points="103.1,194.6 103.1,199.9 107.7,202.6 107.7,197.3 	"/>
	<polygon id="XMLID_886_" class="st0" points="96.5,191.1 96.5,196.4 101.1,199 101.1,193.7 	"/>
	<polygon id="XMLID_885_" class="st0" points="90,187.2 90,192.5 94.6,195.2 94.6,189.9 	"/>
	<polygon id="XMLID_884_" class="st0" points="83.4,183.6 83.4,188.8 88,191.5 88,186.2 	"/>
	<polygon id="XMLID_883_" class="st0" points="76.9,179.6 76.9,184.9 81.4,187.5 81.4,182.2 	"/>
	<polygon id="XMLID_882_" class="st0" points="70.3,175.8 70.3,181.1 74.9,183.8 74.9,178.5 	"/>
</g>
<g id="XMLID_842_">
	<polygon id="XMLID_880_" class="st0" points="103.1,204.3 103.1,209.6 107.7,212.3 107.7,207 	"/>
	<polygon id="XMLID_847_" class="st0" points="96.5,200.8 96.5,206.1 101.1,208.7 101.1,203.4 	"/>
	<polygon id="XMLID_846_" class="st0" points="90,197 90,202.3 94.6,204.9 94.6,199.6 	"/>
	<polygon id="XMLID_845_" class="st0" points="83.4,193.3 83.4,198.6 88,201.2 88,195.9 	"/>
	<polygon id="XMLID_844_" class="st0" points="76.9,189.3 76.9,194.6 81.4,197.3 81.4,192 	"/>
	<polygon id="XMLID_843_" class="st0" points="70.3,185.6 70.3,190.9 74.9,193.5 74.9,188.2 	"/>
</g>
<g id="XMLID_835_">
	<polygon id="XMLID_841_" class="st0" points="103.1,214.1 103.1,219.4 107.7,222 107.7,216.7 	"/>
	<polygon id="XMLID_840_" class="st0" points="96.5,210.5 96.5,215.8 101.1,218.5 101.1,213.2 	"/>
	<polygon id="XMLID_839_" class="st0" points="90,206.7 90,212 94.6,214.6 94.6,209.3 	"/>
	<polygon id="XMLID_838_" class="st0" points="83.4,203 83.4,208.3 88,211 88,205.7 	"/>
	<polygon id="XMLID_837_" class="st0" points="76.9,199.1 76.9,204.3 81.4,207 81.4,201.7 	"/>
	<polygon id="XMLID_836_" class="st0" points="70.3,195.3 70.3,200.6 74.9,203.2 74.9,197.9 	"/>
</g>
<g id="XMLID_828_">
	<polygon id="XMLID_834_" class="st0" points="103.1,223.8 103.1,229.1 107.7,231.7 107.7,226.5 	"/>
	<polygon id="XMLID_833_" class="st0" points="96.5,220.3 96.5,225.6 101.1,228.2 101.1,222.9 	"/>
	<polygon id="XMLID_832_" class="st0" points="90,216.4 90,221.7 94.6,224.4 94.6,219.1 	"/>
	<polygon id="XMLID_831_" class="st0" points="83.4,212.8 83.4,218 88,220.7 88,215.4 	"/>
	<polygon id="XMLID_830_" class="st0" points="76.9,208.8 76.9,214.1 81.4,216.7 81.4,211.4 	"/>
	<polygon id="XMLID_829_" class="st0" points="70.3,205 70.3,210.3 74.9,213 74.9,207.7 	"/>
</g>
<g id="XMLID_821_">
	<polygon id="XMLID_827_" class="st0" points="103.1,233.5 103.1,238.8 107.7,241.5 107.7,236.2 	"/>
	<polygon id="XMLID_826_" class="st0" points="96.5,230 96.5,235.3 101.1,237.9 101.1,232.6 	"/>
	<polygon id="XMLID_825_" class="st0" points="90,226.2 90,231.5 94.6,234.1 94.6,228.8 	"/>
	<polygon id="XMLID_824_" class="st0" points="83.4,222.5 83.4,227.8 88,230.4 88,225.1 	"/>
	<polygon id="XMLID_823_" class="st0" points="76.9,218.5 76.9,223.8 81.4,226.5 81.4,221.2 	"/>
	<polygon id="XMLID_822_" class="st0" points="70.3,214.8 70.3,220.1 74.9,222.7 74.9,217.4 	"/>
</g>
<g id="XMLID_814_">
	<polygon id="XMLID_820_" class="st0" points="103.1,243.3 103.1,248.6 107.7,251.2 107.7,245.9 	"/>
	<polygon id="XMLID_819_" class="st0" points="96.5,239.7 96.5,245 101.1,247.7 101.1,242.4 	"/>
	<polygon id="XMLID_818_" class="st0" points="90,235.9 90,241.2 94.6,243.8 94.6,238.5 	"/>
	<polygon id="XMLID_817_" class="st0" points="83.4,232.2 83.4,237.5 88,240.2 88,234.9 	"/>
	<polygon id="XMLID_816_" class="st0" points="76.9,228.3 76.9,233.5 81.4,236.2 81.4,230.9 	"/>
	<polygon id="XMLID_815_" class="st0" points="70.3,224.5 70.3,229.8 74.9,232.4 74.9,227.1 	"/>
</g>
<g>
	<polygon id="XMLID_812_" class="st0" points="140.2,156.9 140.2,161 175.1,181.2 201.2,166.3 201.2,161.9 	"/>
	<polygon id="XMLID_811_" class="st1" points="166.4,141.8 201.2,161.9 175.1,177.1 140.2,156.9 	"/>
	<polygon id="XMLID_810_" class="st0" points="151.7,156.3 151.7,158.8 173.5,171.5 189.7,162.2 189.7,159.4 	"/>
	<polygon id="XMLID_809_" class="st2" points="168,146.9 189.7,159.4 173.5,168.9 151.7,156.3 	"/>
	<polygon id="XMLID_808_" class="st3" points="140.2,161 140.1,277.8 175.1,298.5 175.1,181.2 	"/>
	<polygon id="XMLID_807_" class="st4" points="175.1,298.5 201.2,283.2 201.2,166.3 175.1,181.2 	"/>
	<polygon id="XMLID_806_" class="st5" points="177,186.7 177,195.3 199.3,182.4 199.3,173.8 	"/>
	<polygon id="XMLID_805_" class="st5" points="177,198.4 177,207.1 199.3,194.1 199.3,185.5 	"/>
	<polygon id="XMLID_804_" class="st5" points="177,210.1 177,218.8 199.3,205.8 199.3,197.2 	"/>
	<polygon id="XMLID_803_" class="st5" points="177,221.8 177,230.5 199.3,217.5 199.3,208.9 	"/>
	<polygon id="XMLID_802_" class="st5" points="177,233.5 177,242.2 199.3,229.3 199.3,220.6 	"/>
	<polygon id="XMLID_801_" class="st5" points="177,245.2 177,253.9 199.3,241 199.3,232.3 	"/>
	<polygon id="XMLID_800_" class="st5" points="177,256.9 177,265.6 199.3,252.7 199.3,244 	"/>
	<polygon id="XMLID_799_" class="st5" points="177,268.6 177,277.3 199.3,264.4 199.3,255.7 	"/>
	<polygon id="XMLID_798_" class="st5" points="177,280.3 177,289 199.3,276.1 199.3,267.4 	"/>
	<polygon id="XMLID_797_" class="st5" points="169,186.7 169,195.3 146.6,182.4 146.6,173.8 	"/>
	<polygon id="XMLID_796_" class="st5" points="169,198.4 169,207.1 146.6,194.1 146.6,185.5 	"/>
	<polygon id="XMLID_795_" class="st5" points="169,210.1 169,218.8 146.6,205.8 146.6,197.2 	"/>
	<polygon id="XMLID_794_" class="st5" points="169,221.8 169,230.5 146.6,217.5 146.6,208.9 	"/>
	<polygon id="XMLID_793_" class="st5" points="169,233.5 169,242.2 146.6,229.3 146.6,220.6 	"/>
	<polygon id="XMLID_792_" class="st5" points="169,245.2 169,253.9 146.6,241 146.6,232.3 	"/>
	<polygon id="XMLID_766_" class="st5" points="169,256.9 169,265.6 146.6,252.7 146.6,244 	"/>
	<polygon id="XMLID_765_" class="st5" points="169,268.6 169,277.3 146.6,264.4 146.6,255.7 	"/>
	<polygon id="XMLID_764_" class="st5" points="169,280.3 169,289 146.6,276.1 146.6,267.4 	"/>
</g>
<polygon id="XMLID_518_" class="st0" points="13.2,109.4 13.2,114.8 60.2,142.1 95.4,122 95.4,116.1 "/>
<polygon id="XMLID_517_" class="st1" points="48.5,89 95.4,116.1 60.2,136.6 13.2,109.4 "/>
<polygon id="XMLID_516_" class="st0" points="28.6,108.6 28.6,112 58,129 79.9,116.4 79.9,112.8 "/>
<polygon id="XMLID_515_" class="st2" points="50.6,95.9 79.9,112.8 58,125.5 28.6,108.6 "/>
<polygon id="XMLID_514_" class="st3" points="13.2,114.8 13,272.3 60.2,300.2 60.2,142.1 "/>
<polygon id="XMLID_513_" class="st4" points="60.2,300.2 95.4,279.5 95.4,122 60.2,142.1 "/>
<polygon id="XMLID_512_" class="st5" points="62.7,149.5 62.7,161.2 92.9,143.8 92.9,132.1 "/>
<polygon id="XMLID_511_" class="st5" points="62.7,165.3 62.7,176.9 92.9,159.5 92.9,147.9 "/>
<polygon id="XMLID_510_" class="st5" points="62.7,181.1 62.7,192.7 92.9,175.3 92.9,163.7 "/>
<polygon id="XMLID_509_" class="st5" points="62.7,196.8 62.7,208.5 92.9,191.1 92.9,179.4 "/>
<polygon id="XMLID_508_" class="st5" points="62.7,212.6 62.7,224.3 92.9,206.9 92.9,195.2 "/>
<polygon id="XMLID_507_" class="st5" points="62.7,228.4 62.7,240 92.9,222.6 92.9,211 "/>
<polygon id="XMLID_401_" class="st5" points="62.7,244.2 62.7,255.8 92.9,238.4 92.9,226.8 "/>
<polygon id="XMLID_400_" class="st5" points="62.7,259.9 62.7,271.6 92.9,254.2 92.9,242.5 "/>
<polygon id="XMLID_399_" class="st5" points="62.7,275.7 62.7,287.4 92.9,270 92.9,258.3 "/>
<polygon id="XMLID_161_" class="st5" points="52,149.5 52,161.2 21.9,143.8 21.9,132.1 "/>
<polygon id="XMLID_147_" class="st5" points="52,165.3 52,176.9 21.9,159.5 21.9,147.9 "/>
<polygon id="XMLID_116_" class="st5" points="52,181.1 52,192.7 21.9,175.3 21.9,163.7 "/>
<polygon id="XMLID_115_" class="st5" points="52,196.8 52,208.5 21.9,191.1 21.9,179.4 "/>
<polygon id="XMLID_114_" class="st5" points="52,212.6 52,224.3 21.9,206.9 21.9,195.2 "/>
<polygon id="XMLID_113_" class="st5" points="52,228.4 52,240 21.9,222.6 21.9,211 "/>
<polygon id="XMLID_97_" class="st5" points="52,244.2 52,255.8 21.9,238.4 21.9,226.8 "/>
<polygon id="XMLID_93_" class="st5" points="52,259.9 52,271.6 21.9,254.2 21.9,242.5 "/>
<polygon id="XMLID_2_" class="st5" points="52,275.7 52,287.4 21.9,270 21.9,258.3 "/>
</svg>
