<?xml version="1.0" encoding="iso-8859-1"?>
<!-- Generator: Adobe Illustrator 19.2.1, SVG Export Plug-In . SVG Version: 6.00 Build 0)  -->
<svg version="1.1" id="Layer_1" xmlns="http://www.w3.org/2000/svg" xmlns:xlink="http://www.w3.org/1999/xlink" x="0px" y="0px"
	 viewBox="0 0 375 88.5" style="enable-background:new 0 0 375 88.5;" xml:space="preserve">
<path style="fill-rule:evenodd;clip-rule:evenodd;fill:#231F20;" d="M335.48,22.687v-7.761h30.149v7.761h-4.006
	c-4.529,0-5.975,2.053-9.075,5.622l-20.151,23.147v11.448c0,3.08,1.449,4.679,5.707,4.679h6.617v7.474h-42.255v-7.474h6.634
	c4.258,0,5.742-1.599,5.742-4.679V51.457l-22.087-25.572c-1.466-1.633-1.432-3.198-10.876-3.198v-7.761h38.162v7.761
	c0,0-3.266,0-4.747,0c-1.463,0-2.863,1.094-1.228,3.081c1.65,1.969,9.343,10.875,10.824,12.355c1.733,1.735,3.048,1.701,4.613,0
	c0,0,9.798-10.924,10.875-12.103c1.095-1.161,1.733-3.333-1.245-3.333C336.118,22.687,335.48,22.687,335.48,22.687L335.48,22.687z"
	/>
<path style="fill-rule:evenodd;clip-rule:evenodd;fill:#231F20;" d="M71.684,14.926h9.209v21.633h-8.536
	c0-8.03-16.8-15.775-27.019-15.775c-10.033,0-18.517,3.216-18.517,8.031c0,13.248,57.489,2.709,57.489,27.76
	c0,13.08-12.323,20.37-34.426,20.37c-7.678,0-17.004-1.936-23.822-5.724c-4.292-2.07-5.303,0.707-5.706,3.838h-9.479V52.685h8.569
	c5.135,13.317,20.875,15.993,29.932,15.892c13.619-0.151,18.299-3.266,18.299-7.761c0-13.939-57.001-1.65-57.001-27.676
	c0-12.357,13.163-20.119,34.056-20.119c8.754,0,16.127,1.617,21.379,4.378C70.253,20.144,71.684,19.891,71.684,14.926L71.684,14.926
	z"/>
<path style="fill-rule:evenodd;clip-rule:evenodd;fill:#231F20;" d="M252.568,51.136V28.528c0-3.081,0.27-5.808-6.009-5.808h-5.824
	v-7.373h34.931v7.373h-5.757c-6.178,0-5.893,2.727-5.893,5.808v46.968h-12.792l-42.642-42.17v28.972
	c0,3.081-0.152,5.841,6.077,5.841h5.824v7.357h-34.914v-7.357h5.791c6.145,0,6.078-2.76,6.078-5.841V29.572
	c0-6.296-1.566-6.734-6.078-6.734h-5.791v-7.492h30.216L252.568,51.136L252.568,51.136z"/>
<path style="fill:#231F20;" d="M139.342,12.586c-25.74,0-43.147,12.592-43.147,31.194c0,20.656,15.285,32.726,43.147,32.726
	c27.894,0,43.146-12.07,43.146-32.726C182.488,25.178,165.132,12.586,139.342,12.586z M139.342,68.679
	c-15.186,0-23.115-8.587-23.115-23.72c0-15.505,8.502-24.646,23.115-24.646c14.612,0,23.147,9.142,23.147,24.646
	C162.49,60.092,154.561,68.679,139.342,68.679z"/>
<g>
</g>
<g>
</g>
<g>
</g>
<g>
</g>
<g>
</g>
<g>
</g>
</svg>
