<?xml version="1.0" encoding="utf-8"?>
<!-- Generator: Adobe Illustrator 22.1.0, SVG Export Plug-In . SVG Version: 6.00 Build 0)  -->
<svg version="1.1" id="Layer_1" xmlns="http://www.w3.org/2000/svg" xmlns:xlink="http://www.w3.org/1999/xlink" x="0px" y="0px"
	 viewBox="0 0 440 384" style="enable-background:new 0 0 440 384;" xml:space="preserve">
<style type="text/css">
	.st0{fill:url(#XMLID_3_);}
	.st1{fill:url(#XMLID_5_);}
	.st2{fill:#F1F2F2;}
	.st3{fill:#D1D3D4;}
	.st4{fill:#7CBE3F;}
	.st5{opacity:0.5;fill:#D1D3D4;}
</style>
<linearGradient id="XMLID_3_" gradientUnits="userSpaceOnUse" x1="302.364" y1="309.1023" x2="719.5945" y2="50.8166" gradientTransform="matrix(-1 0 0 1 730.0455 0)">
	<stop  offset="0" style="stop-color:#6CB541"/>
	<stop  offset="1" style="stop-color:#8AC650"/>
</linearGradient>
<polygon id="XMLID_337_" class="st0" points="6.7,25.6 433.9,276 433.9,333.3 6.7,85.4 "/>
<linearGradient id="XMLID_5_" gradientUnits="userSpaceOnUse" x1="62.3686" y1="356.6479" x2="419.2006" y2="135.7518">
	<stop  offset="0" style="stop-color:#6CB541"/>
	<stop  offset="1" style="stop-color:#8AC650"/>
</linearGradient>
<polygon id="XMLID_336_" class="st1" points="420.4,111 58.8,322.9 58.8,380.3 420.4,170.9 "/>
<g>
	<path id="XMLID_70_" class="st2" d="M345,269.3V280c0,0.4,0.2,0.9,0.6,1.1l0,0c0.8,0.5,1.9-0.1,1.9-1.1v-9.3L345,269.3z"/>
	<path class="st3" d="M345,269.3v0.5l1.6,0.9v9.3c0,0.6-0.4,1-0.8,1.2c0.8,0.3,1.7-0.3,1.7-1.2v-9.3L345,269.3z"/>
	<path class="st4" d="M345.7,253.5l-5.4,13.4c-0.8,2.1,0,4.5,2,5.7l0.9,0.5c2,1.2,4.5,1.1,6.4-0.1l0.7-0.4c1.9-1.2,2.7-3.5,1.9-5.6
		l-5.4-13.5C346.6,253,345.9,253,345.7,253.5z"/>
	<path class="st5" d="M345.2,257.4l-2.8,6.9c-0.4,1.1-0.1,2.7,1,2.9c1.4,0.2,2.6-1.3,2.5-1.9l-0.1-8
		C345.7,257.1,345.3,257.1,345.2,257.4z"/>
</g>
<g>
	<path id="XMLID_4_" class="st2" d="M81.4,356.4v10.7c0,0.4,0.2,0.9,0.6,1.1l0,0c0.8,0.5,1.9-0.1,1.9-1.1v-9.3L81.4,356.4z"/>
	<path class="st3" d="M81.4,356.4v0.5l1.6,0.9v9.3c0,0.6-0.4,1-0.8,1.2c0.8,0.3,1.7-0.3,1.7-1.2v-9.3L81.4,356.4z"/>
	<path class="st4" d="M82.1,340.6L76.7,354c-0.8,2.1,0,4.5,2,5.7l0.9,0.5c2,1.2,4.5,1.1,6.4-0.1l0.7-0.4c1.9-1.2,2.7-3.5,1.9-5.6
		l-5.4-13.5C83,340.1,82.3,340.1,82.1,340.6z"/>
	<path class="st5" d="M81.6,344.5l-2.8,6.9c-0.4,1.1-0.1,2.7,1,2.9c1.4,0.2,2.6-1.3,2.5-1.9l-0.1-8
		C82.1,344.2,81.7,344.2,81.6,344.5z"/>
</g>
<g>
	<path id="XMLID_2_" class="st2" d="M102.3,342.1v10.7c0,0.4,0.2,0.9,0.6,1.1l0,0c0.8,0.5,1.9-0.1,1.9-1.1v-9.3L102.3,342.1z"/>
	<path class="st3" d="M102.3,342.1v0.5l1.6,0.9v9.3c0,0.6-0.4,1-0.8,1.2c0.8,0.3,1.7-0.3,1.7-1.2v-9.3L102.3,342.1z"/>
	<path class="st4" d="M103,326.2l-5.4,13.4c-0.8,2.1,0,4.5,2,5.7l0.9,0.5c2,1.2,4.5,1.1,6.4-0.1l0.7-0.4c1.9-1.2,2.7-3.5,1.9-5.6
		l-5.4-13.5C103.9,325.7,103.2,325.7,103,326.2z"/>
	<path class="st5" d="M102.5,330.1l-2.8,6.9c-0.4,1.1-0.1,2.7,1,2.9c1.4,0.2,2.6-1.3,2.5-1.9l-0.1-8
		C103,329.9,102.6,329.9,102.5,330.1z"/>
</g>
<g>
	<path id="XMLID_74_" class="st2" d="M360.6,279.1v10.7c0,0.4,0.2,0.9,0.6,1.1l0,0c0.8,0.5,1.9-0.1,1.9-1.1v-9.3L360.6,279.1z"/>
	<path class="st3" d="M360.6,279.1v0.5l1.6,0.9v9.3c0,0.6-0.4,1-0.8,1.2c0.8,0.3,1.7-0.3,1.7-1.2v-9.3L360.6,279.1z"/>
	<path class="st4" d="M361.3,263.3l-5.4,13.4c-0.8,2.1,0,4.5,2,5.7l0.9,0.5c2,1.2,4.5,1.1,6.4-0.1l0.7-0.4c1.9-1.2,2.7-3.5,1.9-5.6
		l-5.4-13.5C362.2,262.8,361.5,262.8,361.3,263.3z"/>
	<path class="st5" d="M360.8,267.2l-2.8,6.9c-0.4,1.1-0.1,2.7,1,2.9c1.4,0.2,2.6-1.3,2.5-1.9l-0.1-8
		C361.3,267,360.9,267,360.8,267.2z"/>
</g>
<g>
	<path id="XMLID_112_" class="st2" d="M377,289.1v10.7c0,0.4,0.2,0.9,0.6,1.1l0,0c0.8,0.5,1.9-0.1,1.9-1.1v-9.3L377,289.1z"/>
	<path class="st3" d="M377,289.1v0.5l1.6,0.9v9.3c0,0.6-0.4,1-0.8,1.2c0.8,0.3,1.7-0.3,1.7-1.2v-9.3L377,289.1z"/>
	<path class="st4" d="M377.7,273.3l-5.4,13.4c-0.8,2.1,0,4.5,2,5.7l0.9,0.5c2,1.2,4.5,1.1,6.4-0.1l0.7-0.4c1.9-1.2,2.7-3.5,1.9-5.6
		l-5.4-13.5C378.6,272.8,377.9,272.8,377.7,273.3z"/>
	<path class="st5" d="M377.2,277.2l-2.8,6.9c-0.4,1.1-0.1,2.7,1,2.9c1.4,0.2,2.6-1.3,2.5-1.9l-0.1-8
		C377.7,276.9,377.3,276.9,377.2,277.2z"/>
</g>
<g>
	<path id="XMLID_137_" class="st2" d="M241.7,152.8v10.7c0,0.4,0.2,0.9,0.6,1.1l0,0c0.8,0.5,1.9-0.1,1.9-1.1v-9.3L241.7,152.8z"/>
	<path class="st3" d="M241.7,152.8v0.5l1.6,0.9v9.3c0,0.6-0.4,1-0.8,1.2c0.8,0.3,1.7-0.3,1.7-1.2v-9.3L241.7,152.8z"/>
	<path class="st4" d="M242.3,137l-5.4,13.4c-0.8,2.1,0,4.5,2,5.7l0.9,0.5c2,1.2,4.5,1.1,6.4-0.1l0.7-0.4c1.9-1.2,2.7-3.5,1.9-5.6
		l-5.4-13.5C243.3,136.5,242.5,136.5,242.3,137z"/>
	<path class="st5" d="M241.9,140.9l-2.8,6.9c-0.4,1.1-0.1,2.7,1,2.9c1.4,0.2,2.6-1.3,2.5-1.9l-0.1-8
		C242.4,140.6,242,140.6,241.9,140.9z"/>
</g>
<g>
	<path id="XMLID_128_" class="st2" d="M257.3,162.6v10.7c0,0.4,0.2,0.9,0.6,1.1l0,0c0.8,0.5,1.9-0.1,1.9-1.1v-9.3L257.3,162.6z"/>
	<path class="st3" d="M257.3,162.6v0.5l1.6,0.9v9.3c0,0.6-0.4,1-0.8,1.2c0.8,0.3,1.7-0.3,1.7-1.2v-9.3L257.3,162.6z"/>
	<path class="st4" d="M257.9,146.8l-5.4,13.4c-0.8,2.1,0,4.5,2,5.7l0.9,0.5c2,1.2,4.5,1.1,6.4-0.1l0.7-0.4c1.9-1.2,2.7-3.5,1.9-5.6
		l-5.4-13.5C258.9,146.3,258.1,146.3,257.9,146.8z"/>
	<path class="st5" d="M257.5,150.7l-2.8,6.9c-0.4,1.1-0.1,2.7,1,2.9c1.4,0.2,2.6-1.3,2.5-1.9l-0.1-8
		C258,150.5,257.6,150.5,257.5,150.7z"/>
</g>
<g>
	<path id="XMLID_127_" class="st2" d="M273.6,172.6v10.7c0,0.4,0.2,0.9,0.6,1.1l0,0c0.8,0.5,1.9-0.1,1.9-1.1v-9.3L273.6,172.6z"/>
	<path class="st3" d="M273.6,172.6v0.5l1.6,0.9v9.3c0,0.6-0.4,1-0.8,1.2c0.8,0.3,1.7-0.3,1.7-1.2v-9.3L273.6,172.6z"/>
	<path class="st4" d="M274.3,156.8l-5.4,13.4c-0.8,2.1,0,4.5,2,5.7l0.9,0.5c2,1.2,4.5,1.1,6.4-0.1l0.7-0.4c1.9-1.2,2.7-3.5,1.9-5.6
		l-5.4-13.5C275.2,156.3,274.5,156.3,274.3,156.8z"/>
	<path class="st5" d="M273.8,160.7l-2.8,6.9c-0.4,1.1-0.1,2.7,1,2.9c1.4,0.2,2.6-1.3,2.5-1.9l-0.1-8
		C274.3,160.4,273.9,160.4,273.8,160.7z"/>
</g>
<g>
	<path id="XMLID_140_" class="st2" d="M16.6,21.8v10.7c0,0.4,0.2,0.9,0.6,1.1l0,0c0.8,0.5,1.9-0.1,1.9-1.1v-9.3L16.6,21.8z"/>
	<path class="st3" d="M16.6,21.8v0.5l1.6,0.9v9.3c0,0.6-0.4,1-0.8,1.2c0.8,0.3,1.7-0.3,1.7-1.2v-9.3L16.6,21.8z"/>
	<path class="st4" d="M17.3,6l-5.4,13.4c-0.8,2.1,0,4.5,2,5.7l0.9,0.5c2,1.2,4.5,1.1,6.4-0.1l0.7-0.4c1.9-1.2,2.7-3.5,1.9-5.6
		L18.4,6C18.2,5.5,17.5,5.5,17.3,6z"/>
	<path class="st5" d="M16.8,9.9L14,16.8c-0.4,1.1-0.1,2.7,1,2.9c1.4,0.2,2.6-1.3,2.5-1.9l-0.1-8C17.3,9.6,16.9,9.6,16.8,9.9z"/>
</g>
<g>
	<path id="XMLID_139_" class="st2" d="M32.2,31.6v10.7c0,0.4,0.2,0.9,0.6,1.1l0,0c0.8,0.5,1.9-0.1,1.9-1.1v-9.3L32.2,31.6z"/>
	<path class="st3" d="M32.2,31.6v0.5l1.6,0.9v9.3c0,0.6-0.4,1-0.8,1.2c0.8,0.3,1.7-0.3,1.7-1.2v-9.3L32.2,31.6z"/>
	<path class="st4" d="M32.9,15.8l-5.4,13.4c-0.8,2.1,0,4.5,2,5.7l0.9,0.5c2,1.2,4.5,1.1,6.4-0.1l0.7-0.4c1.9-1.2,2.7-3.5,1.9-5.6
		L34,15.8C33.8,15.3,33.1,15.3,32.9,15.8z"/>
	<path class="st5" d="M32.4,19.7l-2.8,6.9c-0.4,1.1-0.1,2.7,1,2.9c1.4,0.2,2.6-1.3,2.5-1.9l-0.1-8C32.9,19.4,32.5,19.4,32.4,19.7z"
		/>
</g>
<g>
	<path id="XMLID_138_" class="st2" d="M48.6,41.6v10.7c0,0.4,0.2,0.9,0.6,1.1l0,0c0.8,0.5,1.9-0.1,1.9-1.1V43L48.6,41.6z"/>
	<path class="st3" d="M48.6,41.6v0.5l1.6,0.9v9.3c0,0.6-0.4,1-0.8,1.2c0.8,0.3,1.7-0.3,1.7-1.2V43L48.6,41.6z"/>
	<path class="st4" d="M49.3,25.8l-5.4,13.4c-0.8,2.1,0,4.5,2,5.7l0.9,0.5c2,1.2,4.5,1.1,6.4-0.1l0.7-0.4c1.9-1.2,2.7-3.5,1.9-5.6
		l-5.4-13.5C50.2,25.3,49.5,25.3,49.3,25.8z"/>
	<path class="st5" d="M48.8,29.7L46,36.6c-0.4,1.1-0.1,2.7,1,2.9c1.4,0.2,2.6-1.3,2.5-1.9l-0.1-8C49.3,29.4,48.9,29.4,48.8,29.7z"/>
</g>
</svg>
