<?xml version="1.0" encoding="utf-8"?>
<!-- Generator: Adobe Illustrator 22.1.0, SVG Export Plug-In . SVG Version: 6.00 Build 0)  -->
<svg version="1.1" id="Layer_1" xmlns="http://www.w3.org/2000/svg" xmlns:xlink="http://www.w3.org/1999/xlink" x="0px" y="0px"
	 viewBox="0 0 172 201" style="enable-background:new 0 0 172 201;" xml:space="preserve">
<style type="text/css">
	.st0{fill:#F1F2F2;}
	.st1{fill:#D1D3D4;}
	.st2{fill:#7CBE3F;}
	.st3{opacity:0.5;fill:#D1D3D4;enable-background:new    ;}
	.st4{fill:#33A440;}
	.st5{fill:#009F36;}
	.st6{fill:#FFFFFF;}
	.st7{fill:#009836;}
	.st8{fill:#8BC53F;}
	.st9{fill:url(#SVGID_2_);}
	.st10{clip-path:url(#SVGID_6_);fill:url(#SVGID_8_);}
	.st11{fill:#BCBEC0;}
	.st12{fill:#E6E7E8;}
</style>
<g>
	<path id="XMLID_558_" class="st0" d="M43.3,174.5v10.7c0,0.4,0.2,0.9,0.6,1.1l0,0c0.8,0.5,1.9-0.1,1.9-1.1v-9.3L43.3,174.5z"/>
	<path class="st1" d="M43.3,174.5v0.5l1.6,0.9v9.3c0,0.6-0.4,1-0.8,1.2c0.8,0.3,1.7-0.3,1.7-1.2v-9.3L43.3,174.5z"/>
	<path class="st2" d="M44,158.7l-5.4,13.4c-0.8,2.1,0,4.5,2,5.7l0.9,0.5c2,1.2,4.5,1.1,6.4-0.1l0.7-0.4c1.9-1.2,2.7-3.5,1.9-5.6
		l-5.4-13.5C44.9,158.1,44.2,158.1,44,158.7z"/>
	<path class="st3" d="M43.5,162.6l-2.8,6.9c-0.4,1.1-0.1,2.7,1,2.9c1.4,0.2,2.6-1.3,2.5-1.9l-0.1-8C44,162.3,43.6,162.3,43.5,162.6z
		"/>
</g>
<g>
	<path id="XMLID_402_" class="st0" d="M56.3,144v10.7c0,0.4,0.2,0.9,0.6,1.1l0,0c0.8,0.5,1.9-0.1,1.9-1.1v-9.3L56.3,144z"/>
	<path class="st1" d="M56.3,144v0.5l1.6,0.9v9.3c0,0.6-0.4,1-0.8,1.2c0.8,0.3,1.7-0.3,1.7-1.2v-9.3L56.3,144z"/>
	<path class="st2" d="M56.9,128.2l-5.4,13.4c-0.8,2.1,0,4.5,2,5.7l0.9,0.5c2,1.2,4.5,1.1,6.4-0.1l0.7-0.4c1.9-1.2,2.7-3.5,1.9-5.6
		L58,128.2C57.9,127.7,57.1,127.7,56.9,128.2z"/>
	<path class="st3" d="M56.5,132.1l-2.8,6.9c-0.4,1.1-0.1,2.7,1,2.9c1.4,0.2,2.6-1.3,2.5-1.9l-0.1-8C57,131.9,56.6,131.9,56.5,132.1z
		"/>
</g>
<g>
	<path id="XMLID_411_" class="st0" d="M42.1,152.2V163c0,0.4,0.2,0.9,0.6,1.1l0,0c0.8,0.5,1.9-0.1,1.9-1.1v-9.3L42.1,152.2z"/>
	<path class="st1" d="M42.1,152.2v0.5l1.6,0.9v9.3c0,0.6-0.4,1-0.8,1.2c0.8,0.3,1.7-0.3,1.7-1.2v-9.3L42.1,152.2z"/>
	<path class="st2" d="M42.7,136.4l-5.4,13.4c-0.8,2.1,0,4.5,2,5.7l0.9,0.5c2,1.2,4.5,1.1,6.4-0.1l0.7-0.4c1.9-1.2,2.7-3.5,1.9-5.6
		l-5.4-13.5C43.7,135.9,42.9,135.9,42.7,136.4z"/>
	<path class="st3" d="M42.3,140.3l-2.8,6.9c-0.4,1.1-0.1,2.7,1,2.9c1.4,0.2,2.6-1.3,2.5-1.9l-0.1-8
		C42.8,140.1,42.4,140.1,42.3,140.3z"/>
</g>
<g>
	<g>
		<polygon id="SVGID_1_" class="st4" points="121.4,161.5 153.9,144.1 153.3,107.2 120.7,124.6 121.3,161.5 		"/>
	</g>
</g>
<g>
	<g>
		<polygon id="SVGID_3_" class="st5" points="120.8,124.6 120.7,124.6 121.3,161.5 121.4,161.5 153.9,144.1 153.9,144.1 		"/>
	</g>
</g>
<path class="st6" d="M135.5,130.2L132,132c-0.5,0.2-1.1-0.1-1.1-0.7l-0.1-2.6c0-0.3,0.1-0.5,0.4-0.7l12.1-6.5
	c0.5-0.3,1.1,0.1,1.1,0.6l0.1,2.6c0,0.3-0.1,0.5-0.4,0.7l-3.4,2c-0.2,0.1-0.4,0.4-0.4,0.7l0.4,14.5c0,0.3-0.1,0.5-0.4,0.7l-2.2,1.2
	c-0.5,0.3-1.1-0.1-1.1-0.6l-0.3-13C136.5,130.3,135.9,130,135.5,130.2z"/>
<g>
	<g>
		<polygon id="SVGID_5_" class="st7" points="88,141.9 119.2,160.4 118.6,124.5 87.4,106.1 		"/>
	</g>
</g>
<g>
	<g>
		<polygon id="SVGID_7_" class="st5" points="88,142 118.6,124.5 118.6,124.5 87.4,106.1 88,141.9 		"/>
	</g>
</g>
<path class="st6" d="M103.2,123.7l0.2,16.9c0,1.6-1.7,2.5-3,1.7l0,0c-0.4-0.2-0.6-0.7-0.6-1.1l-0.2-16.9c0-1.6,1.7-2.5,3-1.7l0,0
	C103,122.9,103.2,123.3,103.2,123.7z"/>
<g>
	<g>
		<polygon id="SVGID_9_" class="st8" points="119.6,122.9 88.3,104.5 120,87.6 151.3,106 		"/>
	</g>
</g>
<g>
	<g>
		
			<linearGradient id="SVGID_2_" gradientUnits="userSpaceOnUse" x1="81.0215" y1="91.5603" x2="170.6881" y2="103.5603" gradientTransform="matrix(1 0 0 -1 0 202)">
			<stop  offset="0" style="stop-color:#6CB541"/>
			<stop  offset="1" style="stop-color:#8AC650"/>
		</linearGradient>
		<polygon id="SVGID_11_" class="st9" points="120,87.6 88.3,104.5 119.6,122.9 119.6,122.9 		"/>
	</g>
	<g>
		<defs>
			<polygon id="SVGID_4_" points="120,87.6 88.3,104.5 119.6,122.9 119.6,122.9 			"/>
		</defs>
		<clipPath id="SVGID_6_">
			<use xlink:href="#SVGID_4_"  style="overflow:visible;"/>
		</clipPath>
		
			<linearGradient id="SVGID_8_" gradientUnits="userSpaceOnUse" x1="80.2479" y1="97.3408" x2="169.9146" y2="109.3408" gradientTransform="matrix(1 0 0 -1 0 202)">
			<stop  offset="0" style="stop-color:#6CB541"/>
			<stop  offset="1" style="stop-color:#8AC650"/>
		</linearGradient>
		<polygon class="st10" points="87.3,120.9 133.4,123.7 136.1,80.1 90,77.2 		"/>
	</g>
</g>
<path class="st6" d="M123.1,98.6c0.6,0.4,0.6,1.3,0,1.6l-7.4,3.8c-2.8,1.5-3.3,2.8-1.5,3.8s4.2,0.9,7.1-0.6l8.5-4.4
	c0.3-0.1,0.6-0.1,0.9,0l1.5,0.9c0.6,0.4,0.6,1.3,0,1.6l-7.7,4c-5.1,2.6-9.9,2.5-13.9,0.3c-3.9-2.2-3.8-4.7,1.4-7.4l8.7-4.5
	c0.3-0.1,0.6-0.1,0.9,0L123.1,98.6z"/>
<g>
	<path id="XMLID_152_" class="st0" d="M27.7,162.9v10.7c0,0.4,0.2,0.9,0.6,1.1l0,0c0.8,0.5,1.9-0.1,1.9-1.1v-9.3L27.7,162.9z"/>
	<path class="st1" d="M27.7,162.9v0.5l1.6,0.9v9.3c0,0.6-0.4,1-0.8,1.2c0.8,0.3,1.7-0.3,1.7-1.2v-9.3L27.7,162.9z"/>
	<path class="st2" d="M28.4,147.1L23,160.5c-0.8,2.1,0,4.5,2,5.7l0.9,0.5c2,1.2,4.5,1.1,6.4-0.1l0.7-0.4c1.9-1.2,2.7-3.5,1.9-5.6
		l-5.4-13.5C29.3,146.6,28.6,146.6,28.4,147.1z"/>
	<path class="st3" d="M27.9,151l-2.8,6.9c-0.4,1.1-0.1,2.7,1,2.9c1.4,0.2,2.6-1.3,2.5-1.9l-0.1-8C28.4,150.7,28,150.7,27.9,151z"/>
</g>
<g>
	<polygon id="XMLID_551_" class="st0" points="83,72.1 83,177.9 78.6,180.4 78.6,74.7 	"/>
	<polygon id="XMLID_550_" class="st11" points="78.6,180.4 65.6,172.9 75,72.6 78.6,74.7 	"/>
	<path id="XMLID_549_" class="st7" d="M78.6,78l-12.2-6.7c-3.6-1.9-4.9-6.4-3.1-10l0,0c2-3.8,6.7-5.2,10.4-3.1l12,6.9L78.6,78z"/>
	<path id="XMLID_548_" class="st4" d="M63.4,61.3L63.4,61.3c0.5-0.9,1.1-1.6,1.8-2.3c0,0,0,0,0,0.1l0,0c-1.9,3.6-0.5,8,3.1,10
		L80,75.5L78.6,78l-12.2-6.7C62.9,69.4,61.5,64.9,63.4,61.3z"/>
	<polygon id="XMLID_545_" class="st12" points="82.2,77.4 44.2,124.5 42.8,123.6 65.9,86.4 77.6,77 	"/>
	<polygon class="st0" points="68.4,88.3 78.6,78 78.6,78 82.2,77.4 77.6,77 65.9,86.4 42.8,123.6 42.8,123.6 	"/>
	<polygon id="XMLID_544_" class="st12" points="85.1,64.8 122.3,72.7 122.1,74.4 94.7,75.3 86.4,72.1 	"/>
	<polygon class="st0" points="122.3,73 122.3,72.7 85.1,64.8 84.3,68.5 	"/>
	<polygon id="XMLID_543_" class="st12" points="77,73.8 77,8.9 77.7,8.9 84.9,56.6 81.2,66.2 	"/>
	<polygon class="st11" points="78,10.7 77.7,8.9 77,8.9 77,73.8 78,72 	"/>
	<polygon id="XMLID_542_" class="st2" points="81.6,124.9 81.6,126.7 80,127.7 80,125.8 	"/>
	<polygon id="XMLID_541_" class="st2" points="81.6,128.9 81.6,130.8 80,131.7 80,129.9 	"/>
	<polygon id="XMLID_540_" class="st2" points="81.6,133.3 81.6,135.2 80,136.2 80,134.3 	"/>
	<polygon id="XMLID_539_" class="st2" points="81.6,137.7 81.6,139.6 80,140.6 80,138.7 	"/>
	<path id="XMLID_538_" class="st12" d="M82.2,65.5c2.9-1.7,5.2-0.3,5.2,3s-2.4,7.4-5.2,9.1c-2.9,1.7-5.2,0.3-5.2-3
		C77,71.2,79.4,67.1,82.2,65.5z"/>
	<path id="XMLID_537_" class="st8" d="M82.7,68.2c1.6-0.9,2.9-0.2,2.9,1.7s-1.3,4.1-2.9,5s-2.9,0.2-2.9-1.7
		C79.8,71.4,81.1,69.1,82.7,68.2z"/>
</g>
</svg>
