<?xml version="1.0" encoding="utf-8"?>
<!-- Generator: Adobe Illustrator 22.1.0, SVG Export Plug-In . SVG Version: 6.00 Build 0)  -->
<svg version="1.1" id="Layer_1" xmlns="http://www.w3.org/2000/svg" xmlns:xlink="http://www.w3.org/1999/xlink" x="0px" y="0px"
	 viewBox="0 0 351 215" style="enable-background:new 0 0 351 215;" xml:space="preserve">
<style type="text/css">
	.st0{fill:#00652C;}
	.st1{fill:#005C2C;}
	.st2{fill:#FFFFFF;}
	.st3{fill:#007542;}
	.st4{fill:#8BC53F;}
	.st5{fill:#BABABA;}
	.st6{fill:#E8E8E8;}
	.st7{fill:#ADADAD;}
	.st8{fill:#7D7D7D;}
	.st9{fill:#9E9E9E;}
	.st10{fill:#D4D4D4;}
	.st11{fill:#B0B0B0;}
	.st12{fill:#FAFAFA;}
	.st13{opacity:0.1;enable-background:new    ;}
	.st14{fill:#C2C2C2;}
	.st15{fill:#B8C3C7;}
	.st16{fill:#949494;}
	.st17{fill:#007F42;}
	.st18{fill:#EDCC96;}
	.st19{fill:#EBEBEB;}
	.st20{fill:#FAE3BB;}
	.st21{fill:#FAD89E;}
	.st22{fill:#457DFF;}
</style>
<g>
	<g>
		<g>
			<polygon id="SVGID_1_" class="st0" points="124.3,207.5 153.9,191.7 153.3,158.1 123.7,173.9 124.3,207.4 			"/>
		</g>
	</g>
	<g>
		<g>
			<polygon id="SVGID_3_" class="st1" points="123.7,173.9 123.7,173.9 124.3,207.4 124.3,207.5 153.9,191.7 153.9,191.7 			"/>
		</g>
	</g>
	<path class="st2" d="M137.1,179l-3.2,1.6c-0.4,0.2-1-0.1-1-0.6v-2.4c0-0.3,0.1-0.5,0.4-0.6l11-5.9c0.4-0.2,1,0.1,1,0.6v2.4
		c0,0.2-0.1,0.5-0.3,0.6l-3.1,1.8c-0.2,0.1-0.3,0.4-0.3,0.6l0.3,13.2c0,0.3-0.1,0.5-0.4,0.6l-2,1.1c-0.4,0.2-1-0.1-1-0.6l-0.3-11.9
		C138.1,179.1,137.5,178.8,137.1,179z"/>
	<g>
		<g>
			<polygon id="SVGID_5_" class="st3" points="94,189.7 122.4,206.4 121.8,173.8 93.4,157.1 			"/>
		</g>
	</g>
	<path class="st2" d="M107.8,173.1l0.2,15.4c0,1.4-1.5,2.3-2.8,1.6l0,0c-0.4-0.2-0.6-0.6-0.6-1l-0.2-15.4c0-1.4,1.5-2.3,2.8-1.6l0,0
		C107.6,172.3,107.8,172.7,107.8,173.1z"/>
	<g>
		<g>
			<polygon id="SVGID_9_" class="st4" points="122.7,172.3 94.3,155.6 123.1,140.3 151.5,157 			"/>
		</g>
	</g>
	<path class="st2" d="M125.9,150.2c0.6,0.3,0.6,1.2,0,1.5l-6.7,3.5c-2.6,1.3-3,2.5-1.4,3.5c1.7,0.9,3.8,0.8,6.4-0.6l7.7-4
		c0.3-0.1,0.6-0.1,0.8,0l1.4,0.8c0.6,0.3,0.6,1.2,0,1.5l-7,3.6c-4.6,2.4-9,2.3-12.6,0.2c-3.5-2-3.5-4.3,1.3-6.7l8-4.1
		c0.3-0.1,0.6-0.1,0.8,0L125.9,150.2z"/>
</g>
<g>
	<path class="st4" d="M90,139.7l-31.3,15.7c-2.9,1.5-7.7,1.5-10.6,0l-31.3-15.7c-2.9-1.5-2.9-3.8,0-5.3l31.3-15.7
		c2.9-1.5,7.7-1.5,10.6,0L90,134.4C92.9,135.9,92.9,138.2,90,139.7z"/>
	<g>
		<path class="st5" d="M66.4,139.7l-8.9,4.4c-0.3,0.2-0.7,0.2-1.1,0l-16-7.8c-0.9-0.4-0.9-1.7,0-2.1l8.9-4.4c0.3-0.2,0.7-0.2,1.1,0
			l16,7.8C67.3,138,67.3,139.2,66.4,139.7z"/>
		<path class="st6" d="M66.8,139.5l-9,4.4c-0.4,0.2-0.8,0.2-1.1,0c0,0-0.6-2.5-5.4-5c-4.3-2.2-10.8-2.9-10.8-2.9
			c-0.9-0.5-0.9-1.8,0-2.2l9-4.4c0.4-0.2,5.8-0.2,11.6,2.8C66.6,135,67.7,139,66.8,139.5z"/>
		<path class="st7" d="M45.3,131.3c0,0,0.1,0,0.4-0.1c0.1,0,0.3,0,0.4-0.1c0.2,0,0.4,0,0.6-0.1c0.2,0,0.4,0,0.7,0c0.2,0,0.5,0,0.8,0
			c0.1,0,0.3,0,0.4,0c0.1,0,0.3,0,0.4,0c0.3,0,0.6,0.1,0.8,0.1c0.3,0.1,0.5,0.1,0.8,0.2c0.3,0.1,0.5,0.2,0.7,0.3s0.5,0.2,0.7,0.3
			s0.4,0.2,0.6,0.3c0.2,0.1,0.4,0.2,0.5,0.3s0.3,0.2,0.4,0.2c0.1,0.1,0.2,0.1,0.2,0.2l0.1,0.1c0,0,0,0-0.1,0s-0.1-0.1-0.3-0.1
			c-0.1,0-0.2-0.1-0.4-0.2c-0.2-0.1-0.3-0.1-0.5-0.2c-0.2-0.1-0.4-0.1-0.6-0.2c-0.2-0.1-0.5-0.1-0.7-0.2c-0.2-0.1-0.5-0.2-0.8-0.2
			c-0.2-0.1-0.5-0.1-0.8-0.2c-0.3-0.1-0.5-0.1-0.8-0.1s-0.5-0.1-0.8-0.1s-0.5,0-0.7-0.1c-0.2,0-0.5,0-0.7,0s-0.4,0-0.6,0
			c-0.2,0-0.3,0-0.4,0C45.5,131.3,45.3,131.3,45.3,131.3z"/>
	</g>
</g>
<g>
	<g>
		<g>
			<polygon class="st8" points="58.1,94.1 58.1,96 103.8,118.9 103.9,118.8 103.9,72 			"/>
			<polygon class="st9" points="212.9,62.4 167.2,41.4 103.9,72 103.9,118.8 212.9,64.3 			"/>
		</g>
		<polygon class="st10" points="212.9,62.4 103.8,116.9 58.1,94.1 167.2,39.5 		"/>
		<g>
			<path class="st11" d="M83.3,91.9l-4.5,2.3c-0.6,0.3-1.8,0.2-2.6-0.2l-3.3-1.6c-0.8-0.4-1-1-0.4-1.3l4.5-2.3
				c0.6-0.3,1.8-0.2,2.6,0.2l3.3,1.6C83.7,91,83.9,91.6,83.3,91.9z"/>
			<path class="st11" d="M91.5,87.8L87,90.1c-0.6,0.3-1.8,0.2-2.6-0.2l-3.3-1.6c-0.8-0.4-1-1-0.4-1.3l4.5-2.3
				c0.6-0.3,1.8-0.2,2.6,0.2l3.3,1.6C91.9,86.9,92.1,87.5,91.5,87.8z"/>
			<path class="st11" d="M99.8,83.6l-4.5,2.3c-0.6,0.3-1.8,0.2-2.6-0.2L89.4,84c-0.8-0.4-1-1-0.4-1.3l4.5-2.3
				c0.6-0.3,1.8-0.2,2.6,0.2l3.3,1.6C100.2,82.7,100.4,83.3,99.8,83.6z"/>
			<path class="st11" d="M108.2,79.4l-4.5,2.3c-0.6,0.3-1.8,0.2-2.6-0.2l-3.3-1.6c-0.8-0.4-1-1-0.4-1.3l4.5-2.3
				c0.6-0.3,1.8-0.2,2.6,0.2l3.3,1.6C108.6,78.6,108.8,79.1,108.2,79.4z"/>
			<path class="st11" d="M116.5,75.3l-4.5,2.3c-0.6,0.3-1.8,0.2-2.6-0.2l-3.3-1.6c-0.8-0.4-1-1-0.4-1.3l4.5-2.3
				c0.6-0.3,1.8-0.2,2.6,0.2l3.3,1.6C116.9,74.4,117.1,75,116.5,75.3z"/>
			<path class="st11" d="M124.8,71.1l-4.5,2.3c-0.6,0.3-1.8,0.2-2.6-0.2l-3.3-1.6c-0.8-0.4-1-1-0.4-1.3l4.5-2.3
				c0.6-0.3,1.8-0.2,2.6,0.2l3.3,1.6C125.2,70.2,125.4,70.8,124.8,71.1z"/>
			<path class="st11" d="M133.2,66.9l-4.5,2.3c-0.6,0.3-1.8,0.2-2.6-0.2l-3.3-1.6c-0.8-0.4-1-1-0.4-1.3l4.5-2.3
				c0.6-0.3,1.8-0.2,2.6,0.2l3.3,1.6C133.6,66.1,133.8,66.6,133.2,66.9z"/>
			<path class="st11" d="M141.5,62.8L137,65c-0.6,0.3-1.8,0.2-2.6-0.2l-3.3-1.6c-0.8-0.4-1-1-0.4-1.3l4.5-2.3
				c0.6-0.3,1.8-0.2,2.6,0.2l3.3,1.6C141.9,61.9,142.1,62.5,141.5,62.8z"/>
			<path class="st11" d="M149.8,58.6l-4.5,2.3c-0.6,0.3-1.8,0.2-2.6-0.2l-3.3-1.6c-0.8-0.4-1-1-0.4-1.3l4.5-2.3
				c0.6-0.3,1.8-0.2,2.6,0.2l3.3,1.6C150.2,57.7,150.4,58.3,149.8,58.6z"/>
			<path class="st11" d="M158.2,54.4l-4.5,2.3c-0.6,0.3-1.8,0.2-2.6-0.2l-3.3-1.6c-0.8-0.4-1-1-0.4-1.3l4.5-2.3
				c0.6-0.3,1.8-0.2,2.6,0.2l3.3,1.6C158.6,53.6,158.8,54.1,158.2,54.4z"/>
			<path class="st11" d="M166.5,50.3l-4.5,2.3c-0.6,0.3-1.8,0.2-2.6-0.2l-3.3-1.6c-0.8-0.4-1-1-0.4-1.3l4.5-2.3
				c0.6-0.3,1.8-0.2,2.6,0.2l3.3,1.6C166.9,49.4,167.1,50,166.5,50.3z"/>
			<path class="st11" d="M90.8,95.6l-4.5,2.3c-0.6,0.3-1.8,0.2-2.6-0.2l-3.3-1.6c-0.8-0.4-1-1-0.4-1.3l4.5-2.3
				c0.6-0.3,1.8-0.2,2.6,0.2l3.3,1.6C91.2,94.8,91.4,95.3,90.8,95.6z"/>
			<path class="st11" d="M99,91.5l-4.5,2.3c-0.6,0.3-1.8,0.2-2.6-0.2L88.6,92c-0.8-0.4-1-1-0.4-1.3l4.5-2.3c0.6-0.3,1.8-0.2,2.6,0.2
				l3.3,1.6C99.4,90.7,99.6,91.2,99,91.5z"/>
			<path class="st11" d="M107.3,87.4l-4.5,2.3c-0.6,0.3-1.8,0.2-2.6-0.2l-3.3-1.6c-0.8-0.4-1-1-0.4-1.3l4.5-2.3
				c0.6-0.3,1.8-0.2,2.6,0.2l3.3,1.6C107.7,86.5,107.9,87.1,107.3,87.4z"/>
			<path class="st11" d="M115.7,83.2l-4.5,2.3c-0.6,0.3-1.8,0.2-2.6-0.2l-3.3-1.6c-0.8-0.4-1-1-0.4-1.3l4.5-2.3
				c0.6-0.3,1.8-0.2,2.6,0.2l3.3,1.6C116.1,82.3,116.3,82.9,115.7,83.2z"/>
			<path class="st11" d="M124,79l-4.5,2.3c-0.6,0.3-1.8,0.2-2.6-0.2l-3.3-1.6c-0.8-0.4-1-1-0.4-1.3l4.5-2.3c0.6-0.3,1.8-0.2,2.6,0.2
				l3.3,1.6C124.4,78.2,124.6,78.7,124,79z"/>
			<path class="st11" d="M132.4,74.9l-4.5,2.3c-0.6,0.3-1.8,0.2-2.6-0.2l-3.3-1.6c-0.8-0.4-1-1-0.4-1.3l4.5-2.3
				c0.6-0.3,1.8-0.2,2.6,0.2l3.3,1.6C132.8,74,133,74.6,132.4,74.9z"/>
			<path class="st11" d="M140.7,70.7l-4.5,2.3c-0.6,0.3-1.8,0.2-2.6-0.2l-3.3-1.6c-0.8-0.4-1-1-0.4-1.3l4.5-2.3
				c0.6-0.3,1.8-0.2,2.6,0.2l3.3,1.6C141.1,69.8,141.3,70.4,140.7,70.7z"/>
			<path class="st11" d="M149,66.5l-4.5,2.3c-0.6,0.3-1.8,0.2-2.6-0.2l-3.3-1.6c-0.8-0.4-1-1-0.4-1.3l4.5-2.3
				c0.6-0.3,1.8-0.2,2.6,0.2l3.3,1.6C149.4,65.7,149.6,66.2,149,66.5z"/>
			<path class="st11" d="M157.4,62.4l-4.5,2.3c-0.6,0.3-1.8,0.2-2.6-0.2l-3.3-1.6c-0.8-0.4-1-1-0.4-1.3l4.5-2.3
				c0.6-0.3,1.8-0.2,2.6,0.2l3.3,1.6C157.8,61.5,158,62.1,157.4,62.4z"/>
			<path class="st11" d="M165.7,58.2l-4.5,2.3c-0.6,0.3-1.8,0.2-2.6-0.2l-3.3-1.6c-0.8-0.4-1-1-0.4-1.3l4.5-2.3
				c0.6-0.3,1.8-0.2,2.6,0.2l3.3,1.6C166.1,57.3,166.3,57.9,165.7,58.2z"/>
			<path class="st11" d="M174,54l-4.5,2.3c-0.6,0.3-1.8,0.2-2.6-0.2l-3.3-1.6c-0.8-0.4-1-1-0.4-1.3l4.5-2.3c0.6-0.3,1.8-0.2,2.6,0.2
				l3.3,1.6C174.4,53.2,174.6,53.7,174,54z"/>
			<path class="st11" d="M98.3,99.4l-4.5,2.3c-0.6,0.3-1.8,0.2-2.6-0.2l-3.3-1.6c-0.8-0.4-1-1-0.4-1.3l4.5-2.3
				c0.6-0.3,1.8-0.2,2.6,0.2l3.3,1.6C98.7,98.5,98.9,99.1,98.3,99.4z"/>
			<path class="st11" d="M106.5,95.3l-4.5,2.3c-0.6,0.3-1.8,0.2-2.6-0.2l-3.3-1.6c-0.8-0.4-1-1-0.4-1.3l4.5-2.3
				c0.6-0.3,1.8-0.2,2.6,0.2l3.3,1.6C106.9,94.4,107.1,95,106.5,95.3z"/>
			<path class="st11" d="M114.9,91.1l-4.5,2.3c-0.6,0.3-1.8,0.2-2.6-0.2l-3.3-1.6c-0.8-0.4-1-1-0.4-1.3l4.5-2.3
				c0.6-0.3,1.8-0.2,2.6,0.2l3.3,1.6C115.3,90.3,115.5,90.8,114.9,91.1z"/>
			<path class="st11" d="M123.2,87l-4.5,2.3c-0.6,0.3-1.8,0.2-2.6-0.2l-3.3-1.6c-0.8-0.4-1-1-0.4-1.3l4.5-2.3
				c0.6-0.3,1.8-0.2,2.6,0.2l3.3,1.6C123.6,86.1,123.8,86.7,123.2,87z"/>
			<path class="st11" d="M131.5,82.8l-4.5,2.3c-0.6,0.3-1.8,0.2-2.6-0.2l-3.3-1.6c-0.8-0.4-1-1-0.4-1.3l4.5-2.3
				c0.6-0.3,1.8-0.2,2.6,0.2l3.3,1.6C131.9,81.9,132.1,82.5,131.5,82.8z"/>
			<path class="st11" d="M139.9,78.6l-4.5,2.3c-0.6,0.3-1.8,0.2-2.6-0.2l-3.3-1.6c-0.8-0.4-1-1-0.4-1.3l4.5-2.3
				c0.6-0.3,1.8-0.2,2.6,0.2l3.3,1.6C140.3,77.8,140.5,78.3,139.9,78.6z"/>
			<path class="st11" d="M148.2,74.5l-4.5,2.3c-0.6,0.3-1.8,0.2-2.6-0.2l-3.3-1.6c-0.8-0.4-1-1-0.4-1.3l4.5-2.3
				c0.6-0.3,1.8-0.2,2.6,0.2l3.3,1.6C148.6,73.6,148.8,74.2,148.2,74.5z"/>
			<path class="st11" d="M156.5,70.3l-4.5,2.3c-0.6,0.3-1.8,0.2-2.6-0.2l-3.3-1.6c-0.8-0.4-1-1-0.4-1.3l4.5-2.3
				c0.6-0.3,1.8-0.2,2.6,0.2l3.3,1.6C156.9,69.4,157.1,70,156.5,70.3z"/>
			<path class="st11" d="M164.9,66.1l-4.5,2.3c-0.6,0.3-1.8,0.2-2.6-0.2l-3.3-1.6c-0.8-0.4-1-1-0.4-1.3l4.5-2.3
				c0.6-0.3,1.8-0.2,2.6,0.2l3.3,1.6C165.3,65.2,165.5,65.8,164.9,66.1z"/>
			<path class="st11" d="M173.2,62l-4.5,2.3c-0.6,0.3-1.8,0.2-2.6-0.2l-3.3-1.6c-0.8-0.4-1-1-0.4-1.3l4.5-2.3
				c0.6-0.3,1.8-0.2,2.6,0.2l3.3,1.6C173.6,61.1,173.8,61.7,173.2,62z"/>
			<path class="st11" d="M181.5,57.8l-4.5,2.3c-0.6,0.3-1.8,0.2-2.6-0.2l-3.3-1.6c-0.8-0.4-1-1-0.4-1.3l4.5-2.3
				c0.6-0.3,1.8-0.2,2.6,0.2l3.3,1.6C182,56.9,182.1,57.5,181.5,57.8z"/>
			<path class="st11" d="M105.9,103.2l-4.5,2.3c-0.6,0.3-1.8,0.2-2.6-0.2l-3.3-1.6c-0.8-0.4-1-1-0.4-1.3l4.5-2.3
				c0.6-0.3,1.8-0.2,2.6,0.2l3.3,1.6C106.3,102.3,106.5,102.9,105.9,103.2z"/>
			<path class="st11" d="M114.1,99.1l-4.5,2.3c-0.6,0.3-1.8,0.2-2.6-0.2l-3.3-1.6c-0.8-0.4-1-1-0.4-1.3l4.5-2.3
				c0.6-0.3,1.8-0.2,2.6,0.2l3.3,1.6C114.5,98.2,114.7,98.8,114.1,99.1z"/>
			<path class="st11" d="M122.4,94.9l-4.5,2.3c-0.6,0.3-1.8,0.2-2.6-0.2l-3.3-1.6c-0.8-0.4-1-1-0.4-1.3l4.5-2.3
				c0.6-0.3,1.8-0.2,2.6,0.2l3.3,1.6C122.8,94,123,94.6,122.4,94.9z"/>
			<path class="st11" d="M130.7,90.7l-4.5,2.3c-0.6,0.3-1.8,0.2-2.6-0.2l-3.3-1.6c-0.8-0.4-1-1-0.4-1.3l4.5-2.3
				c0.6-0.3,1.8-0.2,2.6,0.2l3.3,1.6C131.1,89.8,131.3,90.4,130.7,90.7z"/>
			<path class="st11" d="M139.1,86.6l-4.5,2.3c-0.6,0.3-1.8,0.2-2.6-0.2l-3.3-1.6c-0.8-0.4-1-1-0.4-1.3l4.5-2.3
				c0.6-0.3,1.8-0.2,2.6,0.2l3.3,1.6C139.5,85.7,139.7,86.3,139.1,86.6z"/>
			<path class="st11" d="M147.4,82.4l-4.5,2.3c-0.6,0.3-1.8,0.2-2.6-0.2l-3.3-1.6c-0.8-0.4-1-1-0.4-1.3l4.5-2.3
				c0.6-0.3,1.8-0.2,2.6,0.2l3.3,1.6C147.8,81.5,148,82.1,147.4,82.4z"/>
			<path class="st11" d="M155.7,78.2l-4.5,2.3c-0.6,0.3-1.8,0.2-2.6-0.2l-3.3-1.6c-0.8-0.4-1-1-0.4-1.3l4.5-2.3
				c0.6-0.3,1.8-0.2,2.6,0.2l3.3,1.6C156.1,77.3,156.3,77.9,155.7,78.2z"/>
			<path class="st11" d="M164.1,74.1l-4.5,2.3c-0.6,0.3-1.8,0.2-2.6-0.2l-3.3-1.6c-0.8-0.4-1-1-0.4-1.3l4.5-2.3
				c0.6-0.3,1.8-0.2,2.6,0.2l3.3,1.6C164.5,73.2,164.7,73.8,164.1,74.1z"/>
			<path class="st11" d="M172.4,69.9l-4.5,2.3c-0.6,0.3-1.8,0.2-2.6-0.2l-3.3-1.6c-0.8-0.4-1-1-0.4-1.3l4.5-2.3
				c0.6-0.3,1.8-0.2,2.6,0.2l3.3,1.6C172.8,69,173,69.6,172.4,69.9z"/>
			<path class="st11" d="M180.7,65.7l-4.5,2.3c-0.6,0.3-1.8,0.2-2.6-0.2l-3.3-1.6c-0.8-0.4-1-1-0.4-1.3l4.5-2.3
				c0.6-0.3,1.8-0.2,2.6,0.2l3.3,1.6C181.1,64.8,181.3,65.4,180.7,65.7z"/>
			<path class="st11" d="M189.1,61.6l-4.5,2.3c-0.6,0.3-1.8,0.2-2.6-0.2l-3.3-1.6c-0.8-0.4-1-1-0.4-1.3l4.5-2.3
				c0.6-0.3,1.8-0.2,2.6,0.2l3.3,1.6C189.5,60.7,189.7,61.3,189.1,61.6z"/>
			<path class="st11" d="M113.4,106.9l-4.5,2.3c-0.6,0.3-1.8,0.2-2.6-0.2l-3.3-1.6c-0.8-0.4-1-1-0.4-1.3l4.5-2.3
				c0.6-0.3,1.8-0.2,2.6,0.2l3.3,1.6C113.8,106,114,106.6,113.4,106.9z"/>
			<path class="st11" d="M121.6,102.8l-4.5,2.3c-0.6,0.3-1.8,0.2-2.6-0.2l-3.3-1.6c-0.8-0.4-1-1-0.4-1.3l4.5-2.3
				c0.6-0.3,1.8-0.2,2.6,0.2l3.3,1.6C122,101.9,122.2,102.5,121.6,102.8z"/>
			<path class="st11" d="M129.9,98.7l-4.5,2.3c-0.6,0.3-1.8,0.2-2.6-0.2l-3.3-1.6c-0.8-0.4-1-1-0.4-1.3l4.5-2.3
				c0.6-0.3,1.8-0.2,2.6,0.2l3.3,1.6C130.3,97.8,130.5,98.4,129.9,98.7z"/>
			<path class="st11" d="M138.2,94.5l-4.5,2.3c-0.6,0.3-1.8,0.2-2.6-0.2l-3.3-1.6c-0.8-0.4-1-1-0.4-1.3l4.5-2.3
				c0.6-0.3,1.8-0.2,2.6,0.2l3.3,1.6C138.6,93.6,138.8,94.2,138.2,94.5z"/>
			<path class="st11" d="M146.6,90.3l-4.5,2.3c-0.6,0.3-1.8,0.2-2.6-0.2l-3.3-1.6c-0.8-0.4-1-1-0.4-1.3l4.5-2.3
				c0.6-0.3,1.8-0.2,2.6,0.2l3.3,1.6C147,89.4,147.2,90,146.6,90.3z"/>
			<path class="st11" d="M154.9,86.2l-4.5,2.3c-0.6,0.3-1.8,0.2-2.6-0.2l-3.3-1.6c-0.8-0.4-1-1-0.4-1.3l4.5-2.3
				c0.6-0.3,1.8-0.2,2.6,0.2l3.3,1.6C155.3,85.3,155.5,85.9,154.9,86.2z"/>
			<path class="st11" d="M163.3,82l-4.5,2.3c-0.6,0.3-1.8,0.2-2.6-0.2l-3.3-1.6c-0.8-0.4-1-1-0.4-1.3l4.5-2.3
				c0.6-0.3,1.8-0.2,2.6,0.2l3.3,1.6C163.7,81.1,163.9,81.7,163.3,82z"/>
			<path class="st11" d="M171.6,77.8l-4.5,2.3c-0.6,0.3-1.8,0.2-2.6-0.2l-3.3-1.6c-0.8-0.4-1-1-0.4-1.3l4.5-2.3
				c0.6-0.3,1.8-0.2,2.6,0.2l3.3,1.6C172,76.9,172.2,77.5,171.6,77.8z"/>
			<path class="st11" d="M179.9,73.7l-4.5,2.3c-0.6,0.3-1.8,0.2-2.6-0.2l-3.3-1.6c-0.8-0.4-1-1-0.4-1.3l4.5-2.3
				c0.6-0.3,1.8-0.2,2.6,0.2l3.3,1.6C180.3,72.8,180.5,73.4,179.9,73.7z"/>
			<path class="st11" d="M188.3,69.5l-4.5,2.3c-0.6,0.3-1.8,0.2-2.6-0.2l-3.3-1.6c-0.8-0.4-1-1-0.4-1.3l4.5-2.3
				c0.6-0.3,1.8-0.2,2.6,0.2l3.3,1.6C188.7,68.6,188.9,69.2,188.3,69.5z"/>
			<path class="st11" d="M196.6,65.3l-4.5,2.3c-0.6,0.3-1.8,0.2-2.6-0.2l-3.3-1.6c-0.8-0.4-1-1-0.4-1.3l4.5-2.3
				c0.6-0.3,1.8-0.2,2.6,0.2l3.3,1.6C197,64.4,197.2,65,196.6,65.3z"/>
		</g>
		<g>
			<path class="st12" d="M83.5,91.1L79,93.3c-0.6,0.3-1.8,0.2-2.6-0.2l-3.3-1.6c-0.8-0.4-1-1-0.4-1.3l4.5-2.3
				c0.6-0.3,1.8-0.2,2.6,0.2l3.3,1.6C83.9,90.2,84.1,90.8,83.5,91.1z"/>
			<path class="st12" d="M91.7,87l-4.5,2.3c-0.6,0.3-1.8,0.2-2.6-0.2l-3.3-1.6c-0.8-0.4-1-1-0.4-1.3l4.5-2.3
				c0.6-0.3,1.8-0.2,2.6,0.2l3.3,1.6C92.1,86.1,92.3,86.7,91.7,87z"/>
			<path class="st12" d="M100,82.8l-4.5,2.3c-0.6,0.3-1.8,0.2-2.6-0.2l-3.3-1.6c-0.8-0.4-1-1-0.4-1.3l4.5-2.3
				c0.6-0.3,1.8-0.2,2.6,0.2l3.3,1.6C100.4,81.9,100.6,82.5,100,82.8z"/>
			<path class="st12" d="M108.4,78.6l-4.5,2.3c-0.6,0.3-1.8,0.2-2.6-0.2L98,79.1c-0.8-0.4-1-1-0.4-1.3l4.5-2.3
				c0.6-0.3,1.8-0.2,2.6,0.2l3.3,1.6C108.8,77.8,109,78.3,108.4,78.6z"/>
			<path class="st12" d="M116.7,74.5l-4.5,2.3c-0.6,0.3-1.8,0.2-2.6-0.2l-3.3-1.6c-0.8-0.4-1-1-0.4-1.3l4.5-2.3
				c0.6-0.3,1.8-0.2,2.6,0.2l3.3,1.6C117.1,73.6,117.3,74.2,116.7,74.5z"/>
			<path class="st12" d="M125,70.3l-4.5,2.3c-0.6,0.3-1.8,0.2-2.6-0.2l-3.3-1.6c-0.8-0.4-1-1-0.4-1.3l4.5-2.3
				c0.6-0.3,1.8-0.2,2.6,0.2l3.3,1.6C125.4,69.4,125.6,70,125,70.3z"/>
			<path class="st12" d="M133.4,66.1l-4.5,2.3c-0.6,0.3-1.8,0.2-2.6-0.2l-3.3-1.6c-0.8-0.4-1-1-0.4-1.3l4.5-2.3
				c0.6-0.3,1.8-0.2,2.6,0.2l3.3,1.6C133.8,65.2,134,65.8,133.4,66.1z"/>
			<path class="st12" d="M141.7,62l-4.5,2.3c-0.6,0.3-1.8,0.2-2.6-0.2l-3.3-1.6c-0.8-0.4-1-1-0.4-1.3l4.5-2.3
				c0.6-0.3,1.8-0.2,2.6,0.2l3.3,1.6C142.1,61.1,142.3,61.7,141.7,62z"/>
			<path class="st12" d="M150,57.8l-4.5,2.3c-0.6,0.3-1.8,0.2-2.6-0.2l-3.3-1.6c-0.8-0.4-1-1-0.4-1.3l4.5-2.3
				c0.6-0.3,1.8-0.2,2.6,0.2l3.3,1.6C150.4,56.9,150.6,57.5,150,57.8z"/>
			<path class="st12" d="M158.4,53.6l-4.5,2.3c-0.6,0.3-1.8,0.2-2.6-0.2l-3.3-1.6c-0.8-0.4-1-1-0.4-1.3l4.5-2.3
				c0.6-0.3,1.8-0.2,2.6,0.2l3.3,1.6C158.8,52.7,159,53.3,158.4,53.6z"/>
			<path class="st12" d="M166.7,49.5l-4.5,2.3c-0.6,0.3-1.8,0.2-2.6-0.2l-3.3-1.6c-0.8-0.4-1-1-0.4-1.3l4.5-2.3
				c0.6-0.3,1.8-0.2,2.6,0.2l3.3,1.6C167.1,48.6,167.3,49.2,166.7,49.5z"/>
			<path class="st12" d="M91,94.8l-4.5,2.3c-0.6,0.3-1.8,0.2-2.6-0.2l-3.3-1.6c-0.8-0.4-1-1-0.4-1.3l4.5-2.3
				c0.6-0.3,1.8-0.2,2.6,0.2l3.3,1.6C91.4,93.9,91.6,94.5,91,94.8z"/>
			<path class="st12" d="M99.2,90.7L94.7,93c-0.6,0.3-1.8,0.2-2.6-0.2l-3.3-1.6c-0.8-0.4-1-1-0.4-1.3l4.5-2.3
				c0.6-0.3,1.8-0.2,2.6,0.2l3.3,1.6C99.6,89.8,99.8,90.4,99.2,90.7z"/>
			<path class="st12" d="M107.5,86.6l-4.5,2.3c-0.6,0.3-1.8,0.2-2.6-0.2L97.1,87c-0.8-0.4-1-1-0.4-1.3l4.5-2.3
				c0.6-0.3,1.8-0.2,2.6,0.2l3.3,1.6C108,85.7,108.1,86.3,107.5,86.6z"/>
			<path class="st12" d="M115.9,82.4l-4.5,2.3c-0.6,0.3-1.8,0.2-2.6-0.2l-3.3-1.6c-0.8-0.4-1-1-0.4-1.3l4.5-2.3
				c0.6-0.3,1.8-0.2,2.6,0.2l3.3,1.6C116.3,81.5,116.5,82.1,115.9,82.4z"/>
			<path class="st12" d="M124.2,78.2l-4.5,2.3c-0.6,0.3-1.8,0.2-2.6-0.2l-3.3-1.6c-0.8-0.4-1-1-0.4-1.3l4.5-2.3
				c0.6-0.3,1.8-0.2,2.6,0.2l3.3,1.6C124.6,77.3,124.8,77.9,124.2,78.2z"/>
			<path class="st12" d="M132.6,74.1l-4.5,2.3c-0.6,0.3-1.8,0.2-2.6-0.2l-3.3-1.6c-0.8-0.4-1-1-0.4-1.3l4.5-2.3
				c0.6-0.3,1.8-0.2,2.6,0.2l3.3,1.6C133,73.2,133.2,73.8,132.6,74.1z"/>
			<path class="st12" d="M140.9,69.9l-4.5,2.3c-0.6,0.3-1.8,0.2-2.6-0.2l-3.3-1.6c-0.8-0.4-1-1-0.4-1.3l4.5-2.3
				c0.6-0.3,1.8-0.2,2.6,0.2l3.3,1.6C141.3,69,141.5,69.6,140.9,69.9z"/>
			<path class="st12" d="M149.2,65.7l-4.5,2.3c-0.6,0.3-1.8,0.2-2.6-0.2l-3.3-1.6c-0.8-0.4-1-1-0.4-1.3l4.5-2.3
				c0.6-0.3,1.8-0.2,2.6,0.2l3.3,1.6C149.6,64.8,149.8,65.4,149.2,65.7z"/>
			<path class="st12" d="M157.6,61.6l-4.5,2.3c-0.6,0.3-1.8,0.2-2.6-0.2l-3.3-1.6c-0.8-0.4-1-1-0.4-1.3l4.5-2.3
				c0.6-0.3,1.8-0.2,2.6,0.2l3.3,1.6C158,60.7,158.2,61.3,157.6,61.6z"/>
			<path class="st12" d="M165.9,57.4l-4.5,2.3c-0.6,0.3-1.8,0.2-2.6-0.2l-3.3-1.6c-0.8-0.4-1-1-0.4-1.3l4.5-2.3
				c0.6-0.3,1.8-0.2,2.6,0.2l3.3,1.6C166.3,56.5,166.5,57.1,165.9,57.4z"/>
			<path class="st12" d="M174.2,53.2l-4.5,2.3c-0.6,0.3-1.8,0.2-2.6-0.2l-3.3-1.6c-0.8-0.4-1-1-0.4-1.3l4.5-2.3
				c0.6-0.3,1.8-0.2,2.6,0.2l3.3,1.6C174.6,52.3,174.8,52.9,174.2,53.2z"/>
			<path class="st12" d="M98.5,98.6l-4.5,2.3c-0.6,0.3-1.8,0.2-2.6-0.2L88.1,99c-0.8-0.4-1-1-0.4-1.3l4.5-2.3
				c0.6-0.3,1.8-0.2,2.6,0.2l3.3,1.6C98.9,97.7,99.1,98.3,98.5,98.6z"/>
			<path class="st12" d="M106.7,94.5l-4.5,2.3c-0.6,0.3-1.8,0.2-2.6-0.2L96.3,95c-0.8-0.4-1-1-0.4-1.3l4.5-2.3
				c0.6-0.3,1.8-0.2,2.6,0.2l3.3,1.6C107.1,93.6,107.3,94.2,106.7,94.5z"/>
			<path class="st12" d="M115.1,90.3l-4.5,2.3c-0.6,0.3-1.8,0.2-2.6-0.2l-3.3-1.6c-0.8-0.4-1-1-0.4-1.3l4.5-2.3
				c0.6-0.3,1.8-0.2,2.6,0.2l3.3,1.6C115.5,89.4,115.7,90,115.1,90.3z"/>
			<path class="st12" d="M123.4,86.2l-4.5,2.3c-0.6,0.3-1.8,0.2-2.6-0.2l-3.3-1.6c-0.8-0.4-1-1-0.4-1.3l4.5-2.3
				c0.6-0.3,1.8-0.2,2.6,0.2l3.3,1.6C123.8,85.3,124,85.9,123.4,86.2z"/>
			<path class="st12" d="M131.7,82l-4.5,2.3c-0.6,0.3-1.8,0.2-2.6-0.2l-3.3-1.6c-0.8-0.4-1-1-0.4-1.3l4.5-2.3
				c0.6-0.3,1.8-0.2,2.6,0.2l3.3,1.6C132.1,81.1,132.3,81.7,131.7,82z"/>
			<path class="st12" d="M140.1,77.8l-4.5,2.3c-0.6,0.3-1.8,0.2-2.6-0.2l-3.3-1.6c-0.8-0.4-1-1-0.4-1.3l4.5-2.3
				c0.6-0.3,1.8-0.2,2.6,0.2l3.3,1.6C140.5,76.9,140.7,77.5,140.1,77.8z"/>
			<path class="st12" d="M148.4,73.7l-4.5,2.3c-0.6,0.3-1.8,0.2-2.6-0.2l-3.3-1.6c-0.8-0.4-1-1-0.4-1.3l4.5-2.3
				c0.6-0.3,1.8-0.2,2.6,0.2l3.3,1.6C148.8,72.8,149,73.4,148.4,73.7z"/>
			<path class="st12" d="M156.7,69.5l-4.5,2.3c-0.6,0.3-1.8,0.2-2.6-0.2l-3.3-1.6c-0.8-0.4-1-1-0.4-1.3l4.5-2.3
				c0.6-0.3,1.8-0.2,2.6,0.2l3.3,1.6C157.1,68.6,157.3,69.2,156.7,69.5z"/>
			<path class="st12" d="M165.1,65.3l-4.5,2.3c-0.6,0.3-1.8,0.2-2.6-0.2l-3.3-1.6c-0.8-0.4-1-1-0.4-1.3l4.5-2.3
				c0.6-0.3,1.8-0.2,2.6,0.2l3.3,1.6C165.5,64.4,165.7,65,165.1,65.3z"/>
			<path class="st12" d="M173.4,61.2l-4.5,2.3c-0.6,0.3-1.8,0.2-2.6-0.2l-3.3-1.6c-0.8-0.4-1-1-0.4-1.3l4.5-2.3
				c0.6-0.3,1.8-0.2,2.6,0.2l3.3,1.6C173.8,60.3,174,60.9,173.4,61.2z"/>
			<path class="st12" d="M181.8,57l-4.5,2.3c-0.6,0.3-1.8,0.2-2.6-0.2l-3.3-1.6c-0.8-0.4-1-1-0.4-1.3l4.5-2.3
				c0.6-0.3,1.8-0.2,2.6,0.2l3.3,1.6C182.2,56.1,182.4,56.7,181.8,57z"/>
			<path class="st12" d="M106.1,102.4l-4.5,2.3c-0.6,0.3-1.8,0.2-2.6-0.2l-3.3-1.6c-0.8-0.4-1-1-0.4-1.3l4.5-2.3
				c0.6-0.3,1.8-0.2,2.6,0.2l3.3,1.6C106.5,101.5,106.7,102.1,106.1,102.4z"/>
			<path class="st12" d="M114.3,98.3l-4.5,2.3c-0.6,0.3-1.8,0.2-2.6-0.2l-3.3-1.6c-0.8-0.4-1-1-0.4-1.3l4.5-2.3
				c0.6-0.3,1.8-0.2,2.6,0.2l3.3,1.6C114.7,97.4,114.9,98,114.3,98.3z"/>
			<path class="st12" d="M122.6,94.1l-4.5,2.3c-0.6,0.3-1.8,0.2-2.6-0.2l-3.3-1.6c-0.8-0.4-1-1-0.4-1.3l4.5-2.3
				c0.6-0.3,1.8-0.2,2.6,0.2l3.3,1.6C123,93.2,123.2,93.8,122.6,94.1z"/>
			<path class="st12" d="M130.9,89.9l-4.5,2.3c-0.6,0.3-1.8,0.2-2.6-0.2l-3.3-1.6c-0.8-0.4-1-1-0.4-1.3l4.5-2.3
				c0.6-0.3,1.8-0.2,2.6,0.2l3.3,1.6C131.3,89,131.5,89.6,130.9,89.9z"/>
			<path class="st12" d="M139.3,85.8l-4.5,2.3c-0.6,0.3-1.8,0.2-2.6-0.2l-3.3-1.6c-0.8-0.4-1-1-0.4-1.3l4.5-2.3
				c0.6-0.3,1.8-0.2,2.6,0.2l3.3,1.6C139.7,84.9,139.9,85.5,139.3,85.8z"/>
			<path class="st12" d="M147.6,81.6l-4.5,2.3c-0.6,0.3-1.8,0.2-2.6-0.2l-3.3-1.6c-0.8-0.4-1-1-0.4-1.3l4.5-2.3
				c0.6-0.3,1.8-0.2,2.6,0.2l3.3,1.6C148,80.7,148.2,81.3,147.6,81.6z"/>
			<path class="st12" d="M155.9,77.4l-4.5,2.3c-0.6,0.3-1.8,0.2-2.6-0.2l-3.3-1.6c-0.8-0.4-1-1-0.4-1.3l4.5-2.3
				c0.6-0.3,1.8-0.2,2.6,0.2l3.3,1.6C156.3,76.5,156.5,77.1,155.9,77.4z"/>
			<path class="st12" d="M164.3,73.2l-4.5,2.3c-0.6,0.3-1.8,0.2-2.6-0.2l-3.3-1.6c-0.8-0.4-1-1-0.4-1.3l4.5-2.3
				c0.6-0.3,1.8-0.2,2.6,0.2l3.3,1.6C164.7,72.4,164.9,72.9,164.3,73.2z"/>
			<path class="st12" d="M172.6,69.1l-4.5,2.3c-0.6,0.3-1.8,0.2-2.6-0.2l-3.3-1.6c-0.8-0.4-1-1-0.4-1.3l4.5-2.3
				c0.6-0.3,1.8-0.2,2.6,0.2l3.3,1.6C173,68.2,173.2,68.8,172.6,69.1z"/>
			<path class="st12" d="M180.9,64.9l-4.5,2.3c-0.6,0.3-1.8,0.2-2.6-0.2l-3.3-1.6c-0.8-0.4-1-1-0.4-1.3l4.5-2.3
				c0.6-0.3,1.8-0.2,2.6,0.2l3.3,1.6C181.3,64,181.5,64.6,180.9,64.9z"/>
			<path class="st12" d="M189.3,60.7l-4.5,2.3c-0.6,0.3-1.8,0.2-2.6-0.2l-3.3-1.6c-0.8-0.4-1-1-0.4-1.3l4.5-2.3
				c0.6-0.3,1.8-0.2,2.6,0.2l3.3,1.6C189.7,59.9,189.9,60.4,189.3,60.7z"/>
			<path class="st12" d="M113.6,106.1l-4.5,2.3c-0.6,0.3-1.8,0.2-2.6-0.2l-3.3-1.6c-0.8-0.4-1-1-0.4-1.3l4.5-2.3
				c0.6-0.3,1.8-0.2,2.6,0.2l3.3,1.6C114,105.2,114.2,105.8,113.6,106.1z"/>
			<path class="st12" d="M121.8,102l-4.5,2.3c-0.6,0.3-1.8,0.2-2.6-0.2l-3.3-1.6c-0.8-0.4-1-1-0.4-1.3l4.5-2.3
				c0.6-0.3,1.8-0.2,2.6,0.2l3.3,1.6C122.2,101.1,122.4,101.7,121.8,102z"/>
			<path class="st12" d="M130.1,97.8l-4.5,2.3c-0.6,0.3-1.8,0.2-2.6-0.2l-3.3-1.6c-0.8-0.4-1-1-0.4-1.3l4.5-2.3
				c0.6-0.3,1.8-0.2,2.6,0.2l3.3,1.6C130.5,97,130.7,97.5,130.1,97.8z"/>
			<path class="st12" d="M138.4,93.7l-4.5,2.3c-0.6,0.3-1.8,0.2-2.6-0.2l-3.3-1.6c-0.8-0.4-1-1-0.4-1.3l4.5-2.3
				c0.6-0.3,1.8-0.2,2.6,0.2l3.3,1.6C138.9,92.8,139,93.4,138.4,93.7z"/>
			<path class="st12" d="M146.8,89.5l-4.5,2.3c-0.6,0.3-1.8,0.2-2.6-0.2l-3.3-1.6c-0.8-0.4-1-1-0.4-1.3l4.5-2.3
				c0.6-0.3,1.8-0.2,2.6,0.2l3.3,1.6C147.2,88.6,147.4,89.2,146.8,89.5z"/>
			<path class="st12" d="M155.1,85.3l-4.5,2.3c-0.6,0.3-1.8,0.2-2.6-0.2l-3.3-1.6c-0.8-0.4-1-1-0.4-1.3l4.5-2.3
				c0.6-0.3,1.8-0.2,2.6,0.2l3.3,1.6C155.5,84.5,155.7,85,155.1,85.3z"/>
			<path class="st12" d="M163.5,81.2l-4.5,2.3c-0.6,0.3-1.8,0.2-2.6-0.2l-3.3-1.6c-0.8-0.4-1-1-0.4-1.3l4.5-2.3
				c0.6-0.3,1.8-0.2,2.6,0.2l3.3,1.6C163.9,80.3,164.1,80.9,163.5,81.2z"/>
			<path class="st12" d="M171.8,77l-4.5,2.3c-0.6,0.3-1.8,0.2-2.6-0.2l-3.3-1.6c-0.8-0.4-1-1-0.4-1.3l4.5-2.3
				c0.6-0.3,1.8-0.2,2.6,0.2l3.3,1.6C172.2,76.1,172.4,76.7,171.8,77z"/>
			<path class="st12" d="M180.1,72.8l-4.5,2.3c-0.6,0.3-1.8,0.2-2.6-0.2l-3.3-1.6c-0.8-0.4-1-1-0.4-1.3l4.5-2.3
				c0.6-0.3,1.8-0.2,2.6,0.2l3.3,1.6C180.5,72,180.7,72.5,180.1,72.8z"/>
			<path class="st12" d="M188.5,68.7L184,71c-0.6,0.3-1.8,0.2-2.6-0.2l-3.3-1.6c-0.8-0.4-1-1-0.4-1.3l4.5-2.3
				c0.6-0.3,1.8-0.2,2.6,0.2l3.3,1.6C188.9,67.8,189.1,68.4,188.5,68.7z"/>
			<path class="st12" d="M196.8,64.5l-4.5,2.3c-0.6,0.3-1.8,0.2-2.6-0.2l-3.3-1.6c-0.8-0.4-1-1-0.4-1.3l4.5-2.3
				c0.6-0.3,1.8-0.2,2.6,0.2l3.3,1.6C197.2,63.6,197.4,64.2,196.8,64.5z"/>
		</g>
	</g>
</g>
<g>
	<polygon class="st13" points="286.4,182.2 232.4,151.9 267.7,132.7 320.8,161.3 	"/>
	<path class="st2" d="M273.7,117.5l-39,21c0,0,8.7-0.3,13.3,5.4s4.6,17.3,14.2,24.2c9.6,6.9,24.6,6.9,24.6,6.9l39.2-21.6
		c0,0-21.2-1.5-27.5-6.6s-5.4-15.2-10-20.1C283.8,121.8,273.7,117.5,273.7,117.5z"/>
	<polygon class="st14" points="246.2,136.9 249.8,139.1 277.5,123.2 274.6,121.2 	"/>
	<polygon class="st14" points="273,168.8 276.7,170 305.8,153.2 301.7,151.7 	"/>
	<polygon class="st14" points="280.3,125.2 283.9,128 253.9,146.3 251.4,142.5 	"/>
	<polygon class="st14" points="294.3,146.3 298,149 268.4,166.6 265.5,163.5 	"/>
	<polygon class="st14" points="286.2,132.7 288.8,136.3 258.7,154.1 257.3,150.2 	"/>
	<polygon class="st14" points="290.9,140.8 292.8,144.1 263.7,161.1 261.9,158.6 	"/>
	<polygon class="st14" points="311.1,154.1 315.6,155.2 285.3,172.5 281.7,171.1 	"/>
</g>
<path class="st15" d="M199.6,108.2c0,0,0.9,1.4,1.4,5.8c0.3,2.5,0.5,6,0.4,10.9c-0.4,13.2-6.6,2.5-6.6,2.5S195.5,107.9,199.6,108.2z
	"/>
<path class="st16" d="M196,152.8c0,0-0.1,2.8-0.3,3.1c0.8,0.4,1.2,0.5,1.2,0.5s0.4-0.3,0.6-0.1c0.2,0.2,1.7,1.4,2.6,1.7
	c0.8,0.3,3.8,0.3,4.5,0.1c0.9-0.8-2-2.4-2.4-2.7c-0.3-0.3-2.8-2.6-2.8-2.6H196z"/>
<path class="st16" d="M187.8,157.2c0,0-0.1,2.8-0.3,3.1c0.8,0.4,1.2,0.5,1.2,0.5s0.4-0.3,0.6-0.1c0.2,0.2,1.7,1.4,2.6,1.7
	c0.8,0.3,3.8,0.3,4.5,0.1c0.9-0.8-2-2.4-2.4-2.7c-0.3-0.3-2.8-2.6-2.8-2.6H187.8z"/>
<path class="st4" d="M201.6,127l-1.2,25.2l0.6,1.3c0,0-1.9,2.7-5,1.3c-0.5-0.2-0.3-2.2-0.3-2.2l-1.5-24.3L201.6,127z"/>
<path class="st17" d="M196.7,126.7c0,0-3.1,16.5-3.5,21.6c-0.5,5.1-1.1,7.5-0.9,7.8c0.2,0.3,1,1.3,0.7,1.5c-0.2,0.2-2.5,1.4-3.5,1.4
	s-2.4-1.2-2.4-1.2l2.1-30.4L196.7,126.7z"/>
<polygon class="st18" points="194.5,103.9 193.2,106.9 197.1,109.1 197.6,104.5 "/>
<path class="st19" d="M200.1,108c0,0-11.7-1.5-11.9,1.7c-0.2,3.1,0.2,10.9,0.9,19c2,2.1,5.6,2.2,6.3,2.1c2.8-0.1,5.8-3.7,5.8-3.7
	s-0.4-1.7-0.3-4.1c0.1-2.5,0.8-5.9,0.7-8.7C201.4,111.1,201,108.5,200.1,108z"/>
<path class="st2" d="M192.1,107.8l1.2-1.5c0,0,1.1,1.6,3,1.7c-1,2-1,1.7-1,1.7S192.8,109.2,192.1,107.8z"/>
<polygon class="st2" points="197.3,109.4 196.4,108 197.2,107.1 198,107.8 "/>
<path class="st20" d="M194.6,101.5c0,0-0.1,1.6-0.1,2.4c0.1,1,3.2,3.4,3.7,2.7c0,0,1.4-0.1,3-6.5
	C199.6,94.9,188.6,100.5,194.6,101.5z"/>
<path class="st16" d="M197.7,99.2l-1.9,2.5l-0.6-1.8c0,0-0.6-1.8-1.3-0.6c-0.7,1.2,0.7,2.1,0.7,2.1l-0.2,2.6l-1.2-2.1
	c0,0-0.5-2.5-0.4-3.6c0.1-0.8,0.2-4.4,3.3-3.5c2.4-1.1,4.1,0.5,4.7,1.2c0.4,0.5,0.7,0.8,1.1,3.9C199.2,100.6,197.7,99.2,197.7,99.2z
	"/>
<polygon class="st4" points="196.4,108 195.9,108.8 196.5,109.6 196.9,109 "/>
<path class="st4" d="M196.4,109.1l-0.7,1.5c0,0,0.5,0.9,0.6,3.3c0,2.5-0.6,8.5-0.8,9.3c1.2,1.4,1.3,1.5,1.2,1.4s0.5-1.5,0.5-1.5
	s0.6-6.5,0.6-9.4c0-2.2-0.5-3-0.5-3C197.2,110.6,196.4,109.1,196.4,109.1z"/>
<g>
	<path class="st21" d="M196.4,106.3c0,0,0.1,0.9,0.6,1.8c0.1,1.7,1.3-0.3-1.2,6.6c-2.3,5.6,2.2,0.9,2.2,0.9s1.3-5.6,1.5-6.1
		s1.4-2.3,1.4-2.3s-0.6-1.5-1.7-1.5c-1.2,1.2-1.2,1.2-1.2,1.2L196.4,106.3z"/>
	<path class="st2" d="M188.9,108.4c0,0-2.3,0.5-2.1,2.1c0.2,1.5,0.9,5,1.4,6.3c0.5,1.2,3.2,8.4,4,8.6c0.7,0.2,4.6-4.4,6.6-10.3
		c-2.1,0-2.9-1.1-2.9-1.1l-3.5,6.7C192.3,120.6,192.7,108.2,188.9,108.4z"/>
	<path class="st2" d="M195.5,113.2c0,0,1.8,1.5,3.5,1.4c-0.5,1.9-0.8,2.1-0.8,2.1s-2.1-0.1-3.5-1.8
		C195.5,113.2,195.5,113.2,195.5,113.2z"/>
</g>
<polygon class="st0" points="298.4,58.7 282.4,50.7 298.3,28.7 "/>
<path class="st22" d="M298.4,58.7L298.4,58.7L298.4,58.7z"/>
<polygon class="st22" points="298.5,81.2 298.4,81.2 298.5,81.1 "/>
<polygon class="st17" points="282.4,50.7 298.4,58.7 298.4,58.7 298.5,62.9 298.5,81.1 298.4,81.2 280.2,72 270.5,67.2 "/>
<polygon class="st4" points="270.5,67.2 280.2,72 298.4,81.2 298.5,81.2 298.6,101.8 259.7,82.3 "/>
<polygon class="st0" points="298.3,28.7 314.5,50.7 298.4,58.7 "/>
<polygon class="st4" points="316.9,71.9 326.5,67.1 337.6,82.3 298.6,101.8 298.5,81.2 298.5,81.1 "/>
<polygon class="st17" points="314.5,50.7 326.5,67.1 316.9,71.9 298.5,81.1 298.5,62.9 298.4,58.7 298.4,58.7 "/>
</svg>
