<?xml version="1.0" encoding="utf-8"?>
<!-- Generator: Adobe Illustrator 22.1.0, SVG Export Plug-In . SVG Version: 6.00 Build 0)  -->
<svg version="1.1" id="Layer_1" xmlns="http://www.w3.org/2000/svg" xmlns:xlink="http://www.w3.org/1999/xlink" x="0px" y="0px"
	 viewBox="0 0 479 215" style="enable-background:new 0 0 479 215;" xml:space="preserve">
<style type="text/css">
	.st0{fill:#FAFAFA;}
	.st1{fill:#BCB7C7;}
	.st2{fill:#C7C7C7;}
	.st3{fill:#B8B8B8;}
	.st4{fill:#B5B5B5;}
	.st5{opacity:0.1;}
	.st6{fill:#E0E0E0;}
	.st7{fill:#969696;}
	.st8{fill:#FFFFFF;}
	.st9{fill:#007542;}
	.st10{fill:#575D6E;}
	.st11{fill:#474C5A;}
	.st12{fill:#E6D4B6;}
	.st13{fill:#FAE7C6;}
	.st14{fill:#8BC53F;}
	.st15{fill:#00652C;}
	.st16{fill:#EDD2A1;}
	.st17{fill:#FAE3BB;}
	.st18{fill:#949494;}
	.st19{fill:#F5E8CE;}
	.st20{fill:#E3D7BC;}
	.st21{fill:#F5E8CB;}
	.st22{fill:#007F42;}
	.st23{fill:#CFCFCF;}
	.st24{fill:#E6E6E6;}
	.st25{fill:#F0F0F0;}
	.st26{fill:#0DC1C9;}
</style>
<g>
	<g>
		<polygon class="st0" points="256.2,181.4 211.9,203.6 148.8,172.1 193.2,149.9 		"/>
		<polygon class="st1" points="200.3,154.8 158.6,175.6 152.2,172.5 194,151.6 		"/>
		<polygon class="st2" points="201.2,161.9 172.8,176 170.7,175 199,160.8 		"/>
		<polygon class="st2" points="211.1,162.4 172.8,181.6 170.7,180.5 208.9,161.4 		"/>
		<polygon class="st2" points="215.3,164.5 177,183.7 174.9,182.6 213.1,163.5 		"/>
		<polygon class="st2" points="219.4,166.6 181.2,185.7 179.1,184.7 217.3,165.6 		"/>
		<polygon class="st2" points="223.6,168.7 185.4,187.8 183.3,186.8 221.5,167.7 		"/>
		<polygon class="st2" points="227.8,170.8 189.6,189.9 187.4,188.9 225.7,169.7 		"/>
		<polygon class="st2" points="232,172.9 193.8,192 191.7,191 229.9,171.9 		"/>
		<polygon class="st2" points="248.2,180.4 233.7,187.7 231.5,186.6 246,179.4 		"/>
	</g>
	<polygon class="st3" points="211.9,210.5 211.9,203.6 256.2,181.4 256.2,188.4 	"/>
	<g>
		<polygon class="st4" points="211.9,210.5 148.8,179.4 148.8,172 211.9,203.6 		"/>
	</g>
</g>
<g>
	<polygon class="st5" points="402.2,118.5 364.8,137.2 422.8,166.2 460.2,147.5 	"/>
	<g>
		<polygon class="st6" points="459.8,144.2 422.4,162.9 364.4,133.9 401.8,115.2 		"/>
		<polygon class="st7" points="405.1,118.8 371.7,135.5 370.6,135 404,118.3 		"/>
		<polygon class="st7" points="408.5,120.5 375.1,137.2 374,136.7 407.4,120 		"/>
		<polygon class="st7" points="411.9,122.2 378.5,138.9 377.5,138.4 410.8,121.7 		"/>
		<polygon class="st7" points="415.3,124 382,140.6 380.9,140.1 414.2,123.4 		"/>
		<polygon class="st7" points="418.7,125.7 385.4,142.3 384.3,141.8 417.6,125.1 		"/>
		<polygon class="st7" points="422.1,127.4 388.8,144 387.7,143.5 421,126.8 		"/>
		<polygon class="st7" points="425.5,129.1 392.2,145.7 391.1,145.2 424.4,128.5 		"/>
		<polygon class="st7" points="428.9,130.8 395.6,147.4 394.5,146.9 427.9,130.2 		"/>
		<polygon class="st7" points="432.4,132.5 399,149.2 397.9,148.6 431.3,131.9 		"/>
		<polygon class="st7" points="435.8,134.2 402.4,150.9 401.3,150.3 434.7,133.6 		"/>
		<polygon class="st7" points="439.2,135.9 405.8,152.6 404.7,152 438.1,135.3 		"/>
		<polygon class="st7" points="442.6,137.6 409.2,154.3 408.2,153.7 441.5,137 		"/>
		<polygon class="st7" points="446,139.3 412.7,156 411.6,155.4 444.9,138.8 		"/>
		<polygon class="st7" points="449.4,141 416.1,157.7 415,157.1 448.3,140.5 		"/>
		<polygon class="st7" points="452.8,142.7 419.5,159.4 418.4,158.8 451.7,142.2 		"/>
	</g>
	<g>
		<polygon class="st8" points="472.1,141.3 435.4,156.8 396.1,132.8 432.8,117.3 		"/>
		<polygon class="st4" points="434.4,120.3 401.7,134.1 400.9,133.7 433.6,119.8 		"/>
		<polygon class="st4" points="436.7,121.7 404,135.6 403.2,135.1 436,121.3 		"/>
		<polygon class="st4" points="439,123.1 406.3,137 405.5,136.5 438.3,122.7 		"/>
		<polygon class="st4" points="441.3,124.5 408.6,138.4 407.9,137.9 440.6,124.1 		"/>
		<polygon class="st4" points="443.6,126 410.9,139.8 410.2,139.3 442.9,125.5 		"/>
		<polygon class="st4" points="446,127.4 413.2,141.2 412.5,140.8 445.2,126.9 		"/>
		<polygon class="st4" points="448.3,128.8 415.6,142.6 414.8,142.2 447.5,128.3 		"/>
		<polygon class="st4" points="450.6,130.2 417.9,144 417.1,143.6 449.9,129.8 		"/>
		<polygon class="st4" points="452.9,131.6 420.2,145.5 419.4,145 452.2,131.2 		"/>
		<polygon class="st4" points="455.2,133 422.5,146.9 421.8,146.4 454.5,132.6 		"/>
		<polygon class="st4" points="457.5,134.5 424.8,148.3 424.1,147.8 456.8,134 		"/>
		<polygon class="st4" points="459.9,135.9 427.1,149.7 426.4,149.3 459.1,135.4 		"/>
		<polygon class="st4" points="462.2,137.3 429.4,151.1 428.7,150.7 461.4,136.8 		"/>
		<polygon class="st4" points="464.5,138.7 431.8,152.5 431,152.1 463.8,138.2 		"/>
		<polygon class="st4" points="466.8,140.1 434.1,154 433.3,153.5 466.1,139.7 		"/>
	</g>
</g>
<g>
	<g>
		<g>
			<polygon class="st0" points="20.2,103.3 59.8,123.1 116.1,95 76.5,75.2 			"/>
			<polygon class="st1" points="70.2,79.5 107.4,98.1 113.1,95.3 75.8,76.7 			"/>
			<polygon class="st2" points="69.4,85.9 94.7,98.5 96.6,97.6 71.3,84.9 			"/>
			<polygon class="st2" points="60.5,86.4 94.7,103.4 96.6,102.5 62.5,85.4 			"/>
			<polygon class="st2" points="56.8,88.3 90.9,105.3 92.8,104.4 58.7,87.3 			"/>
			<polygon class="st2" points="53.1,90.1 87.2,107.2 89.1,106.2 55,89.2 			"/>
			<polygon class="st2" points="49.3,92 83.4,109.1 85.4,108.1 51.2,91 			"/>
			<polygon class="st2" points="45.6,93.9 79.7,110.9 81.6,110 47.5,92.9 			"/>
			<polygon class="st2" points="41.8,95.7 76,112.8 77.9,111.8 43.7,94.8 			"/>
			<polygon class="st2" points="27.4,102.4 40.4,108.9 42.3,108 29.3,101.5 			"/>
		</g>
		<polygon class="st3" points="59.8,129.3 59.8,123.1 20.2,103.3 20.2,109.5 		"/>
		<g>
			<polygon class="st4" points="59.8,129.3 116.1,101.5 116.1,94.9 59.8,123.1 			"/>
		</g>
	</g>
	<g>
		<g>
			<polygon class="st0" points="20.2,95.5 59.8,115.3 116.1,87.1 76.5,67.3 			"/>
			<polygon class="st1" points="70.2,71.7 107.4,90.3 113.1,87.5 75.8,68.9 			"/>
			<polygon class="st2" points="69.4,78.1 94.7,90.7 96.6,89.8 71.3,77.1 			"/>
			<polygon class="st2" points="60.5,78.6 94.7,95.6 96.6,94.7 62.5,77.6 			"/>
			<polygon class="st2" points="56.8,80.4 90.9,97.5 92.8,96.5 58.7,79.5 			"/>
			<polygon class="st2" points="53.1,82.3 87.2,99.4 89.1,98.4 55,81.3 			"/>
			<polygon class="st2" points="49.3,84.2 83.4,101.2 85.4,100.3 51.2,83.2 			"/>
			<polygon class="st2" points="45.6,86 79.7,103.1 81.6,102.2 47.5,85.1 			"/>
			<polygon class="st2" points="41.8,87.9 76,105 77.9,104 43.7,87 			"/>
			<polygon class="st2" points="27.4,94.6 40.4,101.1 42.3,100.1 29.3,93.7 			"/>
		</g>
		<polygon class="st3" points="59.8,121.5 59.8,115.3 20.2,95.5 20.2,101.7 		"/>
		<g>
			<polygon class="st4" points="59.8,121.5 116.1,93.7 116.1,87.1 59.8,115.3 			"/>
		</g>
	</g>
	<g>
		<g>
			<polygon class="st0" points="20.2,87.7 59.8,107.5 116.1,79.3 76.5,59.5 			"/>
			<polygon class="st1" points="70.2,63.9 107.4,82.5 113.1,79.7 75.8,61.1 			"/>
			<polygon class="st2" points="69.4,70.2 94.7,82.9 96.6,81.9 71.3,69.3 			"/>
			<polygon class="st2" points="60.5,70.7 94.7,87.8 96.6,86.8 62.5,69.8 			"/>
			<polygon class="st2" points="56.8,72.6 90.9,89.7 92.8,88.7 58.7,71.7 			"/>
			<polygon class="st2" points="53.1,74.5 87.2,91.6 89.1,90.6 55,73.5 			"/>
			<polygon class="st2" points="49.3,76.4 83.4,93.4 85.4,92.5 51.2,75.4 			"/>
			<polygon class="st2" points="45.6,78.2 79.7,95.3 81.6,94.3 47.5,77.3 			"/>
			<polygon class="st2" points="41.8,80.1 76,97.2 77.9,96.2 43.7,79.1 			"/>
			<polygon class="st2" points="27.4,86.8 40.4,93.3 42.3,92.3 29.3,85.9 			"/>
		</g>
		<polygon class="st3" points="59.8,113.7 59.8,107.5 20.2,87.7 20.2,93.9 		"/>
		<g>
			<polygon class="st4" points="59.8,113.7 116.1,85.9 116.1,79.3 59.8,107.5 			"/>
		</g>
	</g>
	<g>
		<g>
			<polygon class="st0" points="20.6,72.6 56.8,98.2 116.7,78.8 80.5,53.3 			"/>
			<polygon class="st2" points="71.9,62.8 95,79.1 97,78.5 73.9,62.1 			"/>
			<polygon class="st2" points="63,62 94.2,84 96.2,83.3 65.1,61.3 			"/>
			<polygon class="st2" points="59,63.2 90.2,85.3 92.2,84.6 61.1,62.6 			"/>
			<polygon class="st2" points="55.1,64.5 86.2,86.6 88.3,85.9 57.1,63.9 			"/>
			<polygon class="st2" points="51.1,65.8 82.2,87.8 84.3,87.2 53.1,65.2 			"/>
			<polygon class="st2" points="47.1,67.1 78.3,89.1 80.3,88.5 49.1,66.4 			"/>
			<polygon class="st2" points="43.1,68.4 74.3,90.4 76.3,89.8 45.1,67.7 			"/>
			<polygon class="st2" points="27.8,72.8 39.7,81.2 41.7,80.5 29.9,72.2 			"/>
		</g>
		<polygon class="st3" points="55.8,104.3 56.8,98.2 20.6,72.6 19.7,78.7 		"/>
		<g>
			<polygon class="st4" points="55.8,104.3 115.7,85.3 116.7,78.8 56.8,98.1 			"/>
		</g>
	</g>
</g>
<path class="st9" d="M71,66.4c0,0,1.8-0.5,2.1,1c0.3,1.5,0,5.8,0,5.8l-1.9,3.3C71.3,76.5,68.7,66.9,71,66.4z"/>
<path class="st10" d="M77.5,99.3c0,0-0.4,0-0.5,1.5c0,0.6,0,1,0,1l0.3,0.1V101c0,0,0.9,1.2,1.1,1.7c0.2,0.5,2,1.6,2.9,1.7
	c0.9,0.1,0.8,0.1,0.9-0.1c0-0.2-0.2-1.3-1.1-2.5C80.2,100.5,77.5,99.3,77.5,99.3z"/>
<path class="st11" d="M81.3,96.1c0,0-0.4,0.1-0.3,1.6c0,0.6,0.1,1,0.1,1l0.3,0.1l-0.1-0.9c0,0,1,1.1,1.2,1.6c0.3,0.5,2.1,1.3,3,1.4
	c0.9,0,0.8,0,0.8-0.2c0-0.2-0.3-1.3-1.4-2.4C84.1,97.1,81.3,96.1,81.3,96.1z"/>
<path class="st12" d="M76.9,86.2l3.3,0.8c0,0-0.4,1.1-0.1,3c0.3,1.9,1.3,4.2,1.1,6.6c2,2.3,3.9,2.8,4.1,2.4c0.2-0.4-2.1-2.7-2.1-3.3
	c0-0.5,0.3-8,0.3-8s0.6-1.7,0.2-2.2c-0.4-0.5-6.6-4.7-6.6-4.7l-5.8,0.1L76.9,86.2z"/>
<path class="st13" d="M74.1,89l3.2,1.2c0,0-0.5,1.1-0.4,3c0.1,1.9,0.8,4.4,0.4,6.7c1.8,2.5,3.6,3.2,3.8,2.8c0.2-0.4-1.8-3-1.8-3.5
	c0-0.5,1.2-8,1.2-8s0.8-1.6,0.4-2.2c-0.3-0.6-6.1-5.4-6.1-5.4L69,83L74.1,89z"/>
<path class="st9" d="M66.7,79.3c0,0-1,2.3-0.6,4.1c0.4,1.8,8.3,6.2,8.3,6.2l0.2-0.8l-2.8-2.8l3.6,2c0,0,2-4.2,4.8-5.1
	c-5.6-4.9-7.1-6.2-7.1-6.2L66.7,79.3z"/>
<g>
	<path class="st14" d="M72.7,74.7l-0.9-3.8l-4.6-4.1c0.1,0,0.1-0.1,0.2-0.1c0.9-0.5,3.4-0.5,4-0.5l1.6,4L72.7,74.7z"/>
	<path class="st14" d="M67.1,66.8l4.6,4.1l0.9,3.8l0.3-4.6l-1.6-4c0.1,0,0.1,0,0.1,0s3,3.7,3.2,4.3c0.2,0.6-0.6,2.1-0.7,3.5
		c-0.1,1.5,0.7,3.7,0.7,3.7s0.2,1.5-0.8,2.2c-1,0.7-6.5-0.4-6.5-0.4l-2.9-11.1C64.5,68.4,66.1,67.4,67.1,66.8z"/>
</g>
<path class="st15" d="M71.2,66.1c0,0,0,0,0.2,0c0.1,0,2,3.4,2,4.2c0,1-0.5,3.5-0.5,3.5s0-2.5-0.5-3c-0.6-0.5-4.4-4-4.4-4l-0.5-0.2
	L66.7,67c0,0,2.4,2.6,3,4.4c1.5,0,1.3,0,1.3,0l0.2,1.4l0.7,0.1c0,0,0.7,0.5,0.7,1.9C73.3,70.5,71.2,66.1,71.2,66.1z"/>
<path class="st16" d="M70.9,64.2c0,0-0.4,1.2-0.1,2c0.2,0.7-1.7,1.2-3,0.5c0-1.5,0.5-7,0.5-7L70.9,64.2z"/>
<path class="st17" d="M72.5,58.1c0,0-0.1,5.4-1.3,6.7c-1.2,0.2-1.1,0.5-3.7-1.1c-3.3-2.1,0.5-6.1,0.5-6.1L72.5,58.1z"/>
<path class="st18" d="M71.9,58.7c0,0,0.2,1.3,0.4,2.6c0.1,1.3-0.4,1.8-0.5,2.5c0.3,1,0.9,1.7,0.9,1.7s1.2-4.4,1-6.2
	c-0.2-1.7-1.1-3.6-3.7-3.5c-2.6,0-3.7,0.7-4.1,1.3c-0.4,0.6-1.4,3.1-1.1,5c0.3,1.9,2.7,3.2,2.7,3.2l-0.2-0.5l1.5,1l-1.2-3.6
	c0,0-1.1-0.6-1.1-1.1c0.1-0.5,0.3-1,0.9-0.3c0.6,0.8,0.1-1,0.1-1S71.5,60.5,71.9,58.7z"/>
<path class="st13" d="M70.6,79c0,0,3.5-0.2,4.1,0.5c0.8,0.9-1.1,1.3-2.1,1.2c-1-0.1-3.5-0.8-3.5-0.8l1.3-0.8H70.6z"/>
<path class="st9" d="M64.5,68.4c0,0,1.1-0.5,1.7,0.7c0.6,1.2,0.5,7.3,0.5,7.3l4.9,2.3c0,0,0.9,2.4-0.7,2.6L65,79.2
	c-0.6-0.2-1-0.8-1.1-1.4c-0.1-1.7-0.3-4.9-0.3-6.5C63.7,70.5,63.7,68.9,64.5,68.4z"/>
<path class="st19" d="M151.9,89.5c0,0-4.7-0.9-5.3-2.1s3-0.6,3-0.6s-1.5-0.6-1.2-0.7c0.3-0.1,4.4,1.5,4.5,1.9
	C152.9,88.5,151.9,89.5,151.9,89.5z"/>
<path class="st20" d="M165.3,75.8c0,0,0.6,1.9,0,2.9c-0.6,1-1,5.8-1,5.8l4.8-0.6l-0.4-6.2L165.3,75.8z"/>
<path class="st21" d="M181.9,86c0,0,4,0.4,4.1-0.4c0.1-0.8,1-2.9-0.3-2.7c-1.3,0.2-3.1,1.6-3.1,1.6L181.9,86z"/>
<path class="st18" d="M160.8,125.1l-0.1,1c0,0,4.4,2.9,6.4,2.5c2-0.4,2-0.8,1.9-0.9c0-0.1,0-0.6-0.3-0.9c-0.3-0.3-4.3-2.9-4.3-2.9
	L160.8,125.1z"/>
<path class="st18" d="M168.6,122.1l0,1c0,0,4.8,2.2,6.7,1.4c1.9-0.7,1.8-1.1,1.7-1.2c-0.1-0.1-0.1-0.6-0.4-0.8
	c-0.4-0.2-5.2-1.6-5.2-1.6L168.6,122.1z"/>
<path class="st15" d="M173.3,97.4l-1,22.6l0.5,1.2c0,0-1.7,2.4-4.4,1.2c-0.4-0.2-0.2-1.9-0.2-1.9l-1.4-21.8L173.3,97.4z"/>
<path class="st22" d="M169,97.1c0,0-2.7,14.8-3.1,19.3c-0.4,4.5-0.9,6.7-0.8,7c0.2,0.3,0.9,1.2,0.6,1.3c-0.2,0.2-2.2,1.3-3.1,1.3
	s-2.1-1-2.1-1l1.8-27.2L169,97.1z"/>
<path class="st23" d="M172.8,79.6l4.2,6l5.9-2.2c0,0-0.7,3.1,0.9,3.3c1.6,0.3-8,3.4-8,3.4l-5.3-5.9
	C170.7,84.2,169.5,77.8,172.8,79.6z"/>
<path class="st24" d="M161.2,81.7l3.7-2.7c0,0,3.6,2.1,3.8,2.3c0.2,0.2,0.1-1.6,0.1-2s3.8,0,3.8,0s2.3,4.4,1.8,7.2
	c-1.6,7.7-0.2,11.3-1.6,12.4c-1.7,1.3-5.8,2.5-8.2,2c-1.2-0.2-2.1-1.6-2.2-1.9c-0.3-0.5,0.1-3.8-0.3-7.4
	C161.7,87.3,160.9,82.2,161.2,81.7z"/>
<path class="st6" d="M168.7,78.9c0,0,0.3,1.7,0,2.3c0.8,0,1,0.3,1,0.3l-0.1-2.6H168.7z"/>
<path class="st25" d="M161.2,81.7c0,0,1.8,0.6,1.8,2.4s-0.9,4.3-0.9,4.3l-6.4,3.3l-5.2-2.2c0,0,1.4-1.7,1.2-2.6
	c-0.2-0.9,4,1.2,4,1.2L161.2,81.7z"/>
<path class="st21" d="M170.6,72.4c0,0,0.6,2.7,0.3,3.8s-1.3,3-1.7,3.1c-0.4,0.1-2.9-1.4-3-1.9c-0.1-0.5-0.7-1.5-0.7-1.5
	s-1.2-1.7-1-2C164.8,73.6,168.8,70,170.6,72.4z"/>
<path class="st18" d="M169.9,70.3c0,0,2,1,1.7,3c-3.1-1.9-4.8,0.1-4.8,0.1l-0.6,1.4c0,0-1.1-1.5-1.2-0.4s0.9,1.4,0.9,1.4l-0.2,1.6
	c0,0-0.4-0.7-0.7-1.4c-0.1-0.1-0.2,0.7-0.2,0.7s-0.1-1.5-0.2-1.7c-0.1-0.4-0.2-0.7-0.2-0.9c0-0.8-0.1-4.7,3.9-4.2c0.3,0,2,0.1,2,0.1
	S169.7,70.2,169.9,70.3z"/>
<path class="st8" d="M168.7,81.2c0,0-0.6,0.1-0.7,0.7c-0.1,0.6-4.1-2.4-4.1-2.4l1.1-0.8c0,0,0.2,0.4,0.4,0.5L168.7,81.2z"/>
<path class="st26" d="M287.4,155.8c13.1-6.5,34.3-6.5,47.4,0l-23.7,11.9L287.4,155.8z"/>
<path class="st15" d="M334.9,155.8c13.1,6.5,13.1,17.2,0,23.7l-23.7-11.9L334.9,155.8z"/>
<path class="st14" d="M287.4,179.5l23.7-11.9l23.7,11.9C321.8,186.1,300.5,186.1,287.4,179.5z"/>
<polygon class="st15" points="334.9,145.7 334.9,179.5 344.7,168.4 344.7,132.7 "/>
<path class="st22" d="M334.9,122c13.1,6.5,13.1,17.2,0,23.7l-23.7-11.9L287.4,122C300.5,115.5,321.8,115.5,334.9,122z"/>
<polygon class="st14" points="287.4,122 334.9,145.7 334.9,179.5 287.4,155.8 "/>
<rect x="287.4" y="166.2" class="st14" width="47.4" height="13.3"/>
<path class="st15" d="M287.4,166.2l23.7-11.9l23.7,11.9C321.8,172.7,300.5,172.7,287.4,166.2z"/>
<rect x="93.8" y="159" transform="matrix(-1 -1.224647e-16 1.224647e-16 -1 212.4585 328.6224)" class="st15" width="24.9" height="10.7"/>
<path class="st15" d="M97.4,165.3c-4.9,2.4-4.9,6.4,0,8.8c4.9,2.4,12.7,2.4,17.6,0c4.9-2.4,4.9-6.4,0-8.8
	C110.2,162.8,102.3,162.8,97.4,165.3z"/>
<path class="st14" d="M97.4,154.5c-4.9,2.4-4.9,6.4,0,8.8c4.9,2.4,12.7,2.4,17.6,0c4.9-2.4,4.9-6.4,0-8.8
	C110.2,152.1,102.3,152.1,97.4,154.5z"/>
<rect x="58.4" y="147.5" transform="matrix(-1 -1.224647e-16 1.224647e-16 -1 141.79 317.1793)" class="st22" width="24.9" height="22.2"/>
<path class="st22" d="M62.1,165.3c-4.9,2.4-4.9,6.4,0,8.8c4.9,2.4,12.7,2.4,17.6,0c4.9-2.4,4.9-6.4,0-8.8
	C74.8,162.8,67,162.8,62.1,165.3z"/>
<path class="st14" d="M62.1,143.1c-4.9,2.4-4.9,6.4,0,8.8c4.9,2.4,12.7,2.4,17.6,0c4.9-2.4,4.9-6.4,0-8.8
	C74.8,140.7,67,140.7,62.1,143.1z"/>
<rect x="20.5" y="129.8" transform="matrix(-1 -1.224647e-16 1.224647e-16 -1 65.8176 299.5009)" class="st14" width="24.9" height="39.8"/>
<path class="st14" d="M24.1,165.3c-4.9,2.4-4.9,6.4,0,8.8c4.9,2.4,12.7,2.4,17.6,0c4.9-2.4,4.9-6.4,0-8.8
	C36.8,162.8,29,162.8,24.1,165.3z"/>
<path class="st9" d="M24.1,125.4c-4.9,2.4-4.9,6.4,0,8.8c4.9,2.4,12.7,2.4,17.6,0c4.9-2.4,4.9-6.4,0-8.8C36.8,123,29,123,24.1,125.4
	z"/>
</svg>
